<svg width="3130" height="1220" viewBox="0 0 3130 1220" fill="none" xmlns="http://www.w3.org/2000/svg">
<path d="M754.788 1206.07C733.643 1206.07 716.123 1199.13 702.228 1185.25C688.937 1171.37 682.292 1154.77 682.292 1135.46C682.292 1116.14 688.937 1099.55 702.228 1085.66C716.123 1071.78 733.643 1064.84 754.788 1064.84C775.932 1064.84 793.452 1071.78 807.347 1085.66C821.242 1099.55 828.19 1116.14 828.19 1135.46C828.19 1154.77 821.242 1171.37 807.347 1185.25C793.452 1199.13 775.932 1206.07 754.788 1206.07Z" fill="white"/>
<path fill-rule="evenodd" clip-rule="evenodd" d="M692.154 1194.88C676.366 1178.39 668.35 1158.34 668.35 1135.46C668.35 1112.58 676.366 1092.53 692.154 1076.04L692.368 1075.81C709.089 1059.11 730.256 1050.91 754.788 1050.91C779.319 1050.91 800.484 1059.11 817.206 1075.82C833.667 1092.26 842.132 1112.38 842.132 1135.46C842.132 1158.53 833.667 1178.65 817.206 1195.1C800.484 1211.8 779.319 1220 754.788 1220C730.256 1220 709.092 1211.8 692.37 1195.1L692.154 1194.88ZM702.228 1185.25C716.123 1199.13 733.643 1206.07 754.788 1206.07C775.932 1206.07 793.452 1199.13 807.347 1185.25C821.242 1171.37 828.19 1154.77 828.19 1135.46C828.19 1116.14 821.242 1099.55 807.347 1085.66C793.452 1071.78 775.932 1064.84 754.788 1064.84C733.643 1064.84 716.123 1071.78 702.228 1085.66C688.937 1099.55 682.292 1116.14 682.292 1135.46C682.292 1154.77 688.937 1171.37 702.228 1185.25Z" fill="white"/>
<path fill-rule="evenodd" clip-rule="evenodd" d="M755.234 848.281C818.273 848.281 869.376 797.203 869.376 734.194C869.376 671.186 818.273 620.108 755.234 620.108C692.195 620.108 641.092 671.186 641.092 734.194C641.092 797.203 692.195 848.281 755.234 848.281ZM755.234 996.424C900.13 996.424 1017.59 879.02 1017.59 734.194C1017.59 589.369 900.13 471.965 755.234 471.965C610.338 471.965 492.877 589.369 492.877 734.194C492.877 879.02 610.338 996.424 755.234 996.424Z" fill="white"/>
<path d="M1109.53 967.948L1110.43 272.702H1229.99V967.948H1109.53Z" fill="white"/>
<path d="M1396.95 413.924C1375.81 413.924 1358.3 406.983 1344.42 393.102C1331.13 379.222 1324.49 362.625 1324.49 343.313C1324.49 324 1331.13 307.403 1344.42 293.523C1358.3 279.642 1375.81 272.702 1396.95 272.702C1418.08 272.702 1435.59 279.642 1449.48 293.523C1463.37 307.403 1470.31 324 1470.31 343.313C1470.31 362.625 1463.37 379.222 1449.48 393.102C1435.59 406.983 1418.08 413.924 1396.95 413.924ZM1337.17 967.948V488.156H1457.63V967.948H1337.17Z" fill="white"/>
<path d="M1555.59 967.948V488.156H1676.05V556.956H1681.48C1686.31 548.507 1693.86 538.247 1704.12 526.177C1714.39 513.503 1728.58 502.64 1746.69 493.587C1764.8 483.931 1787.75 479.103 1815.52 479.103C1852.36 479.103 1882.55 487.552 1906.09 504.451C1930.25 520.745 1948.06 542.472 1959.53 569.63C1971.61 596.788 1977.64 626.058 1977.64 657.441V967.948H1857.19V673.736C1857.19 647.785 1849.94 625.455 1835.45 606.746C1820.96 588.037 1799.22 578.683 1770.24 578.683C1747.9 578.683 1729.78 584.416 1715.9 595.883C1702.01 606.746 1691.74 620.928 1685.1 638.43C1679.06 655.932 1676.05 674.339 1676.05 693.652V967.948H1555.59Z" fill="white"/>
<path d="M2264.7 977.001C2229.07 977.001 2197.98 970.061 2171.41 956.18C2144.84 941.696 2122.5 922.685 2104.39 899.148C2086.88 875.007 2073.59 848.151 2064.54 818.579C2056.08 789.007 2051.86 758.831 2051.86 728.052C2051.86 697.273 2056.08 667.097 2064.54 637.525C2073.59 607.953 2086.88 581.398 2104.39 557.861C2122.5 533.721 2144.84 514.71 2171.41 500.829C2197.98 486.345 2229.07 479.103 2264.7 479.103C2295.49 479.103 2320.85 484.233 2340.77 494.493C2360.7 504.149 2376.4 515.012 2387.87 527.082C2399.34 538.549 2407.19 547.903 2411.42 555.146H2416.85V275.8H2537.31V967.948H2416.85V900.959H2411.42C2407.19 908.201 2399.34 917.857 2387.87 929.927C2376.4 941.997 2360.7 952.861 2340.77 962.517C2320.85 972.173 2295.49 977.001 2264.7 977.001ZM2296.4 878.327C2323.57 878.327 2346.21 871.085 2364.32 856.6C2382.44 841.512 2396.02 822.502 2405.08 799.568C2414.14 776.635 2418.67 752.796 2418.67 728.052C2418.67 703.308 2414.14 679.469 2405.08 656.536C2396.02 633.602 2382.44 614.893 2364.32 600.409C2346.21 585.321 2323.57 577.777 2296.4 577.777C2269.22 577.777 2246.28 585.321 2227.56 600.409C2209.45 614.893 2195.86 633.602 2186.81 656.536C2177.75 679.469 2173.22 703.308 2173.22 728.052C2173.22 752.796 2177.75 776.635 2186.81 799.568C2195.86 822.502 2209.45 841.512 2227.56 856.6C2246.28 871.085 2269.22 878.327 2296.4 878.327Z" fill="white"/>
<path fill-rule="evenodd" clip-rule="evenodd" d="M1099.67 977.789C1097.06 975.173 1095.59 971.626 1095.59 967.929L1096.5 272.682C1096.51 264.998 1102.75 258.773 1110.43 258.773H1229.99C1237.68 258.773 1243.92 265.009 1243.92 272.701V967.948C1243.92 975.639 1237.68 981.875 1229.99 981.875H1109.53C1105.83 981.875 1102.28 980.405 1099.67 977.789ZM1109.53 967.948H1229.99V272.702H1110.43L1109.53 967.948ZM1334.35 402.728C1318.57 386.24 1310.56 366.189 1310.56 343.312C1310.56 320.434 1318.57 300.383 1334.35 283.895L1334.56 283.671C1351.27 266.967 1372.43 258.773 1396.95 258.773C1421.47 258.773 1442.62 266.97 1459.33 283.674C1475.78 300.118 1484.24 320.238 1484.24 343.312C1484.24 366.385 1475.78 386.505 1459.33 402.95C1442.62 419.654 1421.47 427.85 1396.95 427.85C1372.43 427.85 1351.28 419.654 1334.56 402.95L1334.35 402.728ZM1337.17 981.875C1329.48 981.875 1323.24 975.639 1323.24 967.948V488.155C1323.24 480.463 1329.48 474.228 1337.17 474.228H1457.63C1465.33 474.228 1471.56 480.463 1471.56 488.155V967.948C1471.56 975.639 1465.33 981.875 1457.63 981.875H1337.17ZM1555.59 981.875C1547.89 981.875 1541.65 975.639 1541.65 967.948V488.155C1541.65 480.463 1547.89 474.228 1555.59 474.228H1676.05C1683.74 474.228 1689.98 480.463 1689.98 488.155V521.358C1691.09 520.016 1692.23 518.657 1693.4 517.28C1705.14 502.836 1720.95 490.9 1740.3 481.211C1760.98 470.227 1786.31 465.175 1815.52 465.175C1854.4 465.175 1887.6 474.091 1914.06 493.019C1940.36 510.807 1959.83 534.596 1972.32 564.092C1985.19 593.096 1991.58 624.265 1991.58 657.44V967.948C1991.58 975.639 1985.34 981.875 1977.64 981.875H1857.19C1849.49 981.875 1843.25 975.639 1843.25 967.948V673.735C1843.25 650.553 1836.85 631.3 1824.43 615.271C1813.17 600.736 1795.98 592.609 1770.24 592.609C1750.34 592.609 1735.61 597.673 1724.77 606.619L1724.49 606.853C1712.78 616.012 1704 627.987 1698.21 643.172C1692.74 659.091 1689.98 675.892 1689.98 693.651V967.948C1689.98 975.639 1683.74 981.875 1676.05 981.875H1555.59ZM1685.1 638.43C1691.74 620.928 1702.01 606.746 1715.9 595.883C1729.78 584.416 1747.9 578.683 1770.24 578.683C1799.22 578.683 1820.96 588.037 1835.45 606.746C1849.94 625.455 1857.19 647.785 1857.19 673.736V967.948H1977.64V657.441C1977.64 626.058 1971.61 596.788 1959.53 569.63C1948.06 542.472 1930.25 520.745 1906.09 504.451C1882.55 487.552 1852.36 479.103 1815.52 479.103C1787.75 479.103 1764.8 483.931 1746.69 493.587C1728.58 502.64 1714.39 513.503 1704.12 526.177C1698.63 532.635 1693.92 538.574 1689.98 543.996C1686.56 548.707 1683.73 553.028 1681.48 556.956H1676.05V488.156H1555.59V967.948H1676.05V693.652C1676.05 674.339 1679.06 655.932 1685.1 638.43ZM2164.74 968.406C2136.5 953.012 2112.66 932.74 2093.34 907.639L2093.1 907.325C2074.66 881.895 2060.7 853.641 2051.21 822.655L2051.14 822.405C2042.33 791.587 2037.92 760.123 2037.92 728.051C2037.92 695.979 2042.33 664.516 2051.14 633.698L2051.21 633.447C2060.71 602.435 2074.69 574.434 2093.21 549.55L2093.24 549.504C2112.57 523.748 2136.47 503.389 2164.84 488.544C2193.77 472.8 2227.2 465.175 2264.7 465.175C2296.85 465.175 2324.53 470.502 2347 482.03C2367.83 492.142 2384.96 503.836 2397.85 517.362C2399.61 519.116 2401.3 520.841 2402.92 522.536V275.799C2402.92 268.108 2409.16 261.872 2416.85 261.872H2537.31C2545.01 261.872 2551.25 268.108 2551.25 275.799V967.948C2551.25 975.639 2545.01 981.875 2537.31 981.875H2416.85C2409.16 981.875 2402.92 975.639 2402.92 967.948V934.223C2401.34 935.952 2399.69 937.718 2397.97 939.519C2385.04 953.129 2367.82 964.888 2346.85 975.048C2324.44 985.909 2296.82 990.927 2264.7 990.927C2227.25 990.927 2193.86 983.623 2164.95 968.522L2164.74 968.406ZM2402.92 912.942C2406.57 908.4 2409.41 904.406 2411.42 900.959H2416.85V967.948H2537.31V275.8H2416.85V555.146H2411.42C2409.41 551.698 2406.57 547.771 2402.92 543.365C2398.9 538.517 2393.88 533.09 2387.87 527.082C2376.4 515.012 2360.7 504.149 2340.77 494.493C2320.85 484.233 2295.49 479.103 2264.7 479.103C2229.07 479.103 2197.98 486.345 2171.41 500.829C2144.84 514.71 2122.5 533.721 2104.39 557.861C2086.88 581.398 2073.59 607.953 2064.54 637.525C2056.08 667.097 2051.86 697.273 2051.86 728.052C2051.86 758.831 2056.08 789.007 2064.54 818.579C2073.59 848.151 2086.88 875.007 2104.39 899.148C2122.5 922.685 2144.84 941.696 2171.41 956.18C2197.98 970.061 2229.07 977.001 2264.7 977.001C2295.49 977.001 2320.85 972.173 2340.77 962.517C2360.7 952.861 2376.4 941.997 2387.87 929.927C2393.88 923.603 2398.9 917.941 2402.92 912.942ZM2355.4 611.107C2340.17 598.418 2320.83 591.704 2296.4 591.704C2271.97 591.704 2252.23 598.417 2236.31 611.249L2236.27 611.284C2220.17 624.154 2207.99 640.825 2199.77 661.649C2191.35 682.948 2187.15 705.051 2187.15 728.051C2187.15 751.051 2191.35 773.155 2199.77 794.454C2207.97 815.236 2220.15 832.239 2236.29 845.736C2252.18 857.961 2271.93 864.399 2296.4 864.399C2320.91 864.399 2340.29 857.937 2355.51 845.81C2371.69 832.3 2383.9 815.274 2392.12 794.454C2400.53 773.155 2404.73 751.051 2404.73 728.051C2404.73 705.051 2400.53 682.948 2392.12 661.649C2383.9 640.825 2371.72 624.154 2355.62 611.284L2355.4 611.107ZM2364.32 856.6C2346.21 871.085 2323.57 878.327 2296.4 878.327C2269.22 878.327 2246.28 871.085 2227.56 856.6C2209.45 841.512 2195.86 822.502 2186.81 799.568C2177.75 776.635 2173.22 752.796 2173.22 728.052C2173.22 703.308 2177.75 679.469 2186.81 656.536C2195.86 633.602 2209.45 614.893 2227.56 600.409C2246.28 585.321 2269.22 577.777 2296.4 577.777C2323.57 577.777 2346.21 585.321 2364.32 600.409C2382.44 614.893 2396.02 633.602 2405.08 656.536C2414.14 679.469 2418.67 703.308 2418.67 728.052C2418.67 752.796 2414.14 776.635 2405.08 799.568C2396.02 822.502 2382.44 841.512 2364.32 856.6ZM1344.42 393.102C1358.3 406.983 1375.81 413.924 1396.95 413.924C1418.08 413.924 1435.59 406.983 1449.48 393.102C1463.37 379.222 1470.31 362.625 1470.31 343.313C1470.31 324 1463.37 307.403 1449.48 293.523C1435.59 279.642 1418.08 272.702 1396.95 272.702C1375.81 272.702 1358.3 279.642 1344.42 293.523C1331.13 307.403 1324.49 324 1324.49 343.313C1324.49 362.625 1331.13 379.222 1344.42 393.102ZM1337.17 967.948H1457.63V488.156H1337.17V967.948Z" fill="white"/>
<path fill-rule="evenodd" clip-rule="evenodd" d="M2866.94 839.394C2929.95 839.394 2981.02 788.318 2981.02 725.314C2981.02 662.309 2929.95 611.234 2866.94 611.234C2803.94 611.234 2752.86 662.309 2752.86 725.314C2752.86 788.318 2803.94 839.394 2866.94 839.394ZM2866.94 987.527C3011.76 987.527 3129.16 870.13 3129.16 725.314C3129.16 580.497 3011.76 463.101 2866.94 463.101C2722.13 463.101 2604.73 580.497 2604.73 725.314C2604.73 870.13 2722.13 987.527 2866.94 987.527Z" fill="white"/>
<path d="M193.201 966.496L14.7774 486.704H137.047L257.506 828.895L376.153 486.704H498.423L319.094 966.496H193.201Z" fill="white"/>
<path fill-rule="evenodd" clip-rule="evenodd" d="M193.201 980.423C187.378 980.423 182.169 976.803 180.14 971.348L1.71689 491.555C0.12714 487.28 0.732181 482.498 3.33661 478.753C5.94104 475.008 10.2148 472.775 14.7777 472.775H137.048C142.96 472.775 148.229 476.505 150.192 482.08L257.406 786.65L362.988 482.142C364.932 476.535 370.216 472.775 376.153 472.775H498.423C502.99 472.775 507.267 475.012 509.871 478.763C512.474 482.513 513.074 487.3 511.476 491.577L332.147 971.369C330.112 976.814 324.908 980.423 319.094 980.423H193.201ZM257.506 828.895L137.047 486.704H14.7774L193.201 966.496H319.094L498.423 486.704H376.153L257.506 828.895Z" fill="white"/>
</svg>
