<svg width="1141" height="791" viewBox="0 0 1141 791" fill="none" xmlns="http://www.w3.org/2000/svg">
<path fill-rule="evenodd" clip-rule="evenodd" d="M656.588 513.993L448.604 155.135L235.08 513.993H374.873L446.551 393.806L516.369 513.993H656.588Z" fill="white"/>
<path fill-rule="evenodd" clip-rule="evenodd" d="M623.345 155.137L693.164 275.324L764.842 155.137L904.635 155.137L691.11 513.995L483.126 155.137L623.345 155.137Z" fill="white"/>
<circle cx="838.148" cy="69.4701" r="69.4701" fill="white"/>
<path d="M162.459 626.186H155.807L175.046 573.513H181.596L200.835 626.186H194.183L178.526 581.846H178.116L162.459 626.186ZM164.915 605.61H191.727V611.269H164.915V605.61Z" fill="white"/>
<path d="M235.531 586.681L220.999 626.186H214.859L200.327 586.681H206.876L217.724 618.161H218.133L228.981 586.681H235.531Z" fill="white"/>
<path d="M243.644 626.186V586.681H249.682V626.186H243.644ZM246.714 580.097C245.537 580.097 244.522 579.695 243.67 578.889C242.834 578.083 242.416 577.114 242.416 575.982C242.416 574.851 242.834 573.882 243.67 573.076C244.522 572.27 245.537 571.867 246.714 571.867C247.891 571.867 248.897 572.27 249.733 573.076C250.586 573.882 251.012 574.851 251.012 575.982C251.012 577.114 250.586 578.083 249.733 578.889C248.897 579.695 247.891 580.097 246.714 580.097Z" fill="white"/>
<path d="M317.928 589.973C317.365 588.242 316.623 586.69 315.702 585.318C314.798 583.93 313.715 582.746 312.453 581.769C311.208 580.792 309.792 580.046 308.206 579.532C306.62 579.017 304.88 578.76 302.987 578.76C299.883 578.76 297.06 579.566 294.519 581.178C291.977 582.789 289.956 585.164 288.455 588.302C286.954 591.439 286.204 595.289 286.204 599.849C286.204 604.41 286.963 608.26 288.481 611.397C289.999 614.535 292.054 616.91 294.647 618.521C297.239 620.133 300.156 620.939 303.396 620.939C306.398 620.939 309.042 620.296 311.327 619.01C313.63 617.707 315.421 615.872 316.7 613.506C317.996 611.123 318.645 608.32 318.645 605.096L320.589 605.508H304.829V599.849H324.785V605.508C324.785 609.846 323.864 613.618 322.022 616.824C320.197 620.03 317.672 622.516 314.449 624.282C311.242 626.031 307.558 626.906 303.396 626.906C298.757 626.906 294.681 625.808 291.167 623.614C287.671 621.419 284.942 618.298 282.98 614.252C281.036 610.206 280.064 605.405 280.064 599.849C280.064 595.683 280.618 591.937 281.726 588.61C282.852 585.267 284.438 582.421 286.485 580.072C288.532 577.723 290.954 575.922 293.751 574.671C296.548 573.419 299.627 572.793 302.987 572.793C305.75 572.793 308.325 573.213 310.713 574.054C313.118 574.877 315.259 576.051 317.135 577.577C319.028 579.086 320.606 580.895 321.868 583.004C323.13 585.095 324 587.419 324.478 589.973H317.928Z" fill="white"/>
<path d="M334.977 626.186V586.681H340.81V592.648H341.22C341.936 590.694 343.232 589.108 345.108 587.89C346.985 586.673 349.099 586.064 351.453 586.064C351.897 586.064 352.451 586.073 353.116 586.09C353.781 586.107 354.285 586.133 354.626 586.167V592.34C354.421 592.288 353.952 592.211 353.219 592.108C352.502 591.988 351.743 591.928 350.942 591.928C349.031 591.928 347.326 592.331 345.825 593.137C344.341 593.926 343.164 595.023 342.294 596.429C341.441 597.818 341.015 599.404 341.015 601.187V626.186H334.977Z" fill="white"/>
<path d="M373.491 627.111C371.001 627.111 368.741 626.64 366.711 625.697C364.682 624.737 363.07 623.356 361.876 621.556C360.682 619.739 360.085 617.544 360.085 614.972C360.085 612.709 360.528 610.874 361.415 609.468C362.302 608.045 363.488 606.931 364.972 606.125C366.455 605.319 368.093 604.719 369.884 604.325C371.692 603.913 373.508 603.587 375.333 603.347C377.721 603.039 379.657 602.807 381.141 602.653C382.642 602.481 383.733 602.198 384.416 601.804C385.115 601.41 385.465 600.724 385.465 599.747V599.541C385.465 597.003 384.774 595.031 383.392 593.626C382.028 592.22 379.955 591.517 377.175 591.517C374.293 591.517 372.033 592.151 370.395 593.42C368.758 594.689 367.607 596.043 366.942 597.483L361.211 595.426C362.234 593.025 363.598 591.157 365.304 589.819C367.027 588.465 368.903 587.522 370.933 586.99C372.979 586.441 374.992 586.167 376.97 586.167C378.233 586.167 379.682 586.321 381.32 586.63C382.974 586.921 384.569 587.53 386.104 588.456C387.656 589.382 388.944 590.779 389.967 592.648C390.991 594.517 391.502 597.02 391.502 600.158V626.186H385.465V620.836H385.157C384.748 621.693 384.066 622.611 383.111 623.588C382.156 624.565 380.885 625.397 379.299 626.083C377.712 626.768 375.777 627.111 373.491 627.111ZM374.412 621.659C376.8 621.659 378.813 621.187 380.45 620.244C382.104 619.301 383.349 618.084 384.185 616.592C385.038 615.101 385.465 613.532 385.465 611.886V606.331C385.209 606.639 384.646 606.922 383.776 607.179C382.923 607.419 381.934 607.634 380.808 607.822C379.699 607.994 378.616 608.148 377.559 608.285C376.518 608.405 375.674 608.508 375.026 608.594C373.457 608.8 371.99 609.134 370.626 609.597C369.278 610.043 368.187 610.72 367.351 611.629C366.532 612.52 366.123 613.738 366.123 615.281C366.123 617.39 366.899 618.984 368.451 620.064C370.02 621.127 372.007 621.659 374.412 621.659ZM374.617 581.332L380.859 569.398H387.921L379.938 581.332H374.617Z" fill="white"/>
<path d="M420.166 586.681V591.825H398.983V586.681H420.166ZM405.327 626.186V581.229C405.327 578.966 405.856 577.08 406.914 575.571C407.971 574.062 409.344 572.93 411.033 572.176C412.721 571.422 414.504 571.044 416.38 571.044C417.864 571.044 419.075 571.164 420.013 571.405C420.951 571.645 421.65 571.867 422.111 572.073L420.371 577.32C420.064 577.217 419.638 577.088 419.092 576.934C418.563 576.78 417.864 576.703 416.994 576.703C414.998 576.703 413.557 577.208 412.67 578.22C411.8 579.232 411.365 580.715 411.365 582.669V626.186H405.327Z" fill="white"/>
<path d="M428.772 626.186V586.681H434.81V626.186H428.772ZM431.843 580.097C430.666 580.097 429.651 579.695 428.798 578.889C427.962 578.083 427.544 577.114 427.544 575.982C427.544 574.851 427.962 573.882 428.798 573.076C429.651 572.27 430.666 571.867 431.843 571.867C433.019 571.867 434.026 572.27 434.862 573.076C435.714 573.882 436.141 574.851 436.141 575.982C436.141 577.114 435.714 578.083 434.862 578.889C434.026 579.695 433.019 580.097 431.843 580.097Z" fill="white"/>
<path d="M461.978 627.009C458.294 627.009 455.121 626.134 452.46 624.385C449.8 622.636 447.753 620.227 446.32 617.158C444.887 614.089 444.171 610.583 444.171 606.639C444.171 602.627 444.904 599.086 446.371 596.017C447.855 592.931 449.919 590.522 452.563 588.79C455.223 587.042 458.328 586.167 461.875 586.167C464.638 586.167 467.129 586.681 469.346 587.71C471.563 588.739 473.38 590.179 474.795 592.031C476.211 593.883 477.089 596.043 477.431 598.512H471.393C470.932 596.712 469.909 595.117 468.323 593.728C466.753 592.322 464.638 591.619 461.978 591.619C459.624 591.619 457.56 592.237 455.786 593.471C454.029 594.689 452.656 596.412 451.667 598.641C450.695 600.853 450.209 603.45 450.209 606.433C450.209 609.485 450.686 612.143 451.642 614.406C452.614 616.67 453.978 618.427 455.735 619.679C457.509 620.93 459.59 621.556 461.978 621.556C463.547 621.556 464.971 621.282 466.25 620.733C467.529 620.184 468.612 619.396 469.499 618.367C470.386 617.338 471.017 616.104 471.393 614.663H477.431C477.089 616.995 476.245 619.096 474.898 620.965C473.567 622.816 471.802 624.291 469.602 625.388C467.419 626.468 464.877 627.009 461.978 627.009Z" fill="white"/>
<path d="M497.965 627.111C495.475 627.111 493.215 626.64 491.185 625.697C489.156 624.737 487.544 623.356 486.35 621.556C485.156 619.739 484.559 617.544 484.559 614.972C484.559 612.709 485.003 610.874 485.89 609.468C486.776 608.045 487.962 606.931 489.446 606.125C490.93 605.319 492.567 604.719 494.358 604.325C496.166 603.913 497.982 603.587 499.807 603.347C502.195 603.039 504.131 602.807 505.615 602.653C507.116 602.481 508.207 602.198 508.89 601.804C509.589 601.41 509.939 600.724 509.939 599.747V599.541C509.939 597.003 509.248 595.031 507.866 593.626C506.502 592.22 504.43 591.517 501.649 591.517C498.767 591.517 496.507 592.151 494.869 593.42C493.232 594.689 492.081 596.043 491.416 597.483L485.685 595.426C486.708 593.025 488.073 591.157 489.778 589.819C491.501 588.465 493.377 587.522 495.407 586.99C497.453 586.441 499.466 586.167 501.445 586.167C502.707 586.167 504.157 586.321 505.794 586.63C507.448 586.921 509.043 587.53 510.578 588.456C512.13 589.382 513.418 590.779 514.441 592.648C515.465 594.517 515.976 597.02 515.976 600.158V626.186H509.939V620.836H509.632C509.222 621.693 508.54 622.611 507.585 623.588C506.63 624.565 505.359 625.397 503.773 626.083C502.187 626.768 500.251 627.111 497.965 627.111ZM498.886 621.659C501.274 621.659 503.287 621.187 504.924 620.244C506.579 619.301 507.824 618.084 508.659 616.592C509.512 615.101 509.939 613.532 509.939 611.886V606.331C509.683 606.639 509.12 606.922 508.25 607.179C507.397 607.419 506.408 607.634 505.282 607.822C504.174 607.994 503.091 608.148 502.033 608.285C500.993 608.405 500.148 608.508 499.5 608.594C497.931 608.8 496.464 609.134 495.1 609.597C493.752 610.043 492.661 610.72 491.825 611.629C491.006 612.52 490.597 613.738 490.597 615.281C490.597 617.39 491.373 618.984 492.925 620.064C494.494 621.127 496.481 621.659 498.886 621.659Z" fill="white"/>
<path d="M551.436 641C550.413 641 549.501 640.914 548.699 640.742C547.897 640.588 547.343 640.434 547.036 640.279L548.571 634.93C550.038 635.307 551.334 635.444 552.46 635.341C553.586 635.239 554.583 634.733 555.453 633.824C556.34 632.932 557.15 631.484 557.884 629.478L559.009 626.391L544.478 586.681H551.027L561.875 618.161H562.284L573.132 586.681H579.681L563.001 631.947C562.25 633.987 561.32 635.676 560.212 637.013C559.103 638.368 557.815 639.371 556.349 640.022C554.899 640.674 553.261 641 551.436 641Z" fill="white"/>
<path d="M625.19 626.186H609.02V573.513H625.906C630.989 573.513 635.338 574.568 638.954 576.677C642.57 578.769 645.341 581.778 647.269 585.704C649.196 589.613 650.16 594.294 650.16 599.747C650.16 605.233 649.188 609.957 647.243 613.918C645.299 617.861 642.467 620.896 638.749 623.022C635.031 625.131 630.511 626.186 625.19 626.186ZM615.365 620.527H624.78C629.113 620.527 632.703 619.687 635.551 618.007C638.4 616.327 640.523 613.935 641.922 610.831C643.32 607.728 644.02 604.033 644.02 599.747C644.02 595.494 643.329 591.834 641.947 588.765C640.566 585.678 638.502 583.312 635.756 581.666C633.01 580.003 629.59 579.172 625.497 579.172H615.365V620.527Z" fill="white"/>
<path d="M660.128 626.186V586.681H666.166V626.186H660.128ZM663.198 580.097C662.021 580.097 661.007 579.695 660.154 578.889C659.318 578.083 658.9 577.114 658.9 575.982C658.9 574.851 659.318 573.882 660.154 573.076C661.007 572.27 662.021 571.867 663.198 571.867C664.375 571.867 665.382 572.27 666.217 573.076C667.07 573.882 667.497 574.851 667.497 575.982C667.497 577.114 667.07 578.083 666.217 578.889C665.382 579.695 664.375 580.097 663.198 580.097Z" fill="white"/>
<path d="M705.204 595.529L699.781 597.072C699.44 596.163 698.936 595.28 698.271 594.423C697.623 593.548 696.736 592.828 695.61 592.262C694.485 591.697 693.043 591.414 691.287 591.414C688.882 591.414 686.878 591.971 685.274 593.085C683.688 594.183 682.895 595.58 682.895 597.278C682.895 598.786 683.441 599.978 684.532 600.853C685.624 601.727 687.33 602.456 689.649 603.039L695.482 604.479C698.996 605.336 701.614 606.648 703.337 608.414C705.06 610.163 705.921 612.417 705.921 615.178C705.921 617.441 705.273 619.464 703.976 621.247C702.697 623.031 700.906 624.437 698.604 625.465C696.301 626.494 693.623 627.009 690.57 627.009C686.562 627.009 683.245 626.134 680.618 624.385C677.991 622.636 676.328 620.082 675.629 616.721L681.36 615.281C681.906 617.407 682.938 619.001 684.456 620.064C685.991 621.127 687.995 621.659 690.468 621.659C693.282 621.659 695.517 621.059 697.171 619.859C698.843 618.641 699.678 617.184 699.678 615.486C699.678 614.115 699.201 612.966 698.246 612.04C697.29 611.097 695.824 610.394 693.845 609.931L687.296 608.388C683.697 607.531 681.053 606.202 679.364 604.402C677.693 602.584 676.857 600.312 676.857 597.586C676.857 595.357 677.48 593.385 678.725 591.671C679.987 589.956 681.701 588.61 683.867 587.633C686.05 586.656 688.524 586.167 691.287 586.167C695.175 586.167 698.228 587.024 700.446 588.739C702.68 590.454 704.266 592.717 705.204 595.529Z" fill="white"/>
<path d="M731.63 627.009C727.843 627.009 724.577 626.168 721.831 624.488C719.102 622.791 716.996 620.425 715.512 617.39C714.045 614.338 713.312 610.789 713.312 606.742C713.312 602.696 714.045 599.129 715.512 596.043C716.996 592.94 719.06 590.522 721.703 588.79C724.364 587.042 727.468 586.167 731.016 586.167C733.063 586.167 735.084 586.51 737.079 587.196C739.075 587.882 740.891 588.996 742.529 590.539C744.166 592.065 745.471 594.088 746.443 596.609C747.415 599.129 747.902 602.233 747.902 605.919V608.491H717.61V603.244H741.761C741.761 601.015 741.318 599.026 740.431 597.278C739.561 595.529 738.316 594.148 736.696 593.137C735.092 592.125 733.199 591.619 731.016 591.619C728.611 591.619 726.53 592.22 724.773 593.42C723.034 594.603 721.695 596.146 720.757 598.049C719.819 599.952 719.35 601.993 719.35 604.17V607.668C719.35 610.651 719.861 613.18 720.885 615.255C721.925 617.313 723.366 618.881 725.208 619.962C727.05 621.025 729.191 621.556 731.63 621.556C733.216 621.556 734.649 621.333 735.928 620.887C737.224 620.425 738.342 619.739 739.28 618.83C740.218 617.904 740.943 616.755 741.454 615.384L747.288 617.03C746.674 619.019 745.642 620.767 744.192 622.276C742.742 623.768 740.951 624.934 738.819 625.774C736.687 626.597 734.291 627.009 731.63 627.009Z" fill="white"/>
<path d="M763.268 602.421V626.186H757.23V586.681H763.063V592.854H763.575C764.496 590.848 765.895 589.236 767.771 588.019C769.647 586.784 772.069 586.167 775.037 586.167C777.698 586.167 780.026 586.716 782.021 587.813C784.017 588.893 785.569 590.539 786.678 592.751C787.786 594.946 788.341 597.723 788.341 601.084V626.186H782.303V601.495C782.303 598.392 781.501 595.975 779.898 594.243C778.295 592.494 776.094 591.619 773.297 591.619C771.37 591.619 769.647 592.04 768.129 592.88C766.628 593.72 765.443 594.946 764.573 596.557C763.703 598.169 763.268 600.124 763.268 602.421ZM764.906 581.949L760.198 581.743C760.198 579.12 760.94 576.977 762.424 575.314C763.925 573.633 765.775 572.793 767.976 572.793C768.948 572.793 769.809 572.965 770.56 573.308C771.31 573.633 772.026 574.011 772.709 574.439C773.391 574.868 774.09 575.254 774.807 575.597C775.54 575.922 776.367 576.085 777.288 576.085C778.26 576.085 779.079 575.708 779.744 574.954C780.427 574.182 780.768 573.256 780.768 572.176L785.373 572.588C785.373 575.262 784.622 577.388 783.121 578.966C781.638 580.543 779.796 581.332 777.595 581.332C776.418 581.332 775.446 581.169 774.679 580.843C773.911 580.5 773.229 580.115 772.632 579.686C772.035 579.257 771.404 578.88 770.739 578.554C770.073 578.211 769.255 578.04 768.283 578.04C767.31 578.04 766.5 578.426 765.852 579.197C765.221 579.952 764.906 580.869 764.906 581.949Z" fill="white"/>
<path d="M815.483 627.009C811.935 627.009 808.822 626.16 806.144 624.462C803.483 622.765 801.403 620.39 799.902 617.338C798.418 614.286 797.676 610.72 797.676 606.639C797.676 602.524 798.418 598.932 799.902 595.863C801.403 592.794 803.483 590.411 806.144 588.713C808.822 587.016 811.935 586.167 815.483 586.167C819.03 586.167 822.134 587.016 824.795 588.713C827.473 590.411 829.554 592.794 831.038 595.863C832.539 598.932 833.289 602.524 833.289 606.639C833.289 610.72 832.539 614.286 831.038 617.338C829.554 620.39 827.473 622.765 824.795 624.462C822.134 626.16 819.03 627.009 815.483 627.009ZM815.483 621.556C818.177 621.556 820.395 620.862 822.134 619.473C823.874 618.084 825.162 616.258 825.998 613.995C826.833 611.732 827.251 609.28 827.251 606.639C827.251 603.999 826.833 601.538 825.998 599.258C825.162 596.978 823.874 595.134 822.134 593.728C820.395 592.322 818.177 591.619 815.483 591.619C812.788 591.619 810.57 592.322 808.831 593.728C807.091 595.134 805.803 596.978 804.967 599.258C804.132 601.538 803.714 603.999 803.714 606.639C803.714 609.28 804.132 611.732 804.967 613.995C805.803 616.258 807.091 618.084 808.831 619.473C810.57 620.862 812.788 621.556 815.483 621.556Z" fill="white"/>
<path d="M892.53 586.681C892.223 584.075 890.977 582.052 888.794 580.612C886.611 579.172 883.933 578.451 880.761 578.451C878.441 578.451 876.412 578.829 874.672 579.583C872.949 580.337 871.602 581.375 870.63 582.695C869.674 584.015 869.197 585.516 869.197 587.196C869.197 588.602 869.529 589.811 870.195 590.822C870.877 591.817 871.747 592.648 872.804 593.317C873.862 593.968 874.97 594.509 876.13 594.937C877.29 595.349 878.356 595.683 879.328 595.94L884.65 597.38C886.014 597.741 887.532 598.238 889.204 598.872C890.892 599.507 892.504 600.372 894.039 601.47C895.591 602.55 896.87 603.939 897.877 605.636C898.883 607.334 899.386 609.417 899.386 611.886C899.386 614.732 898.644 617.304 897.16 619.601C895.694 621.899 893.544 623.725 890.713 625.08C887.899 626.434 884.479 627.111 880.454 627.111C876.702 627.111 873.452 626.503 870.706 625.285C867.977 624.068 865.828 622.371 864.259 620.193C862.707 618.016 861.829 615.486 861.624 612.606H868.173C868.344 614.595 869.009 616.241 870.169 617.544C871.346 618.83 872.83 619.79 874.621 620.424C876.429 621.042 878.373 621.35 880.454 621.35C882.876 621.35 885.05 620.956 886.978 620.167C888.905 619.361 890.432 618.247 891.557 616.824C892.683 615.384 893.246 613.703 893.246 611.783C893.246 610.034 892.76 608.611 891.788 607.514C890.815 606.416 889.536 605.525 887.95 604.839C886.364 604.153 884.65 603.553 882.808 603.039L876.36 601.187C872.267 600.004 869.026 598.315 866.638 596.12C864.251 593.926 863.057 591.054 863.057 587.504C863.057 584.555 863.85 581.983 865.436 579.789C867.039 577.577 869.188 575.862 871.883 574.645C874.595 573.411 877.623 572.793 880.966 572.793C884.343 572.793 887.345 573.402 889.971 574.619C892.598 575.82 894.679 577.466 896.214 579.557C897.766 581.649 898.584 584.024 898.67 586.681H892.53Z" fill="white"/>
<path d="M909.962 626.186V573.513H927.666C931.76 573.513 935.12 574.216 937.746 575.622C940.373 577.011 942.318 578.923 943.58 581.358C944.842 583.792 945.473 586.561 945.473 589.665C945.473 592.768 944.842 595.52 943.58 597.921C942.318 600.321 940.382 602.207 937.772 603.579C935.162 604.933 931.828 605.61 927.769 605.61H913.442V599.849H927.564C930.361 599.849 932.613 599.438 934.318 598.615C936.041 597.792 937.286 596.626 938.053 595.117C938.838 593.591 939.231 591.774 939.231 589.665C939.231 587.556 938.838 585.713 938.053 584.135C937.269 582.558 936.015 581.341 934.293 580.483C932.57 579.609 930.293 579.172 927.462 579.172H916.307V626.186H909.962ZM934.625 602.524L947.52 626.186H940.151L927.462 602.524H934.625Z" fill="white"/>
<path d="M956.19 626.186V573.513H962.535V620.527H986.891V626.186H956.19Z" fill="white"/>
</svg>
