<svg id="SvgjsSvg1001" width="288" height="288" xmlns="http://www.w3.org/2000/svg" version="1.1" xmlns:xlink="http://www.w3.org/1999/xlink" xmlns:svgjs="http://svgjs.com/svgjs"><defs id="SvgjsDefs1002"></defs><g id="SvgjsG1008"><svg xmlns="http://www.w3.org/2000/svg" id="Layer_1" x="0" y="0" version="1.1" viewBox="0 0 29 29" xml:space="preserve" width="288" height="288"><path d="M25 4H4a2 2 0 0 0-2 2v17a2 2 0 0 0 2 2h21a2 2 0 0 0 2-2V6a2 2 0 0 0-2-2zm-7.495 11.207-4.596 4.597a.997.997 0 0 1-1.414 0 .999.999 0 0 1 0-1.414l3.889-3.89-3.889-3.889a.999.999 0 1 1 1.414-1.414l4.596 4.596a.999.999 0 0 1 0 1.414z" fill="#ffffff" class="color000 svgShape"></path></svg></g></svg>