<svg width="250" height="250" viewBox="0 0 250 250" fill="none" xmlns="http://www.w3.org/2000/svg">
<path d="M180.481 124.66L193.272 110.77C211.321 92.3287 211.008 69.1004 194.45 52.3855C177.892 35.6706 154.506 35.5137 136.065 53.5626L122.175 66.3539C129.787 63.8427 137.399 66.1969 145.09 73.8873L173.733 102.53C181.501 110.221 182.992 117.048 180.481 124.66ZM112.994 161.386C120.998 169.468 128.689 169.625 136.928 161.386L164.63 133.684C172.869 125.445 172.712 117.833 164.708 109.828L137.007 82.1271C129.002 74.1228 121.39 73.9658 113.151 82.2056L85.371 109.907C77.2098 118.147 77.3667 125.837 85.371 133.841L112.994 161.386ZM119.743 110.378C116.682 107.317 116.682 102.53 119.586 99.6267C122.646 96.5663 127.355 96.5663 130.415 99.6267C133.319 102.53 133.475 107.239 130.258 110.378C127.433 113.203 122.568 113.281 119.743 110.378ZM102.792 127.25C99.7317 124.189 99.7317 119.481 102.792 116.42C105.774 113.36 110.483 113.438 113.543 116.577C116.368 119.402 116.525 124.189 113.543 127.093C110.404 130.31 105.696 130.153 102.792 127.25ZM147.208 127.25C144.305 130.153 139.518 130.153 136.457 127.093C133.554 124.268 133.554 119.402 136.457 116.577C139.596 113.36 144.305 113.438 147.208 116.42C150.269 119.481 150.269 124.189 147.208 127.25ZM55.551 191.284C72.0305 208.077 95.4942 208.234 113.935 190.029L127.668 177.237C120.135 179.748 112.758 177.63 105.068 169.939L76.425 141.296C68.6561 133.527 67.0866 126.7 69.5978 119.088L56.7281 132.9C38.6007 151.262 38.993 174.491 55.551 191.284ZM119.586 144.043C116.682 141.139 116.525 136.431 119.743 133.292C122.646 130.31 127.433 130.388 130.258 133.292C133.319 136.352 133.475 141.139 130.415 144.043C127.276 147.103 122.646 147.103 119.586 144.043Z" fill="#6A37FC"/>
</svg>
