<svg width="2192" height="1250" viewBox="0 0 2192 1250" fill="none" xmlns="http://www.w3.org/2000/svg">
<path d="M70.4512 777.068H165.617C206.892 777.068 238.031 783.045 259.033 794.999C280.035 806.953 290.536 827.581 290.536 856.882C290.536 869.127 288.348 880.207 283.973 890.119C279.743 899.887 273.545 907.977 265.377 914.391C257.21 920.66 247.146 924.888 235.187 927.074V929.261C247.584 931.448 258.595 935.311 268.221 940.85C277.993 946.39 285.65 954.335 291.192 964.685C296.88 975.035 299.724 988.447 299.724 1004.92C299.724 1024.45 295.057 1041.07 285.723 1054.78C276.534 1068.48 263.335 1078.9 246.125 1086.05C229.061 1093.19 208.788 1096.76 185.307 1096.76H70.4512V777.068ZM122.956 908.925H173.274C197.047 908.925 213.528 905.062 222.717 897.335C231.905 889.609 236.499 878.311 236.499 863.442C236.499 848.281 231.03 837.348 220.091 830.642C209.299 823.936 192.088 820.583 168.461 820.583H122.956V908.925ZM122.956 951.346V1052.81H178.306C202.808 1052.81 220.018 1048.07 229.936 1038.59C239.854 1029.12 244.813 1016.29 244.813 1000.11C244.813 990.196 242.552 981.595 238.031 974.306C233.655 967.017 226.436 961.405 216.372 957.469C206.309 953.387 192.745 951.346 175.681 951.346H122.956Z" fill="white"/>
<path d="M456.386 850.103C487.014 850.103 510.131 856.882 525.737 870.439C541.488 883.997 549.364 905.135 549.364 933.853V1096.76H512.829L502.984 1062.43H501.234C494.379 1071.18 487.306 1078.39 480.013 1084.08C472.721 1089.76 464.262 1093.99 454.636 1096.76C445.156 1099.68 433.561 1101.13 419.851 1101.13C405.412 1101.13 392.505 1098.51 381.128 1093.26C369.752 1087.87 360.783 1079.7 354.219 1068.77C347.656 1057.84 344.375 1043.99 344.375 1027.22C344.375 1002.3 353.636 983.563 372.159 971.026C390.827 958.489 418.976 951.565 456.605 950.253L498.609 948.722V936.04C498.609 919.275 494.671 907.321 486.795 900.178C479.065 893.035 468.127 889.463 453.98 889.463C441.874 889.463 430.133 891.213 418.757 894.711C407.381 898.21 396.297 902.511 385.504 907.613L368.877 871.314C380.691 865.046 394.109 859.943 409.131 856.007C424.299 852.071 440.051 850.103 456.386 850.103ZM498.39 981.085L467.106 982.178C441.437 983.053 423.424 987.426 413.069 995.298C402.714 1003.17 397.536 1013.96 397.536 1027.66C397.536 1039.61 401.11 1048.36 408.256 1053.9C415.403 1059.29 424.81 1061.99 436.478 1061.99C454.271 1061.99 469.002 1056.96 480.67 1046.9C492.483 1036.7 498.39 1021.76 498.39 1002.08V981.085Z" fill="white"/>
<path d="M748.468 850.103C775.741 850.103 796.962 857.174 812.13 871.314C827.444 885.309 835.101 907.831 835.101 938.882V1096.76H783.69V948.504C783.69 929.698 779.825 915.631 772.095 906.301C764.365 896.825 752.406 892.087 736.216 892.087C712.735 892.087 696.4 899.303 687.212 913.735C678.169 928.168 673.648 949.087 673.648 976.493V1096.76H622.236V854.695H662.271L669.491 887.495H672.335C677.586 879.04 684.076 872.116 691.806 866.722C699.682 861.182 708.432 857.028 718.058 854.258C727.83 851.488 737.967 850.103 748.468 850.103Z" fill="white"/>
<path d="M959.385 756.514V920.952C959.385 928.386 959.093 936.55 958.51 945.442C957.926 954.189 957.343 962.425 956.76 970.152H957.853C961.646 965.049 966.167 959.072 971.417 952.221C976.814 945.369 981.918 939.392 986.731 934.29L1060.68 854.695H1119.74L1022.83 958.781L1126.09 1096.76H1065.71L988.263 990.488L959.385 1015.2V1096.76H907.973V756.514H959.385Z" fill="white"/>
<path d="M1328.47 1027.66C1328.47 1043.55 1324.61 1056.96 1316.88 1067.9C1309.15 1078.83 1297.85 1087.14 1282.97 1092.82C1268.24 1098.36 1250.15 1101.13 1228.71 1101.13C1211.8 1101.13 1197.21 1099.89 1184.96 1097.42C1172.85 1095.08 1161.41 1091.44 1150.61 1086.48V1042.09C1162.14 1047.49 1175.04 1052.15 1189.34 1056.09C1203.77 1060.02 1217.41 1061.99 1230.25 1061.99C1247.16 1061.99 1259.34 1059.37 1266.78 1054.12C1274.22 1048.73 1277.94 1041.58 1277.94 1032.69C1277.94 1027.44 1276.41 1022.78 1273.34 1018.7C1270.43 1014.47 1264.88 1010.17 1256.72 1005.79C1248.7 1001.28 1236.88 995.881 1221.28 989.613C1205.96 983.49 1193.05 977.368 1182.55 971.245C1172.05 965.122 1164.1 957.76 1158.71 949.16C1153.31 940.413 1150.61 929.261 1150.61 915.703C1150.61 894.274 1159.07 878.02 1175.99 866.941C1193.05 855.716 1215.59 850.103 1243.59 850.103C1258.47 850.103 1272.47 851.634 1285.6 854.695C1298.87 857.611 1311.85 861.911 1324.54 867.597L1308.35 906.301C1297.41 901.49 1286.4 897.554 1275.31 894.493C1264.37 891.286 1253.22 889.682 1241.84 889.682C1228.57 889.682 1218.43 891.723 1211.43 895.805C1204.58 899.887 1201.15 905.718 1201.15 913.298C1201.15 918.983 1202.83 923.794 1206.18 927.73C1209.54 931.666 1215.3 935.602 1223.46 939.538C1231.78 943.474 1243.3 948.358 1258.03 954.189C1272.47 959.728 1284.94 965.56 1295.44 971.682C1306.09 977.659 1314.25 985.021 1319.94 993.768C1325.63 1002.51 1328.47 1013.81 1328.47 1027.66Z" fill="white"/>
<path d="M1436.35 756.514V842.013C1436.35 850.905 1436.06 859.579 1435.48 868.034C1435.04 876.489 1434.53 883.049 1433.94 887.714H1436.79C1441.89 879.259 1448.16 872.334 1455.6 866.941C1463.04 861.401 1471.35 857.246 1480.54 854.477C1489.88 851.707 1499.79 850.322 1510.3 850.322C1528.82 850.322 1544.57 853.456 1557.55 859.725C1570.53 865.847 1580.45 875.396 1587.3 888.37C1594.3 901.344 1597.8 918.182 1597.8 938.882V1096.76H1546.39V948.504C1546.39 929.698 1542.53 915.631 1534.8 906.301C1527.07 896.825 1515.11 892.087 1498.92 892.087C1483.31 892.087 1470.92 895.367 1461.73 901.927C1452.69 908.342 1446.2 917.89 1442.26 930.573C1438.32 943.11 1436.35 958.416 1436.35 976.493V1096.76H1384.94V756.514H1436.35Z" fill="white"/>
<path d="M1722.09 854.695V1096.76H1670.68V854.695H1722.09ZM1696.71 761.98C1704.59 761.98 1711.37 764.094 1717.06 768.322C1722.89 772.549 1725.81 779.838 1725.81 790.188C1725.81 800.393 1722.89 807.682 1717.06 812.055C1711.37 816.283 1704.59 818.397 1696.71 818.397C1688.54 818.397 1681.61 816.283 1675.93 812.055C1670.38 807.682 1667.61 800.393 1667.61 790.188C1667.61 779.838 1670.38 772.549 1675.93 768.322C1681.61 764.094 1688.54 761.98 1696.71 761.98Z" fill="white"/>
<path d="M1917.69 893.837H1858.84V1096.76H1807.43V893.837H1767.83V869.127L1807.43 854.039V837.202C1807.43 816.647 1810.64 800.32 1817.06 788.22C1823.62 776.121 1832.95 767.447 1845.06 762.199C1857.31 756.805 1871.89 754.108 1888.81 754.108C1899.9 754.108 1910.03 755.056 1919.22 756.951C1928.41 758.7 1936.14 760.741 1942.41 763.074L1929.07 801.997C1924.11 800.393 1918.57 798.935 1912.44 797.623C1906.31 796.165 1899.75 795.437 1892.75 795.437C1881.08 795.437 1872.48 799.081 1866.94 806.37C1861.54 813.659 1858.84 824.301 1858.84 838.295V854.695H1917.69V893.837Z" fill="white"/>
<path d="M2050.07 1059.59C2056.78 1059.59 2063.41 1059 2069.98 1057.84C2076.54 1056.53 2082.52 1054.99 2087.92 1053.25V1092.17C2082.23 1094.65 2074.86 1096.76 2065.82 1098.51C2056.78 1100.26 2047.37 1101.13 2037.6 1101.13C2023.89 1101.13 2011.56 1098.87 2000.63 1094.35C1989.69 1089.69 1981.01 1081.74 1974.59 1070.52C1968.18 1059.29 1964.97 1043.77 1964.97 1023.94V893.837H1931.93V870.877L1967.37 852.727L1984.22 800.903H2016.6V854.695H2085.95V893.837H2016.6V1023.29C2016.6 1035.53 2019.66 1044.64 2025.79 1050.62C2031.91 1056.6 2040.01 1059.59 2050.07 1059.59Z" fill="white"/>
<path d="M1041.62 2.54151C1103.38 -4.47387 1166.97 6.10669 1222.86 33.1331C1289.56 65.1048 1344.99 119.963 1377.54 186.321C1411.23 254.29 1420.2 333.989 1403.18 407.823C1388 474.757 1351.09 536.4 1299.68 581.942C1249.31 626.91 1184.91 655.891 1117.87 663.481C1041.39 672.682 961.926 654.281 897.526 611.959C822.546 563.311 768.495 483.497 752.28 395.517C739.63 329.274 747.565 259.12 775.165 197.592C799.89 142.044 840.141 93.6263 890.166 59.2395C935.016 28.1878 987.457 8.52182 1041.62 2.54151ZM1049.79 55.2143C978.947 62.2297 911.671 97.9965 865.901 152.394C827.721 197.017 804.375 254.06 800.35 312.713C795.98 370.331 810.126 429.214 840.371 478.437C867.396 522.714 906.956 559.286 953.186 582.632C1018.74 615.984 1097.74 621.619 1167.43 598.158C1230.45 577.342 1285.19 533.065 1319 476.022C1357.99 411.388 1368.45 330.769 1348.1 258.2C1329.01 188.621 1281.74 127.553 1219.3 91.5562C1168.7 61.7696 1108.32 49.004 1049.79 55.2143Z" fill="white"/>
<path d="M954.914 121.807C995.624 121.807 1036.22 121.692 1076.93 121.807C1105.91 121.922 1134.55 133.308 1156.05 152.629C1178.59 172.64 1193.31 201.391 1195.84 231.523C1198.95 262.804 1188.83 295.121 1168.59 319.157C1146.85 345.609 1113.5 362.285 1079.23 362.975C1061.06 363.205 1042.89 362.975 1024.6 363.09C1024.6 420.363 1024.6 477.636 1024.6 534.794C1001.37 534.794 978.144 534.794 955.029 534.794C954.914 397.247 954.914 259.469 954.914 121.807ZM1024.49 191.386C1024.49 225.427 1024.49 259.469 1024.49 293.511C1042.54 293.396 1060.71 293.741 1078.77 293.396C1104.99 292.246 1127.42 268.095 1126.61 241.873C1126.73 216.227 1104.76 192.881 1079.11 191.616C1060.94 191.156 1042.77 191.501 1024.49 191.386Z" fill="white"/>
<path d="M1141.09 367.341C1162.6 355.955 1180.88 338.934 1194.22 318.578C1216.76 336.059 1233.21 361.59 1238.84 389.652C1244.36 415.528 1240.8 443.015 1229.3 466.821C1213.54 466.936 1197.79 466.706 1182.03 466.936C1177.43 466.476 1172.95 470.156 1173.29 474.871C1172.95 490.857 1173.29 506.958 1173.18 522.944C1157.08 530.649 1139.37 534.905 1121.43 534.905C1095.78 535.02 1070.25 534.905 1044.72 534.905C1044.61 511.673 1044.72 488.442 1044.72 465.326C1070.94 465.211 1097.16 465.441 1123.38 465.211C1147.42 464.406 1168.81 444.28 1171.45 420.359C1174.67 398.392 1161.1 376.311 1141.09 367.341Z" fill="white"/>
<path d="M1185.37 478.132V512.351H1219.59V478.132H1185.37Z" fill="white"/>
<path d="M1185.37 542.107V524.253H1203.23V542.107H1185.37Z" fill="white"/>
<path d="M1232.24 478.132V495.985H1250.09V478.132H1232.24Z" fill="white"/>
</svg>
