<svg width="14610" height="2241" viewBox="0 0 14610 2241" fill="none" xmlns="http://www.w3.org/2000/svg">
<path fill-rule="evenodd" clip-rule="evenodd" d="M0.189453 1120.5V2241L656.783 2238.46C1216 2236.29 1321.04 2234.42 1365 2225.9C1598.17 2180.68 1767.98 2097.93 1939.32 1945.99C2114.05 1791.06 2245.97 1548.54 2288.42 1304.2C2302.73 1221.86 2304.64 1030.59 2291.94 952.323C2253.17 713.274 2154.87 513.815 1992.63 344.967C1814.27 159.325 1599.92 47.1771 1352.03 9.7944C1297.92 1.63993 1184.12 0.0710207 643.877 0.0387386L0.189453 0V1120.5ZM14041.9 548.796V755.402H13938.7H13835.4V887.759V1020.12H13938.7H14041.9V1443.01V1865.91H14206.5H14371V1443.01V1020.12H14490.4H14609.8V887.759V755.402H14490.4H14371V548.796V342.191H14206.5H14041.9V548.796ZM3902.07 450.336C3899.75 506.261 3897.84 633.104 3897.83 732.198L3897.81 912.371L3866.14 879.333C3754.46 762.782 3581.87 727.4 3407.38 785.289C3273.3 829.767 3150.51 946.796 3101.79 1076.52C3066.47 1170.59 3062.42 1196.14 3062.65 1323.57C3062.91 1465.62 3071.76 1507.23 3124.41 1614.11C3153.45 1673.05 3165.46 1689.52 3216.45 1740.31C3317.5 1840.96 3426.58 1886.12 3571.93 1887.47C3629.86 1888 3659.12 1885.23 3688.09 1876.46C3751.8 1857.18 3812.45 1821.46 3856.79 1777.1L3897.81 1736.06V1800.98V1865.91H4062.36H4226.91V1107.28V348.647H4066.6H3906.28L3902.07 450.336ZM4504.39 506.83V665.012H4659.26H4814.14V506.83V348.647H4659.26H4504.39V506.83ZM7505.04 1107.28V1865.91H7682.5H7859.96V1107.28V348.647H7682.5H7505.04V1107.28ZM1768.86 746.667C1843.63 876.17 1863.23 914.818 1857 920.409C1835.14 940.017 1527.73 1111.24 1523.06 1106.4C1520.09 1103.33 1475.17 1026.94 1423.22 936.647C1353.19 814.911 1330.95 771.182 1337.21 767.488C1459.38 695.39 1668.83 576.236 1670.49 577.889C1671.71 579.116 1715.98 655.063 1768.86 746.667ZM6637.91 759.521C6466.08 796.387 6330.32 899.374 6256.5 1048.85C6214 1134.92 6199.27 1203.14 6199.27 1313.88C6199.27 1427.74 6213.82 1492.51 6260.92 1588.28C6290.68 1648.77 6301.26 1663.03 6359.21 1720.64C6433.17 1794.16 6487.57 1828.34 6579.04 1858.77C6656.67 1884.6 6721.21 1891.73 6877.32 1891.73H7008.16V1746.46V1601.19H6880.46C6747.86 1601.19 6709.47 1595.89 6649.29 1569.25C6598.59 1546.82 6550.8 1494.05 6536.74 1445L6531.54 1426.87H6930.37H7329.2L7333.23 1406.69C7340.98 1367.95 7337.3 1239.25 7327.02 1189.33C7304.39 1079.46 7251.64 981.08 7174.73 905.301C7095.11 826.862 7011.85 782.881 6896.43 758.307C6839.52 746.195 6696.9 746.86 6637.91 759.521ZM8503.85 758.353C8338.37 794.605 8211.41 892.311 8136.75 1040.87C8058.48 1196.6 8055.92 1413.98 8130.41 1578.36C8181.82 1691.79 8279.08 1789.17 8392.26 1840.52C8478.83 1879.8 8519.78 1886.52 8694.01 1890.05L8853.72 1893.3V1747.8V1602.3L8716.6 1599.83C8564.62 1597.09 8539.97 1591.71 8474.68 1547C8443.58 1525.71 8406.23 1473.36 8400.41 1442.91L8397.35 1426.87H8776.49C9131.55 1426.87 9155.92 1426.15 9160.16 1415.57C9162.65 1409.35 9166.15 1375.22 9167.95 1339.71C9182.28 1055.57 9006.03 812.315 8747.01 758.785C8689.78 746.957 8556.94 746.725 8503.85 758.353ZM9932.05 758.753C9861.79 778.484 9791.04 828.87 9756.03 884.092L9737.79 912.887V834.145V755.402H9573.23H9408.68V1310.65V1865.91H9572.9H9737.13L9739.3 1541.47C9741.73 1178.47 9741.91 1176.92 9787.29 1123.87C9821.07 1084.39 9864.77 1065.41 9921.7 1065.52C9995.57 1065.65 10048.6 1101.05 10081 1171.84C10095.6 1203.62 10095.9 1209.02 10100 1517.26C10102.3 1689.49 10104.5 1838.39 10104.9 1848.15L10105.6 1865.91H10269.9H10434.3L10436.1 1531.79L10437.9 1197.67L10453.4 1163.53C10471.3 1123.7 10516.1 1081.34 10550.1 1071.88C10562.9 1068.31 10590.9 1065.39 10612.2 1065.41C10689.9 1065.47 10752.4 1113.97 10776.9 1193.24C10788.8 1231.98 10789.6 1254.06 10789.6 1550.22V1865.91L10955.8 1865.91H11122L11118.4 1489.83C11115.1 1128.13 11114.4 1111.76 11100.7 1062.08C11044.2 856.523 10907.4 748.784 10703.1 749.023C10629.5 749.107 10586.2 758.682 10526.5 788.097C10479.2 811.386 10419.5 867.014 10393 912.358L10374.9 943.413L10356.9 911.854C10347 894.499 10326 866.995 10310.2 850.731C10245.1 783.726 10168.5 754.711 10047.5 751.27C9989.12 749.604 9957.26 751.67 9932.05 758.753ZM11764 753.02C11632.1 777.916 11528.9 829.244 11447.8 910.356C11342.7 1015.55 11291.4 1148.06 11291.5 1313.88C11291.6 1366.3 11295.5 1415.38 11301.9 1444.58C11344.2 1637.78 11472.9 1787.14 11654.1 1853.3C11733 1882.1 11810.5 1891.65 11965.7 1891.69L12099.6 1891.73V1746.46V1601.19H11971.9C11832.9 1601.19 11795 1595.34 11733.1 1564.28C11694.7 1545.02 11651.5 1501.73 11637.7 1468.66C11618.8 1423.36 11586.3 1426.87 12024.9 1426.87H12421.2L12424.7 1409.12C12434.3 1360.07 12435.5 1314.13 12428.8 1253.1C12402.2 1012.41 12258 836.062 12031.6 767.495C11995.7 756.629 11965.8 753.491 11883.4 751.935C11826.6 750.857 11772.9 751.347 11764 753.02ZM13147.3 767.398C13084 789.466 13023.2 830.548 12985.6 876.699L12957.8 910.841V833.118V755.402H12790.1H12622.3V1310.65V1865.91H12786.8H12951.4L12951.4 1567.3C12951.5 1252.28 12954.7 1206.44 12980 1156.59C12998 1121.26 13015.2 1104.51 13054.6 1083.81C13094.1 1063.1 13192.4 1061.66 13231.9 1081.24C13270.1 1100.21 13303 1136.73 13320 1179.17C13335.1 1216.9 13335.2 1218.22 13337.2 1541.47L13339.3 1865.91H13503.8H13668.3L13666.2 1473.68C13664.1 1093.4 13663.6 1079.91 13649.9 1031.09C13608.7 884.227 13516.8 790.409 13383.2 758.895C13359.4 753.291 13311.6 749.133 13270.8 749.126C13209.5 749.12 13192.7 751.619 13147.3 767.398ZM4504.41 1215.42C4504.42 1461.33 4506.33 1708.29 4508.65 1764.22L4512.86 1865.91H4673.18H4833.5V1317.11V768.315H4668.94H4504.39L4504.41 1215.42ZM4958.77 779.614C4961 785.831 5060.64 1032.79 5180.19 1328.41L5397.56 1865.91H5533.49H5669.42L5885.47 1323.1C6004.29 1024.56 6102.49 777.548 6103.7 774.197C6105.04 770.446 6038.25 768.767 5929.9 769.826L5753.91 771.543L5644.06 1089.52C5583.65 1264.41 5532.54 1407.5 5530.49 1407.5C5528.45 1407.5 5482.17 1278.94 5427.64 1121.8C5373.13 964.668 5322.92 820.857 5316.08 802.211L5303.64 768.315H5129.18C4965.79 768.315 4954.98 769.032 4958.77 779.614ZM6865.34 1042.41C6925.27 1063.57 6971.26 1109.72 6992.54 1170.05C7011.78 1224.64 7031.24 1220.26 6768.97 1220.26H6536.22L6540.34 1205.74C6559.12 1139.51 6605.29 1080.64 6658.76 1054.74C6716.68 1026.68 6805.72 1021.37 6865.34 1042.41ZM8686.89 1035.35C8770.99 1055.16 8825.68 1112.26 8843.9 1199.28L8848.3 1220.26H8625.67H8403.05L8409.71 1196.05C8432.52 1113.05 8490.48 1056.13 8573.02 1035.67C8615.74 1025.07 8642.93 1025 8686.89 1035.35ZM11920.2 1033.84C11967.8 1043.95 12003.7 1061.97 12032 1089.91C12058 1115.6 12093.1 1182.14 12093.1 1205.74L12093.1 1220.26H11860.4H11627.6L11631.9 1205.74C11659.5 1112.19 11717.3 1055.26 11803.8 1036.48C11855.5 1025.26 11877.5 1024.76 11920.2 1033.84ZM3744.78 1077.56C3794.81 1101.45 3849.76 1157.31 3874.31 1209.24C3937 1341.82 3879.49 1500.38 3744.51 1567.13C3700.74 1588.77 3691.88 1590.83 3643.9 1590.5C3575.27 1590.02 3529.24 1572.62 3481.76 1529.21C3382.28 1438.24 3366.95 1274.06 3446.69 1153.61C3508.21 1060.67 3639.35 1027.22 3744.78 1077.56Z" fill="white"/>
<path d="M973.21 386.179V763.707L651.382 574.943L456.429 912.243L787.54 1104.1L456.429 1292.87L651.382 1620.88L973.21 1438.31V1809.65H1350.74V1438.31L1694.23 1620.88L1879.9 1292.87L1548.79 1104.1L1879.9 912.243L1678.75 574.943L1350.74 763.707V386.179H973.21Z" fill="black" stroke="white"/>
</svg>
