<svg width="2742" height="1339" viewBox="0 0 2742 1339" fill="none" xmlns="http://www.w3.org/2000/svg">
<path fill-rule="evenodd" clip-rule="evenodd" d="M1018 451.003V717.003L1173.86 716.399C1306.61 715.884 1331.54 715.441 1341.98 713.418C1397.33 702.684 1437.63 683.038 1478.31 646.97C1519.78 610.189 1551.1 552.616 1561.18 494.612C1564.57 475.065 1565.03 429.66 1562.01 411.079C1552.81 354.33 1529.47 306.98 1490.96 266.896C1448.62 222.826 1397.74 196.202 1338.9 187.328C1326.05 185.392 1299.04 185.02 1170.8 185.012L1018 185.003V451.003ZM2606.74 1018.83V1067.87H2582.23H2557.72V1099.29V1130.71H2582.23H2606.74V1231.11V1331.5H2645.8H2684.86V1231.11V1130.71H2713.2H2741.54V1099.29V1067.87H2713.2H2684.86V1018.83V969.778H2645.8H2606.74V1018.83ZM199.758 995.451C199.209 1008.73 198.755 1038.84 198.752 1062.36L198.747 1105.14L191.231 1097.29C164.72 1069.62 123.75 1061.22 82.3306 1074.97C50.5028 1085.53 21.3541 1113.31 9.79052 1144.1C1.40697 1166.44 0.445031 1172.5 0.500176 1202.75C0.561448 1236.47 2.6615 1246.35 15.1595 1271.72C22.0541 1285.72 24.9048 1289.63 37.0076 1301.68C60.9956 1325.58 86.8892 1336.3 121.391 1336.62C135.142 1336.74 142.088 1336.09 148.964 1334.01C164.089 1329.43 178.486 1320.95 189.011 1310.42L198.747 1300.68V1316.09V1331.5H237.808H276.869V1151.41V971.311H238.815H200.759L199.758 995.451ZM342.737 1008.86V1046.41H379.5H416.263V1008.86V971.311H379.5H342.737V1008.86ZM1055.02 1151.41V1331.5H1097.15H1139.27V1151.41V971.311H1097.15H1055.02V1151.41ZM1437.84 362.257C1455.59 393 1460.24 402.175 1458.77 403.502C1453.58 408.157 1380.6 448.803 1379.5 447.655C1378.79 446.927 1368.13 428.792 1355.8 407.357C1339.17 378.458 1333.89 368.077 1335.38 367.2C1364.38 350.084 1414.1 321.798 1414.49 322.19C1414.78 322.482 1425.29 340.511 1437.84 362.257ZM849.188 1068.85C808.399 1077.6 776.171 1102.05 758.649 1137.54C748.56 1157.97 745.063 1174.16 745.063 1200.45C745.063 1227.48 748.517 1242.86 759.698 1265.59C766.761 1279.95 769.273 1283.34 783.03 1297.01C800.586 1314.47 813.5 1322.58 835.211 1329.81C853.64 1335.94 868.962 1337.63 906.017 1337.63H937.076V1303.14V1268.66H906.762C875.286 1268.66 866.174 1267.4 851.888 1261.08C839.854 1255.75 828.508 1243.22 825.17 1231.58L823.937 1227.27H918.61H1013.28L1014.24 1222.49C1016.08 1213.29 1015.21 1182.73 1012.77 1170.88C1007.39 1144.8 994.873 1121.45 976.615 1103.46C957.716 1084.84 937.951 1074.4 910.553 1068.56C897.046 1065.69 863.19 1065.84 849.188 1068.85ZM1292.12 1068.57C1252.84 1077.18 1222.7 1100.37 1204.98 1135.64C1186.4 1172.61 1185.79 1224.22 1203.47 1263.24C1215.68 1290.17 1238.76 1313.28 1265.63 1325.47C1286.18 1334.8 1295.9 1336.39 1337.26 1337.23L1375.17 1338V1303.46V1268.92L1342.62 1268.33C1306.55 1267.68 1300.69 1266.41 1285.19 1255.79C1277.81 1250.74 1268.95 1238.31 1267.57 1231.08L1266.84 1227.27H1356.84C1441.12 1227.27 1446.91 1227.1 1447.91 1224.59C1448.5 1223.12 1449.34 1215.01 1449.76 1206.58C1453.16 1139.13 1411.33 1081.38 1349.84 1068.68C1336.26 1065.87 1304.72 1065.81 1292.12 1068.57ZM1631.14 1068.67C1614.46 1073.35 1597.67 1085.31 1589.36 1098.42L1585.03 1105.26V1086.57V1067.87H1545.97H1506.91V1199.69V1331.5H1545.89H1584.87L1585.39 1254.48C1585.96 1168.31 1586.01 1167.94 1596.78 1155.34C1604.8 1145.97 1615.17 1141.47 1628.68 1141.49C1646.22 1141.52 1658.82 1149.93 1666.51 1166.73C1669.96 1174.28 1670.03 1175.56 1671.01 1248.73C1671.55 1289.62 1672.07 1324.97 1672.17 1327.28L1672.34 1331.5H1711.35H1750.36L1750.79 1252.18L1751.23 1172.86L1754.89 1164.76C1759.16 1155.3 1769.77 1145.25 1777.85 1143C1780.9 1142.15 1787.53 1141.46 1792.59 1141.47C1811.04 1141.48 1825.88 1152.99 1831.69 1171.81C1834.53 1181.01 1834.71 1186.25 1834.71 1256.56V1331.5L1874.16 1331.5H1913.6L1912.77 1242.22C1911.96 1156.36 1911.8 1152.47 1908.56 1140.68C1895.15 1091.88 1862.67 1066.3 1814.17 1066.36C1796.69 1066.38 1786.42 1068.65 1772.24 1075.63C1761.02 1081.16 1746.84 1094.37 1740.57 1105.13L1736.28 1112.5L1732 1105.01C1729.65 1100.89 1724.66 1094.36 1720.91 1090.5C1705.46 1074.6 1687.27 1067.71 1658.55 1066.89C1644.69 1066.5 1637.13 1066.99 1631.14 1068.67ZM2066.01 1067.31C2034.69 1073.22 2010.2 1085.4 1990.96 1104.66C1966 1129.63 1953.82 1161.09 1953.86 1200.45C1953.87 1212.89 1954.79 1224.55 1956.31 1231.48C1966.36 1277.34 1996.91 1312.8 2039.93 1328.51C2058.64 1335.34 2077.05 1337.61 2113.88 1337.62L2145.67 1337.63V1303.14V1268.66H2115.35C2082.35 1268.66 2073.37 1267.27 2058.67 1259.9C2049.56 1255.32 2039.31 1245.05 2036.03 1237.19C2031.54 1226.44 2023.82 1227.27 2127.93 1227.27H2222.01L2222.84 1223.06C2225.12 1211.42 2225.41 1200.51 2223.81 1186.02C2217.51 1128.89 2183.27 1087.02 2129.53 1070.74C2121.01 1068.16 2113.92 1067.42 2094.35 1067.05C2080.87 1066.79 2068.12 1066.91 2066.01 1067.31ZM2394.38 1070.72C2379.34 1075.96 2364.91 1085.71 2356 1096.67L2349.4 1104.77V1086.32V1067.87H2309.57H2269.74V1199.69V1331.5H2308.8H2347.87L2347.88 1260.61C2347.89 1185.83 2348.65 1174.95 2354.67 1163.11C2358.94 1154.72 2363.01 1150.75 2372.37 1145.84C2381.75 1140.92 2405.08 1140.58 2414.45 1145.22C2423.53 1149.73 2431.33 1158.4 2435.37 1168.47C2438.96 1177.43 2438.97 1177.74 2439.46 1254.48L2439.95 1331.5H2479H2518.05L2517.54 1238.39C2517.04 1148.11 2516.92 1144.91 2513.67 1133.32C2503.9 1098.45 2482.08 1076.18 2450.36 1068.7C2444.72 1067.37 2433.36 1066.38 2423.69 1066.38C2409.14 1066.38 2405.14 1066.97 2394.38 1070.72ZM342.741 1177.08C342.745 1235.46 343.198 1294.08 343.748 1307.36L344.748 1331.5H382.804H420.859V1201.22V1070.94H381.798H342.737L342.741 1177.08ZM450.597 1073.62C451.126 1075.1 474.778 1133.72 503.156 1203.9L554.755 1331.5H587.023H619.288L670.573 1202.64C698.78 1131.77 722.091 1073.13 722.377 1072.33C722.696 1071.44 706.842 1071.04 681.12 1071.3L639.344 1071.7L613.268 1147.19C598.928 1188.71 586.796 1222.68 586.31 1222.68C585.825 1222.68 574.839 1192.16 561.896 1154.85C548.956 1117.55 537.038 1083.41 535.413 1078.98L532.46 1070.94H491.048C452.262 1070.94 449.696 1071.11 450.597 1073.62ZM903.173 1136.01C917.398 1141.03 928.317 1151.99 933.368 1166.31C937.935 1179.27 942.554 1178.23 880.297 1178.23H825.048L826.027 1174.78C830.484 1159.06 841.444 1145.08 854.137 1138.93C867.886 1132.27 889.022 1131.01 903.173 1136.01ZM1335.57 1134.33C1355.53 1139.03 1368.51 1152.59 1372.84 1173.25L1373.88 1178.23H1321.04H1268.19L1269.77 1172.48C1275.19 1152.78 1288.95 1139.26 1308.54 1134.41C1318.68 1131.89 1325.13 1131.87 1335.57 1134.33ZM2103.09 1133.97C2114.37 1136.37 2122.91 1140.65 2129.62 1147.28C2135.8 1153.38 2144.13 1169.18 2144.13 1174.78L2144.14 1178.23H2088.89H2033.64L2034.66 1174.78C2041.21 1152.57 2054.93 1139.06 2075.46 1134.6C2087.72 1131.94 2092.95 1131.82 2103.09 1133.97ZM162.421 1144.35C174.297 1150.02 187.342 1163.28 193.169 1175.61C208.05 1207.08 194.399 1244.73 162.358 1260.57C151.968 1265.71 149.865 1266.2 138.476 1266.12C122.185 1266.01 111.257 1261.88 99.9876 1251.57C76.3718 1229.97 72.7323 1191 91.6608 1162.4C106.265 1140.34 137.396 1132.4 162.421 1144.35Z" fill="white"/>
<path fill-rule="evenodd" clip-rule="evenodd" d="M986 409.5V819L1226.06 818.07C1430.52 817.277 1468.92 816.595 1485 813.481C1570.25 796.957 1632.33 766.712 1694.98 711.186C1758.86 654.563 1807.1 565.931 1822.62 476.635C1827.85 446.543 1828.55 376.643 1823.9 348.038C1809.73 260.674 1773.79 187.78 1714.47 126.072C1649.26 58.2273 1570.89 17.2414 1480.26 3.57948C1460.47 0.599333 1418.87 0.0259554 1221.34 0.0141575L986 0V409.5ZM1632.66 272.878C1659.99 320.206 1667.16 334.331 1664.88 336.374C1656.89 343.54 1544.49 406.114 1542.79 404.347C1541.7 403.226 1525.28 375.307 1506.28 342.309C1480.68 297.819 1472.55 281.837 1474.84 280.488C1519.5 254.138 1596.08 210.592 1596.69 211.196C1597.13 211.645 1613.32 239.4 1632.66 272.878Z" fill="white"/>
<path d="M1284.33 79V254.574L1134.67 166.787L1044 323.652L1197.99 412.878L1044 500.665L1134.67 653.213L1284.33 568.304V741H1459.91V568.304L1619.65 653.213L1706 500.665L1552.01 412.878L1706 323.652L1612.46 166.787L1459.91 254.574V79H1284.33Z" fill="black" stroke="white"/>
</svg>
