<svg width="71" height="71" viewBox="0 0 71 71" fill="none" xmlns="http://www.w3.org/2000/svg">
<path d="M0 14.8358C0 6.64222 6.64222 0 14.8358 0H56.1642C64.3578 0 71 6.64222 71 14.8358V56.1642C71 64.3578 64.3578 71 56.1642 71H14.8358C6.64222 71 0 64.3578 0 56.1642V14.8358Z" fill="white"/>
<path d="M23.6065 51.4823H11V19H23.3895C28.736 19 32.0898 22.1289 32.0898 27.1037C32.0898 30.6603 29.7618 33.6317 26.7434 34.1494V34.3295C30.6102 34.6671 33.4511 37.8861 33.4511 42.1855C33.4511 47.9031 29.6829 51.4823 23.6065 51.4823ZM16.958 24.0648V32.5061H21.2391C24.4154 32.5061 26.2304 30.9079 26.2304 28.1617C26.2304 25.5505 24.6324 24.0648 21.8507 24.0648H16.958ZM16.958 46.4175H22.0874C25.5202 46.4175 27.3747 44.7517 27.3747 41.6453C27.3747 38.6064 25.461 36.9857 21.9493 36.9857H16.958V46.4175Z" fill="black"/>
<path d="M46.0174 31.6958C43.4921 31.6958 41.6771 33.8793 41.4798 36.8956H50.4563C50.3379 33.8117 48.5821 31.6958 46.0174 31.6958ZM50.5352 44.0989H55.8224C55.1911 48.8261 51.4033 52 46.1752 52C39.6648 52 35.7585 47.2503 35.7585 39.5293C35.7585 31.8308 39.7042 26.8336 45.9582 26.8336C52.1135 26.8336 56 31.5832 56 38.9216V40.925H41.4206V41.3302C41.4206 44.7742 43.3343 47.1378 46.2738 47.1378C48.3848 47.1378 50.0025 45.9447 50.5352 44.0989Z" fill="black"/>
<path d="M41 22H52V26H41V22Z" fill="black"/>
</svg>
