<svg width="71" height="71" viewBox="0 0 71 71" fill="none" xmlns="http://www.w3.org/2000/svg">
<path d="M0 14.8358C0 6.64222 6.64222 0 14.8358 0H56.1642C64.3578 0 71 6.64222 71 14.8358V56.1642C71 64.3578 64.3578 71 56.1642 71H14.8358C6.64222 71 0 64.3578 0 56.1642V14.8358Z" fill="white"/>
<path d="M26.284 54.5746H17.5084V26.7575H26.284V54.5746Z" fill="black"/>
<path d="M30.1329 54.5746V31.7248H38.4118V36.2161H38.5774C39.7364 33.008 42.1166 31.2695 45.5938 31.2695C50.7267 31.2695 53.5415 34.4569 53.5415 39.9416V54.5746H45.0556V41.8251C45.0556 39.5277 43.9794 38.1203 41.8476 38.1203C39.8399 38.1203 38.6188 39.6726 38.6188 41.8044V54.5746H30.1329Z" fill="black"/>
<path d="M26.4925 20.9291C26.4925 23.4164 24.4761 25.4328 21.9888 25.4328C19.5015 25.4328 17.4851 23.4164 17.4851 20.9291C17.4851 18.4418 19.5015 16.4254 21.9888 16.4254C24.4761 16.4254 26.4925 18.4418 26.4925 20.9291Z" fill="black"/>
</svg>
