<svg width="2026" height="961" viewBox="0 0 2026 961" fill="none" xmlns="http://www.w3.org/2000/svg">
<path fill-rule="evenodd" clip-rule="evenodd" d="M849.905 166.235C849.055 185.065 848.559 237.837 848.804 283.507L849.25 366.545L904.577 367.364C989.151 368.611 1017.33 361.915 1035.59 336.226C1042.72 326.183 1044.4 320.621 1045.17 304.506C1046.38 279.198 1039.06 265.527 1017.36 252.533L1002.12 243.41L1009.43 238.623C1020.41 231.43 1031.02 213.543 1032.99 198.917C1036.7 171.278 1016.89 142.999 988.245 135.048C982.274 133.39 949.053 132.026 914.421 132.017L851.45 132L849.905 166.235ZM285.762 138.008C264.049 141.857 229.47 153.835 205.853 165.684C109.521 214.021 37.7257 314.059 9.42656 439.385C3.58081 465.272 1.88771 482.358 0.62298 528.25C-0.749575 578.11 -0.155094 589.7 5.48375 622.942C17.2102 692.073 45.7833 762.882 81.3153 810.869C104.145 841.701 158.213 892.488 184.72 908C216.356 926.513 245.596 938.281 277.497 945.34C315.792 953.813 374.684 951.811 412.049 940.763C467.082 924.491 508.023 899.876 550.56 857.487C616.335 791.942 657.512 703.273 670.162 599.936C675.04 560.084 672.05 482.972 664.191 445.908C636.783 316.67 564.117 214.624 464.503 165.492C419.165 143.13 395.429 137.384 343.567 136.21C320.326 135.683 294.315 136.493 285.762 138.008ZM325.076 194.642C326.93 210.667 328.568 224.763 328.719 225.964C328.871 227.164 332.105 228.149 335.908 228.149C343.602 228.149 344.61 224.635 348.296 184.908L350.281 163.522L363.68 165.352C398.6 170.124 399.349 171.398 380.016 193.159C362.75 212.596 353.221 230.917 358.603 234.326C365.487 238.687 369.325 237.117 377.286 226.68C381.57 221.063 391.801 211.661 400.019 205.781C408.237 199.904 418.413 191.947 422.63 188.098L430.3 181.103L450.25 191.158L470.2 201.215L456.02 210.204C448.222 215.151 429.583 223.28 414.604 228.268C399.623 233.259 384.396 239.777 380.765 242.755C374.71 247.719 374.55 248.561 378.822 252.906C383.117 257.282 384.807 257.197 400.78 251.819C410.297 248.611 430.02 244.069 444.608 241.72C459.196 239.372 477.348 234.704 484.946 231.345C492.54 227.983 500.277 225.235 502.139 225.235C503.998 225.235 511.834 231.645 519.551 239.48L533.582 253.721L522.357 257.515C514.745 260.085 497.517 261.09 468.874 260.635C445.634 260.268 417.766 261.448 406.949 263.261C389.018 266.262 387.279 267.174 387.279 273.572C387.279 280.588 387.308 280.594 421.52 280.696C440.351 280.751 466.251 282.691 479.074 285.008C506.222 289.911 536.118 290.535 550.219 286.494C561.914 283.14 561.447 282.689 582.68 317.996C633.286 402.143 654.469 516.723 637.661 615.404C633.692 638.704 622.527 682.679 620.592 682.627C619.415 682.598 574.96 579.704 562.811 548.89C562.389 547.814 567.96 544.059 575.196 540.542C582.432 537.028 588.324 532.498 588.289 530.473C588.254 528.448 582.499 522.95 575.499 518.256C563.047 509.9 562.735 509.297 560.818 489.854C559.743 478.928 559.673 468.675 560.666 467.07C561.657 465.464 569.385 464.15 577.839 464.15C586.293 464.15 594.08 463.282 595.141 462.222C597.769 459.591 574.832 449.582 566.18 449.582C562.348 449.582 559.212 448.271 559.212 446.669C559.212 445.066 557.901 443.755 556.298 443.755C554.532 443.755 553.384 456.383 553.384 475.811V507.863L538.813 518.329C530.799 524.086 524.243 530.03 524.243 531.539C524.243 533.048 530.281 536.871 537.659 540.032C548.2 544.551 550.659 546.87 549.147 550.856C538.079 579.986 502.11 665.189 500.88 665.189C500.003 665.189 494.227 649.782 488.046 630.954C481.865 612.126 476.305 595.367 475.69 593.715C475.072 592.066 481.813 587.163 490.663 582.821C499.516 578.483 506.723 573.932 506.679 572.714C506.638 571.493 498.77 564.929 489.194 558.12C472.039 545.924 471.788 545.542 471.788 531.667C471.788 517.627 471.826 517.574 486.359 510.768C494.373 507.015 500.895 502.531 500.854 500.801C500.813 499.073 494.213 493.202 486.187 487.759L471.593 477.862L472.421 448.426L473.245 418.99L486.359 418.168C507.527 416.842 509.407 414.87 495.454 408.626C488.498 405.511 480.592 402.965 477.882 402.965C475.172 402.965 471.38 401.392 469.457 399.469C466.738 396.75 465.96 403.83 465.96 431.329C465.96 450.774 464.786 469.777 463.349 473.553C461.912 477.329 455.356 484.149 448.778 488.706C442.201 493.263 436.819 498.519 436.819 500.387C436.819 502.252 442.72 506.645 449.932 510.15C463.046 516.519 463.046 516.52 463.046 532.099V547.678L447.018 558.714C438.203 564.783 430.99 571.286 430.99 573.163C430.99 575.039 437.568 579.797 445.608 583.733L460.222 590.892L416.624 639.43C383.645 676.144 370.857 688.439 364.126 689.92C353.367 692.282 352.938 696.099 362.334 705.869C366.241 709.936 375.75 719.819 383.461 727.831C391.169 735.844 400.101 743.888 403.306 745.709C411.294 750.243 394.634 748.579 324.345 737.81C293.741 733.122 265.217 729.288 260.963 729.288C250.326 729.288 251.264 725.343 262.901 721.136C275.522 716.573 295.856 699.045 301.749 687.653C304.31 682.7 309.084 676.479 312.359 673.831C320.05 667.604 317.127 659.362 307.23 659.362C300.096 659.362 299.855 658.744 299.855 640.423V621.485H315.71C324.432 621.485 332.242 620.389 333.07 619.052C335.019 615.897 316.191 606.917 307.624 606.917C303.993 606.917 299.447 605.343 297.523 603.421C294.804 600.702 294.026 606.529 294.026 629.643V659.362H282.533H271.037L270.145 620.756C269.259 582.46 269.329 581.974 279.033 559.781C289.568 535.694 290.381 535.298 306.429 546.416C310.844 549.475 316.561 551.556 319.129 551.04C322.617 550.338 320.402 546.46 310.369 535.7C302.984 527.778 296.94 520.237 296.94 518.947C296.94 511.135 290.666 519.844 280.263 542.089L268.344 567.583L268.07 545.003C267.916 532.072 266.555 522.422 264.885 522.422C263.134 522.422 261.91 534.907 261.819 553.744L261.668 585.065L243.405 621.112L225.142 657.159L208.587 616.45C192.218 576.199 192.032 575.409 192.032 546.168C192.032 528.395 190.869 516.595 189.118 516.595C187.369 516.595 186.116 529.121 185.988 547.916C185.825 571.333 184.458 582.18 180.565 590.892L175.36 602.546L170.354 590.892C157.427 560.815 151.601 543.144 150.351 530.234L148.99 516.193L161.769 509.987C168.797 506.572 174.518 502.403 174.483 500.719C174.448 499.035 168.518 493.723 161.305 488.916L148.195 480.175L148.984 449.582L149.777 418.99L165.805 418.095C174.62 417.603 183.077 415.962 184.601 414.453C186.343 412.722 185.656 411.706 182.747 411.706C180.206 411.706 174.372 409.748 169.779 407.353C165.19 404.961 158.484 402.994 154.877 402.982C151.269 402.974 148.32 401.575 148.32 399.879C148.32 398.184 147.008 397.604 145.406 398.594C143.692 399.655 142.492 416.892 142.492 440.454V480.51L129.378 489.752C122.166 494.834 116.264 500.069 116.264 501.386C116.264 502.703 122.282 506.704 129.64 510.276L143.013 516.773L141.084 531.982C139.406 545.181 101.839 641.632 95.5712 648.832C94.3356 650.254 92.15 646.976 90.7133 641.548C88.9502 634.879 89.1251 631.371 91.2553 630.724C102.02 627.446 102.644 626.295 94.5396 624.664C84.9579 622.735 82.0642 616.36 81.5863 596.128C81.3065 584.374 81.8107 583.652 94.0325 578.247C101.038 575.15 107.577 571.307 108.568 569.707C109.556 568.108 103.935 562.388 96.0753 556.995C73.8667 541.754 74.6186 528.063 98.0511 521.073C108.087 518.078 105.931 512.137 91.5001 503.024C78.6809 494.927 78.3924 494.402 78.3865 479.447L78.3807 464.15H92.7794C100.7 464.15 107.904 462.979 108.787 461.546C110.459 458.842 90.2616 449.582 82.6936 449.582C80.3215 449.582 78.3807 448.193 78.3807 446.497C78.3807 444.801 77.0694 444.221 75.4666 445.212C73.8638 446.203 72.5495 457.752 72.5466 470.878L72.5408 494.743L59.4972 503.484C52.3226 508.291 46.4244 513.224 46.3894 514.448C46.3544 515.672 52.2264 519.538 59.4389 523.04C70.1833 528.258 72.5525 530.837 72.5525 537.296C72.5525 543.424 69.3003 547.52 57.9818 555.652C49.9679 561.406 43.4112 567.17 43.4112 568.454C43.4112 569.739 49.3123 573.658 56.5247 577.163C69.5101 583.468 69.6383 583.678 69.6383 598.331C69.6383 616.89 65.7829 624.398 56.2508 624.398C52.0894 624.398 49.6765 625.663 50.6965 627.312C51.6873 628.915 55.1842 630.226 58.4655 630.226C62.4404 630.226 63.9004 631.615 62.8367 634.389C61.9567 636.679 60.3598 643.235 59.2844 648.957C57.7137 657.34 56.0177 659.362 50.5682 659.362C43.8366 659.362 43.1809 658.289 38.9875 640.423C28.4005 595.344 26.8822 508.921 35.8257 460.482C45.6259 407.388 67.6946 350.998 95.8451 307.125C107.557 288.868 112.327 283.647 115.921 285.148C127.239 289.868 164.033 289.862 192.856 285.136C211.723 282.042 234.19 280.535 252.751 281.118C278.914 281.94 282.644 281.447 284.057 276.978C284.94 274.187 284.914 270.699 284.005 269.228C280.747 263.957 242.286 260.032 199.317 260.589C170.627 260.962 152.679 259.948 147.09 257.646L138.572 254.135L152.808 239.684C166.667 225.614 173.402 222.563 179.064 227.79C183.654 232.03 209.642 239.247 232.416 242.612C244.209 244.354 261.854 248.474 271.628 251.766C288.699 257.515 289.544 257.544 293.242 252.486C296.565 247.944 296.215 246.566 290.666 242.382C287.132 239.716 273.657 233.906 260.721 229.472C233.64 220.186 212.087 209.988 207.264 204.179C204.554 200.915 207.567 198.351 223.155 190.665L242.391 181.182L251.454 189.602C256.437 194.232 267.071 202.71 275.084 208.444C283.098 214.175 292.645 222.922 296.299 227.878C303.136 237.149 307.175 238.626 313.959 234.326C319.458 230.841 309.943 212.96 291.176 191.519C283.128 182.324 276.542 173.79 276.542 172.56C276.542 169.886 304.089 164.434 314.425 165.064C321.437 165.489 321.836 166.599 325.076 194.642ZM965.975 170.241C981.621 174.18 990.504 184.282 990.504 198.142C990.504 222.523 978.413 228.842 928.578 230.509L891.423 231.75V199.357V166.963H922.188C939.11 166.963 958.812 168.437 965.975 170.241ZM1340.02 188.25C1315.68 195.129 1297.71 211.09 1285.27 236.89C1278.78 250.362 1277.55 256.859 1277.55 277.68C1277.55 298.314 1278.82 305.161 1285.18 318.721C1289.38 327.674 1297.38 339.568 1302.97 345.153C1333.09 375.265 1388.87 379.053 1424.3 353.393C1441.43 340.987 1442 337.464 1428.71 325.979L1417.44 316.233L1404.9 325.236C1394.76 332.517 1388.78 334.466 1373.66 335.428C1357.55 336.453 1353.18 335.576 1342.13 329.099C1334.46 324.606 1327.39 317.556 1324.55 311.574C1315.02 291.496 1312.72 292.248 1383.91 292.248H1448.02V274.694C1448.02 253.351 1439.97 229.163 1427.7 213.68C1409.81 191.094 1370.4 179.664 1340.02 188.25ZM1557.84 188.667C1546.64 192.658 1538.53 198.453 1529.1 209.21C1524.11 214.895 1523.98 214.735 1523.89 202.655L1523.79 190.272H1503.39H1482.99V279.137V368.002H1503.39H1523.79V312.55C1523.79 252.844 1525.43 244.197 1539.16 231.552C1555.01 216.949 1585.55 221.675 1595.72 240.301C1600.24 248.576 1601.15 258.666 1601.96 309.001L1602.9 368.002H1623.32H1643.73L1642.76 298.804C1641.86 233.723 1641.41 228.88 1635.28 217.392C1620.82 190.33 1587.66 178.032 1557.84 188.667ZM1745.06 188.428C1699.58 200.688 1672.27 239.675 1676.21 286.712C1679.07 320.72 1698.83 348.667 1730.34 363.232C1741.02 368.171 1749.22 369.435 1770.03 369.348C1793.02 369.249 1798.35 368.191 1813.17 360.785C1843.93 345.418 1861.56 318.558 1864.09 283.216C1867.3 238.285 1839.84 200.289 1795.89 188.841C1775.94 183.646 1763.19 183.542 1745.06 188.428ZM1936.63 188.565C1910.31 195.744 1896.52 210.929 1894.53 234.911C1892 265.399 1906.02 280.011 1951.17 293.938C1979.88 302.795 1987.14 307.667 1987.14 318.086C1987.14 330.926 1979.18 335.952 1958.85 335.952C1944.64 335.952 1937.44 334.052 1921.77 326.171L1902.33 316.387L1893.5 329.227C1883.09 344.352 1883.92 346.123 1906.57 357.215C1939.92 373.54 1980.81 373.846 2004.89 357.953C2023.61 345.599 2031.47 316.798 2021.93 295.505C2015.28 280.652 2001.1 271.317 1968.35 260.251C1939.75 250.586 1931.77 245.106 1931.77 235.147C1931.77 218.732 1959.27 214.668 1988.59 226.747C1998.21 230.71 2006.29 233.956 2006.56 233.961C2006.82 233.97 2010.5 227.782 2014.73 220.212C2023.7 204.167 2022.92 202.964 1997.51 193.561C1976.75 185.878 1953.46 183.967 1936.63 188.565ZM1100.51 189.678L1080.84 190.537L1080.9 243.579C1080.93 272.75 1082.18 305.077 1083.68 315.417C1088.44 348.373 1108.39 367.637 1140.5 370.3C1158.88 371.824 1182.3 362.743 1193.1 349.908L1200.32 341.333V354.666V368.002H1220.72H1241.12L1241.12 278.408V188.815L1221.45 189.241L1201.78 189.666L1200.32 249.109C1198.69 315.458 1197.15 321.049 1178.33 328.913C1165.51 334.265 1155.42 334.131 1143.43 328.444C1126.58 320.446 1124.55 311.775 1124.55 247.548C1124.55 216.235 1123.57 190.211 1122.37 189.716C1121.16 189.22 1111.33 189.203 1100.51 189.678ZM1383.96 224.722C1390.26 228.024 1396.59 234.879 1400.67 242.822C1412.76 266.407 1413.4 266.026 1361.86 266.026H1316.49L1318.47 259.47C1328.98 224.641 1356.2 210.195 1383.96 224.722ZM1794.68 228.082C1827.23 244.686 1833.54 292.082 1806.76 318.852C1772.53 353.078 1716.15 327.459 1716.15 277.68C1716.15 256.562 1729.68 233.781 1746.57 226.421C1759.8 220.661 1781.6 221.415 1794.68 228.082ZM316.354 260.059C310.485 266.556 305.683 273.082 305.683 274.562C305.683 276.045 309.457 280.302 314.067 284.026C319.51 288.417 323.156 294.73 324.456 302.023C325.56 308.2 325.391 312.722 324.086 312.072C290.127 295.156 269.026 291.12 244.492 296.843C235.394 298.964 212.297 307.862 193.162 316.614C174.031 325.367 153.478 333.446 147.489 334.571C134.105 337.08 131.677 340.489 138.161 347.65C146.117 356.44 170.094 360.001 197.878 356.516C225.046 353.11 234.278 354.456 243.924 363.22C251.139 369.776 267.799 397.205 267.799 402.528C267.799 404.302 258.864 411.639 247.942 418.832C224.542 434.248 218.556 442.98 223.682 454.227C226.736 460.928 228.444 461.656 238.002 460.348C243.973 459.53 254.181 457.225 260.689 455.223C276.259 450.439 285.068 453.009 301.329 467.079C308.853 473.591 317.82 478.718 321.679 478.718C328.853 478.718 330.051 474.269 332.641 437.928L333.367 427.73L350.45 426.212C364.977 424.922 368.567 423.398 374.477 416.015C378.294 411.242 381.427 405.712 381.436 403.731C381.444 401.747 386.64 396.849 392.981 392.846C399.323 388.843 405.987 382.817 407.785 379.452C413.704 368.398 428.21 364.776 458.141 366.88C482.046 368.558 486.872 368.048 499.397 362.51C515.873 355.223 538.813 337.301 538.813 331.719C538.813 329.359 533.463 327.089 524.971 325.842C517.357 324.723 491.977 317.363 468.568 309.485C432.206 297.248 422.738 295.162 403.539 295.162C391.18 295.162 378.624 296.47 375.637 298.069C370.837 300.636 369.677 299.171 365.705 285.503C358.775 261.673 349.826 250.176 337.389 249.124C328.457 248.369 325.554 249.878 316.354 260.059ZM345.254 271.043C358.283 290.261 374.681 368.095 370.044 388.726C366.241 405.651 358.974 411.883 340.381 414.165C322.019 416.417 317.45 422.436 317.383 444.484C317.36 452.097 316.672 458.323 315.856 458.323C315.043 458.323 309.031 454.454 302.504 449.725C286.24 437.946 270.209 435.929 250.961 443.242C242.592 446.421 235.744 447.948 235.744 446.631C235.744 445.317 246.564 436.69 259.785 427.459C291.485 405.337 321.652 375.029 329.599 357.323C334.081 347.335 336.281 335.567 337.153 316.891C338.333 291.601 338.062 290.165 330.421 281.089C322.716 271.931 322.631 271.448 327.702 265.845C334.198 258.669 337.537 259.659 345.254 271.043ZM331.91 268.767C331.91 270.277 333.221 272.319 334.824 273.31C336.427 274.3 337.738 273.065 337.738 270.568C337.738 268.071 336.427 266.026 334.824 266.026C333.221 266.026 331.91 267.258 331.91 268.767ZM986.677 271.693C996.55 276.174 999.534 279.422 1002.32 288.723C1006.45 302.486 1002.47 313.022 989.562 322.579C982.227 328.007 976.46 328.782 936.379 329.708L891.423 330.748V298.387V266.026L932.949 266.09C967.438 266.142 976.545 267.092 986.677 271.693ZM295.483 313.308C327.408 325.233 328.279 340.657 299.117 377.625C287.277 392.639 281.181 391.112 266.491 369.458C249.152 343.903 241.928 340.972 201.103 342.93C182.852 343.807 168.427 344.049 169.048 343.472C173.352 339.469 238.879 311.743 248.531 309.84C262.411 307.104 282.929 308.62 295.483 313.308ZM466.365 323.196C486.755 330.212 505.496 335.952 508.011 335.952C515.899 335.952 513.023 340.489 501.658 345.969C483.305 354.821 475.871 355.948 453.986 353.201C426.861 349.795 414.977 353.067 400.453 367.938C394.159 374.382 387.963 379.656 386.687 379.656C385.411 379.656 384.364 374.997 384.364 369.304C384.364 363.611 382.278 349.789 379.731 338.583C377.181 327.38 375.794 316.399 376.645 314.182C380.876 303.157 419.349 307.023 466.365 323.196ZM1082.9 419.36C1081.77 420.49 1080.84 429.72 1080.84 439.871V458.323H1104.29H1127.74L1126.87 438.656L1126.01 418.99L1105.48 418.145C1094.19 417.681 1084.03 418.229 1082.9 419.36ZM925.789 430.315C923.432 434.72 831.788 642.903 825.281 658.633C824.156 661.355 829.253 662.275 845.473 662.275H867.172L878.691 635.324L890.214 608.374H946.652H1003.09L1013.97 634.596L1024.84 660.818L1047.37 661.675C1065.69 662.374 1069.62 661.774 1068.35 658.467C1060.91 639.086 968.784 429.968 966.701 427.73C965.206 426.128 956.073 424.782 946.401 424.741C931.929 424.677 928.278 425.665 925.789 430.315ZM966.462 521.747C976.481 545.355 984.678 565.654 984.675 566.855C984.675 568.055 967.103 569.04 945.626 569.04H906.579L925.906 523.879C936.537 499.041 945.911 478.742 946.742 478.771C947.57 478.8 956.446 498.138 966.462 521.747ZM1243.96 488.188C1236.83 491.795 1226.72 500.416 1221.49 507.353L1211.98 519.96V502.255V484.546H1191.58H1171.18V573.41V662.275H1191.58H1211.98V620.139C1211.98 561.08 1219.7 541.509 1247.62 529.846C1253.56 527.364 1262.39 525.336 1267.25 525.336H1276.09V503.484V481.632H1266.51C1261.23 481.632 1251.09 484.581 1243.96 488.188ZM1348.92 484.353C1324.87 491.669 1303.48 512.708 1293.68 538.683C1288.37 552.762 1287.4 560.232 1288.37 579.357C1290.3 617.566 1306.99 643.258 1339.89 658.648C1359.22 667.692 1389.29 668.764 1411.91 661.218C1425.32 656.745 1451.01 638.564 1450.88 633.64C1450.85 632.562 1445.54 627.286 1439.06 621.91C1428.31 612.986 1426.86 612.528 1422.31 616.651C1413.61 624.524 1391.61 633.008 1379.73 633.075C1357.32 633.2 1336.75 617.822 1330.14 595.991L1328.15 589.435H1394.34H1460.52L1458.84 567.164C1455.81 527.207 1435.32 496.521 1404.68 486.084C1391.06 481.443 1361.51 480.525 1348.92 484.353ZM1525.42 485.979C1498.56 495.545 1487.92 511.418 1489.53 539.534C1490.53 556.928 1491.35 558.805 1502.46 569.159C1511.73 577.813 1520.62 582.163 1543.35 589.176C1573.2 598.386 1582.07 604.292 1582.07 614.95C1582.07 635.703 1548.73 638.83 1514.25 621.31C1500.4 614.277 1496.14 613.193 1494.15 616.205C1492.76 618.306 1488.82 624.454 1485.39 629.864L1479.15 639.698L1486.17 645.126C1502.84 658.013 1523.89 663.709 1554.87 663.72C1583.11 663.732 1585.07 663.324 1596.82 654.991C1614.84 642.221 1620.55 630.036 1619.23 607.162C1618.22 589.485 1617.51 587.894 1606.21 577.865C1598.01 570.593 1585.59 564.271 1566.67 557.753C1532.51 545.979 1526.7 542.104 1526.7 531.073C1526.7 524.494 1528.77 521.505 1535.83 517.854C1547.22 511.963 1562.97 513.95 1584.7 524.013C1593.34 528.014 1600.68 530.933 1601.01 530.496C1601.35 530.062 1605.15 523.594 1609.46 516.12L1617.3 502.537L1610.61 497.826C1599.94 490.303 1568.2 481.62 1551.9 481.76C1543.65 481.83 1531.73 483.73 1525.42 485.979ZM463.046 490.373C463.046 494.711 461.102 496.2 455.437 496.2H447.828L454.709 490.469C463.264 483.345 463.046 483.348 463.046 490.373ZM486.359 495.078C486.359 495.696 483.081 496.2 479.074 496.2C473.703 496.2 471.788 494.65 471.788 490.306C471.788 484.688 472.129 484.636 479.074 489.184C483.081 491.809 486.359 494.461 486.359 495.078ZM1083.76 573.41V662.275H1104.15H1124.55V573.41V484.546H1104.15H1083.76V573.41ZM142.492 491.83C142.492 494.446 139.86 496.162 135.935 496.107C129.541 496.017 129.521 495.909 135.034 491.736C142.06 486.425 142.492 486.431 142.492 491.83ZM156.925 495.708C149.701 496.832 146.962 494.927 149.62 490.626C150.902 488.555 153.364 488.727 157.313 491.16C163.051 494.702 163.048 494.755 156.925 495.708ZM72.5525 506.398C72.5525 509.201 69.7374 510.768 64.7105 510.768C57.1892 510.768 57.0988 510.593 62.5249 506.491C69.8044 500.984 72.5525 500.961 72.5525 506.398ZM88.4082 506.491C93.8343 510.593 93.744 510.768 86.2226 510.768C81.1957 510.768 78.3807 509.201 78.3807 506.398C78.3807 500.961 81.1287 500.984 88.4082 506.491ZM151.963 508.495C147.247 510.771 143.564 510.771 138.849 508.495C133.091 505.722 133.892 505.334 145.406 505.334C156.919 505.334 157.721 505.722 151.963 508.495ZM476.888 509.521C469.783 513.376 467.965 513.376 460.86 509.521C452.937 505.223 453.027 505.174 468.874 505.174C484.721 505.174 484.812 505.223 476.888 509.521ZM1391.47 519.229C1403.7 524.782 1413.65 537.608 1417.11 552.287L1418.99 560.299H1373.45H1327.91L1329.91 552.287C1333.46 538.054 1342.96 526.018 1355.57 519.78C1370.6 512.344 1376.12 512.26 1391.47 519.229ZM90.0372 518.6C90.0372 521.653 77.0577 525.115 71.1566 523.635C59.7332 520.768 62.4987 518.061 76.9324 517.976C84.1391 517.933 90.0372 518.215 90.0372 518.6ZM552.839 521.694C552.306 524.5 548.931 527.212 545.341 527.725C537.516 528.841 536.934 525.948 543.913 520.651C550.951 515.31 553.987 515.666 552.839 521.694ZM571.274 522.326L578.154 528.054L570.481 528.153C565.209 528.221 562.33 526.426 561.281 522.422C559.355 515.057 562.511 515.025 571.274 522.326ZM572.466 536.766C569.144 542.139 553.879 543.266 545.557 538.753C537.464 534.368 537.598 534.31 555.741 534.193C566.264 534.126 573.416 535.228 572.466 536.766ZM72.5525 558.842C72.5525 561.689 69.7607 563.181 64.5386 563.12C56.8628 563.032 56.7637 562.846 62.181 558.749C69.3906 553.298 72.5525 553.327 72.5525 558.842ZM90.7658 558.528C97.8238 563.886 97.1448 565.564 88.5802 563.927C84.5732 563.16 81.2948 560.719 81.2948 558.502C81.2948 553.502 84.1536 553.511 90.7658 558.528ZM463.046 561.756C463.046 568.049 461.758 569.028 453.575 568.947L444.104 568.856L452.281 561.663C462.422 552.741 463.046 552.747 463.046 561.756ZM484.902 561.995L493.644 569.308L483.445 568.446C475.408 567.767 473.047 566.193 472.313 561.028C471.127 552.663 474.012 552.884 484.902 561.995ZM125.578 628.982C117.911 662.517 110.384 689.707 108.851 689.404C107.318 689.101 103.643 684.188 100.683 678.487L95.3031 668.12L113.094 626.225C122.879 603.185 132.339 580.167 134.111 575.08C141.507 553.869 138.703 571.581 125.578 628.982ZM163.17 588.605C168.64 600.792 171.321 610.678 170.278 614.827C167.314 626.633 164.476 622.009 158.257 595.251C154.906 580.834 152.668 569.04 153.28 569.04C153.892 569.04 158.342 577.845 163.17 588.605ZM85.666 576.545C79.7766 581 68.0006 580.042 62.4987 574.66C60.7852 572.985 65.7888 571.989 75.6123 572.047C90.4219 572.131 91.1009 572.437 85.666 576.545ZM591.469 633.139C602.886 659.58 612.896 682.854 613.715 684.856C614.761 687.414 611.702 688.498 603.431 688.498C594.735 688.498 591.268 687.166 590.16 683.399C586.06 669.451 565.067 579.596 565.239 576.72C565.469 572.825 564.895 571.587 591.469 633.139ZM480.531 582.151C471.485 587.323 466.866 587.34 455.761 582.256C447.342 578.401 447.776 578.25 467.417 578.122C486.525 577.996 487.356 578.25 480.531 582.151ZM533.075 644.968C524.965 680.707 517.887 710.393 517.342 710.935C516.8 711.48 513.507 704.487 510.03 695.4L503.704 678.874L524.726 628.396C536.29 600.635 546.215 578.384 546.786 578.952C547.355 579.523 541.185 609.227 533.075 644.968ZM139.577 650.621C139.577 698.934 139.169 703.066 134.399 703.066C131.549 703.066 126.464 701.137 123.095 698.777L116.973 694.491L126.819 651.588C132.234 627.994 136.663 606.322 136.663 603.432C136.663 600.542 137.319 598.176 138.12 598.176C138.922 598.176 139.577 621.776 139.577 650.621ZM158.84 637.134C158.114 643.337 156.106 649.828 154.378 651.556C152.129 653.805 151.307 646.452 151.493 625.71L151.756 596.719L155.955 611.287C158.266 619.3 159.563 630.931 158.84 637.134ZM186.204 608.374C186.204 613.982 184.892 618.571 183.289 618.571C180.049 618.571 179.417 609.889 182.144 602.785C184.921 595.551 186.204 597.317 186.204 608.374ZM260.791 610.559C260.109 617.368 259.439 631.138 259.304 641.152L259.057 659.362H245.701C238.355 659.362 232.78 658.275 233.316 656.946C236.941 647.926 260.56 598.176 261.216 598.176C261.665 598.176 261.473 603.75 260.791 610.559ZM573.969 643.177C579.017 665.524 583.746 685.374 584.481 687.291C585.774 690.662 569.333 711.806 565.416 711.806C564.353 711.806 563.228 685.913 562.919 654.263C562.61 622.612 562.904 598.03 563.575 599.633C564.245 601.235 568.922 620.829 573.969 643.177ZM216.286 668.831C214.083 673.236 211.245 676.843 209.977 676.843C208.712 676.843 204.81 669.935 201.31 661.491C196.517 649.93 194.981 640.394 195.083 622.886L195.217 599.633L207.756 630.226C219.326 658.456 219.984 661.439 216.286 668.831ZM549.22 719.857C548.462 720.611 542.083 721.879 535.039 722.674L522.235 724.116L535.622 663.077L549.013 602.037L549.802 660.259C550.237 692.282 549.974 719.099 549.22 719.857ZM444.833 647.063L432.762 688.498H406.859H380.955L393.267 674.658C400.037 667.045 416.805 648.083 430.53 632.516C444.256 616.948 455.804 604.531 456.195 604.921C456.585 605.311 451.471 624.276 444.833 647.063ZM463.046 649.164V688.498H451.048C441.035 688.498 439.284 687.656 440.45 683.399C450.649 646.166 461.341 609.83 462.093 609.83C462.618 609.83 463.046 627.531 463.046 649.164ZM491.074 692.341L484.421 707.436L479.563 698.113C475.696 690.695 474.749 680.861 474.924 650.038L475.148 611.287L486.438 644.266L497.727 677.242L491.074 692.341ZM182.849 665.189L182.619 695.782L175.459 666.646C169.538 642.547 168.876 635.998 171.642 628.769L174.987 620.028L179.035 627.312C181.821 632.323 183.01 644.135 182.849 665.189ZM86.7151 648.436C89.0202 657.27 88.7754 659.362 85.43 659.362C82.4081 659.362 81.356 655.641 81.525 645.522C81.7698 630.87 82.1953 631.108 86.7151 648.436ZM68.3736 658.683C64.7367 662.319 63.5624 656.439 65.8033 645.819L68.1754 634.596L69.0992 645.813C69.6092 651.984 69.2828 657.774 68.3736 658.683ZM173.964 703.488C171.881 704.808 165.965 705.909 160.819 705.936L151.458 705.979L152.344 687.769C152.831 677.755 155.608 664.315 158.511 657.905L163.791 646.25L170.773 673.667C176.371 695.651 177.004 701.559 173.964 703.488ZM199.594 688.014C195.339 692.265 194.955 691.557 195.062 679.652L195.179 666.646L199.71 675.008C203.822 682.595 203.811 683.795 199.594 688.014ZM507.65 706.708C512.805 722.275 509.841 724.88 497.94 715.245C491.887 710.344 491.666 709.109 495.017 698.952C499.204 686.269 501.314 687.565 507.65 706.708ZM1082.9 713.633C1081.77 714.764 1080.84 724.049 1080.84 734.267V752.842L1103.43 751.991L1126.01 751.14V732.202V713.263L1105.48 712.418C1094.19 711.955 1084.03 712.503 1082.9 713.633ZM1506.3 758.136V804.465L1496.83 795.575C1483.08 782.657 1466.54 776.043 1447.81 775.97C1414.38 775.839 1387.72 792.234 1373.16 821.871C1365.84 836.777 1364.97 841.645 1364.97 867.684C1364.97 900.311 1369.66 914.698 1386.53 933.922C1415.15 966.505 1468.77 968.737 1497.62 938.546L1506.3 929.461V943.006V956.549H1526.7H1547.1V834.178V711.806H1526.7H1506.3V758.136ZM1917.2 756.967C1917.2 781.806 1916.42 802.128 1915.47 802.128C1914.53 802.128 1908.57 797.694 1902.24 792.274C1887.74 779.868 1869.57 774.659 1847.71 776.64C1826.06 778.604 1810.19 786.797 1795.32 803.696C1780.37 820.67 1773.76 840.299 1773.76 867.684C1773.76 895.197 1780.38 914.707 1795.58 931.973C1811.71 950.299 1831.52 959.398 1855.36 959.433C1877.28 959.468 1889.21 954.932 1905.22 940.469L1917.2 929.648V943.1V956.549H1937.6H1957.99V834.178V711.806H1937.6H1917.2V756.967ZM911.344 723.041C889.348 730.319 877.514 737.974 861.04 755.583C818.561 800.986 817.687 875.21 859.079 921.947C884.598 950.76 925.964 965.325 966.791 959.87C992.366 956.456 1019.62 943.953 1034.12 928.98L1044.22 918.553L1030.72 905.06L1017.23 891.57L1004.98 902.05C984.346 919.712 953.319 926.198 925.9 918.585C910.479 914.302 887.614 892.56 880.055 874.988C868.154 847.335 872.167 809.628 889.418 787.015C916.904 750.983 962.752 745.971 1002.75 774.624L1016.46 784.443L1029.83 769.248L1043.21 754.054L1033.61 745.715C1028.33 741.129 1015.6 733.367 1005.32 728.464C989.041 720.699 982.836 719.423 957.239 718.566C934.328 717.8 924.213 718.785 911.344 723.041ZM324.625 768.354C425.171 783.513 498.132 782.607 566.092 765.347C575.485 762.964 583.775 761.617 584.516 762.357C585.256 763.098 580.975 771.063 575.001 780.06C567.777 790.937 561.605 796.965 556.575 798.058C552.416 798.961 547.279 800.243 545.163 800.902C543.045 801.563 525.382 804.077 505.91 806.487C455.323 812.748 414.086 811.979 356.68 803.704C329.433 799.774 290.923 794.471 271.101 791.919C230.533 786.695 150.255 785.864 123.55 790.389C113.933 792.021 105.91 793.361 105.724 793.37C105.535 793.379 101.799 787.974 97.4187 781.357C87.6243 766.556 88.5336 765.813 121.9 761.396C135.629 759.578 148.83 757.582 151.234 756.961C153.638 756.341 177.898 756.277 205.145 756.819C243.393 757.582 270.626 760.21 324.625 768.354ZM1631.61 778.883C1624.4 780.372 1613.03 783.659 1606.34 786.188L1594.19 790.78L1598.72 804.468C1601.21 811.994 1604.22 819.237 1605.41 820.56C1606.6 821.882 1614.53 820.897 1623.04 818.374C1642.56 812.576 1670.15 812.463 1681.12 818.135C1692.06 823.794 1698.64 833.406 1698.64 843.746C1698.64 852.003 1698.61 852.012 1684.8 849.652C1677.18 848.352 1660.84 847.385 1648.47 847.502C1618.26 847.787 1596.04 858.489 1585.94 877.611C1572.54 902.98 1579.93 934.7 1602.76 949.801C1614.23 957.388 1617.29 958.006 1643.55 958.006C1670.87 958.006 1672.44 957.653 1685.37 948.537C1692.76 943.327 1699.2 939.067 1699.67 939.067C1700.15 939.067 1699.96 943.001 1699.26 947.808L1697.98 956.549H1719.44H1740.89L1740.47 892.153L1740.05 827.753L1731.73 811.612C1719.79 788.449 1701.64 778.537 1668.69 777.17C1655.51 776.622 1638.82 777.395 1631.61 778.883ZM1083.76 867.684V956.549H1104.15H1124.55V867.684V778.819H1104.15H1083.76V867.684ZM1168.76 848.253L1169.72 917.69L1178.46 931.795C1190.35 950.969 1206.64 959.463 1231.52 959.463C1252.26 959.463 1263.6 955.002 1278.27 941.083L1287.74 932.098V944.323V956.549H1308.14H1328.54V867.684V778.819H1308.36H1288.17L1287.23 837.957C1286.42 888.511 1285.54 898.233 1281.15 904.932C1273.38 916.764 1263.24 922.072 1248.4 922.072C1233.57 922.072 1223.42 916.764 1215.66 904.932C1211.27 898.233 1210.38 888.511 1209.58 837.957L1208.63 778.819H1188.22H1167.8L1168.76 848.253ZM1473.51 815.35C1479.41 817.815 1486.76 822.078 1489.85 824.819C1499.05 832.98 1506.17 851.989 1506.24 868.529C1506.42 911.149 1466.75 937.482 1432 917.807C1396.09 897.473 1396.91 835.789 1433.34 817.425C1448.61 809.724 1458.78 809.199 1473.51 815.35ZM1888.29 817.637C1897.86 822.701 1903.12 828.292 1909.14 839.821C1919.62 859.887 1919.64 874.933 1909.18 895.57C1883.4 946.453 1815.33 926.227 1815.33 867.684C1815.33 824.513 1852.75 798.847 1888.29 817.637ZM257.6 821.002C278.436 823.342 318.432 828.656 346.481 832.817C402.26 841.086 466.464 842.822 506.463 837.138C518.324 835.454 528.547 834.594 529.182 835.232C531.414 837.464 496.445 866.929 486.359 871.309C471.004 877.978 408.802 874.327 321.711 861.641C272.342 854.448 233.829 850.564 202.231 849.585L155.605 848.143L141.617 834.603L127.632 821.067L137.246 819.266C155.532 815.839 219.859 816.769 257.6 821.002ZM1693.63 880.553C1703.39 884.262 1704.24 895.288 1695.84 909.06C1688.26 921.487 1674.21 928.424 1656.11 928.669C1633.55 928.975 1619.96 918.739 1619.96 901.447C1619.96 893.283 1630.95 881.183 1641.27 878.001C1652 874.688 1682.06 876.154 1693.63 880.553ZM234.508 881.02C252.016 882.747 286.668 887.234 311.511 890.993C336.354 894.754 372.416 899.486 391.65 901.511L426.619 905.194L409.134 910.43C366.064 923.328 316.209 924.295 272.8 913.072C249.181 906.962 203.085 886.891 199.55 881.174C197.076 877.171 195.526 877.177 234.508 881.02Z" fill="white"/>
</svg>
