<svg width="250" height="250" viewBox="0 0 250 250" fill="none" xmlns="http://www.w3.org/2000/svg">
<path d="M105.773 41.4777C112.993 41.4777 118.879 35.6707 118.879 28.4511C118.879 21.31 112.993 15.5029 105.773 15.5029C98.6323 15.5029 92.8253 21.31 92.8253 28.4511C92.8253 35.6707 98.6323 41.4777 105.773 41.4777ZM183.776 41.4777C190.996 41.4777 196.881 35.6707 196.881 28.4511C196.881 21.31 190.996 15.5029 183.776 15.5029C176.714 15.5029 170.828 21.31 170.828 28.4511C170.828 35.6707 176.714 41.4777 183.776 41.4777ZM65.9088 78.8313C73.2068 78.8313 78.9354 73.0242 78.9354 65.8046C78.9354 58.6635 73.2068 52.8564 65.9088 52.8564C58.7676 52.8564 53.0391 58.6635 53.0391 65.8046C53.0391 73.0242 58.7676 78.8313 65.9088 78.8313ZM146.109 78.8313C153.329 78.8313 159.214 73.0242 159.214 65.8046C159.214 58.6635 153.329 52.8564 146.109 52.8564C138.968 52.8564 133.161 58.6635 133.161 65.8046C133.161 73.0242 138.968 78.8313 146.109 78.8313ZM183.776 78.8313C190.996 78.8313 196.881 73.0242 196.881 65.8046C196.881 58.6635 190.996 52.8564 183.776 52.8564C176.714 52.8564 170.828 58.6635 170.828 65.8046C170.828 73.0242 176.714 78.8313 183.776 78.8313ZM133.946 221.575C169.18 221.575 189.191 199.524 189.191 161.935V146.319C189.191 132.115 182.364 123.012 174.281 123.012C172.241 123.012 171.142 124.111 171.142 126.072V132.821C171.142 135.803 169.651 137.294 167.925 137.294C166.041 137.294 164.55 135.803 164.55 132.821V128.427C164.55 119.873 159.057 114.223 151.602 114.223C148.071 114.223 146.423 115.714 146.423 118.774V128.034C146.423 131.016 144.932 132.507 143.205 132.507C141.244 132.507 139.831 131.016 139.831 128.034V119.481C139.831 110.064 134.338 105.277 126.961 105.277C123.587 105.277 121.782 106.925 121.782 109.828V128.034C121.782 131.016 120.291 132.507 118.565 132.507C116.681 132.507 115.19 131.016 115.19 128.034V67.9234C115.19 61.8025 111.11 57.6433 105.773 57.6433C100.123 57.6433 96.1996 61.724 96.1996 67.9234V155.108C96.1996 157.148 94.9441 158.168 93.6885 158.168C92.5114 158.168 91.4912 157.462 90.7065 155.579L79.2493 128.505C77.4444 124.189 74.6194 121.992 70.4602 121.992C64.5747 121.992 60.651 125.994 60.651 131.095C60.651 132.978 61.0434 134.548 61.5142 135.96L74.9332 175.276C86.0765 207.921 107.5 221.575 133.946 221.575Z" fill="#6A37FC"/>
</svg>
