<svg id="SvgjsSvg1011" width="288" height="288" xmlns="http://www.w3.org/2000/svg" version="1.1" xmlns:xlink="http://www.w3.org/1999/xlink" xmlns:svgjs="http://svgjs.com/svgjs"><defs id="SvgjsDefs1012"></defs><g id="SvgjsG1013"><svg xmlns="http://www.w3.org/2000/svg" viewBox="0 0 24 24" width="288" height="288"><path d="M13.41,12l3.3-3.29a1,1,0,1,0-1.42-1.42l-4,4a1,1,0,0,0,0,1.42l4,4a1,1,0,0,0,1.42,0,1,1,0,0,0,0-1.42ZM8,7A1,1,0,0,0,7,8v8a1,1,0,0,0,2,0V8A1,1,0,0,0,8,7Z" fill="#35fd2e" class="color000 svgShape"></path></svg></g></svg>