<svg width="459" height="339" viewBox="0 0 459 339" fill="none" xmlns="http://www.w3.org/2000/svg">
<path d="M47.5938 337H9.19531V280.984H47.5938V292.195H20.4062V303.406H38.8047V314.617H20.4062V325.789H47.5938V337ZM51.5391 297.781C51.5391 295.464 51.9818 293.289 52.8672 291.258C53.7526 289.227 54.9505 287.456 56.4609 285.945C57.9974 284.409 59.7812 283.198 61.8125 282.312C63.8438 281.427 66.0182 280.984 68.3359 280.984H94.0391V292.195H68.3359C67.5547 292.195 66.8255 292.339 66.1484 292.625C65.4714 292.911 64.8724 293.315 64.3516 293.836C63.8568 294.331 63.4661 294.917 63.1797 295.594C62.8932 296.271 62.75 297 62.75 297.781C62.75 298.562 62.8932 299.305 63.1797 300.008C63.4661 300.685 63.8568 301.284 64.3516 301.805C64.8724 302.299 65.4714 302.69 66.1484 302.977C66.8255 303.263 67.5547 303.406 68.3359 303.406H79.5469C81.8646 303.406 84.0391 303.849 86.0703 304.734C88.1276 305.594 89.9115 306.792 91.4219 308.328C92.9583 309.839 94.1562 311.622 95.0156 313.68C95.901 315.711 96.3438 317.885 96.3438 320.203C96.3438 322.521 95.901 324.695 95.0156 326.727C94.1562 328.758 92.9583 330.542 91.4219 332.078C89.9115 333.589 88.1276 334.786 86.0703 335.672C84.0391 336.557 81.8646 337 79.5469 337H54.6641V325.789H79.5469C80.3281 325.789 81.0573 325.646 81.7344 325.359C82.4115 325.073 82.9974 324.682 83.4922 324.188C84.013 323.667 84.4167 323.068 84.7031 322.391C84.9896 321.714 85.1328 320.984 85.1328 320.203C85.1328 319.422 84.9896 318.693 84.7031 318.016C84.4167 317.339 84.013 316.753 83.4922 316.258C82.9974 315.737 82.4115 315.333 81.7344 315.047C81.0573 314.76 80.3281 314.617 79.5469 314.617H68.3359C66.0182 314.617 63.8438 314.174 61.8125 313.289C59.7812 312.404 57.9974 311.206 56.4609 309.695C54.9505 308.159 53.7526 306.375 52.8672 304.344C51.9818 302.286 51.5391 300.099 51.5391 297.781ZM148.453 331.258C145.849 333.497 142.932 335.216 139.703 336.414C136.474 337.612 133.128 338.211 129.664 338.211C127.008 338.211 124.443 337.859 121.969 337.156C119.521 336.479 117.216 335.516 115.055 334.266C112.919 332.99 110.966 331.466 109.195 329.695C107.424 327.924 105.901 325.971 104.625 323.836C103.375 321.674 102.398 319.37 101.695 316.922C101.018 314.448 100.68 311.883 100.68 309.227C100.68 306.57 101.018 304.005 101.695 301.531C102.398 299.057 103.375 296.753 104.625 294.617C105.901 292.456 107.424 290.49 109.195 288.719C110.966 286.948 112.919 285.438 115.055 284.188C117.216 282.911 119.521 281.935 121.969 281.258C124.443 280.555 127.008 280.203 129.664 280.203C133.128 280.203 136.474 280.802 139.703 282C142.932 283.172 145.849 284.891 148.453 287.156L142.516 296.922C140.875 295.151 138.935 293.797 136.695 292.859C134.456 291.896 132.112 291.414 129.664 291.414C127.19 291.414 124.872 291.883 122.711 292.82C120.549 293.758 118.661 295.034 117.047 296.648C115.432 298.237 114.156 300.125 113.219 302.312C112.281 304.474 111.812 306.779 111.812 309.227C111.812 311.674 112.281 313.979 113.219 316.141C114.156 318.276 115.432 320.151 117.047 321.766C118.661 323.38 120.549 324.656 122.711 325.594C124.872 326.531 127.19 327 129.664 327C132.112 327 134.456 326.531 136.695 325.594C138.935 324.63 140.875 323.263 142.516 321.492L148.453 331.258ZM199.156 314.617C199.156 317.716 198.57 320.633 197.398 323.367C196.227 326.076 194.625 328.445 192.594 330.477C190.562 332.482 188.18 334.07 185.445 335.242C182.737 336.414 179.833 337 176.734 337C173.635 337 170.719 336.414 167.984 335.242C165.276 334.07 162.906 332.482 160.875 330.477C158.87 328.445 157.281 326.076 156.109 323.367C154.938 320.633 154.352 317.716 154.352 314.617V280.984H165.523V314.617C165.523 316.154 165.81 317.599 166.383 318.953C166.982 320.307 167.789 321.492 168.805 322.508C169.82 323.523 171.005 324.331 172.359 324.93C173.74 325.503 175.198 325.789 176.734 325.789C178.271 325.789 179.716 325.503 181.07 324.93C182.451 324.331 183.648 323.523 184.664 322.508C185.68 321.492 186.474 320.307 187.047 318.953C187.646 317.599 187.945 316.154 187.945 314.617V280.984H199.156V314.617ZM253.609 331.258C251.005 333.497 248.089 335.216 244.859 336.414C241.63 337.612 238.284 338.211 234.82 338.211C232.164 338.211 229.599 337.859 227.125 337.156C224.677 336.479 222.372 335.516 220.211 334.266C218.076 332.99 216.122 331.466 214.352 329.695C212.581 327.924 211.057 325.971 209.781 323.836C208.531 321.674 207.555 319.37 206.852 316.922C206.174 314.448 205.836 311.883 205.836 309.227C205.836 306.57 206.174 304.005 206.852 301.531C207.555 299.057 208.531 296.753 209.781 294.617C211.057 292.456 212.581 290.49 214.352 288.719C216.122 286.948 218.076 285.438 220.211 284.188C222.372 282.911 224.677 281.935 227.125 281.258C229.599 280.555 232.164 280.203 234.82 280.203C238.284 280.203 241.63 280.802 244.859 282C248.089 283.172 251.005 284.891 253.609 287.156L247.672 296.922C246.031 295.151 244.091 293.797 241.852 292.859C239.612 291.896 237.268 291.414 234.82 291.414C232.346 291.414 230.029 291.883 227.867 292.82C225.706 293.758 223.818 295.034 222.203 296.648C220.589 298.237 219.312 300.125 218.375 302.312C217.438 304.474 216.969 306.779 216.969 309.227C216.969 311.674 217.438 313.979 218.375 316.141C219.312 318.276 220.589 320.151 222.203 321.766C223.818 323.38 225.706 324.656 227.867 325.594C230.029 326.531 232.346 327 234.82 327C237.268 327 239.612 326.531 241.852 325.594C244.091 324.63 246.031 323.263 247.672 321.492L253.609 331.258ZM271.344 337H260.133V280.984H271.344V303.406H293.727V280.984H304.938V337H293.727V314.617H271.344V337ZM348.336 314.617V303.406C348.336 301.87 348.036 300.424 347.438 299.07C346.865 297.69 346.07 296.492 345.055 295.477C344.039 294.461 342.841 293.667 341.461 293.094C340.107 292.495 338.661 292.195 337.125 292.195C335.589 292.195 334.13 292.495 332.75 293.094C331.396 293.667 330.211 294.461 329.195 295.477C328.18 296.492 327.372 297.69 326.773 299.07C326.201 300.424 325.914 301.87 325.914 303.406V314.617H348.336ZM359.547 337H348.336V325.789H325.914V337H314.742V303.406C314.742 300.307 315.328 297.404 316.5 294.695C317.672 291.961 319.26 289.578 321.266 287.547C323.297 285.516 325.667 283.914 328.375 282.742C331.109 281.57 334.026 280.984 337.125 280.984C340.224 280.984 343.128 281.57 345.836 282.742C348.57 283.914 350.953 285.516 352.984 287.547C355.016 289.578 356.617 291.961 357.789 294.695C358.961 297.404 359.547 300.307 359.547 303.406V337ZM391.07 337H379.898V292.195H363.062V280.984H407.867V292.195H391.07V337ZM452.203 337H413.805V280.984H452.203V292.195H425.016V303.406H443.414V314.617H425.016V325.789H452.203V337Z" fill="#DC1ED5"/>
<path fill-rule="evenodd" clip-rule="evenodd" d="M227.926 97.2178L227.926 97.2714C227.923 105.687 227.919 114.104 227.919 122.521C227.919 129.635 227.919 136.749 227.92 143.864C227.921 169.742 227.922 195.618 227.907 221.491C222.299 230.288 211.288 234.278 201.736 234.207C185.055 234.094 159.878 208.986 160.389 190.71C160.779 176.587 157.095 169.694 146.725 161.232C125.215 143.667 113.728 114.284 119.406 86.4537C127.019 49.1122 169.181 16.4959 204.97 18.1432C212.928 18.5123 220.774 21.4925 227.874 24.8088C227.921 40.6096 227.933 56.4089 227.933 72.2082C221.038 65.4994 212.087 60.7222 203.444 59.2731C179.749 55.3022 154.537 75.1998 152.144 95.843C149.162 121.549 166.614 144.62 192.329 148.149C194.758 148.479 197.826 148.253 200.899 148.027C204.036 147.796 207.178 147.564 209.652 147.923C209.559 148.965 209.511 150.653 209.464 152.33V152.33L209.464 152.331C209.418 153.948 209.373 155.554 209.288 156.559C204.181 156.983 196.699 159.203 192.034 160.868C188.61 162.081 185.445 163.269 182.593 166.061C185.385 168.272 187.439 169.347 190.595 170.214C205.499 174.306 217.325 169.52 218.998 156.914C220.827 143.094 215.071 134.398 198.147 137.138C186.997 138.941 175.007 129.465 168.305 122.971C157.78 112.775 160.372 96.3718 167.23 84.2946C173.88 72.5815 188.514 66.2697 201.025 68.1164C214.652 70.1276 225.393 81.0659 227.927 95.4287L227.926 97.2178ZM237.994 101.883V132.638C246.438 128.988 253.834 130.618 260.561 135.916C265.937 140.155 271.616 140.537 277.693 137.762C281.135 136.193 283.953 136.947 285.21 139.782C286.407 142.479 285.245 145.262 281.837 146.614C279.467 147.56 277.006 148.278 274.64 148.969L274.639 148.969C273.578 149.279 272.536 149.584 271.529 149.9C271.689 151.146 271.868 152.409 272.048 153.684L272.048 153.685L272.049 153.685C272.484 156.76 272.93 159.908 273.15 163.07C273.367 166.208 271.104 168.289 268.208 168.246C265.486 168.211 263.535 166.139 263.388 163.122C263.371 162.788 263.367 162.454 263.363 162.118V162.118C263.357 161.582 263.351 161.046 263.292 160.512C262.469 152.484 259.001 146.034 251.857 141.941C246.022 138.595 240.43 140.892 238.548 147.351C238.072 148.999 237.803 150.767 237.794 152.484C237.748 166.579 237.756 180.673 237.765 194.768L237.768 200.056C237.768 200.627 237.805 201.198 237.847 201.861C237.867 202.165 237.888 202.488 237.907 202.839C238.991 202.466 239.788 202.189 240.577 201.911C244.245 200.663 247.929 200.507 251.579 201.92C254.215 202.943 255.464 205.57 254.657 208.05C253.825 210.599 251.207 212.281 248.675 211.266C243.568 209.22 237.395 215.801 237.759 222.416C238.02 227.098 240.464 228.675 244.366 231.025C248.944 233.791 254.033 234.831 259.261 235.481C277.19 237.692 296.039 227.808 303.807 211.925C307.249 204.885 308.628 197.438 307.362 189.583C306.712 185.586 309.235 182.829 312.885 183.332C315.199 183.652 316.925 185.343 317.064 188.282C317.222 191.595 317.188 194.917 317.154 198.291C317.139 199.73 317.124 201.178 317.124 202.64C317.334 202.568 317.502 202.52 317.641 202.481L317.641 202.481L317.642 202.48C317.854 202.421 317.997 202.38 318.113 202.301C330.909 193.181 336.796 174.263 331.534 159.515C330.961 157.911 330.277 157.625 328.664 157.972C322.257 159.385 316.023 158.735 310.084 155.857C306.85 154.287 305.637 151.574 306.911 148.921C308.229 146.181 310.925 145.435 314.289 146.996C318.399 148.895 322.664 149.302 327.043 148.296C331.551 147.256 334.993 145.08 337.186 140.589C342.076 130.575 342.241 120.301 339.917 109.741C338.738 104.366 336.762 99.3285 333.493 94.9675C332.747 96.2679 332.02 97.5636 331.298 98.8505L331.297 98.8517C329.613 101.854 327.955 104.808 326.141 107.66C323.661 111.553 320.61 112.446 317.956 110.495C315.39 108.605 315.416 105.805 318.113 102.051C325.118 92.2712 327.502 81.9019 322.872 70.3015C319.812 62.6372 315.728 55.9614 308.29 51.8778C307.379 51.3837 306.122 51.0022 305.16 51.2189C302.914 51.7121 300.692 52.3005 298.469 52.8891C296.667 53.3663 294.864 53.8438 293.048 54.2708C287.542 55.5626 284.057 60.4178 284.681 66.1226C285.262 71.4459 290.022 75.5555 295.579 75.2867C297.034 75.2196 298.482 74.7226 299.896 74.2373C300.125 74.1584 300.354 74.0799 300.582 74.0036C302.602 73.336 304.674 73.44 305.81 75.1393C306.712 76.4918 307.31 78.6507 306.885 80.1159C306.486 81.4944 304.77 82.8469 303.313 83.5145C295.553 87.0518 286.103 85.0144 280.286 78.772C274.312 72.3563 273.029 62.9321 277.095 55.2331C277.385 54.6803 277.685 54.1307 277.976 53.5968C278.155 53.2684 278.331 52.9459 278.5 52.6321C277.589 52.1184 276.69 51.6305 275.805 51.1505L275.802 51.1489L275.801 51.1485C273.925 50.1303 272.113 49.1474 270.393 48.0284C267.359 46.0516 266.665 43.1732 268.356 40.6936C270.055 38.1967 272.743 38.2053 275.959 39.8353C279.479 41.6213 283.207 43.2513 287.031 44.0922C291.843 45.15 296.628 44.1703 301.388 41.8987C301.122 41.2692 300.885 40.6605 300.655 40.0719L300.655 40.0716C300.172 38.8365 299.724 37.6902 299.125 36.6274C291.877 23.8479 281.291 15.1173 267.151 11.0164C258.247 8.44139 249.533 9.77657 241.184 13.548C237.933 15.0219 237.413 15.9582 238.531 19.2615C239.719 22.7815 241.089 26.3188 242.987 29.4834C245.545 33.749 249.299 36.3066 254.735 35.6044C257.57 35.2402 259.764 37.217 260.076 39.8266C260.405 42.523 258.559 45.2193 255.654 45.2367C252.238 45.2627 248.692 44.9679 245.441 43.9969C243.622 43.4624 241.977 42.3458 240.276 41.1913L240.276 41.1912L240.276 41.1907C239.521 40.6785 238.755 40.1588 237.959 39.6792C237.938 39.8158 237.914 39.9468 237.89 40.0741C237.836 40.3672 237.785 40.641 237.785 40.919C237.777 53.2044 237.768 65.4897 237.803 77.775C237.803 78.7114 238.011 79.6824 238.297 80.5841C241.106 89.2193 251.536 92.2538 258.775 86.6357C259.972 85.708 261.394 84.7803 262.833 84.5376C265 84.1734 266.708 85.3699 267.584 87.4333C268.564 89.7395 267.836 91.6989 266.067 93.3115C259.209 99.5713 249.091 101.21 240.534 97.031C240.198 96.8665 239.858 96.7097 239.508 96.5515C239.212 98.2864 238.639 100.077 237.994 101.883ZM228.306 13.9322C219.64 11.1521 210.5 9.63378 201.155 9.59462C164.551 9.4559 133.452 31.1828 119.034 65.2383C104.251 100.161 113.563 139.705 139.529 167.7C146.708 175.442 149.769 182.049 151.797 192.149C156.982 217.994 175.848 241.204 200.627 243.813C211.464 244.949 222.059 242.634 231.162 237.398C231.815 237.023 232.395 236.703 232.909 236.43C240.765 241.574 249.396 244.703 258.81 245.278C280.719 246.622 298.302 238.689 310.535 220.075C311.723 218.272 312.989 216.936 314.957 215.948C337.993 204.374 348.726 178.988 340.706 155.727C340.36 154.703 340.845 152.995 341.556 152.076C357.882 130.913 351.344 100.031 339.545 86.8091C336.458 83.3498 335.14 79.7257 334.282 75.3734C331.56 61.5969 325.482 49.9098 312.546 42.8698C311.948 42.5403 311.307 41.812 311.168 41.1705C309.035 31.3908 303.452 23.6745 296.36 17.042C283.754 5.25952 269.335 -1.98855 251.432 0.482385C245.086 1.35805 238.921 2.85794 233.607 6.69006C230.907 8.63379 229.099 10.9515 228.306 13.9322ZM301.544 175.564C301.215 181.242 299.117 185.924 294.79 189.366C292.76 190.985 290.496 192.317 288.239 193.644L288.238 193.644C287.643 193.994 287.048 194.344 286.459 194.698C285.605 195.214 284.709 195.665 283.814 196.116C282.919 196.567 282.024 197.017 281.17 197.533C277.459 199.77 276.783 201.825 278.292 205.848C278.42 206.194 278.565 206.536 278.71 206.877L278.71 206.877C278.975 207.502 279.239 208.125 279.401 208.77C280.026 211.267 278.794 213.625 276.514 214.526C274.251 215.419 271.564 214.578 270.445 212.35C265.963 203.464 266.448 194.967 275.838 189.28C277.602 188.21 279.438 187.258 281.275 186.305L281.275 186.305L281.275 186.305C282.76 185.534 284.246 184.763 285.696 183.93C291.045 180.87 292.32 177.67 290.759 171.723C290.666 171.363 290.557 171.005 290.449 170.647L290.449 170.647C290.254 170.005 290.058 169.363 289.953 168.706C289.528 166.113 290.898 163.851 293.213 163.148C295.683 162.403 298.362 163.46 299.195 165.992C299.904 168.169 300.397 170.417 300.891 172.667L300.891 172.667L300.891 172.668C301.103 173.635 301.315 174.602 301.544 175.564ZM308.688 129.474C308.774 115.628 297.417 104.21 283.493 104.14C283.406 103.897 283.328 103.646 283.267 103.403C282.052 103.801 280.827 104.175 279.603 104.549C276.794 105.407 273.987 106.265 271.294 107.4C268.225 108.692 267.349 111.605 268.641 114.033C270.193 116.954 272.725 117.631 275.924 115.975C286.753 110.374 298.579 117.423 298.847 129.639C298.925 133.315 300.729 135.395 303.807 135.343C306.85 135.291 308.662 133.107 308.688 129.474Z" fill="url(#paint0_linear_175_623)"/>
<defs>
<linearGradient id="paint0_linear_175_623" x1="231.667" y1="0" x2="231.667" y2="245.424" gradientUnits="userSpaceOnUse">
<stop stop-color="#0A4D87"/>
<stop offset="1" stop-color="#BC1692"/>
</linearGradient>
</defs>
</svg>
