<svg width="218" height="191" viewBox="0 0 218 191" fill="none" xmlns="http://www.w3.org/2000/svg">
<mask id="path-1-inside-1_503_20" fill="white">
<path fill-rule="evenodd" clip-rule="evenodd" d="M51.0449 35.8239C51.0449 26.6107 58.5138 19.1418 67.727 19.1418H69.8123C80.1772 19.1418 88.5796 27.5443 88.5796 37.9092V48.2252C88.58 48.2618 88.5801 48.2984 88.5801 48.3351V150.363C88.6607 143.522 94.231 138.002 101.091 138.002H116.32L142.779 73.7756C145.72 66.6358 153.893 63.2322 161.032 66.1735C168.172 69.1149 171.576 77.2873 168.635 84.4271L158.591 108.807H169.904C176.814 108.807 182.416 114.409 182.416 121.319C182.416 128.229 176.814 133.83 169.904 133.83H148.282L140.529 152.651C139.515 158.543 134.38 163.025 128.199 163.025H101.091C94.231 163.025 88.6607 157.504 88.5801 150.664V152.598C88.5801 152.661 88.5796 152.724 88.5787 152.787C88.4776 163.065 80.1143 171.366 69.8123 171.366H67.727C58.5138 171.366 51.0449 163.897 51.0449 154.684C51.0449 146.911 56.3616 140.379 63.557 138.527V51.9806C56.3616 50.1289 51.0449 43.5973 51.0449 35.8239Z"/>
</mask>
<path fill-rule="evenodd" clip-rule="evenodd" d="M51.0449 35.8239C51.0449 26.6107 58.5138 19.1418 67.727 19.1418H69.8123C80.1772 19.1418 88.5796 27.5443 88.5796 37.9092V48.2252C88.58 48.2618 88.5801 48.2984 88.5801 48.3351V150.363C88.6607 143.522 94.231 138.002 101.091 138.002H116.32L142.779 73.7756C145.72 66.6358 153.893 63.2322 161.032 66.1735C168.172 69.1149 171.576 77.2873 168.635 84.4271L158.591 108.807H169.904C176.814 108.807 182.416 114.409 182.416 121.319C182.416 128.229 176.814 133.83 169.904 133.83H148.282L140.529 152.651C139.515 158.543 134.38 163.025 128.199 163.025H101.091C94.231 163.025 88.6607 157.504 88.5801 150.664V152.598C88.5801 152.661 88.5796 152.724 88.5787 152.787C88.4776 163.065 80.1143 171.366 69.8123 171.366H67.727C58.5138 171.366 51.0449 163.897 51.0449 154.684C51.0449 146.911 56.3616 140.379 63.557 138.527V51.9806C56.3616 50.1289 51.0449 43.5973 51.0449 35.8239Z" fill="white"/>
<path d="M88.5796 48.2252H86.5796V48.2338L86.5797 48.2425L88.5796 48.2252ZM88.5801 150.363H86.5801L90.58 150.387L88.5801 150.363ZM116.32 138.002V140.002H117.659L118.169 138.764L116.32 138.002ZM142.779 73.7756L144.628 74.5374L144.628 74.5374L142.779 73.7756ZM161.032 66.1735L161.794 64.3243L161.794 64.3243L161.032 66.1735ZM168.635 84.4271L170.484 85.189L170.484 85.189L168.635 84.4271ZM158.591 108.807L156.742 108.045L155.604 110.807H158.591V108.807ZM148.282 133.83V131.83H146.943L146.433 133.068L148.282 133.83ZM140.529 152.651L138.68 151.889L138.595 152.094L138.558 152.312L140.529 152.651ZM88.5801 150.664L90.58 150.64L86.5801 150.664H88.5801ZM88.5787 152.787L86.5789 152.758L86.5788 152.768L88.5787 152.787ZM63.557 138.527L64.0554 140.464L65.557 140.078V138.527H63.557ZM63.557 51.9806H65.557V50.4301L64.0554 50.0437L63.557 51.9806ZM67.727 17.1418C57.4092 17.1418 49.0449 25.5061 49.0449 35.8239H53.0449C53.0449 27.7152 59.6183 21.1418 67.727 21.1418V17.1418ZM69.8123 17.1418H67.727V21.1418H69.8123V17.1418ZM90.5796 37.9092C90.5796 26.4397 81.2818 17.1418 69.8123 17.1418V21.1418C79.0726 21.1418 86.5796 28.6488 86.5796 37.9092H90.5796ZM90.5796 48.2252V37.9092H86.5796V48.2252H90.5796ZM90.5801 48.3351C90.5801 48.2927 90.5799 48.2503 90.5796 48.2079L86.5797 48.2425C86.58 48.2732 86.5801 48.3041 86.5801 48.3351H90.5801ZM90.5801 150.363V48.3351H86.5801V150.363H90.5801ZM101.091 136.002C93.1344 136.002 86.6737 142.405 86.5803 150.34L90.58 150.387C90.6477 144.64 95.3277 140.002 101.091 140.002V136.002ZM116.32 136.002H101.091V140.002H116.32V136.002ZM140.93 73.0138L114.471 137.24L118.169 138.764L144.628 74.5374L140.93 73.0138ZM161.794 64.3243C153.633 60.9622 144.292 64.8527 140.93 73.0138L144.628 74.5374C147.149 68.4189 154.152 65.5022 160.271 68.0228L161.794 64.3243ZM170.484 85.189C173.846 77.0278 169.955 67.6864 161.794 64.3243L160.271 68.0228C166.389 70.5434 169.306 77.5468 166.785 83.6653L170.484 85.189ZM160.44 109.569L170.484 85.189L166.785 83.6653L156.742 108.045L160.44 109.569ZM169.904 106.807H158.591V110.807H169.904V106.807ZM184.416 121.319C184.416 113.304 177.919 106.807 169.904 106.807V110.807C175.71 110.807 180.416 115.513 180.416 121.319H184.416ZM169.904 135.83C177.919 135.83 184.416 129.333 184.416 121.319H180.416C180.416 127.124 175.71 131.83 169.904 131.83V135.83ZM148.282 135.83H169.904V131.83H148.282V135.83ZM142.378 153.413L150.132 134.592L146.433 133.068L138.68 151.889L142.378 153.413ZM128.199 165.025C135.37 165.025 141.323 159.825 142.5 152.99L138.558 152.312C137.706 157.26 133.39 161.025 128.199 161.025V165.025ZM101.091 165.025H128.199V161.025H101.091V165.025ZM86.5803 150.687C86.6737 158.622 93.1344 165.025 101.091 165.025V161.025C95.3277 161.025 90.6477 156.387 90.58 150.64L86.5803 150.687ZM90.5801 152.598V150.664H86.5801V152.598H90.5801ZM90.5785 152.817C90.5796 152.744 90.5801 152.671 90.5801 152.598H86.5801C86.5801 152.651 86.5797 152.705 86.5789 152.758L90.5785 152.817ZM69.8123 173.366C81.2123 173.366 90.4667 164.181 90.5786 152.807L86.5788 152.768C86.4884 161.95 79.0163 169.366 69.8123 169.366V173.366ZM67.727 173.366H69.8123V169.366H67.727V173.366ZM49.0449 154.684C49.0449 165.002 57.4092 173.366 67.727 173.366V169.366C59.6183 169.366 53.0449 162.793 53.0449 154.684H49.0449ZM63.0585 136.591C55.001 138.664 49.0449 145.976 49.0449 154.684H53.0449C53.0449 147.845 57.7223 142.094 64.0554 140.464L63.0585 136.591ZM61.557 51.9806V138.527H65.557V51.9806H61.557ZM49.0449 35.8239C49.0449 44.532 55.001 51.8439 63.0585 53.9175L64.0554 50.0437C57.7223 48.4139 53.0449 42.6626 53.0449 35.8239H49.0449Z" fill="white" mask="url(#path-1-inside-1_503_20)"/>
<path d="M97.3751 189.143C95.7885 189.143 94.211 189.104 92.6434 189.028L92.5951 190.027C89.3807 189.872 86.2071 189.561 83.0818 189.101L83.2274 188.112C80.0824 187.649 76.9869 187.035 73.9487 186.276L73.7064 187.246C70.5957 186.469 67.5443 185.543 64.5602 184.475L64.8971 183.533C61.9143 182.466 58.9993 181.256 56.1606 179.911L55.7324 180.814C52.8432 179.445 50.0322 177.939 47.3079 176.302L47.8228 175.445C45.1133 173.818 42.4904 172.061 39.9626 170.183L39.3663 170.986C36.8053 169.083 34.3409 167.058 31.9819 164.919L32.6537 164.178C30.3167 162.058 28.0841 159.826 25.9647 157.489L25.2239 158.161C23.0846 155.802 21.0594 153.337 19.1569 150.776L19.9597 150.18C18.0819 147.652 16.325 145.029 14.6976 142.32L13.8404 142.835C12.204 140.11 10.6971 137.299 9.32823 134.41L10.2319 133.982C8.88693 131.143 7.6766 128.228 6.60915 125.245L5.66762 125.582C4.59973 122.598 3.67335 119.547 2.89657 116.436L3.86678 116.194C3.10808 113.156 2.49357 110.06 2.03096 106.915L1.04161 107.061C0.581892 103.935 0.270648 100.762 0.115269 97.5474L1.1141 97.4992C1.03833 95.9315 1 94.354 1 92.7675C1 91.0394 1.04775 89.3226 1.142 87.6183L0.143526 87.5631C0.337231 84.0603 0.725266 80.6093 1.29703 77.2207L2.28309 77.3871C2.85894 73.9743 3.62316 70.6257 4.56469 67.3521L3.60365 67.0757C4.56853 63.721 5.71761 60.4443 7.03924 57.2572L7.96297 57.6403C9.28333 54.4562 10.7778 51.3625 12.4346 48.3711L11.5598 47.8866C13.2456 44.8429 15.0976 41.9039 17.1034 39.082L17.9185 39.6613C19.9099 36.8598 22.0546 34.1747 24.3405 31.6185L23.5951 30.952C25.9086 28.365 28.365 25.9086 30.9519 23.5951L31.6185 24.3405C34.1747 22.0546 36.8597 19.9099 39.6613 17.9185L39.0819 17.1034C41.9039 15.0976 44.8428 13.2456 47.8866 11.5599L48.3711 12.4346C51.3625 10.7779 54.4562 9.28334 57.6402 7.96297L57.2572 7.03925C60.4443 5.71761 63.721 4.56853 67.0757 3.60365L67.3521 4.56469C70.6256 3.62316 73.9743 2.85894 77.3871 2.28309L77.2207 1.29703C80.6093 0.725266 84.0603 0.337231 87.5631 0.143526L87.6183 1.142C89.3226 1.04775 91.0394 1 92.7674 1H95.8438V0H101.996V1H105.073C106.708 1 108.334 1.03511 109.952 1.1046L109.995 0.105525C113.301 0.247555 116.57 0.531973 119.796 0.952801L119.667 1.9444C122.912 2.3678 126.114 2.93049 129.266 3.62628L129.482 2.64979C132.702 3.36065 135.87 4.20919 138.981 5.18894L138.68 6.14274C141.795 7.12379 144.85 8.23759 147.84 9.47751L148.223 8.55378C151.263 9.81441 154.236 11.2042 157.135 12.7164L156.672 13.603C159.561 15.1099 162.376 16.7394 165.11 18.4845L165.648 17.6417C168.416 19.409 171.102 21.294 173.699 23.2895L173.09 24.0824C175.669 26.0646 178.16 28.1568 180.554 30.3522L181.23 29.6151C183.648 31.8315 185.968 34.1521 188.185 36.5697L187.448 37.2455C189.643 39.64 191.735 42.1305 193.717 44.7099L194.51 44.1006C196.506 46.6974 198.391 49.3835 200.158 52.152L199.315 52.6901C201.06 55.4238 202.69 58.2385 204.197 61.1273L205.083 60.6648C206.595 63.5637 207.985 66.5365 209.246 69.5765L208.322 69.9595C209.562 72.9496 210.676 76.0051 211.657 79.1195L212.611 78.819C213.59 81.9293 214.439 85.0977 215.15 88.3178L214.173 88.5334C214.869 91.6853 215.432 94.8873 215.855 98.1332L216.847 98.0038C217.268 101.23 217.552 104.499 217.694 107.805L216.695 107.848C216.765 109.466 216.8 111.092 216.8 112.727V117.566H217.8V127.242H216.8V136.919H217.8V146.596H216.8V156.273H217.8V165.95H216.8V175.627H217.8V185.304H216.8V189.143H212.782V190.143H202.747V189.143H192.711V190.143H182.676V189.143H172.64V190.143H162.605V189.143H152.57V190.143H142.534V189.143H132.499V190.143H122.464V189.143H112.428V190.143H102.393V189.143H97.3751Z" stroke="white" stroke-width="2" stroke-dasharray="10 10"/>
</svg>
