<svg width="157" height="31" viewBox="0 0 157 31" fill="none" xmlns="http://www.w3.org/2000/svg">
<path d="M0.982887 0.90909H5.18743L15.0738 25.0568H15.4147L25.3011 0.90909H29.5056V30H26.2102V7.89773H25.9261L16.8352 30H13.6533L4.56243 7.89773H4.27834V30H0.982887V0.90909ZM61.1943 15.4545C61.1943 18.5227 60.6403 21.1742 59.5323 23.4091C58.4244 25.6439 56.9045 27.3674 54.9727 28.5795C53.0409 29.7917 50.8344 30.3977 48.3534 30.3977C45.8723 30.3977 43.6659 29.7917 41.7341 28.5795C39.8022 27.3674 38.2823 25.6439 37.1744 23.4091C36.0664 21.1742 35.5125 18.5227 35.5125 15.4545C35.5125 12.3864 36.0664 9.73485 37.1744 7.5C38.2823 5.26515 39.8022 3.54167 41.7341 2.32955C43.6659 1.11742 45.8723 0.511363 48.3534 0.511363C50.8344 0.511363 53.0409 1.11742 54.9727 2.32955C56.9045 3.54167 58.4244 5.26515 59.5323 7.5C60.6403 9.73485 61.1943 12.3864 61.1943 15.4545ZM57.7852 15.4545C57.7852 12.9356 57.3638 10.8097 56.521 9.0767C55.6877 7.34375 54.556 6.0322 53.1261 5.14205C51.7056 4.25189 50.1147 3.80682 48.3534 3.80682C46.592 3.80682 44.9964 4.25189 43.5664 5.14205C42.146 6.0322 41.0144 7.34375 40.1716 9.0767C39.3382 10.8097 38.9216 12.9356 38.9216 15.4545C38.9216 17.9735 39.3382 20.0994 40.1716 21.8324C41.0144 23.5653 42.146 24.8769 43.5664 25.767C44.9964 26.6572 46.592 27.1023 48.3534 27.1023C50.1147 27.1023 51.7056 26.6572 53.1261 25.767C54.556 24.8769 55.6877 23.5653 56.521 21.8324C57.3638 20.0994 57.7852 17.9735 57.7852 15.4545ZM64.3957 4.03409V0.90909H86.2139V4.03409H77.0662V30H73.5435V4.03409H64.3957ZM95.2534 0.90909V30H91.7307V0.90909H95.2534ZM126.942 15.4545C126.942 18.5227 126.388 21.1742 125.28 23.4091C124.172 25.6439 122.652 27.3674 120.721 28.5795C118.789 29.7917 116.582 30.3977 114.101 30.3977C111.62 30.3977 109.414 29.7917 107.482 28.5795C105.55 27.3674 104.03 25.6439 102.922 23.4091C101.814 21.1742 101.26 18.5227 101.26 15.4545C101.26 12.3864 101.814 9.73485 102.922 7.5C104.03 5.26515 105.55 3.54167 107.482 2.32955C109.414 1.11742 111.62 0.511363 114.101 0.511363C116.582 0.511363 118.789 1.11742 120.721 2.32955C122.652 3.54167 124.172 5.26515 125.28 7.5C126.388 9.73485 126.942 12.3864 126.942 15.4545ZM123.533 15.4545C123.533 12.9356 123.112 10.8097 122.269 9.0767C121.435 7.34375 120.304 6.0322 118.874 5.14205C117.453 4.25189 115.863 3.80682 114.101 3.80682C112.34 3.80682 110.744 4.25189 109.314 5.14205C107.894 6.0322 106.762 7.34375 105.919 9.0767C105.086 10.8097 104.669 12.9356 104.669 15.4545C104.669 17.9735 105.086 20.0994 105.919 21.8324C106.762 23.5653 107.894 24.8769 109.314 25.767C110.744 26.6572 112.34 27.1023 114.101 27.1023C115.863 27.1023 117.453 26.6572 118.874 25.767C120.304 24.8769 121.435 23.5653 122.269 21.8324C123.112 20.0994 123.533 17.9735 123.533 15.4545ZM156.014 0.90909V30H152.604L136.752 7.15909H136.468V30H132.945V0.90909H136.354L152.264 23.8068H152.548V0.90909H156.014Z" fill="white"/>
</svg>
