<svg width="1894" height="365" viewBox="0 0 1894 365" fill="none" xmlns="http://www.w3.org/2000/svg">
<rect width="1894" height="365" fill="url(#paint0_linear_192_8471)"/>
<path d="M668.983 109.312H714.76C737.465 109.312 752.846 124.033 752.846 146.738C752.846 169.297 736.659 184.019 713.148 184.019H695.863V215H668.983V109.312ZM695.863 129.893V163.804H707.509C718.935 163.804 725.673 157.871 725.673 146.812C725.673 135.825 718.935 129.893 707.655 129.893H695.863ZM757.026 215V135.239H782.295V150.327H782.808C785.737 139.561 792.183 134.067 801.558 134.067C804.194 134.067 806.392 134.434 808.149 135.093V157.212C805.952 156.333 802.949 155.747 799.873 155.747C788.96 155.747 783.027 161.899 783.027 173.032V215H757.026ZM846.388 216.904C821.266 216.904 805.592 201.67 805.592 175.083C805.592 149.009 821.632 133.335 846.388 133.335C871.29 133.335 887.184 148.936 887.184 175.083C887.184 201.743 871.51 216.904 846.388 216.904ZM846.388 197.861C855.25 197.861 860.89 189.731 860.89 175.156C860.89 160.801 855.25 152.378 846.388 152.378C837.599 152.378 831.959 160.801 831.959 175.156C831.959 189.731 837.452 197.861 846.388 197.861ZM917.365 135.239V218.589C917.365 234.775 906.379 243.711 886.823 243.711C884.406 243.711 880.598 243.564 879.206 243.418V224.961C879.938 225.034 881.257 225.107 882.282 225.107C888.728 225.107 891.438 222.91 891.438 217.563V135.239H917.365ZM904.401 128.794C896.857 128.794 891.071 123.228 891.071 116.05C891.071 108.872 896.857 103.379 904.401 103.379C911.945 103.379 917.658 108.872 917.658 116.05C917.658 123.228 911.945 128.794 904.401 128.794ZM961.756 151.792C953.772 151.792 947.84 157.725 947.181 166.001H976.185C975.745 157.505 969.959 151.792 961.756 151.792ZM976.771 189.805H1000.21C997.718 206.284 983.069 216.904 962.195 216.904C936.78 216.904 921.619 201.304 921.619 175.522C921.619 149.741 936.927 133.335 961.316 133.335C985.34 133.335 1000.65 149.082 1000.65 173.472V180.796H946.814V182.407C946.814 191.929 953.187 198.521 962.562 198.521C969.52 198.521 974.939 195.225 976.771 189.805ZM1080.41 166.733H1056.54C1055.66 158.457 1050.68 153.11 1043.13 153.11C1033.98 153.11 1028.63 161.021 1028.63 175.083C1028.63 189.292 1033.98 197.202 1043.13 197.202C1050.75 197.202 1055.66 192.295 1056.61 184.019H1080.41C1079.75 204.307 1065.33 216.904 1042.84 216.904C1017.87 216.904 1002.34 201.23 1002.34 175.083C1002.34 149.229 1017.87 133.335 1042.69 133.335C1065.18 133.335 1079.75 146.738 1080.41 166.733ZM1090.53 117.368H1116.53V135.239H1130.88V154.355H1116.53V187.827C1116.53 193.32 1119.46 196.104 1125.68 196.104C1127.73 196.104 1129.27 196.03 1130.81 195.737V214.194C1128.32 214.707 1124.51 215.146 1119.46 215.146C1098.73 215.146 1090.53 208.774 1090.53 193.101V154.355H1079.69V135.239H1090.53V117.368ZM1134.26 159.409C1134.26 143.442 1147.88 133.335 1169.85 133.335C1191.61 133.335 1205.16 143.662 1205.3 160.142H1181.57C1181.35 154.429 1176.81 150.84 1169.63 150.84C1163.26 150.84 1159.16 153.623 1159.16 157.725C1159.16 160.874 1162.09 163.145 1168.1 164.39L1184.8 167.759C1200.69 171.128 1207.5 177.646 1207.5 189.731C1207.5 206.284 1192.49 216.904 1170.22 216.904C1146.93 216.904 1133.45 206.284 1132.35 189.951H1157.55C1158.28 195.884 1163.04 199.399 1170.66 199.399C1177.54 199.399 1181.79 196.909 1181.79 192.661C1181.79 189.438 1179.38 187.607 1173.15 186.289L1158.06 183.14C1142.46 179.844 1134.26 171.641 1134.26 159.409Z" fill="#FEFEFE"/>
<defs>
<linearGradient id="paint0_linear_192_8471" x1="947" y1="0" x2="947" y2="365" gradientUnits="userSpaceOnUse">
<stop stop-color="#1F1F1F"/>
<stop offset="1" stop-color="#6A37FC"/>
</linearGradient>
</defs>
</svg>
