<svg width="1894" height="365" viewBox="0 0 1894 365" fill="none" xmlns="http://www.w3.org/2000/svg">
<rect width="1894" height="365" fill="url(#paint0_linear_192_8471)"/>
<path d="M763.322 155.541H793.84C808.977 155.541 819.23 165.355 819.23 180.492C819.23 195.531 808.439 205.346 792.766 205.346H781.242V226H763.322V155.541ZM781.242 169.262V191.869H789.006C796.623 191.869 801.115 187.914 801.115 180.541C801.115 173.217 796.623 169.262 789.104 169.262H781.242ZM822.018 226V172.826H838.863V182.885H839.205C841.158 175.707 845.455 172.045 851.705 172.045C853.463 172.045 854.928 172.289 856.1 172.729V187.475C854.635 186.889 852.633 186.498 850.582 186.498C843.307 186.498 839.352 190.6 839.352 198.021V226H822.018ZM881.592 227.27C864.844 227.27 854.395 217.113 854.395 199.389C854.395 182.006 865.088 171.557 881.592 171.557C898.193 171.557 908.789 181.957 908.789 199.389C908.789 217.162 898.34 227.27 881.592 227.27ZM881.592 214.574C887.5 214.574 891.26 209.154 891.26 199.438C891.26 189.867 887.5 184.252 881.592 184.252C875.732 184.252 871.973 189.867 871.973 199.438C871.973 209.154 875.635 214.574 881.592 214.574ZM928.91 172.826V228.393C928.91 239.184 921.586 245.141 908.549 245.141C906.938 245.141 904.398 245.043 903.471 244.945V232.641C903.959 232.689 904.838 232.738 905.521 232.738C909.818 232.738 911.625 231.273 911.625 227.709V172.826H928.91ZM920.268 168.529C915.238 168.529 911.381 164.818 911.381 160.033C911.381 155.248 915.238 151.586 920.268 151.586C925.297 151.586 929.105 155.248 929.105 160.033C929.105 164.818 925.297 168.529 920.268 168.529ZM958.504 183.861C953.182 183.861 949.227 187.816 948.787 193.334H968.123C967.83 187.67 963.973 183.861 958.504 183.861ZM968.514 209.203H984.139C982.479 220.189 972.713 227.27 958.797 227.27C941.854 227.27 931.746 216.869 931.746 199.682C931.746 182.494 941.951 171.557 958.211 171.557C974.227 171.557 984.432 182.055 984.432 198.314V203.197H948.543V204.271C948.543 210.619 952.791 215.014 959.041 215.014C963.68 215.014 967.293 212.816 968.514 209.203ZM1037.61 193.822H1021.69C1021.11 188.305 1017.79 184.74 1012.76 184.74C1006.65 184.74 1003.09 190.014 1003.09 199.389C1003.09 208.861 1006.65 214.135 1012.76 214.135C1017.83 214.135 1021.11 210.863 1021.74 205.346H1037.61C1037.17 218.871 1027.55 227.27 1012.56 227.27C995.91 227.27 985.559 216.82 985.559 199.389C985.559 182.152 995.91 171.557 1012.46 171.557C1027.45 171.557 1037.17 180.492 1037.61 193.822ZM1044.35 160.912H1061.69V172.826H1071.26V185.57H1061.69V207.885C1061.69 211.547 1063.64 213.402 1067.79 213.402C1069.16 213.402 1070.18 213.354 1071.21 213.158V225.463C1069.55 225.805 1067.01 226.098 1063.64 226.098C1049.82 226.098 1044.35 221.85 1044.35 211.4V185.57H1037.12V172.826H1044.35V160.912ZM1073.51 188.939C1073.51 178.295 1082.59 171.557 1097.24 171.557C1111.74 171.557 1120.77 178.441 1120.87 189.428H1105.05C1104.9 185.619 1101.88 183.227 1097.09 183.227C1092.84 183.227 1090.11 185.082 1090.11 187.816C1090.11 189.916 1092.06 191.43 1096.06 192.26L1107.2 194.506C1117.79 196.752 1122.33 201.098 1122.33 209.154C1122.33 220.189 1112.32 227.27 1097.48 227.27C1081.95 227.27 1072.97 220.189 1072.24 209.301H1089.03C1089.52 213.256 1092.7 215.6 1097.77 215.6C1102.36 215.6 1105.2 213.939 1105.2 211.107C1105.2 208.959 1103.58 207.738 1099.43 206.859L1089.38 204.76C1078.97 202.562 1073.51 197.094 1073.51 188.939Z" fill="#FEFEFE"/>
<defs>
<linearGradient id="paint0_linear_192_8471" x1="947" y1="0" x2="947" y2="365" gradientUnits="userSpaceOnUse">
<stop stop-color="#1F1F1F"/>
<stop offset="1" stop-color="#6A37FC"/>
</linearGradient>
</defs>
</svg>
