<svg width="393" height="129" viewBox="0 0 393 129" fill="none" xmlns="http://www.w3.org/2000/svg">
<path fill-rule="evenodd" clip-rule="evenodd" d="M46 3.27399C23.896 9.85599 7.455 26.89 1.863 49.004C0.152002 55.769 -0.149998 59.294 0.247002 67.878C1.063 85.521 6.292 97.271 18.975 109.965C32.229 123.229 45.832 128.888 64.54 128.918C75.633 128.936 82.958 127.158 93.942 121.78C103.66 117.021 114.251 107.181 119.821 97.734C127.87 84.083 130.783 66.989 127.626 51.933C122.697 28.424 103.565 8.41699 80.356 2.49999C71.11 0.141995 55.321 0.497995 46 3.27399ZM78.974 5.08899C87.034 6.998 99.214 13.505 105.646 19.339C135.434 46.354 131.778 94.3 98.232 116.567C85.531 124.997 67.811 128.494 53 125.493C20.213 118.85 -0.908998 89.925 3.15 57.229C7.658 20.923 43.055 -3.418 78.974 5.08899ZM61.688 8.57899C61.309 8.95699 61 10.574 61 12.173C61 14.403 61.407 15.001 62.75 14.743C63.937 14.514 64.5 13.472 64.5 11.503C64.5 8.67599 63.073 7.19299 61.688 8.57899ZM66.936 8.18299C66.188 11.112 66.481 14.933 67.454 14.933C68.159 14.933 68.732 13.451 68.808 11.433C68.88 9.50799 68.503 7.93299 67.97 7.93299C67.436 7.93299 66.971 8.04499 66.936 8.18299ZM47.341 9.70099C46.091 10.497 46.696 15.933 48.035 15.933C51.638 15.933 53.24 12.573 50.8 10.133C49.415 8.74799 48.934 8.68799 47.341 9.70099ZM54.961 11.33C55.462 12.649 55.601 13.999 55.269 14.33C54.938 14.662 55.919 14.933 57.45 14.933C59.848 14.933 60.15 14.622 59.63 12.683C59.299 11.445 59.021 10.095 59.014 9.68299C59.006 9.27099 57.886 8.93299 56.525 8.93299C54.326 8.93299 54.151 9.201 54.961 11.33ZM71.046 10.377C69.231 12.565 70.525 15.139 73.246 14.753C74.894 14.519 75.5 13.765 75.5 11.947C75.5 9.02899 72.92 8.12 71.046 10.377ZM74.195 11.701C73.531 11.923 73.242 12.515 73.553 13.018C73.864 13.521 73.641 13.933 73.059 13.933C71.903 13.933 71.614 11.653 72.639 10.627C72.991 10.275 73.757 10.283 74.34 10.643C75.056 11.086 75.009 11.43 74.195 11.701ZM78 11.874C78 12.942 77.502 14.123 76.893 14.499C76.122 14.976 76.198 15.437 77.143 16.021C78.042 16.577 78.729 16.282 79.179 15.146C79.814 13.548 79.864 13.55 79.93 15.183C80.079 18.892 81.963 16.942 83.047 11.958C83.104 11.697 82.604 11.301 81.936 11.078C81.178 10.826 80.99 11.193 81.435 12.053C81.827 12.812 81.503 12.646 80.714 11.683C78.849 9.40799 78 9.46799 78 11.874ZM50 12.433C50 13.258 49.823 13.933 49.607 13.933C49.391 13.933 48.955 13.258 48.638 12.433C48.322 11.608 48.499 10.933 49.031 10.933C49.564 10.933 50 11.608 50 12.433ZM41.416 14.574C41.949 15.965 41.806 16.017 40.481 14.917C39.295 13.933 38.634 13.899 37.758 14.775C36.91 15.623 36.904 15.933 37.733 15.933C38.356 15.933 39.151 16.833 39.5 17.933C39.849 19.033 40.603 19.933 41.174 19.933C41.746 19.933 41.975 19.309 41.682 18.546C41.306 17.567 41.726 17.31 43.111 17.672C44.896 18.139 44.965 17.95 43.875 15.559C42.589 12.735 40.369 11.847 41.416 14.574ZM87.123 16.562C86.464 18.008 86.229 19.471 86.599 19.812C86.97 20.154 87.476 19.868 87.722 19.177C87.969 18.486 88.531 18.143 88.972 18.416C89.413 18.688 90.358 18.207 91.072 17.346C92.145 16.054 92.121 15.622 90.936 14.872C88.803 13.522 88.434 13.686 87.123 16.562ZM32.359 18.44C32.006 19.36 32.416 20.777 33.286 21.647C35.41 23.771 38.227 22.554 37.82 19.687C37.426 16.91 33.307 15.97 32.359 18.44ZM92.2 18.133C90.584 19.749 90.689 21.43 92.5 22.933C93.697 23.926 94.303 23.926 95.5 22.933C97.464 21.303 97.419 18.308 95.418 17.54C93.404 16.767 93.602 16.731 92.2 18.133ZM36.42 21.063C35.631 22.339 34 21.118 34 19.252C34 17.98 34.278 17.919 35.489 18.924C36.308 19.604 36.727 20.566 36.42 21.063ZM95 20.433C95 21.258 94.55 21.933 94 21.933C93.45 21.933 93 21.258 93 20.433C93 19.608 93.45 18.933 94 18.933C94.55 18.933 95 19.608 95 20.433ZM28.615 20.747C27.908 21.892 32.009 26.336 32.857 25.343C33.284 24.843 32.602 23.447 31.34 22.242C30.078 21.037 28.852 20.364 28.615 20.747ZM97.989 23.453C95.986 27.197 98.029 28.842 101.395 26.194C102.79 25.097 103.667 23.933 103.342 23.608C103.017 23.284 101.979 23.972 101.035 25.138C99.985 26.435 99.067 26.851 98.67 26.209C98.314 25.632 98.692 24.604 99.511 23.924C101.132 22.578 101.494 20.933 100.169 20.933C99.712 20.933 98.731 22.067 97.989 23.453ZM23.119 26.123C19.688 29.632 19.303 31.11 21.373 32.828C23.149 34.302 26.023 33.195 25.921 31.076C25.871 30.038 25.656 29.894 25.338 30.683C24.641 32.409 22.337 32.253 21.638 30.433C21.282 29.503 21.643 28.933 22.59 28.933C23.431 28.933 23.869 28.53 23.565 28.038C23.26 27.545 23.651 26.897 24.433 26.597C26.11 25.954 28.314 28.226 27.241 29.492C26.834 29.973 27.297 29.756 28.272 29.009C29.95 27.724 29.931 27.573 27.92 26.164C26.24 24.988 26.079 24.498 27.148 23.82C27.956 23.308 28.045 22.957 27.369 22.948C26.746 22.94 24.834 24.368 23.119 26.123ZM58.75 23.599C56.602 24.189 56.589 24.689 58.593 29.561C59.687 32.222 59.781 33.042 58.893 32.183C57.068 30.419 55.24 30.621 51.363 33.018L47.989 35.103L51.495 39.198C53.423 41.45 55 43.71 55 44.22C55 44.73 55.675 44.888 56.5 44.571C57.325 44.255 58.029 44.544 58.063 45.214C58.098 45.885 58.534 45.42 59.031 44.183C59.529 42.945 60.42 41.933 61.013 41.933C61.703 41.933 61.854 40.674 61.434 38.433C60.835 35.238 60.983 34.932 63.139 34.918C67.242 34.891 68.146 33.617 67.811 28.336C67.504 23.493 67.457 23.431 64 23.276C62.075 23.19 59.712 23.335 58.75 23.599ZM102.579 27.988C101.523 29.053 100.985 30.251 101.384 30.65C101.782 31.049 102.564 30.713 103.12 29.904C103.888 28.787 103.979 28.974 103.498 30.683C102.83 33.058 103.887 33.646 105.651 31.882C106.722 30.811 106.288 25.884 105.133 25.992C104.785 26.025 103.636 26.923 102.579 27.988ZM69.398 29.338C69.102 30.11 69.003 32.248 69.18 34.088C69.46 37.018 69.887 37.471 72.614 37.736C75.317 37.999 75.81 37.669 76.34 35.236C76.677 33.694 77.24 31.421 77.593 30.183C78.183 28.108 77.91 27.933 74.085 27.933C71.446 27.933 69.741 28.444 69.398 29.338ZM107 28.815C107 29.365 107.45 30.093 108 30.433C108.55 30.773 109 30.601 109 30.051C109 29.501 108.55 28.773 108 28.433C107.45 28.093 107 28.265 107 28.815ZM39.712 33.055C37.981 34.946 38.023 35.11 41.003 38.089C43.975 41.062 44.15 41.107 46.041 39.396C48.573 37.104 48.511 36.353 45.545 33.388C42.655 30.497 42.081 30.464 39.712 33.055ZM78.641 37.402C77.038 42.489 76.693 42.894 74.447 42.33C72.331 41.799 72 42.061 72 44.259C72 45.658 71.528 48.043 70.952 49.559L69.904 52.316L68.109 49.374C66.351 46.493 66.357 46.421 68.407 45.867C70.466 45.309 70.603 44.491 69.495 39.353C69.137 37.691 68.461 37.359 66.132 37.7C63.371 38.106 63.244 38.335 63.74 42.031C64.073 44.513 63.864 45.933 63.166 45.933C62.563 45.933 60.478 47.33 58.533 49.038L54.997 52.143L57.749 54.274C59.262 55.446 61.319 57.423 62.321 58.667C63.78 60.479 64.524 60.723 66.071 59.895C67.679 59.034 68 59.197 68 60.873C68 62.618 67.661 62.755 65.435 61.908C62.039 60.617 62 60.628 62 62.874C62 63.942 61.532 65.104 60.959 65.458C60.387 65.812 60.209 67.076 60.564 68.267L61.209 70.433L58.937 68.238C57.146 66.507 56.912 65.744 57.831 64.636C58.753 63.526 58.366 62.358 55.993 59.082C54.34 56.8 52.601 54.933 52.129 54.933C51.656 54.933 49.972 55.917 48.385 57.119C46.798 58.321 45.342 59.417 45.149 59.553C44.957 59.689 45.791 60.843 47.004 62.117C48.217 63.391 49.894 65.453 50.731 66.7C51.878 68.409 52.575 68.701 53.56 67.884C55.182 66.537 57.65 69.931 58.637 74.869C59.16 77.483 59.002 78.094 57.902 77.707C57.131 77.435 56.612 76.22 56.75 75.007C57.136 71.599 55.347 69.029 53.013 69.64C50.623 70.265 50.662 70.052 52.348 73.304C53.09 74.733 53.99 75.61 54.348 75.251C54.707 74.893 55 75.155 55 75.834C55 77.457 51.384 76.317 49.014 73.947C48.03 72.963 46.387 71.686 45.363 71.108C43.871 70.267 43.749 69.806 44.75 68.795C46.86 66.665 46.313 62.933 43.891 62.933C42.062 62.933 41.836 63.407 42.197 66.493C42.582 69.788 42.441 70.01 40.306 69.474C36.769 68.586 37.552 69.656 42.25 72.131C46.084 74.15 46.266 74.405 44.113 74.739C42.8 74.942 41.441 74.647 41.093 74.083C40.23 72.687 35.408 70.933 32.435 70.933C30.261 70.933 30 70.504 30 66.933V62.933H25.582C23.152 62.933 20.452 62.66 19.582 62.326C18.28 61.827 18 62.536 18 66.326V70.933H21.918C28.176 70.933 28.806 71.473 28.255 76.36C27.988 78.732 28.159 80.886 28.635 81.148C29.111 81.409 31.975 81.355 35 81.028C39.221 80.571 40.473 80.058 40.384 78.819C40.285 77.441 40.865 77.34 44.355 78.124C49.019 79.172 50.267 79.933 47.322 79.933C46.215 79.933 44.495 80.833 43.5 81.933C41.757 83.859 41.756 84.006 43.49 85.922C45.28 87.9 45.304 87.897 47.662 85.353C48.966 83.946 49.774 82.376 49.457 81.864C48.294 79.982 52.97 81.003 55.506 83.185C58.537 85.792 59.887 92.408 58.077 95.789C56.995 97.812 56.197 97.933 43.965 97.933C35.988 97.933 31 98.318 31 98.933C31 99.579 42.667 99.933 64 99.933C85.333 99.933 97 99.579 97 98.933C97 98.318 91.993 97.933 83.979 97.933C71.101 97.933 70.945 97.906 69.832 95.463C68.973 93.578 69.004 92.633 69.965 91.476C70.699 90.591 70.958 88.903 70.587 87.425C70.109 85.52 70.567 84.275 72.43 82.412C75.103 79.739 80.331 78.908 79.412 81.302C79.122 82.059 79.694 82.953 80.693 83.302C81.687 83.65 83.032 84.186 83.682 84.494C84.333 84.802 85.371 84.108 85.99 82.951C86.934 81.187 86.744 80.537 84.808 78.924L82.5 77L85.656 76.966C88.248 76.939 88.726 77.265 88.327 78.792C87.933 80.297 88.571 80.774 91.67 81.292C93.777 81.644 96.459 82.196 97.631 82.518C99.487 83.028 99.823 82.61 100.241 79.268C100.506 77.159 100.339 74.942 99.87 74.342C99.303 73.615 100.931 72.626 104.76 71.375C107.917 70.343 110.608 69.451 110.739 69.393C110.871 69.335 110.233 67.389 109.321 65.068C108.096 61.949 107.251 61.007 106.082 61.458C105.212 61.794 102.475 62.581 100 63.208C97.525 63.835 95.382 64.411 95.237 64.487C95.092 64.563 95.655 66.256 96.487 68.247C97.319 70.239 98 72.1 98 72.382C98 72.664 95.975 72.617 93.5 72.278C89.749 71.764 89 71.933 89 73.297C89 74.539 88.037 74.933 85 74.933C82.8 74.933 81 74.51 81 73.992C81 72.612 82.769 71.751 83.425 72.811C84.131 73.955 93.98 68.834 93.992 67.318C94.004 65.67 90.045 60.933 88.655 60.933C86.548 60.933 79.902 67.089 80.17 68.792C80.555 71.236 77.234 75.655 74.641 76.151C72.502 76.56 72.406 76.346 72.994 72.472C73.732 67.607 74.757 65.685 76.331 66.21C76.963 66.421 78.332 65.509 79.375 64.184C81.104 61.985 81.132 61.636 79.685 60.19C78.332 58.836 77.859 58.806 76.446 59.978C75.536 60.733 74.36 62.487 73.831 63.876C72.874 66.394 72.866 66.39 71.093 62.417C70.039 60.055 69.701 58.178 70.264 57.808C70.787 57.464 70.911 56.227 70.54 55.058C70.156 53.85 70.301 52.933 70.874 52.933C72.602 52.933 73.054 54.659 72.032 57.349C71.395 59.023 71.393 59.933 72.025 59.933C72.561 59.933 73 59.506 73 58.985C73 58.463 74.125 56.822 75.5 55.338C76.875 53.855 78 51.893 78 50.978C78 50.064 78.661 48.442 79.468 47.374C81.394 44.827 81.356 44.173 79.25 43.622C77.638 43.201 77.643 43.156 79.316 43.049C80.314 42.985 82.009 43.402 83.081 43.976C84.532 44.753 85.118 44.689 85.374 43.726C85.563 43.015 86.276 40.701 86.959 38.584C88.348 34.28 87.856 33.429 83.444 32.502C80.464 31.875 80.345 31.997 78.641 37.402ZM107.5 33.242C106.4 33.897 105.323 34.535 105.107 34.659C104.144 35.213 107.43 37.933 109.063 37.933C111.394 37.933 112.297 36.445 111.497 33.924C110.778 31.659 110.296 31.577 107.5 33.242ZM17.393 35.433C17.727 36.258 18.299 37.675 18.664 38.583C19.211 39.94 18.877 40.119 16.779 39.592C15.084 39.167 13.807 39.46 12.972 40.467C11.556 42.173 11.505 42.101 15.25 43.709C17.479 44.666 18 44.633 18 43.534C18 42.788 18.685 41.609 19.523 40.914C20.399 40.187 20.796 38.864 20.457 37.798C20.016 36.409 20.261 36.096 21.435 36.546C22.296 36.877 23 36.701 23 36.157C23 35.612 21.988 34.895 20.75 34.563C17.324 33.645 16.732 33.799 17.393 35.433ZM109.183 36.15C108.466 36.867 108 36.926 108 36.3C108 34.965 109.183 33.782 109.85 34.45C110.134 34.734 109.834 35.499 109.183 36.15ZM92.526 39.883C90.503 43.795 90.597 44.67 93.127 45.473C94.731 45.982 95.827 45.447 97.591 43.291C100.54 39.685 100.535 39.498 97.453 38.094C94.096 36.564 94.276 36.499 92.526 39.883ZM108.292 40.183C108.544 40.871 109.29 41.309 109.949 41.158C110.609 41.007 110.864 41.345 110.515 41.908C109.053 44.275 111.285 44.841 113.08 42.559C115.689 39.241 115.548 38.933 111.417 38.933C108.972 38.933 107.979 39.33 108.292 40.183ZM39.5 43.754C37.3 44.597 35.307 45.438 35.072 45.621C34.837 45.805 35.624 47.699 36.822 49.83C38.02 51.962 39 54.432 39 55.319C39 57.233 39.655 57.298 43.934 55.806C46.597 54.878 47.05 54.305 46.503 52.556C46.137 51.388 45.623 49.308 45.359 47.933C44.89 45.49 44.943 45.504 47.69 48.554C50.045 51.171 50.852 51.515 52.677 50.684C54.795 49.72 54.809 49.595 53.206 46.063C52.3 44.066 51.473 42.285 51.368 42.105C51.263 41.924 49.914 42.438 48.37 43.247C46.141 44.415 45.351 44.461 44.532 43.469C43.712 42.477 42.678 42.536 39.5 43.754ZM115 44.433C115 45.258 114.115 45.933 113.031 45.933C111.678 45.933 111.246 46.41 111.648 47.459C112.115 48.675 112.529 48.739 113.693 47.773C114.841 46.82 115.323 46.837 115.951 47.854C117.1 49.713 118.297 47.445 117.497 44.924C116.758 42.596 115 42.25 115 44.433ZM148 43.874C148 44.392 148.45 45.093 149 45.433C149.55 45.773 150 48.724 150 51.992C150 55.286 149.554 57.933 149 57.933C148.45 57.933 148 58.383 148 58.933C148 59.483 149.575 59.933 151.5 59.933C153.425 59.933 155 59.483 155 58.933C155 58.383 154.55 57.933 154 57.933C153.446 57.933 153 55.286 153 51.992C153 48.724 153.45 45.773 154 45.433C156.083 44.146 154.87 42.933 151.5 42.933C149.575 42.933 148 43.356 148 43.874ZM156 43.874C156 44.392 156.45 45.093 157 45.433C157.55 45.773 158 48.724 158 51.992C158 55.286 157.554 57.933 157 57.933C156.45 57.933 156 58.383 156 58.933C156 59.483 157.575 59.933 159.5 59.933C162.664 59.933 164.289 58.601 162.144 57.766C161.673 57.583 161.052 55.284 160.764 52.657L160.24 47.88L164.718 53.907C167.181 57.221 169.602 59.933 170.098 59.933C170.594 59.933 171 56.558 171 52.433C171 48.1 171.422 44.933 172 44.933C172.55 44.933 173.024 45.946 173.052 47.183L173.105 49.433L174.674 47.183C177.218 43.537 178 44.537 178 51.433C178 55.1 177.564 57.933 177 57.933C176.45 57.933 176 58.383 176 58.933C176 59.483 177.8 59.933 180 59.933C182.2 59.933 184 59.483 184 58.933C184 58.383 183.55 57.933 183 57.933C182.436 57.933 182 55.1 182 51.433C182 44.537 182.782 43.537 185.326 47.183L186.895 49.433L186.948 47.183C186.976 45.946 187.45 44.933 188 44.933C188.564 44.933 189 47.766 189 51.433C189 55.1 188.564 57.933 188 57.933C187.45 57.933 187 58.383 187 58.933C187 59.504 190 59.933 194 59.933H201L200.948 56.683C200.895 53.438 200.893 53.437 199.326 55.683C198.445 56.946 196.712 57.933 195.378 57.933C193.402 57.933 193 57.425 193 54.933C193 51.793 194.649 50.855 195.638 53.433C196.674 56.131 198 55.008 198 51.433C198 49.508 198.481 47.933 199.07 47.933C199.658 47.933 199.995 46.92 199.82 45.683C199.505 43.471 199.238 43.429 184 43.218C166.947 42.982 164.694 43.258 167.419 45.25C168.657 46.155 169.054 47.599 168.823 50.351L168.5 54.19L165.051 49.311C163.155 46.628 161.13 44.102 160.551 43.698C159.045 42.645 156 42.763 156 43.874ZM202.5 43.933C202.16 44.483 202.359 44.933 202.941 44.933C203.578 44.933 204 47.525 204 51.433C204 55.1 203.564 57.933 203 57.933C202.45 57.933 202 58.383 202 58.933C202 59.483 203.575 59.933 205.5 59.933C207.425 59.933 209 59.483 209 58.933C209 58.383 208.55 57.933 208 57.933C207.45 57.933 207 56.808 207 55.433C207 52.021 208.082 52.312 210.759 56.445C212.842 59.661 213.407 59.933 218.009 59.933C220.754 59.933 223 59.483 223 58.933C223 58.383 222.367 57.933 221.594 57.933C220.667 57.933 220.371 57.232 220.724 55.879C221.123 54.353 221.934 53.903 223.881 54.129C226.054 54.381 226.468 54.901 226.312 57.183C226.14 59.686 226.432 59.933 229.562 59.933C232.826 59.933 234.291 58.53 231.87 57.723C231.248 57.516 229.499 54.216 227.983 50.39C226.466 46.563 224.837 43.589 224.363 43.779C223.888 43.969 222.321 47.1 220.88 50.736C219.439 54.372 217.744 57.518 217.113 57.729C215.978 58.107 212.098 54.198 212.033 52.612C212.015 52.16 212.697 51.093 213.55 50.24C215.637 48.153 215.015 45.753 211.991 44.223C209.001 42.71 203.362 42.538 202.5 43.933ZM234.865 45.914C232.164 48.615 231.832 49.515 232.346 52.729C233.038 57.049 236.084 59.933 239.956 59.933C242.787 59.933 246.881 56.48 245.586 55.185C245.181 54.781 244.411 55.233 243.875 56.191C242.564 58.535 238.329 58.416 237.035 55.999C235.63 53.374 235.727 47.606 237.2 46.133C239.198 44.135 241.855 44.778 243.343 47.619L244.751 50.305L247.24 47.619C248.609 46.142 250.015 44.933 250.365 44.933C250.714 44.933 251 47.858 251 51.433C251 55.1 250.564 57.933 250 57.933C249.45 57.933 249 58.383 249 58.933C249 59.483 250.8 59.933 253 59.933C256.993 59.933 258.339 58.661 255.5 57.571C253.437 56.78 253.323 44.933 255.378 44.933C256.136 44.933 257.462 45.946 258.326 47.183L259.895 49.433L259.948 47.183C259.976 45.946 260.45 44.933 261 44.933C261.564 44.933 262 47.766 262 51.433C262 55.1 261.564 57.933 261 57.933C260.45 57.933 260 58.383 260 58.933C260 59.483 261.8 59.933 264 59.933C266.2 59.933 268 59.483 268 58.933C268 58.383 267.55 57.933 267 57.933C266.436 57.933 266 55.1 266 51.433C266 47.525 266.422 44.933 267.059 44.933C267.641 44.933 267.872 44.536 267.572 44.05C267.272 43.564 262.295 43.116 256.513 43.055L246 42.944L245.882 45.688L245.763 48.433L245.132 45.933C244.123 41.94 238.849 41.93 234.865 45.914ZM271.455 45.388C266.38 50.462 269.848 59.933 276.78 59.933C283.763 59.933 287.001 49.911 281.537 45.211C278.103 42.258 274.522 42.32 271.455 45.388ZM285 43.811C285 44.293 285.675 45.248 286.5 45.933C287.461 46.73 288 48.943 288 52.087C288 55.528 287.551 57.168 286.5 57.571C283.802 58.607 284.925 59.933 288.5 59.933C290.425 59.933 292 59.483 292 58.933C292 58.383 291.595 57.933 291.101 57.933C290.606 57.933 290.04 55.908 289.843 53.433C289.647 50.958 289.587 48.933 289.71 48.933C289.834 48.933 291.804 51.408 294.088 54.433C296.372 57.458 298.636 59.933 299.12 59.933C299.604 59.933 300 56.558 300 52.433C300 48.1 300.422 44.933 301 44.933C301.55 44.933 302 44.483 302 43.933C302 42.833 296.724 42.542 295.682 43.584C295.324 43.942 295.732 44.748 296.588 45.374C297.637 46.141 298.04 47.725 297.823 50.225L297.5 53.937L293.255 48.435C290.61 45.006 288.255 42.933 287.005 42.933C285.902 42.933 285 43.328 285 43.811ZM308.571 43.818C308.192 44.431 308.359 44.933 308.941 44.933C309.578 44.933 310 47.525 310 51.433C310 55.1 309.564 57.933 309 57.933C308.45 57.933 308 58.383 308 58.933C308 60.205 315.074 60.236 318.383 58.978C324.314 56.722 325.506 48.621 320.399 45.275C317.33 43.264 309.509 42.301 308.571 43.818ZM324.565 43.828C324.26 44.321 324.684 44.981 325.506 45.297C326.603 45.718 327 47.473 327 51.902C327 55.256 326.556 57.933 326 57.933C325.45 57.933 325 58.383 325 58.933C325 59.497 327.833 59.933 331.5 59.933H338V56.71C338 53.509 337.99 53.502 336.443 55.71C335.557 56.976 333.835 57.933 332.443 57.933C330.395 57.933 330 57.448 330 54.933C330 52.933 330.5 51.933 331.5 51.933C332.325 51.933 333 52.608 333 53.433C333 54.258 333.45 54.933 334 54.933C334.55 54.933 335 53.358 335 51.433C335 47.858 333.674 46.735 332.638 49.433C331.649 52.011 330 51.073 330 47.933C330 44.479 332.207 43.905 335.171 46.588C336.899 48.152 337 48.097 337 45.588C337 43.013 336.822 42.933 331.059 42.933C327.791 42.933 324.869 43.336 324.565 43.828ZM341.75 44.013C340.711 44.618 340 46.227 340 47.975C340 50.394 340.666 51.231 343.75 52.683C347.903 54.639 348.705 57.262 345.298 57.746C343.917 57.943 342.615 57.29 341.807 55.996C340.022 53.137 339 53.419 339 56.771C339 59.44 339.266 59.619 343.472 59.778C347.211 59.919 348.207 59.547 349.543 57.507C351.564 54.423 350.31 51.718 346.038 49.949C344.179 49.179 343 47.962 343 46.812C343 44.331 345.655 44.407 347.232 46.933C348.904 49.61 350 49.458 350 46.55C350 43.317 345.382 41.897 341.75 44.013ZM351.565 43.828C351.26 44.321 351.684 44.981 352.506 45.297C354.714 46.144 354.653 57.933 352.441 57.933C351.584 57.933 351.16 58.383 351.5 58.933C351.84 59.483 353.666 59.933 355.559 59.933C357.452 59.933 359 59.483 359 58.933C359 58.383 358.55 57.933 358 57.933C357.436 57.933 357 55.1 357 51.433C357 47.766 357.436 44.933 358 44.933C358.55 44.933 359 44.483 359 43.933C359 42.692 352.325 42.598 351.565 43.828ZM362.8 45.979C360.166 48.613 359.834 49.527 360.346 52.729C361.042 57.077 364.089 59.933 368.029 59.933C372.355 59.933 374 58.939 374 56.326C374 55.01 374.45 53.933 375 53.933C375.55 53.933 376 53.483 376 52.933C376 52.383 374.425 51.933 372.5 51.933C370.575 51.933 369 52.383 369 52.933C369 53.483 369.45 53.933 370 53.933C370.55 53.933 371 54.833 371 55.933C371 58.223 367.212 58.745 365.2 56.733C363.506 55.039 363.684 47.44 365.452 45.973C367.515 44.261 370.332 45.062 371.487 47.689C372.851 50.789 374 50.497 374 47.05C374 44.905 373.424 44.012 371.75 43.563C367.594 42.449 365.862 42.917 362.8 45.979ZM376 43.804C376 44.36 376.45 45.093 377 45.433C377.55 45.773 378 48.724 378 51.992C378 55.286 377.554 57.933 377 57.933C376.45 57.933 376 58.383 376 58.933C376 59.483 377.575 59.933 379.5 59.933C383.38 59.933 383.708 59.499 381.5 57.29C380.162 55.952 379.295 48.933 380.468 48.933C380.725 48.933 382.804 51.408 385.088 54.433C387.372 57.458 389.636 59.933 390.12 59.933C390.604 59.933 391 56.558 391 52.433C391 47.821 391.408 44.933 392.059 44.933C392.641 44.933 392.84 44.483 392.5 43.933C391.811 42.818 387.695 42.571 386.682 43.584C386.324 43.942 386.732 44.748 387.588 45.374C388.651 46.151 389.043 47.742 388.823 50.385L388.5 54.257L384.48 48.845C382.098 45.638 379.551 43.303 378.23 43.113C377.003 42.938 376 43.249 376 43.804ZM26.21 46.222L24.143 48.433L27.14 51.776C30.091 55.067 30.171 55.09 32.319 53.286C33.518 52.279 34.673 51.351 34.885 51.225C35.633 50.78 31.976 45.991 30.138 45.007C28.689 44.231 27.818 44.501 26.21 46.222ZM10.578 46.591C9.737 48.781 9.817 48.933 11.8 48.933C12.79 48.933 14.095 49.428 14.701 50.034C15.502 50.835 15.989 50.542 16.492 48.958C17.319 46.351 16.783 45.686 13.579 45.344C12.155 45.193 10.917 45.707 10.578 46.591ZM86.015 48.409C84.821 50.34 83.092 52.373 82.172 52.926C80.626 53.856 80.638 54.038 82.329 55.35C83.843 56.525 83.958 57.143 82.998 58.937C82.36 60.129 82.063 61.329 82.338 61.604C82.613 61.879 83.356 61.137 83.989 59.954C84.834 58.374 85.474 58.081 86.4 58.85C87.325 59.618 88.339 59.169 90.208 57.165C94.904 52.129 95.082 50.756 91.444 47.665L88.185 44.898L86.015 48.409ZM197.471 45.886C198.088 46.884 195.125 50.933 193.778 50.933C193.35 50.933 193 49.583 193 47.933C193 45.63 193.451 44.933 194.941 44.933C196.009 44.933 197.147 45.362 197.471 45.886ZM210.5 47.933C210.5 49.493 209.854 50.53 208.75 50.743C207.383 51.006 207 50.392 207 47.933C207 45.474 207.383 44.86 208.75 45.123C209.854 45.336 210.5 46.373 210.5 47.933ZM279.965 46.867C281.37 49.492 281.273 55.26 279.8 56.733C279.14 57.393 277.554 57.933 276.275 57.933C272.248 57.933 270.881 50.191 274.203 46.189C275.758 44.315 278.79 44.672 279.965 46.867ZM318 46.933C321.665 50.598 319.974 57.933 315.465 57.933C313.098 57.933 313 57.675 313 51.433C313 44.277 314.234 43.167 318 46.933ZM100 48.73C100 49.392 98.243 51.69 96.096 53.837L92.191 57.742L95.097 60.526C97.701 63.021 98.133 63.144 99.252 61.708C99.938 60.827 102.158 59.004 104.185 57.658L107.869 55.211L103.935 51.369C101.771 49.256 100 48.068 100 48.73ZM115.75 50.329C114.237 50.874 113 51.691 113 52.145C113 52.599 114.237 52.674 115.75 52.311C119.019 51.527 119.318 51.324 118.854 50.199C118.659 49.726 117.263 49.785 115.75 50.329ZM224.472 52.771C222.307 53.221 221.811 52.59 222.637 50.436C223.286 48.745 223.394 48.751 224.711 50.543C225.919 52.187 225.888 52.477 224.472 52.771ZM9.609 50.756C9.289 51.275 8.768 53.323 8.453 55.308C7.948 58.483 8.097 58.838 9.69 58.259C10.925 57.81 10.706 58.279 9 59.734C6.551 61.823 6.544 61.867 8.668 61.9C9.861 61.918 11.548 62.206 12.418 62.54C13.448 62.935 14 62.597 14 61.571C14 60.528 13.409 60.182 12.25 60.546C10.591 61.068 10.591 61.022 12.234 59.666C14.221 58.027 13.599 56.968 10.583 56.854C9.437 56.811 9.065 56.547 9.756 56.269C10.447 55.99 10.718 55.285 10.357 54.702C9.923 54 10.597 53.866 12.351 54.306C14.378 54.815 15 54.601 15 53.393C15 52.457 14.531 52.105 13.848 52.527C13.215 52.918 12.133 52.468 11.444 51.526C10.756 50.584 9.93 50.238 9.609 50.756ZM114.359 55.44C114.006 56.36 114.416 57.777 115.286 58.647C117.41 60.771 120.227 59.554 119.82 56.687C119.426 53.91 115.307 52.97 114.359 55.44ZM119 56.933C119 57.483 118.1 57.933 117 57.933C115.9 57.933 115 57.483 115 56.933C115 56.383 115.9 55.933 117 55.933C118.1 55.933 119 56.383 119 56.933ZM32.5 58.149C28.452 59.576 28.491 59.471 30.886 62.515C32.049 63.993 33.007 65.705 33.015 66.318C33.055 69.183 34.617 70.065 37.402 68.796C39.605 67.792 40.006 67.095 39.513 65.128C39.178 63.792 38.644 61.402 38.327 59.816C37.705 56.706 37.09 56.53 32.5 58.149ZM115 62.492C115 63.473 115.463 63.773 116.25 63.3C117.217 62.719 117.211 62.906 116.225 64.124C115.126 65.481 115.367 65.76 117.975 66.143C120.013 66.442 121 66.164 121 65.291C121 64.517 120.296 64.215 119.25 64.54C117.583 65.058 117.583 65.03 119.25 63.959C121.899 62.256 121.352 60.933 118 60.933C115.95 60.933 115 61.426 115 62.492ZM7.265 65.228C7.791 66.805 14 66.916 14 65.347C14 64.44 12.837 64.038 10.471 64.127C8.53 64.2 7.087 64.695 7.265 65.228ZM66.386 76.131L64.667 79.433L63.283 76.066C61.717 72.256 61.998 69.298 63.887 69.709C64.584 69.86 65.682 68.569 66.327 66.839L67.5 63.694L67.803 68.261C67.995 71.156 67.476 74.038 66.386 76.131ZM115.633 75.947C113.512 85.339 109.857 92.763 104.327 98.914C99.606 104.166 99.026 107.136 103.553 102.883C109.841 96.975 115.998 84.946 117.796 75.055C119.22 67.223 117.437 67.958 115.633 75.947ZM148.544 69.861C148.229 70.371 148.877 71.077 149.985 71.428C151.828 72.013 152 72.922 152 82.094C152 91.279 151.832 92.164 150 92.643C145.985 93.693 148.152 94.933 154 94.933C157.333 94.933 160 94.489 160 93.933C160 93.383 159.325 92.933 158.5 92.933C157.367 92.933 157 91.711 157 87.933C157 83.607 157.268 82.933 158.992 82.933C160.087 82.933 161.545 83.833 162.232 84.933C164.227 88.128 165 87.29 165 81.933C165 76.71 163.821 75.531 162 78.933C161.411 80.033 160.045 80.933 158.965 80.933C157.274 80.933 157 80.236 157 75.933C157 71.833 157.315 70.935 158.75 70.947C162.272 70.974 164.948 72.195 165.534 74.041C166.597 77.39 169 76.276 169 72.433V68.933H159.059C153.591 68.933 148.86 69.351 148.544 69.861ZM175.756 70.688C167.416 75.859 168.5 90.737 177.49 94.493C181.876 96.326 183.419 96.302 187.555 94.34C192.279 92.098 195.428 85.428 194.462 79.709C193.399 73.416 188.547 68.925 182.85 68.96C180.458 68.974 177.265 69.752 175.756 70.688ZM197 69.964C197 70.532 197.675 71.255 198.5 71.571C199.683 72.025 200 74.094 200 81.366C200 89.983 200.168 90.743 202.581 93.009C206.175 96.385 212.825 96.385 216.419 93.009C218.814 90.759 219 89.951 219 81.794C219 73.932 219.218 72.887 221.067 71.897C222.675 71.037 223.675 71.145 225.567 72.385C227.81 73.854 228 74.607 228 82.004C228 89.397 227.792 90.221 225.354 92.481L222.708 94.933H228.854C235.268 94.933 236.567 94.095 232.75 92.42C230.725 91.532 230.472 90.632 230.217 83.433L229.934 75.433L237.102 85.183C241.044 90.545 244.884 94.933 245.635 94.933C246.708 94.933 247 92.502 247 83.55C247 73.007 247.148 72.128 249 71.643C253.084 70.575 250.963 68.933 245.5 68.933C239.827 68.933 238.507 70.064 242 71.933C243.711 72.849 244 74.027 244 80.088V87.172L237.317 78.053L230.634 68.933H221.317C215.241 68.933 212 69.313 212 70.027C212 70.628 212.916 71.36 214.035 71.652C215.929 72.148 216.05 72.848 215.785 81.787C215.505 91.222 215.453 91.406 212.79 92.34C210.953 92.985 209.263 92.918 207.54 92.133C205.078 91.011 205 90.683 205 81.423C205 73.854 205.312 71.751 206.5 71.295C209.688 70.071 207.76 68.933 202.5 68.933C199.388 68.933 197 69.381 197 69.964ZM252 69.826C252 70.317 252.675 70.978 253.5 71.295C254.702 71.756 255 73.963 255 82.402C255 91.096 254.738 92.933 253.5 92.933C252.675 92.933 252 93.429 252 94.036C252 94.78 254.74 95.024 260.427 94.786C270.408 94.368 273.696 92.529 275.969 86.092C277.261 82.434 277.261 81.421 275.969 77.683C273.941 71.817 268.279 68.933 258.788 68.933C255.055 68.933 252 69.335 252 69.826ZM285.056 79.631C282.783 85.572 280.041 91.18 278.962 92.093C276.067 94.544 276.483 94.933 282 94.933C287.02 94.933 288.738 93.621 284.998 92.643C283.369 92.217 283.156 91.682 283.856 89.776C284.993 86.681 291.73 85.843 293.71 88.551C295.438 90.914 295.341 92.933 293.5 92.933C292.675 92.933 292 93.383 292 93.933C292 94.483 294.475 94.933 297.5 94.933C303.268 94.933 304.061 94.429 301.381 92.469C300.49 91.818 297.894 86.403 295.613 80.437C293.331 74.47 290.952 69.417 290.326 69.208C289.668 68.989 287.447 73.381 285.056 79.631ZM302 72.937C302 77.19 303.433 78.294 304.518 74.876C305.047 73.209 308.538 70.933 310.565 70.933C310.804 70.933 311 75.7 311 81.527C311 91.279 310.841 92.162 309 92.643C304.861 93.726 307.234 94.933 313.5 94.933C319.766 94.933 322.139 93.726 318 92.643C316.159 92.162 316 91.279 316 81.527C316 75.131 316.396 70.933 317 70.933C318.229 70.933 321.593 74.211 322.184 75.985C322.885 78.088 325 76.046 325 73.267C325 71.354 325.394 70.87 326.582 71.326C327.452 71.66 328.352 71.933 328.582 71.933C328.812 71.933 329 76.658 329 82.433C329 92.266 328.873 92.933 327 92.933C325.9 92.933 325 93.383 325 93.933C325 94.489 327.667 94.933 331 94.933C336.686 94.933 338.784 93.832 335.5 92.571C334.306 92.113 334 89.971 334 82.071C334 74.172 334.306 72.03 335.5 71.571C340.092 69.809 335.501 69.074 319.5 69.011L302 68.941V72.937ZM344.096 71.506C338.09 76.559 337.932 86.62 343.77 92.213C354.187 102.193 368.814 88.88 362.365 75.29C359.225 68.673 349.786 66.718 344.096 71.506ZM365 69.964C365 70.532 365.788 71.286 366.75 71.641C369.584 72.687 369.969 73.999 369.985 82.675C369.998 89.843 369.739 91.079 368 92.165C364.742 94.2 365.669 94.933 371.5 94.933C374.525 94.933 377 94.483 377 93.933C377 93.383 376.341 92.933 375.535 92.933C373.062 92.933 371.896 89.203 372.205 82.28L372.5 75.665L379.436 85.299C383.251 90.598 386.964 94.933 387.686 94.933C388.691 94.933 389 92.357 389 83.968C389 74.027 389.187 72.903 391 71.933C394.493 70.064 393.173 68.933 387.5 68.933C382.037 68.933 379.916 70.575 384 71.643C385.763 72.104 386 73.007 386 79.25C386 83.268 385.628 85.922 385.141 85.383C384.668 84.86 381.689 80.946 378.52 76.683C373.059 69.339 372.555 68.933 368.879 68.933C366.745 68.933 365 69.397 365 69.964ZM10 71.723C10 75.342 13.142 85.423 15.783 90.277C18.514 95.296 26.89 105.376 27.677 104.59C27.908 104.358 25.766 101.087 22.915 97.32C16.96 89.453 14.595 84.436 12.843 75.95C11.671 70.278 10 67.793 10 71.723ZM186.434 72.86C190.337 77.173 190.294 88.782 186.365 91.655C183.827 93.511 179.57 93.221 177.612 91.057C174.087 87.161 174.344 76.589 178.056 72.877C180.536 70.397 184.198 70.389 186.434 72.86ZM355.975 72.908C357.061 73.994 358.241 76.045 358.598 77.467C359.597 81.448 358.436 88.794 356.463 90.974C354.175 93.502 349.549 93.482 347 90.933C344.099 88.032 344.144 77.29 347.073 73.568C349.556 70.411 353.207 70.14 355.975 72.908ZM269.401 75.258C270.922 77.306 271.479 79.48 271.424 83.16C271.36 87.427 270.902 88.621 268.554 90.64C266.783 92.164 264.799 92.931 263.13 92.738C260.501 92.433 260.5 92.429 260.214 82.121L259.929 71.808L263.615 72.121C266.283 72.347 267.881 73.214 269.401 75.258ZM290.27 78.683C290.547 79.646 291.097 81.22 291.494 82.183C292.092 83.636 291.669 83.933 289 83.933C286.331 83.933 285.908 83.636 286.506 82.183C286.903 81.22 287.453 79.646 287.73 78.683C288.007 77.72 288.578 76.933 289 76.933C289.422 76.933 289.993 77.72 290.27 78.683ZM38.5 109.182V113.433L43.5 113.949C46.25 114.233 49.063 114.298 49.75 114.092C51.57 113.549 51.279 111.191 49.25 110.038C47.712 109.163 47.772 109.062 49.75 109.201C51.382 109.315 52 109.987 52 111.646C52 113.52 52.541 113.933 55 113.933C56.65 113.933 58 113.453 58 112.866C58 112.253 57.147 112.069 56 112.433C54.459 112.922 54 112.613 54 111.084C54 109.992 54.563 108.871 55.25 108.592C57.605 107.637 53.761 106.033 50.547 106.631C46.091 107.46 45.367 108.558 47.574 111.142C49.202 113.049 49.223 113.183 47.708 112.008C46.35 110.955 45.634 110.899 44.758 111.775C43.086 113.447 41 113.197 41 111.326C41 110.431 41.567 109.937 42.281 110.21C43.587 110.712 46.214 106.481 45.216 105.482C44.914 105.18 43.279 104.932 41.583 104.932C38.622 104.93 38.5 105.099 38.5 109.182ZM44 106.311C44 106.518 43.325 107.248 42.5 107.933C41.271 108.953 41 108.884 41 107.555C41 106.663 41.675 105.933 42.5 105.933C43.325 105.933 44 106.103 44 106.311ZM62.667 107.6C61.539 108.728 61.926 109.933 63.417 109.933C64.196 109.933 65.06 109.371 65.338 108.683C65.718 107.741 65.862 107.763 65.921 108.773C65.964 109.51 64.987 110.957 63.75 111.989L61.5 113.866L65.25 113.9C67.313 113.918 69 113.483 69 112.933C69 112.383 68.523 111.933 67.941 111.933C67.359 111.933 67.196 111.425 67.579 110.805C68.043 110.054 68.62 110.305 69.303 111.555C70.806 114.306 72.159 114.918 74.256 113.796C75.516 113.122 76.019 111.93 75.81 110.116C75.569 108.027 74.891 107.363 72.75 107.117C71.031 106.919 70 107.275 70 108.067C70 109.052 69.733 109.066 68.8 108.133C67.506 106.839 63.753 106.513 62.667 107.6ZM77.713 107.554C76.315 108.951 77.031 112.879 78.862 113.859C81.493 115.267 84.29 113.031 83.845 109.877C83.597 108.12 82.786 107.35 80.963 107.137C79.567 106.974 78.104 107.162 77.713 107.554ZM85 108.433C85 110.248 86.656 110.43 87.28 108.683C87.531 107.979 88.114 107.808 88.613 108.292C89.121 108.785 88.539 109.797 87.25 110.664C84.159 112.743 84.432 113.933 88 113.933C89.65 113.933 91 113.483 91 112.933C91 112.383 90.495 111.933 89.878 111.933C89.087 111.933 89.113 111.502 89.964 110.477C91.579 108.531 90.441 106.933 87.441 106.933C85.938 106.933 85 107.509 85 108.433ZM74 110.433C74 111.808 73.55 112.933 73 112.933C72.45 112.933 72 111.808 72 110.433C72 109.058 72.45 107.933 73 107.933C73.55 107.933 74 109.058 74 110.433ZM82 110.433C82 112.986 80.635 113.77 79.47 111.885C78.639 110.539 79.626 107.933 80.969 107.933C81.536 107.933 82 109.058 82 110.433Z" fill="white"/>
</svg>
