<svg width="330" height="94" viewBox="0 0 330 94" fill="none" xmlns="http://www.w3.org/2000/svg">
<path fill-rule="evenodd" clip-rule="evenodd" d="M165.195 0.257711C165.082 0.369834 163.995 0.544903 162.78 0.646699C161.563 0.748495 160.295 1.00175 159.96 1.20977C159.625 1.4173 159.149 1.46205 158.902 1.30911C158.656 1.15617 158.38 1.2083 158.289 1.42468C158.021 2.06791 152.988 4.05367 152.459 3.72517C152.191 3.55895 152.032 3.60518 152.106 3.82844C152.18 4.05121 152.086 4.30054 151.897 4.38266C151.708 4.46429 150.858 5.18277 150.008 5.97894C149.159 6.77511 148.21 7.28114 147.9 7.10361C147.59 6.92608 147.487 6.94871 147.671 7.15377C147.855 7.35884 147.065 8.68416 145.916 10.0985C143.078 13.5925 141.019 17.3299 139.665 21.4455C138.729 24.2904 138.531 25.955 138.521 31.035C138.509 37.7373 139.104 40.3575 141.719 45.1079C142.804 47.0809 142.978 47.7654 142.523 48.2803C142.049 48.8164 142.084 48.8311 142.71 48.3615C143.345 47.8849 143.782 48.1525 145.253 49.9164C146.66 51.6042 146.908 52.184 146.447 52.7053C145.964 53.2521 146.008 53.2551 146.709 52.7244C147.418 52.1869 147.746 52.2386 148.776 53.0515C149.45 53.5831 149.843 54.1929 149.649 54.4078C149.456 54.6222 149.532 54.665 149.817 54.5027C150.102 54.3404 151.282 54.7471 152.44 55.4065C157.082 58.0513 162.725 58.6861 168.817 57.2502C170.757 56.7923 172.511 56.4604 172.714 56.5125C172.916 56.5647 173.081 56.3724 173.081 56.0862C173.081 55.8 173.302 55.7021 173.572 55.8693C173.841 56.0365 174.062 55.915 174.062 55.5998C174.062 55.2595 174.405 55.1582 174.905 55.351C175.369 55.5295 175.592 55.5182 175.4 55.3259C175.208 55.1336 175.325 54.6369 175.66 54.2219C176.146 53.6199 176.145 53.5423 175.656 53.8368C175.09 54.1776 174.771 53.2683 175.008 51.9902C175.053 51.7409 174.287 51.7247 173.226 51.9519C169.996 52.6438 163.211 52.4328 159.897 51.5378C156.576 50.6408 150.802 47.1345 149.544 45.251C149.139 44.6457 148.452 43.7748 148.017 43.3159C146.865 42.0988 144.527 36.9441 144.401 35.3424C144.341 34.5851 144.15 33.8224 143.976 33.6478C143.463 33.1329 143.613 26.3858 144.201 23.5596C144.935 20.0327 147.323 15.0821 148.887 13.8487C149.591 13.2935 149.986 12.8396 149.767 12.8396C148.746 12.8396 153.069 9.60228 155.918 8.23222C158.793 6.84986 159.562 6.69938 163.764 6.69594C168.828 6.692 174.748 8.11321 173.478 9.0279C173.01 9.36476 173.071 9.41443 173.703 9.20986C174.711 8.88381 177.73 10.574 177.762 11.4828C177.774 11.8236 178.084 12.0356 178.449 11.9544C179.31 11.7631 182.454 14.8106 182.059 15.4524C181.892 15.7218 181.993 15.7951 182.283 15.6156C182.909 15.2281 184.946 17.6122 187.245 21.4205C188.99 24.3116 191.905 32.2964 191.472 32.9986C191.333 33.2249 191.407 33.484 191.638 33.575C191.868 33.6655 192.383 35.5662 192.782 37.7983L193.508 41.8569L191.839 42.8448C190.92 43.3877 189.931 43.6848 189.641 43.5048C189.302 43.2953 189.257 43.4118 189.514 43.8284C189.807 44.3054 189.689 44.3934 189.073 44.1559C188.61 43.9779 188.35 44.0241 188.495 44.2582C188.639 44.4927 187.848 45.2874 186.738 46.0246C185.627 46.7613 183.777 48.2356 182.625 49.2998C181.474 50.3644 180.436 51.0608 180.319 50.8479C180.202 50.6344 180.168 50.7205 180.243 51.0387C180.42 51.793 179.238 52.7712 178.72 52.2995C178.499 52.0994 178.478 52.2135 178.673 52.5533C178.868 52.8931 178.616 53.7783 178.112 54.5204C175.332 58.6168 174.714 63.7897 176.668 66.6208C177.762 68.2058 180.186 69.3929 182.328 69.3929H183.76L182.6 66.5653C181.948 64.9754 181.436 62.7083 181.429 61.3859C181.416 58.5947 182.597 55.3844 183.445 55.9101C183.792 56.125 183.891 56.0552 183.693 55.7345C182.94 54.514 190.579 48.2877 191.588 49.2993C191.937 49.6494 192.212 49.6179 192.472 49.1975C192.714 48.8036 192.647 48.7116 192.282 48.9378C191.118 49.6588 191.766 48.8183 192.997 48.0094L194.28 47.167L194.088 49.1822C193.982 50.2907 194.068 51.1975 194.277 51.1975C194.773 51.1975 194.723 65.1858 194.212 69.6388C193.995 71.5321 193.918 73.1918 194.042 73.3271C194.167 73.4623 195.352 72.3558 196.676 70.8682C197.999 69.3806 199.3 68.2186 199.567 68.2864C199.834 68.3538 199.996 68.2058 199.929 67.957C199.731 67.2247 205.023 61.5084 205.58 61.8536C205.859 62.0267 205.945 61.9377 205.772 61.6564C205.38 61.0191 206.614 59.9234 207.163 60.4226C207.384 60.6227 207.426 60.5435 207.258 60.2465C207.089 59.9495 208.647 58.1791 210.72 56.3124C212.794 54.4456 217.578 49.8205 221.352 46.0339C225.126 42.2473 228.403 39.2102 228.635 39.2844C228.867 39.3587 228.918 39.1944 228.749 38.9195C228.579 38.6446 229.087 37.4777 229.877 36.3254C231.407 34.0953 234.454 27.9787 233.849 28.3539C233.651 28.4768 233.6 28.1498 233.736 27.6271C233.873 27.1043 235.543 25.1677 237.447 23.3236C239.353 21.479 240.909 19.8596 240.908 19.7243C240.898 19.027 242.938 16.8549 243.358 17.115C243.633 17.2852 243.693 17.1691 243.496 16.85C243.304 16.5377 243.38 16.282 243.666 16.282C243.951 16.282 244.146 16.1158 244.099 15.9131C243.914 15.1155 245.341 12.8888 245.85 13.1799C246.148 13.3501 246.236 13.3156 246.045 13.1037C245.854 12.8912 246.163 11.8049 246.731 10.6886C247.298 9.57278 247.756 8.54892 247.749 8.41368C247.741 8.27845 247.908 7.71242 248.119 7.15574C248.492 6.1722 248.408 6.15549 245.087 6.55333C243.208 6.77806 233.738 6.9015 224.043 6.82724C208.12 6.70577 206.39 6.7697 206.161 7.4926C206.022 7.93224 204.881 9.3087 203.625 10.5504C201.733 12.4211 201.214 12.7058 200.602 12.2091C199.992 11.7149 199.943 11.739 200.318 12.3478C200.568 12.7535 200.776 13.2989 200.78 13.5595C200.784 13.8202 202.773 14.281 205.201 14.5839C210.799 15.2822 214.838 16.253 214.491 16.817C214.343 17.0575 214.553 17.1263 214.959 16.9704C216.036 16.5559 220.555 19.1504 223.011 21.5945C224.787 23.3605 225.037 23.8326 224.526 24.4497C224.036 25.0418 224.037 25.1594 224.533 25.0384C224.873 24.9558 225.406 25.2754 225.717 25.7485C226.411 26.8058 225.584 28.3657 224.385 28.2629C223.953 28.226 223.715 28.3824 223.856 28.6106C223.997 28.8393 223.388 29.394 222.502 29.8439C221.617 30.2939 220.52 30.9888 220.065 31.3886C219.599 31.7972 218.956 31.9522 218.594 31.7422C218.24 31.5371 218.119 31.5558 218.326 31.784C218.759 32.262 217.683 32.7567 209.656 35.7698C206.442 36.9761 203.507 37.845 203.133 37.7009C202.759 37.5568 202.572 37.6331 202.718 37.8696C202.864 38.1061 202.544 38.415 202.008 38.5556C201.239 38.7572 201.032 38.5669 201.032 37.6581C201.032 35.5303 198.251 24.8087 196.763 21.1996C196.596 20.7939 196.436 20.3514 196.409 20.2161C196.381 20.0809 196.184 19.6939 195.97 19.3555C195.756 19.0177 195.738 18.4851 195.93 18.1728C196.123 17.861 196.072 17.7347 195.817 17.892C195.563 18.0499 194.818 17.1435 194.161 15.8782C192.947 13.5379 190.772 10.873 187.932 8.24648C187.065 7.44441 186.492 6.5666 186.66 6.29564C186.826 6.02467 186.724 5.9514 186.431 6.13286C186.138 6.31432 185.764 6.24351 185.599 5.97599C185.434 5.70847 184.524 5.1208 183.577 4.66985C182.343 4.08268 181.941 3.62632 182.156 3.05882C182.383 2.46034 182.317 2.40477 181.888 2.83212C181.46 3.25848 180.788 3.1616 179.159 2.4387C175.65 0.882255 166.069 -0.614686 165.195 0.257711ZM28.2027 3.07554C28.058 3.71238 27.3857 6.63348 26.709 9.56639C26.0323 12.4993 25.5885 15.0771 25.7229 15.295C26.2466 16.1448 31.3494 16.9424 36.0226 16.9045C40.5306 16.8682 48.1461 16.3897 50.0629 16.0223C50.5028 15.9382 53.1508 15.714 55.9474 15.5242C58.7435 15.3343 61.1782 15.0939 61.3577 14.9896C62.1437 14.5328 74.5256 14.7939 76.9686 15.3186C80.5993 16.099 84.3865 17.7499 83.9966 18.3828C83.8103 18.6847 83.9221 18.7442 84.2698 18.5284C84.9239 18.1231 86.4087 19.1264 86.0405 19.7243C85.9115 19.9338 86.1611 20.0745 86.5951 20.0376C87.6769 19.9451 90.5269 24.1886 91.4292 27.2361C92.7022 31.5356 92.0554 39.3616 90.0488 43.9341C89.6604 44.8183 89.0695 46.2616 88.7356 47.1404C88.4016 48.0192 87.9343 48.7387 87.6974 48.7387C87.4601 48.7387 87.2664 49.0976 87.2664 49.5368C87.2664 50.8808 83.0262 56.3842 80.2904 58.5907C76.7872 61.4164 72.2684 63.4765 68.1836 64.1108C65.3782 64.5461 64.2131 64.4944 61.4405 63.8128C59.5977 63.3594 57.4916 62.5485 56.7604 62.0105C56.0298 61.473 55.2462 61.0329 55.0186 61.0329C54.4366 61.0329 49.5078 56.1294 49.5078 55.5506C49.5078 55.288 49.7628 55.2315 50.0742 55.4242C50.417 55.6372 50.5072 55.56 50.3032 55.229C50.1184 54.9285 49.652 54.8041 49.2676 54.9521C48.7909 55.1356 47.5552 53.6785 45.3907 50.3817L42.2131 45.5422L44.1976 44.9432C45.2892 44.6137 46.4342 44.1514 46.7417 43.9159C47.0496 43.6803 49.1768 42.7499 51.4693 41.849C53.7618 40.9476 56.7408 39.7182 58.0893 39.1172C59.4379 38.5163 62.6375 37.1344 65.1997 36.0466C67.7619 34.9583 71.3666 33.368 73.2104 32.5118C75.0542 31.6561 76.6876 31.0812 76.8406 31.2342C76.9931 31.3876 75.7755 35.5558 74.1343 40.4971C70.8498 50.3846 69.9705 54.6399 71.2117 54.6399C71.6211 54.6399 74.4628 53.7709 77.5272 52.7092C85.2686 50.0261 84.9161 50.1918 84.3463 49.5034C84.0751 49.1753 83.7809 48.4323 83.6926 47.852C83.4655 46.3585 83.2297 46.24 81.4786 46.7436C80.6238 46.9899 79.8358 47.0411 79.7279 46.8581C79.3808 46.27 81.1225 41.2589 81.5305 41.6715C81.7468 41.8908 81.8007 41.7447 81.6502 41.3474C81.4996 40.9495 82.2627 37.9906 83.3454 34.771C85.5168 28.3145 86.2504 24.0632 85.3755 23.0064C85.072 22.6391 84.945 22.2161 85.0946 22.0666C85.2436 21.9166 84.3183 22.3263 83.0375 22.9764C81.6781 23.6664 80.2879 24.0411 79.697 23.8763C78.9904 23.6791 78.8811 23.7308 79.3342 24.0465C79.8123 24.3799 79.3847 24.7817 77.7164 25.568C76.4694 26.1562 75.2052 26.4857 74.9071 26.3012C74.5928 26.1065 74.503 26.1891 74.6933 26.4975C74.8777 26.797 74.5349 27.1815 73.9112 27.3753C73.3002 27.5656 71.9178 28.1159 70.839 28.5988C62.3693 32.3884 57.1875 34.4321 56.7447 34.1577C56.4358 33.9664 56.3647 34.0663 56.5716 34.4012C56.7756 34.7326 56.603 34.9947 56.1568 35.0306C54.9838 35.125 54.7651 35.1988 53.1856 36.0358C50.0154 37.7152 41.481 40.9058 40.8293 40.655C40.4492 40.5089 40.2742 40.6083 40.4394 40.8758C40.6042 41.1433 40.5341 41.3621 40.283 41.3621C39.5759 41.3621 35.748 34.4371 36.1065 33.8071C36.2816 33.4997 36.2492 33.4073 36.0339 33.602C35.5681 34.024 31.8123 28.8024 31.982 27.9688C32.0467 27.6512 31.8349 27.3812 31.5117 27.3689C30.6423 27.3359 26.4942 23.0182 26.8218 22.4866C26.9758 22.2363 26.8552 22.1847 26.5531 22.3715C26.251 22.5589 25.0584 22.226 23.9026 21.6319C21.2988 20.2938 16.0263 20.1822 12.73 21.3964C11.5164 21.8434 10.3115 22.2584 10.0521 22.3189C9.79319 22.3794 9.13855 22.822 8.59816 23.302C8.05777 23.7819 7.32074 24.0608 6.95983 23.9221C6.59941 23.7834 6.41846 23.8552 6.55822 24.0819C6.90981 24.6523 4.46237 26.7099 3.86951 26.3421C3.6052 26.1783 3.42033 26.2265 3.45907 26.4498C3.6459 27.5302 3.36002 28.1119 2.80001 27.7889C2.46313 27.5941 2.33416 27.5995 2.51413 27.8007C2.69409 28.0018 2.27531 29.2961 1.58389 30.6765C-0.829224 35.4944 -0.446731 42.2163 2.47 46.2542C3.22271 47.2958 3.74251 48.2813 3.6258 48.4436C3.5086 48.6059 3.55371 48.6344 3.72534 48.5075C4.06076 48.2592 6.8544 50.0743 7.45118 50.928C7.64929 51.2113 7.81455 51.2349 7.81896 50.9806C7.82288 50.7259 8.1735 50.9472 8.59816 51.4724C9.02282 51.9971 9.2072 52.1127 9.00811 51.7286C8.73105 51.1941 8.86639 51.1173 9.58478 51.4021C12.3039 52.4795 16.2793 52.5056 21.6955 51.4817C24.0645 51.0342 26.25 50.8213 26.5526 51.0087C26.9125 51.2319 26.9635 51.1247 26.7007 50.6984C26.4158 50.2356 26.5188 50.1313 27.0557 50.3379C27.4716 50.4977 28.0046 50.4426 28.2395 50.2149C28.4749 49.9873 29.9411 49.4709 31.498 49.0677L34.3289 48.3344L36.3031 51.2496C37.3888 52.8528 38.1219 54.4166 37.9321 54.724C37.7301 55.052 37.8046 55.1489 38.1116 54.9585C38.4024 54.7786 39.1434 55.4572 39.774 56.4811C40.4002 57.497 41.835 59.4641 42.9624 60.8524C44.5713 62.8332 44.8895 63.5168 44.4408 64.0253C43.9721 64.5564 44.0147 64.5638 44.6767 64.0641C45.35 63.5566 45.6393 63.6422 46.4112 64.5795C47.8862 66.371 52.9782 69.058 56.3936 69.8473C59.6286 70.5948 66.0613 70.4817 69.363 69.6196C70.9572 69.2031 73.6473 68.1242 75.3416 67.2223C77.0358 66.3199 78.2715 65.8306 78.0881 66.135C77.5541 67.0196 83.8318 61.59 86.6534 58.7265C88.0691 57.29 89.2279 56.0331 89.2279 55.9337C89.2279 55.8349 90.2209 54.2686 91.4346 52.4535C92.6482 50.6384 93.6412 48.9364 93.6412 48.6713C93.6412 48.4057 93.8962 48.3467 94.2076 48.5395C94.5411 48.7465 94.6411 48.6757 94.4508 48.3669C94.2733 48.0787 94.6803 46.7401 95.3556 45.3917C96.0308 44.0437 96.5835 42.683 96.5835 42.3683C96.5835 42.0536 96.8384 41.9537 97.1498 42.1465C97.4661 42.3432 97.5838 42.2837 97.4161 42.0118C97.2518 41.7447 97.5431 39.4423 98.0634 36.8954C100.026 27.2941 97.981 18.3749 92.7291 13.6343C92.1647 13.1248 91.8421 12.4821 92.0122 12.2062C92.1824 11.9298 92.1083 11.8364 91.8475 11.9982C91.2046 12.3965 88.6336 10.6586 89.1014 10.1418C89.3059 9.91603 89.2338 9.86784 88.9415 10.0345C88.6488 10.2018 87.5454 9.91309 86.4897 9.39427C85.4334 8.87496 83.2454 8.1019 81.6271 7.67652C78.3887 6.82478 69.057 5.85108 67.4451 6.19679C66.8846 6.31727 63.557 6.53218 60.0508 6.67479C56.5447 6.8174 52.7933 7.05542 51.7145 7.20344C47.614 7.76602 37.864 8.19829 35.0419 7.94257L32.0997 7.67603L32.237 5.09425C32.3537 2.89703 32.2443 2.51148 31.5014 2.50558C31.0214 2.50214 30.1421 2.36838 29.5473 2.20856C28.6955 1.97939 28.4106 2.16282 28.2027 3.07554ZM149.81 3.46207C149.654 3.71386 149.715 4.03596 149.944 4.17809C150.173 4.32021 150.361 4.11416 150.361 3.72025C150.361 2.89113 150.206 2.81884 149.81 3.46207ZM249.138 7.77684C249.495 8.37287 249.893 8.75497 250.022 8.62563C250.151 8.4963 249.859 8.00846 249.373 7.54128C248.528 6.73036 248.518 6.74069 249.138 7.77684ZM238.791 13.5679C238.791 13.6977 238.043 14.9699 237.129 16.3956C235.298 19.2493 232.907 21.7209 232.907 20.759C232.907 20.0602 230.054 15.715 229.263 15.2089C226.434 13.4002 226.504 13.3633 232.784 13.3471C236.088 13.3382 238.791 13.4376 238.791 13.5679ZM245.441 18.9119C244.783 19.5719 244.136 20.0027 244.003 19.8694C243.87 19.7361 243.883 20.0927 244.031 20.6617C244.179 21.2311 243.999 22.0701 243.63 22.526C243.261 22.9823 243.195 23.2144 243.482 23.0418C243.77 22.8697 244.372 23.3516 244.821 24.1129C245.577 25.3974 245.783 25.4702 247.668 25.1245C249.009 24.8786 250.067 24.2909 250.778 23.3959C251.949 21.924 252.034 21.031 251.16 19.4199C250.849 18.847 250.693 18.2795 250.813 18.159C250.933 18.0386 250.043 17.8886 248.834 17.8261C247.068 17.7342 246.403 17.9471 245.441 18.9119ZM323.447 19.0536C322.129 20.3759 321.782 22.3071 322.624 23.6418C322.918 24.1085 322.872 24.6292 322.494 25.1171C321.995 25.7608 322.023 25.7819 322.69 25.2612C323.119 24.9253 323.615 24.796 323.792 24.974C324.35 25.5336 328.422 25.4254 328.204 24.8569C328.094 24.5692 328.453 23.9265 329.002 23.4283C330.191 22.3494 330.293 20.3627 329.236 18.8505C328.112 17.239 325.153 17.3432 323.447 19.0536ZM28.6622 22.6828C28.4925 22.9577 28.1144 23.0344 27.8217 22.853C27.4966 22.6513 27.4313 22.7531 27.6545 23.1146C27.9335 23.5675 28.1811 23.5714 28.7107 23.1303C29.4046 22.553 29.5905 22.1832 29.1864 22.1832C29.0672 22.1832 28.8314 22.4079 28.6622 22.6828ZM4.66489 23.1249C4.507 23.3811 4.58693 23.72 4.84241 23.8783C5.09789 24.0367 5.43576 23.9565 5.59366 23.7003C5.75156 23.4441 5.67163 23.1052 5.41614 22.9469C5.16066 22.7885 4.82279 22.8687 4.66489 23.1249ZM19.2936 28.2437C20.4034 28.8727 21.2507 29.664 21.1767 30.0018C21.1026 30.3397 21.2532 30.4857 21.5106 30.3259C21.9877 30.0303 22.7434 30.8801 22.7973 31.7727C22.814 32.0431 23.0965 32.2079 23.426 32.1385C24.3548 31.9438 32.0786 43.551 31.5701 44.3767C31.3063 44.805 23.7192 46.5729 20.2082 47.0244C16.9958 47.4379 12.936 46.9078 11.9817 45.9508C11.584 45.552 11.2589 45.3602 11.2589 45.5245C11.2589 45.6882 10.8112 45.5825 10.2644 45.2889C9.71768 44.9953 9.42051 44.5109 9.60489 44.2119C9.81281 43.8746 9.71375 43.8092 9.34205 44.0388C8.54275 44.5345 6.97356 43.0484 5.74273 40.6294C4.70707 38.5945 4.34272 33.6847 5.18175 33.0744C5.42252 32.8993 5.68585 32.4243 5.76725 32.0185C6.00508 30.8285 9.23662 27.9934 11.1809 27.269C13.5048 26.403 16.729 26.7906 19.2936 28.2437ZM242.714 30.8132C241.5 31.4447 240.232 31.871 239.894 31.7599C239.557 31.6487 239.281 31.721 239.281 31.9202C239.281 32.1199 237.626 32.9165 235.604 33.691C233.581 34.4656 231.926 35.369 231.926 35.6984C231.926 36.444 232.935 39.3951 233.19 39.3951C233.293 39.3951 234.273 39.0356 235.369 38.5959C236.464 38.1563 237.462 37.8976 237.585 38.0211C237.895 38.3328 235.365 44.4893 234.774 44.8596C234.51 45.0248 234.313 45.3017 234.336 45.4743C234.471 46.4864 234.312 46.7893 233.811 46.479C233.454 46.2572 233.379 46.3442 233.607 46.714C233.806 47.0376 232.869 49.7783 231.517 52.8277C228.505 59.622 227.184 63.7287 226.64 67.9933L226.221 71.2656L227.696 71.0782C228.507 70.9754 229.919 70.5353 230.833 70.1001C231.748 69.6649 232.622 69.4352 232.775 69.5891C232.929 69.7431 233.297 69.5759 233.594 69.2169C234.403 68.2373 239.224 66.3523 239.909 66.7472C240.238 66.9365 240.344 66.9105 240.144 66.6892C239.944 66.4679 240.026 65.9904 240.326 65.6275C240.729 65.1406 240.712 64.581 240.262 63.4922C239.609 61.9102 239.08 61.7435 237.107 62.4959C236.415 62.76 235.849 62.815 235.849 62.6188C235.849 62.1059 237.78 57.0859 238.435 55.8939C238.74 55.3392 239.03 54.6477 239.079 54.3566C239.129 54.0655 239.877 52.4058 240.741 50.6684C241.605 48.9309 242.388 47.1316 242.481 46.6698C242.574 46.2075 243.141 44.7691 243.741 43.4733C244.342 42.177 244.864 41.0056 244.902 40.8704C244.94 40.7351 245.338 39.397 245.789 37.8971C246.238 36.3972 246.71 33.9079 246.837 32.3647C247.055 29.7244 247.005 29.5627 245.995 29.6118C245.404 29.6408 243.928 30.1813 242.714 30.8132ZM320.921 30.0952C321.154 30.71 320.243 31.2632 316.659 32.6815C314.153 33.6738 311.914 34.4838 311.685 34.4813C311.456 34.4794 311.741 33.6748 312.318 32.6942C312.895 31.7136 313.247 30.7911 313.101 30.6445C312.396 29.9369 307.447 30.0215 304.746 30.7872C303.128 31.246 301.417 31.6478 300.946 31.6797C300.474 31.7112 300.087 31.8705 300.087 32.0328C300.087 32.1951 299.359 32.6765 298.47 33.1019C297.58 33.5273 295.357 35.01 293.531 36.3963C291.704 37.783 289.971 38.7695 289.678 38.5886C289.387 38.4076 289.279 38.473 289.44 38.7341C289.601 38.9953 288.847 40.1912 287.764 41.3921C286.682 42.5925 285.236 44.2921 284.55 45.1684C283.866 46.0448 283.112 46.6423 282.875 46.4952C282.639 46.3487 282.563 46.5365 282.707 46.9132C282.851 47.2894 282.628 47.8815 282.211 48.2282C281.656 48.69 281.453 48.7033 281.453 48.2779C281.453 47.9587 281.209 47.8486 280.91 48.0335C280.525 48.2725 280.545 48.4795 280.978 48.748C281.432 49.0293 281.098 50.1136 279.673 52.9895C278.62 55.1144 277.652 57.5167 277.522 58.3281C277.077 61.1032 277.34 66.195 278.005 67.6717C278.37 68.4831 278.616 69.3683 278.549 69.6388C278.484 69.9093 278.595 69.9639 278.799 69.7598C279.002 69.5562 279.692 69.7337 280.333 70.1547C283.518 72.2476 288.771 71.3998 294.129 67.927C295.74 66.8824 297.189 66.1212 297.347 66.2353C297.506 66.3489 297.553 66.3228 297.453 66.1772C297.353 66.0312 298.685 64.549 300.415 62.8839C303.957 59.4725 305.388 57.4144 306.474 54.1688C307.173 52.0783 307.159 51.8161 306.256 50.0822C305.725 49.0627 305.088 48.2966 304.841 48.3792C304.594 48.4618 303.457 50.2533 302.315 52.361C298.428 59.531 293.388 63.9835 289.158 63.9835C288.195 63.9835 287.061 63.6358 286.637 63.2109C284.901 61.4696 286.331 54.7368 289.774 48.4387C290.793 46.5754 291.867 45.103 292.161 45.1674C292.456 45.2319 292.57 44.955 292.416 44.5527C292.079 43.6705 293.021 43.5608 293.422 44.4357C293.577 44.774 293.573 44.5301 293.414 43.8947C293.056 42.4627 295.832 39.2982 297.04 39.7629C297.505 39.9419 297.671 39.8509 297.471 39.5264C297.284 39.222 297.799 38.771 298.69 38.4592C300.746 37.7408 302.537 37.7757 302.547 38.5345C302.552 38.9869 302.666 38.9731 302.976 38.4819C303.208 38.115 303.521 38.0152 303.672 38.2606C303.823 38.5059 303.376 39.9714 302.678 41.5175C301.981 43.0632 301.499 44.4155 301.607 44.5227C301.715 44.6294 302.686 44.8035 303.765 44.9093L305.727 45.1015L307.768 41.1418C308.891 38.9638 309.994 37.1821 310.22 37.1821C310.446 37.1821 310.701 37.6798 310.787 38.2886C310.873 38.8974 311 39.3951 311.067 39.3951C311.135 39.3951 312.235 39.038 313.512 38.6023C314.788 38.1661 315.913 37.8893 316.01 37.9876C316.194 38.1715 312.973 46.0231 310.596 51.1872C309.855 52.7948 309.067 53.9966 308.842 53.858C308.618 53.7188 308.558 53.9273 308.709 54.3207C308.859 54.7141 308.512 55.9608 307.937 57.0908C306.536 59.8457 304.991 66.0538 304.991 68.9307V71.2616L306.902 71.1879C307.953 71.1475 308.736 70.9853 308.64 70.8279C308.545 70.6705 310.888 69.4141 313.845 68.0356L319.223 65.5296L318.631 64.1418C317.568 61.6491 317.299 61.4745 315.754 62.2751C314.986 62.6739 314.239 62.9999 314.094 62.9999C313.826 62.9999 314.954 59.9421 316.997 55.1316C317.629 53.644 318.97 50.4353 319.977 48.001C320.984 45.5668 322.111 43.3956 322.482 43.1763C322.852 42.9564 323.037 42.5847 322.892 42.3496C322.747 42.1145 323.184 40.2635 323.863 38.236C324.541 36.2084 325.096 33.4358 325.096 32.0746C325.096 29.6467 325.069 29.6015 323.673 29.7023C322.89 29.7594 322.352 29.9718 322.476 30.1744C322.847 30.7793 321.909 30.5924 321.242 29.9285C320.748 29.4358 320.684 29.4692 320.921 30.0952ZM260.731 30.585C260.257 30.8619 259.616 30.9312 259.307 30.7399C258.998 30.5482 258.875 30.6027 259.034 30.8609C259.387 31.4328 250.355 34.6928 249.419 34.3323C248.911 34.1371 248.764 34.648 248.799 36.4897C248.848 39.1266 249.067 39.2643 251.912 38.4455C253.466 37.9989 253.496 38.0191 253.176 39.3061C252.461 42.1814 251.068 45.5363 250.632 45.4359C250.378 45.3774 250.277 45.7394 250.407 46.2395C250.619 47.0529 246.44 58.4585 245.708 59.0658C245.544 59.201 245.345 59.6436 245.265 60.0493C245.185 60.455 244.397 62.336 243.515 64.2294C242.633 66.1227 241.596 68.3912 241.212 69.27C240.828 70.1488 240.333 70.8682 240.114 70.8682C239.894 70.8682 239.873 70.5918 240.066 70.2535C240.261 69.9157 240.23 69.8114 240 70.0219C239.256 70.701 239.369 71.687 240.195 71.7239C241.073 71.7632 246.109 69.927 246.858 69.2946C247.114 69.0782 247.734 68.9011 248.237 68.9011C248.887 68.9011 249.57 67.9722 250.605 65.6845C251.522 63.6555 252.263 62.5937 252.611 62.8096C252.936 63.0108 253.027 62.9321 252.834 62.6178C252.373 61.8694 254.036 58.5484 254.686 58.9197C254.979 59.0869 255.062 59.0491 254.87 58.8366C254.344 58.2514 255.905 55.5349 256.541 55.9293C256.871 56.1339 256.948 56.0434 256.736 55.6996C256.199 54.8272 256.951 53.8934 257.532 54.7102C257.904 55.232 257.952 55.202 257.754 54.5735C257.452 53.6209 258.765 51.5496 259.415 51.9524C259.663 52.1063 259.751 51.9337 259.612 51.5688C259.287 50.72 264.692 44.6919 265.39 45.1242C265.678 45.3022 265.773 45.221 265.602 44.9437C265.24 44.3555 270.566 39.6095 271.48 39.7059C271.82 39.7418 272.051 39.548 271.995 39.2756C271.938 39.0031 272.162 38.6805 272.492 38.5591C272.875 38.4179 272.72 39.2387 272.063 40.8241C271.482 42.2257 270.812 43.1743 270.528 42.9982C270.25 42.8261 270.155 42.8999 270.317 43.162C270.585 43.5972 266.062 53.5781 265.338 54.1481C265.167 54.2833 264.985 54.6153 264.934 54.8858C264.884 55.1562 263.968 57.7011 262.899 60.5416C260.947 65.7258 260.004 69.8807 260.57 70.7999C260.94 71.3983 266.938 69.8144 269.752 68.375C270.812 67.8325 271.948 67.5434 272.275 67.7322C272.604 67.9206 272.708 67.8935 272.506 67.6712C272.306 67.449 272.968 66.7157 273.978 66.041C274.988 65.3668 275.886 64.7595 275.973 64.6911C276.233 64.4875 274.639 61.6141 274.07 61.2615C273.782 61.083 273.173 61.264 272.718 61.6643C272.263 62.0646 271.396 62.5431 270.791 62.728C269.922 62.9935 269.753 62.9026 269.984 62.2972C270.145 61.8753 270.472 61.651 270.711 61.799C270.949 61.9466 271.031 61.7705 270.892 61.4081C270.753 61.0452 273.184 55.6042 276.293 49.317C279.402 43.0302 282.148 36.9874 282.394 35.8893C282.858 33.8165 282.275 31.035 281.376 31.035C281.117 31.035 281.018 30.8521 281.155 30.6288C281.604 29.9005 276.283 30.9003 274.294 31.9182C271.657 33.2671 267.082 36.7926 263.677 40.0988C262.126 41.6051 260.76 42.8374 260.642 42.8374C260.524 42.8374 260.989 41.2333 261.675 39.2721C262.362 37.311 263.041 34.4341 263.185 32.8791C263.419 30.3387 263.352 30.0529 262.52 30.0662C262.01 30.0746 261.205 30.3077 260.731 30.585ZM127.117 31.2656C122.015 32.2098 118.519 33.4039 113.823 35.8071C111.552 36.9692 109.481 37.9198 109.22 37.9198C108.959 37.9198 108.133 38.5286 107.383 39.2721C104.691 41.9434 102.838 43.313 102.336 43.0017C102.056 42.8276 101.96 42.9033 102.124 43.1694C102.518 43.8082 97.3852 48.8759 96.8443 48.3826C96.6144 48.1726 96.5707 48.2543 96.7472 48.5641C96.9238 48.8739 96.1867 50.4505 95.1094 52.0684C94.032 53.6863 93.1509 55.2585 93.1509 55.5624C93.1509 55.8663 92.8934 56.1152 92.5786 56.1152C92.2643 56.1152 92.152 56.2607 92.3295 56.4388C92.507 56.6168 92.4604 57.0038 92.226 57.2994C91.9916 57.5949 91.4233 59.3628 90.9633 61.2281C90.189 64.368 90.216 66.5751 91.0565 68.7708C91.2713 69.3329 91.1722 69.4406 90.7064 69.1519C90.2616 68.8761 90.1738 68.9385 90.4273 69.3496C90.6308 69.6801 90.9133 69.8335 91.0555 69.6909C91.1977 69.5488 91.8926 69.7239 92.6002 70.0809C93.3078 70.4374 94.7691 70.851 95.8479 70.9995C96.9267 71.1485 97.5186 71.1559 97.1631 71.0167C96.53 70.7694 101.146 68.3096 102.324 68.2668C102.65 68.255 103.029 67.9506 103.167 67.5896C103.305 67.2291 103.633 66.9341 103.896 66.9341C104.16 66.9341 105.214 66.1591 106.241 65.2119C107.267 64.2653 108.395 63.5984 108.746 63.7312C109.097 63.864 109.27 63.7873 109.131 63.5615C108.991 63.3353 109.55 62.5082 110.372 61.7228L111.865 60.2952L110.84 62.9999C110.275 64.4875 109.675 66.8667 109.506 68.2864C109.221 70.6745 109.275 70.8682 110.221 70.8682C111.369 70.8682 119.552 68.0288 120.467 67.3122C120.793 67.0575 121.324 67.0132 121.647 67.2134C122.004 67.4352 122.106 67.3698 121.906 67.0457C121.726 66.7526 122.022 66.3715 122.566 66.1989C123.109 66.0258 123.554 65.6781 123.554 65.4258C123.554 65.1735 123.859 64.967 124.232 64.967C125.151 64.967 125.514 63.3545 124.756 62.6439C124.419 62.3292 124.046 61.7823 123.926 61.4292C123.708 60.7899 123.287 60.8784 120.003 62.2529C119.209 62.5849 119.197 62.4708 119.838 60.6483C120.218 59.5689 120.895 57.975 121.343 57.1066C121.791 56.2381 122.233 55.1616 122.325 54.7146C122.418 54.2676 122.882 53.017 123.356 51.9352C124.686 48.8995 124.648 48.7411 122.784 49.5225C121.876 49.9027 121.019 50.214 120.88 50.214C120.74 50.214 121.066 49.0957 121.603 47.7286C122.864 44.5183 123.111 41.5962 122.287 39.6178L121.63 38.0417L124.038 37.7211C125.362 37.545 128.182 37.546 130.303 37.7235L134.161 38.0461L135.062 35.6798C135.861 33.5819 135.883 33.1713 135.26 32.0515C134.396 30.5029 132.323 30.3028 127.117 31.2656ZM222.687 37.0592C220.304 40.5173 217.162 43.8461 216.605 43.5013C216.318 43.3228 216.212 43.3877 216.371 43.6449C216.628 44.0619 213.483 47.3194 204.869 55.56L202.107 58.2013L202.043 51.3155L201.977 44.4298L203.344 44.1893C205.444 43.82 215.753 39.9783 217.64 38.862C218.563 38.3156 219.628 37.9886 220.008 38.1347C220.388 38.2807 220.571 38.1932 220.415 37.9404C220.192 37.5795 223.317 34.9692 223.972 34.9692C224.057 34.9692 223.479 35.9094 222.687 37.0592ZM287.767 38.6574C287.733 38.7927 287.675 39.0695 287.637 39.2721C287.599 39.4747 287.374 39.9729 287.136 40.3786C286.786 40.9766 286.828 41.0007 287.359 40.5065C287.978 39.9301 288.465 38.4115 288.03 38.4115C287.919 38.4115 287.801 38.5222 287.767 38.6574ZM116.915 41.9449C115.727 45.583 112.995 50.9359 111.669 52.2282C111.058 52.8228 110.876 53.1272 111.264 52.9049C111.652 52.6826 111.234 53.4178 110.335 54.5391C109.437 55.6603 108.458 56.4383 108.159 56.2676C107.861 56.097 107.775 56.1329 107.967 56.3468C108.505 56.9443 107.407 58.6502 106.734 58.2632C106.41 58.0768 106.315 58.1113 106.522 58.3399C106.951 58.813 104.042 62.0164 103.183 62.0164C102.873 62.0164 102.212 62.4688 101.713 63.0216C101.214 63.5743 100.352 63.9618 99.7978 63.8822C98.9882 63.7661 98.7602 63.3206 98.6381 61.6181C98.2522 56.2445 102.813 48.6246 109.376 43.6769C110.344 42.9471 111.282 42.4966 111.46 42.6757C111.639 42.8547 111.785 42.7474 111.785 42.4376C111.785 41.7629 115.454 39.7964 115.892 40.236C116.061 40.4047 116.198 40.2714 116.198 39.9399C116.198 39.6085 116.419 39.4737 116.689 39.6409C116.958 39.8082 117.179 39.6734 117.179 39.342C117.179 39.0105 117.312 38.8728 117.474 39.0356C117.637 39.1984 117.385 40.5074 116.915 41.9449ZM322.87 43.8539C322.692 44.1421 322.651 44.4839 322.78 44.6127C322.908 44.7416 323.144 44.5055 323.304 44.088C323.635 43.2215 323.353 43.0691 322.87 43.8539ZM184.033 46.5041C184.033 46.898 184.221 47.104 184.45 46.9619C184.679 46.8198 184.739 46.4977 184.584 46.2459C184.188 45.6027 184.033 45.6749 184.033 46.5041ZM180.927 48.2179C180.927 48.4726 181.145 48.8159 181.412 48.9811C181.69 49.1532 181.772 48.956 181.605 48.5183C181.279 47.6666 180.927 47.5107 180.927 48.2179ZM267.008 48.213C266.853 48.4647 266.914 48.7868 267.143 48.929C267.372 49.0711 267.56 48.865 267.56 48.4711C267.56 47.642 267.405 47.5697 267.008 48.213ZM190.251 50.9093C190.569 51.228 190.9 51.228 191.218 50.9093C191.535 50.5911 191.37 50.4249 190.735 50.4249C190.1 50.4249 189.934 50.5911 190.251 50.9093ZM208.388 50.7057C208.388 50.9762 208.622 51.1975 208.907 51.1975C209.193 51.1975 209.29 50.9762 209.124 50.7057C208.957 50.4353 208.723 50.214 208.604 50.214C208.485 50.214 208.388 50.4353 208.388 50.7057ZM260.795 51.5663C260.185 52.3463 260.203 52.3635 260.98 51.7522C261.452 51.3809 261.838 50.9934 261.838 50.8916C261.838 50.4869 261.436 50.747 260.795 51.5663ZM191.306 51.6283C190.768 51.9706 190.775 52.0915 191.347 52.3114C191.744 52.4643 192.042 52.2823 192.042 51.8884C192.042 51.5083 192.024 51.2009 192.001 51.2049C191.979 51.2093 191.666 51.3996 191.306 51.6283ZM289.299 51.6602C289.299 51.915 289.517 52.2582 289.784 52.4235C290.062 52.5956 290.144 52.3984 289.977 51.9607C289.651 51.109 289.299 50.9531 289.299 51.6602ZM216.724 52.181C216.283 52.4672 216.222 52.6605 216.573 52.6654C216.894 52.6694 217.293 52.4515 217.46 52.181C217.836 51.5703 217.666 51.5703 216.724 52.181ZM213.719 54.0252C213.124 54.7864 213.136 54.8154 213.827 54.2755C214.257 53.9396 214.788 53.8289 215.009 54.0296C215.23 54.2297 215.252 54.1176 215.058 53.7793C214.602 52.9846 214.522 52.9993 213.719 54.0252ZM78.25 58.664C78.3917 58.8937 78.7129 58.9546 78.9639 58.7988C79.6053 58.4014 79.5333 58.246 78.7065 58.246C78.3137 58.246 78.1082 58.4344 78.25 58.664ZM251.755 64.3626C251.923 64.5303 252.404 64.7182 252.826 64.7806C253.247 64.8426 253.455 64.756 253.288 64.5879C253.12 64.4202 252.639 64.2323 252.217 64.1698C251.796 64.1079 251.588 64.1944 251.755 64.3626ZM9.95747 81.784C10.8215 83.1831 9.36902 83.9168 8.2088 82.6677C7.1496 81.5278 4.49964 80.9736 2.18705 81.4088L0.470751 81.7319V87.6105C0.470751 90.8438 0.636497 93.5082 0.838529 93.5304C1.04056 93.553 1.68491 93.6253 2.26943 93.6912C3.49144 93.8289 4.54917 92.0782 3.89011 91.0091C3.28254 90.0231 3.77634 89.5554 5.42546 89.5554C7.49776 89.5554 9.29743 87.6228 9.29743 85.3975C9.29743 84.4386 9.51025 83.6542 9.77063 83.6542C10.0345 83.6542 10.3056 85.8726 10.3836 88.6712L10.5234 93.6882L11.9945 93.6892C13.3994 93.6907 13.4724 93.5869 13.6151 91.3774C13.8236 88.1529 15.1672 88.4553 15.8998 91.8913C16.1342 92.9909 16.5216 93.4896 17.1424 93.4896C17.6381 93.4896 18.4272 93.6371 18.8955 93.8171C19.6536 94.1092 19.709 93.9071 19.401 91.9729C19.2108 90.7784 18.7567 89.3439 18.3923 88.7853C17.8304 87.9242 17.8367 87.699 18.433 87.31C19.2642 86.7681 19.4716 82.0904 18.6552 82.3107C18.4983 82.353 17.9152 82.1346 17.3596 81.8248C16.8045 81.515 14.996 81.3168 13.3405 81.3847C11.685 81.4525 10.4194 81.364 10.5278 81.188C10.6366 81.0119 10.4253 80.8673 10.0585 80.8673C9.53183 80.8673 9.51074 81.0606 9.95747 81.784ZM81.1701 81.1413C81.021 81.3832 80.0148 81.4948 78.934 81.3896L76.9686 81.1973V87.3434V93.4896L79.7882 93.5259C81.3388 93.5461 83.1041 93.6553 83.7112 93.7689C84.6841 93.9508 84.8146 93.7718 84.8146 92.2572V90.5389H82.3627C80.5101 90.5389 79.9108 90.3585 79.9108 89.8013C79.9108 89.2549 80.4831 89.0636 82.1175 89.0636C84.2423 89.0636 84.3242 89.0091 84.3242 87.5883C84.3242 86.0466 84.0506 85.9134 81.2594 86.0978C80.207 86.1676 79.9108 85.9704 79.9108 85.2008C79.9108 84.3446 80.0996 84.2689 81.3452 84.6269C82.1337 84.8541 82.9247 84.8939 83.1022 84.7159C83.2797 84.5374 83.6828 84.3918 83.9971 84.3918C84.3119 84.3918 84.5694 83.728 84.5694 82.9165C84.5694 81.9723 84.3414 81.488 83.9363 81.5711C83.5886 81.6419 82.8849 81.4757 82.3725 81.2008C81.8375 80.9136 81.326 80.888 81.1701 81.1413ZM170.38 81.189C170.516 81.4083 169.579 81.5843 168.299 81.5799C163.871 81.5657 164.255 80.9957 164.255 87.5883C164.255 92.8684 164.345 93.493 165.113 93.522C168.393 93.6464 171.614 93.5451 172.001 93.3056C172.252 93.1497 172.433 92.5188 172.402 91.9036C172.353 90.9274 172.049 90.7657 170.017 90.6348C168.381 90.5296 167.687 90.2734 167.687 89.7742C167.687 89.2766 168.258 89.0636 169.591 89.0636C171.229 89.0636 171.528 88.8925 171.728 87.846C172.028 86.2743 171.826 86.113 169.567 86.113C168.104 86.113 167.687 85.9222 167.687 85.2524C167.686 84.5679 168.112 84.3918 169.771 84.3918C171.815 84.3918 171.855 84.3594 171.855 82.7174C171.855 81.4973 171.622 81.009 170.995 80.9165C170.522 80.8467 170.245 80.9696 170.38 81.189ZM191.225 81.2185C191.225 81.4162 190.839 81.547 190.367 81.5096C189.599 81.4486 189.494 82.0776 189.371 87.4654C189.295 90.7789 189.406 93.5082 189.616 93.5304C189.827 93.553 190.505 93.6272 191.123 93.6956C192.538 93.852 192.817 93.3912 192.783 90.954C192.752 88.6737 193.58 88.6117 194.561 90.8212C195.723 93.4419 195.951 93.6887 197.271 93.759C198.801 93.8412 198.944 92.9122 197.87 89.8908C197.313 88.3265 197.311 87.8037 197.852 86.7563C198.21 86.0648 198.372 85.156 198.211 84.7371C197.994 84.1671 198.137 84.0589 198.781 84.3063C199.254 84.4887 200.065 84.6377 200.582 84.6377C201.43 84.6377 201.523 85.0208 201.523 88.5315C201.523 93.4655 201.677 93.8603 203.503 93.5918L204.955 93.3779V88.8079C204.955 84.4759 205.006 84.2517 205.939 84.4961C207.239 84.8369 208.35 83.8602 208.035 82.6525C207.857 81.9689 207.335 81.6719 206.247 81.6345C205.402 81.605 203.717 81.546 202.504 81.5027C201.29 81.4594 199.966 81.2268 199.561 80.9849C199.157 80.7434 198.981 80.7183 199.17 80.9293C199.36 81.1398 199.192 81.636 198.798 82.0314C198.404 82.4267 198.211 83.0085 198.37 83.3252C198.53 83.6414 198.113 83.3055 197.445 82.5792C196.777 81.8523 196.152 81.3306 196.057 81.4196C195.962 81.5081 194.836 81.4186 193.554 81.2204C192.273 81.0218 191.225 81.0213 191.225 81.2185ZM197.636 81.3975C197.194 81.932 197.208 82.1759 197.698 82.4597C198.049 82.6623 198.172 82.6471 197.972 82.4258C197.772 82.2045 197.854 81.7265 198.154 81.3635C198.455 81.0006 198.59 80.7036 198.456 80.7036C198.321 80.7036 197.952 81.0159 197.636 81.3975ZM20.6937 81.7638C20.4941 81.963 20.3994 84.6825 20.4833 87.8077L20.6353 93.4896H22.2923H23.9492L24.1012 87.7841C24.1851 84.6456 24.1434 81.935 24.0086 81.7599C23.6687 81.3183 21.1369 81.3217 20.6937 81.7638ZM25.9921 82.3933C25.3075 84.2487 25.0231 93.4836 25.6484 93.5461C26.8797 93.669 28.2007 93.3789 28.6671 92.8832C29.0059 92.5227 28.9422 92.4849 28.4611 92.7603C27.9369 93.0607 27.8462 92.9471 28.0933 92.3005C28.2743 91.8284 28.44 90.5198 28.4616 89.3921L28.5018 87.3424L29.3565 90.2931C30.0754 92.774 30.403 93.2668 31.4146 93.3887C32.4802 93.5171 32.7274 93.2092 33.5845 90.684L34.5515 87.8342L34.8163 89.8013C34.9615 90.8832 34.8511 92.0875 34.5711 92.4775C34.1749 93.0283 34.2166 93.0927 34.7575 92.7657C35.2704 92.4554 35.3763 92.5473 35.1591 93.1148C34.9198 93.7408 35.1562 93.8402 36.4243 93.6464C37.2824 93.5156 38.1209 93.2604 38.2877 93.0799C38.6824 92.654 38.0003 82.5094 37.5256 81.7388C36.6047 80.2448 32.1825 82.4277 32.7391 84.1022C32.8617 84.472 32.7568 84.6471 32.5052 84.4912C32.2537 84.3353 32.0928 84.858 32.1477 85.6532C32.3203 88.1593 31.5397 87.6665 30.8644 84.8438C30.1431 81.8283 29.9631 81.6281 27.8486 81.4811C26.7438 81.4043 26.2716 81.637 25.9921 82.3933ZM40.2472 81.5863C39.7303 81.7589 39.4052 93.0263 39.9025 93.5304C40.0138 93.6435 41.9022 93.6627 44.0995 93.5741L48.0946 93.4128L47.9431 92.0988C47.8053 90.9058 47.5773 90.7711 45.4623 90.6348C42.394 90.4376 42.2097 89.1871 45.2171 88.9687C47.082 88.8335 47.3174 88.6756 47.4561 87.4654C47.6057 86.1647 47.5258 86.113 45.3721 86.113C43.5631 86.113 43.133 85.9473 43.133 85.249C43.133 84.53 43.4939 84.4135 45.2808 84.5561C47.3919 84.7243 47.4321 84.6992 47.6199 83.0842L47.8107 81.4412L44.3026 81.4225C42.3729 81.4122 40.5478 81.486 40.2472 81.5863ZM49.8756 81.5248C49.117 81.7319 49.0175 82.4681 49.0175 87.8795V94L50.366 93.6769C52.3088 93.2112 52.3417 93.1709 52.1451 91.4802C52.047 90.6339 52.0823 89.7541 52.224 89.5244C52.7311 88.7017 53.8672 89.6661 54.1928 91.195C54.6587 93.3804 55.1128 93.789 56.961 93.6848C57.8515 93.6346 59.2795 93.5702 60.1347 93.5417C61.415 93.4989 61.7416 93.2501 61.9868 92.1313C62.2281 91.0292 62.5669 90.7617 63.7845 90.712C65.0276 90.6609 65.2434 90.8099 65.0428 91.579C64.9099 92.0895 65.0011 92.3836 65.2453 92.2316C65.49 92.0801 65.6901 92.3014 65.6901 92.7229C65.6901 93.1443 65.9662 93.5082 66.303 93.5304C66.6404 93.553 67.4221 93.6272 68.0399 93.6956C68.6583 93.764 69.2551 93.673 69.3659 93.493C69.5483 93.1969 66.2893 82.1995 65.8828 81.7388C65.4836 81.2863 62.1967 81.4142 61.8029 81.8976C61.5666 82.1877 60.6604 84.7307 59.7899 87.549L58.2065 92.6737L57.3273 90.3511C56.5089 88.1888 56.5035 87.9321 57.2484 86.6304C57.9457 85.4118 57.9613 85.0523 57.3705 83.8288C56.9973 83.0567 56.7364 82.2423 56.7899 82.0196C56.8438 81.7963 56.6766 81.7446 56.4191 81.9045C56.1612 82.0643 55.8366 82.0102 55.6973 81.784C55.4207 81.335 51.2511 81.1491 49.8756 81.5248ZM87.9426 81.5342C87.3709 81.6468 86.5009 82.4867 86.0101 83.4009C84.7783 85.695 85.5589 87.3213 88.5237 88.6363C91.8362 90.1057 90.5573 91.4728 86.9634 90.3044C86.1018 90.0241 85.8787 90.2036 85.6526 91.3592C85.2843 93.2422 85.8532 93.6789 88.6757 93.6789C92.8091 93.6789 95.0824 91.1325 93.5966 88.1667C93.2337 87.4428 92.8449 86.6496 92.7321 86.4037C92.6188 86.1568 92.9415 86.1145 93.452 86.3097C94.1939 86.593 94.2557 86.5404 93.7638 86.0437C93.324 85.5996 93.0008 85.575 92.6203 85.9567C91.9181 86.6609 89.2279 85.6749 89.2279 84.713C89.2279 84.1809 89.68 84.0929 91.1791 84.3333C92.9856 84.623 93.1538 84.5507 93.452 83.3596C93.6658 82.5064 93.5451 81.9281 93.0945 81.6419C92.4109 81.2076 89.8713 81.1545 87.9426 81.5342ZM97.8972 81.8268C98.0271 82.0387 97.5593 82.1081 96.8581 81.9807C96.1201 81.8464 95.7047 81.9463 95.8719 82.2177C96.0308 82.4754 96.4216 82.53 96.7399 82.3382C97.0748 82.1371 97.037 82.3392 96.6506 82.8167C96.2829 83.2716 95.8337 83.5514 95.6522 83.4388C95.2609 83.1964 95.0628 84.4597 94.95 87.9178C94.8819 90.0029 95.0819 90.6894 96.0612 91.7344C98.2522 94.0728 103.939 94.5857 103.939 92.4445C103.939 91.9375 104.215 91.519 104.552 91.5151C104.96 91.5097 104.92 91.3484 104.429 91.0312C104.025 90.7696 102.989 90.6845 102.127 90.8424C100.862 91.0745 100.309 90.8778 99.253 89.8185C98.1865 88.7489 98.0016 88.2178 98.2517 86.9412C98.6626 84.8418 99.8488 84.0181 102.053 84.3014C103.677 84.5099 103.868 84.41 104.092 83.2337C104.228 82.5197 104.084 81.7668 103.772 81.5607C103.034 81.0744 97.5877 81.3207 97.8972 81.8268ZM105.4 81.6935C105.066 81.9001 104.946 82.3151 105.131 82.6156C105.316 82.9165 105.289 83.1624 105.071 83.1624C104.853 83.1624 104.675 84.8039 104.675 86.8099C104.675 88.8158 104.757 90.3737 104.859 90.2719C104.961 90.1701 105.513 90.7829 106.085 91.6346C107.369 93.5427 109.705 94.2592 112.079 93.4733C114.594 92.6413 115.284 90.8856 115.114 85.7545L114.972 81.4865L113.501 81.4639L112.03 81.4412L111.886 85.2967C111.778 88.2001 111.586 89.0922 111.11 88.9092C110.762 88.775 110.477 88.9554 110.477 89.3095C110.477 89.6823 110.804 89.8401 111.254 89.6847C111.892 89.4634 111.874 89.581 111.154 90.3462C110.394 91.1532 110.217 91.1787 109.813 90.5389C109.557 90.1332 109.341 90.0226 109.333 90.2931C109.325 90.5635 109.097 90.4529 108.826 90.0472C108.556 89.6415 108.355 87.7605 108.379 85.8671C108.404 83.9738 108.408 82.1759 108.388 81.8715C108.347 81.245 106.318 81.124 105.4 81.6935ZM116.893 81.6463C116.781 81.7589 116.689 84.4695 116.689 87.6705V93.4896L119.386 93.5387C120.869 93.5658 122.688 93.61 123.427 93.6371C124.592 93.6799 124.808 93.4605 125.047 91.9897L125.323 90.2931L122.722 90.4617C120.638 90.5965 120.121 90.4799 120.121 89.8751C120.121 89.3385 120.724 89.0764 122.205 88.9687C124.158 88.8271 124.289 88.7248 124.289 87.3523C124.289 85.9306 124.226 85.8912 122.193 86.0383C119.249 86.2512 119.598 84.9692 122.573 84.6377C124.447 84.4287 124.788 84.2232 124.836 83.2731C124.867 82.6579 124.646 81.9999 124.346 81.8106C123.764 81.4442 117.238 81.3001 116.893 81.6463ZM126.473 81.7014C126.077 81.9468 125.919 83.815 125.971 87.6316C126.014 90.6963 126.094 93.2506 126.151 93.3081C126.209 93.3651 128.67 93.4733 131.622 93.5486L136.988 93.6843L137.665 92.0216C138.188 90.7352 138.442 90.5183 138.786 91.0637C139.047 91.4772 139.234 91.5333 139.238 91.1999C139.242 90.8743 139.665 90.7411 140.226 90.8881C140.766 91.0297 141.207 91.549 141.207 92.0428C141.207 92.536 141.472 93.104 141.796 93.3041C142.733 93.8849 144.73 93.8254 144.966 93.2097C145.085 92.8999 144.386 90.1804 143.415 87.1669C141.819 82.2172 141.532 81.6812 140.447 81.6256C139.786 81.5917 138.863 81.5366 138.395 81.5027C137.734 81.455 137.144 82.6441 135.743 86.8507C134.751 89.8259 133.92 91.8726 133.896 91.3995C133.86 90.714 133.403 90.5389 131.645 90.5389H129.438V86.1706C129.438 81.932 129.403 81.7948 128.244 81.573C127.587 81.4471 126.79 81.5047 126.473 81.7014ZM153.049 81.6424C152.588 81.9276 152.413 83.5794 152.413 87.6287C152.413 94.1559 152.549 94.3324 157.133 93.7581C159.389 93.4753 160.198 93.0996 161.621 91.672C163.239 90.0496 163.345 89.757 163.161 87.4069C163.052 86.0191 162.775 84.4602 162.545 83.9424C162.216 83.2032 162.276 83.0882 162.823 83.4063C163.236 83.6468 163.353 83.6296 163.111 83.364C162.886 83.1182 162.555 82.9087 162.375 82.8993C162.195 82.8895 161.496 82.5733 160.822 82.1966C159.442 81.4255 154.022 81.039 153.049 81.6424ZM181.041 81.8376C180.476 82.5718 179.839 84.1587 179.719 85.1295C179.669 85.5352 179.128 87.3685 178.516 89.2043C177.196 93.162 177.343 93.9056 179.383 93.6051C180.54 93.435 180.94 93.0765 181.176 91.9961C181.428 90.8483 181.728 90.6137 182.898 90.6471C184.043 90.6796 184.374 90.9565 184.621 92.0885C184.79 92.8591 185.131 93.5117 185.379 93.5387C187.645 93.7856 188.523 93.5963 188.466 92.8738C188.42 92.296 185.487 82.711 185.083 81.8184C184.868 81.3458 181.406 81.3621 181.041 81.8376ZM208.976 81.7835C208.787 81.9714 208.744 84.7351 208.878 87.9252L209.124 93.7251L212.732 93.6528C216.699 93.5732 217.323 93.2712 216.896 91.6371C216.655 90.7116 216.272 90.5389 214.46 90.5389C212.877 90.5389 212.311 90.3447 212.311 89.8013C212.311 89.2721 212.849 89.0636 214.215 89.0636C215.81 89.0636 216.155 88.8807 216.334 87.9385C216.677 86.1371 216.345 85.8303 214.268 86.0289C212.748 86.1745 212.311 86.0461 212.311 85.4555C212.311 84.9116 212.906 84.651 214.395 84.5428C216.26 84.4076 216.495 84.2497 216.634 83.0395C216.719 82.2959 216.609 81.6753 216.389 81.6606C213.237 81.4501 209.243 81.516 208.976 81.7835ZM224.04 81.425C224.018 81.4339 223.894 84.1519 223.764 87.4654L223.528 93.4896H225.03H226.532L226.57 89.9242L226.61 86.3589L227.275 89.428C227.64 91.1158 228.061 92.6949 228.21 92.9368C228.502 93.4094 231.486 93.9897 231.23 93.5235C231.146 93.3696 231.581 91.8052 232.198 90.0472L233.32 86.8507L233.359 90.1701L233.397 93.4896H235.162H236.926L236.571 87.7113C236.364 84.3555 235.984 81.786 235.664 81.5819C235.361 81.3886 234.451 81.2996 233.642 81.3837C232.337 81.5194 232.061 81.8514 231.2 84.3166C230.205 87.1674 229.521 87.8539 229.413 86.113C229.289 84.1273 228.195 81.6979 227.402 81.6473C227.058 81.6252 226.17 81.5627 225.428 81.5081C224.686 81.4535 224.062 81.4162 224.04 81.425ZM238.356 81.6532C237.829 81.9792 237.75 83.0567 237.99 86.6727C238.36 92.2641 238.399 92.5709 238.711 92.2591C238.846 92.1234 239.384 92.3998 239.906 92.8738C241.46 94.2842 244.853 94.0266 246.503 92.3727C247.763 91.1099 247.875 90.6727 248.031 86.411L248.198 81.812L246.66 81.5858C245.815 81.4614 244.994 81.5676 244.837 81.8224C244.68 82.0766 244.588 84.1243 244.632 86.3727C244.707 90.1529 244.634 90.4858 243.664 90.7947C241.999 91.3248 241.505 90.2999 241.243 85.7688C241.025 82.0033 240.889 81.5189 240.012 81.3862C239.47 81.3045 238.724 81.4245 238.356 81.6532ZM249.787 81.7481C249.492 82.2261 249.386 92.9678 249.673 93.2555C249.761 93.344 251.486 93.4709 253.506 93.5382L257.18 93.6602L257.333 92.0998C257.478 90.6393 257.383 90.535 255.862 90.4809C254.969 90.4485 253.962 90.4583 253.625 90.5021C253.174 90.5611 253.012 89.4074 253.012 86.1347C253.012 82.9244 252.841 81.6768 252.399 81.6493C252.062 81.6286 251.4 81.5376 250.93 81.4476C250.459 81.3571 249.944 81.4924 249.787 81.7481ZM257.845 81.5888C255.762 81.724 255.55 81.8558 255.363 83.1339C255.187 84.3387 255.31 84.5143 256.256 84.41C258.091 84.2079 258.358 84.7562 258.484 88.9791C258.601 92.9196 258.965 93.8953 260.245 93.704C260.582 93.6538 261.189 93.585 261.593 93.551C262.19 93.5014 262.329 92.627 262.329 88.9215V84.353L263.677 84.3727C264.789 84.3884 265.053 84.1548 265.181 83.0395C265.266 82.2959 265.156 81.6576 264.936 81.6212C264.018 81.4698 259.963 81.4516 257.845 81.5888ZM266.352 81.5716C265.692 81.7924 265.475 93.4576 266.129 93.5304C266.332 93.553 266.997 93.6267 267.608 93.6946C268.219 93.7625 268.921 93.5732 269.169 93.2737C269.666 92.6737 269.516 82.3382 269.004 81.8243C268.618 81.4373 267.167 81.2991 266.352 81.5716ZM272.259 81.5696C271.652 81.6719 271.15 82.0166 271.142 82.3363C271.134 82.6554 271.008 85.2952 270.86 88.203L270.593 93.4896H272.1H273.607L273.636 89.9242L273.664 86.3589L274.563 89.8013C275.057 91.6946 275.381 93.3809 275.281 93.5481C275.181 93.7158 275.795 93.7099 276.645 93.5358C278.026 93.2525 278.309 92.8783 279.293 90.0349L280.396 86.8507L280.434 90.1701C280.464 92.7465 280.637 93.5033 281.208 93.551C283.836 93.7708 283.673 94.178 283.496 87.8313C283.404 84.529 283.112 81.8037 282.831 81.6291C282.197 81.2362 279.589 81.426 279.114 81.8996C278.917 82.0953 278.4 83.5111 277.964 85.0449L277.172 87.8342L276.311 84.8836C275.837 83.2608 275.395 81.8705 275.33 81.7948C275.092 81.517 273.334 81.3881 272.259 81.5696ZM285.175 81.6266C284.795 82.2669 284.86 92.9235 285.245 93.1625C285.899 93.5677 292.436 93.7364 293.034 93.3632C293.335 93.1748 293.475 92.4627 293.344 91.7802C293.13 90.655 292.884 90.5389 290.713 90.5389C288.911 90.5389 288.318 90.3565 288.318 89.8013C288.318 89.2579 288.884 89.0636 290.468 89.0636C292.377 89.0636 292.644 88.9245 292.854 87.8224C293.143 86.3073 292.787 86.0589 290.277 86.024C287.364 85.9837 287.673 84.7331 290.643 84.5418C292.45 84.4253 293.007 84.1883 293.141 83.4791C293.236 82.977 293.089 82.3407 292.815 82.0653C292.27 81.5189 285.471 81.1285 285.175 81.6266ZM294.739 81.8381C294.418 82.1602 294.203 84.4946 294.203 87.6695C294.203 93.6705 294.428 94.0398 297.906 93.7517C298.971 93.6631 300.201 93.5682 300.639 93.5402C301.076 93.5122 302.4 92.5773 303.581 91.4625C304.761 90.3476 305.506 89.552 305.236 89.6946C304.934 89.8539 304.81 89.1453 304.913 87.849C305.012 86.5984 304.771 85.1467 304.32 84.2704C303.901 83.459 303.661 82.6569 303.785 82.4872C303.909 82.3176 303.872 82.2807 303.703 82.4051C303.534 82.5295 302.817 82.3363 302.109 81.9758C300.554 81.1831 295.487 81.0881 294.739 81.8381ZM305.535 81.9974C305.788 82.3028 305.968 84.889 305.935 87.7437C305.902 90.5989 305.991 93.1227 306.133 93.3528C306.274 93.583 307.013 93.7443 307.775 93.7118L309.159 93.6528L309.404 88.3791C309.539 85.4787 309.519 82.7366 309.359 82.2851C309.153 81.7038 308.486 81.4614 307.072 81.453C305.642 81.4447 305.206 81.5991 305.535 81.9974ZM313.842 81.933C313.363 82.5433 310.385 91.8397 310.385 92.7273C310.385 93.4237 312.484 94.0241 313.22 93.5382C313.466 93.3764 313.805 92.6752 313.974 91.9808C314.219 90.9751 314.581 90.718 315.747 90.718C316.955 90.718 317.265 90.9609 317.515 92.1038C317.776 93.2943 318.055 93.4896 319.496 93.4896C320.419 93.4896 321.173 93.2417 321.173 92.9388C321.173 92.2906 318.872 85.071 317.962 82.862C317.435 81.5834 317.077 81.3414 315.78 81.3867C314.927 81.4166 314.055 81.6625 313.842 81.933ZM322.01 82.0559C321.899 82.259 321.831 84.859 321.858 87.8342L321.909 93.2437L325.954 93.3863L330 93.5294V92.0339C330 90.5901 329.925 90.5389 327.793 90.5389H325.587V86.113V81.6871H323.899C322.971 81.6871 322.121 81.8528 322.01 82.0559ZM304.767 83.1285C304.612 83.3803 304.672 83.7024 304.901 83.8445C305.13 83.9866 305.318 83.7806 305.318 83.3867C305.318 82.5575 305.163 82.4853 304.767 83.1285ZM5.68732 84.8836C5.53236 85.2893 5.67408 85.637 6.00263 85.6557C6.33166 85.6749 6.15905 85.8804 5.61965 86.113C4.09165 86.7715 3.90335 86.6909 3.90335 85.3754C3.90335 84.4528 4.16128 84.146 4.93656 84.146C5.65348 84.146 5.88347 84.3717 5.68732 84.8836ZM15.5624 84.7243C15.9836 85.1467 15.9939 85.4786 15.6007 85.9537C14.717 87.0213 13.7108 86.713 13.7108 85.3754C13.7108 84.0717 14.6003 83.7594 15.5624 84.7243ZM54.264 84.9618C54.4238 85.3793 54.2463 85.9163 53.8702 86.1553C52.6776 86.9122 51.9675 86.6436 52.0641 85.4727C52.1725 84.1597 53.8118 83.7791 54.264 84.9618ZM158.44 84.6756C159.021 84.9869 159.313 85.5037 159.149 85.9306C158.993 86.3383 159.084 86.5242 159.356 86.3555C160.393 85.7132 159.778 88.6801 158.637 89.8234C156.507 91.9607 155.918 91.4772 155.918 87.5883C155.918 83.9119 156.267 83.5091 158.44 84.6756ZM194.935 84.6903C195.314 85.3055 194.257 86.6048 193.377 86.6048C192.347 86.6048 192.723 84.353 193.766 84.2743C194.246 84.2384 194.772 84.4253 194.935 84.6903ZM300.495 84.9303C301.374 85.5475 301.58 86.0978 301.463 87.5121C301.373 88.5974 301.077 89.2633 300.718 89.1925C300.351 89.1202 300.242 89.3867 300.434 89.8878C300.642 90.4327 300.556 90.5832 300.171 90.3447C299.855 90.149 299.597 90.2237 299.597 90.5099C299.597 90.7961 299.156 91.0307 298.616 91.0307C297.729 91.0307 297.636 90.7027 297.636 87.5883C297.636 83.8042 298.176 83.3016 300.495 84.9303ZM316.235 87.4654C316.254 87.8037 316.049 88.0801 315.779 88.0801C315.51 88.0801 315.305 87.3611 315.323 86.4819C315.352 85.1423 315.426 85.0429 315.779 85.8671C316.011 86.4081 316.216 87.1275 316.235 87.4654ZM139.614 88.0083C138.92 88.2896 138.773 87.8716 139.115 86.5832L139.435 85.3754L139.74 86.6048C139.908 87.281 139.851 87.9124 139.614 88.0083ZM64.0169 87.9547C63.4815 88.4917 63.1142 87.6375 63.4986 86.7489C63.8635 85.9065 63.8899 85.907 64.0929 86.7661C64.2101 87.2608 64.1758 87.7954 64.0169 87.9547ZM183.379 87.3715C183.379 87.7614 183.158 88.0801 182.889 88.0801C182.619 88.0801 182.398 87.6242 182.398 87.0676C182.398 86.5109 182.619 86.1917 182.889 86.3589C183.158 86.5261 183.379 86.9815 183.379 87.3715ZM157.608 87.1394C157.427 87.4334 157.477 87.8731 157.719 88.116C157.98 88.3771 158.16 88.1588 158.16 87.5814C158.16 86.4637 158.069 86.3914 157.608 87.1394Z" fill="white"/>
</svg>
