<svg width="51" height="51" viewBox="0 0 51 51" fill="none" xmlns="http://www.w3.org/2000/svg">
<path fill-rule="evenodd" clip-rule="evenodd" d="M20.0677 0.515768C20.7193 0.844299 21.0629 1.16782 21.1095 1.497C21.2117 2.21594 20.5964 2.34142 19.6306 1.79852C17.9794 0.87066 15.9037 1.3615 14.8691 2.92485C13.7527 4.61173 14.1937 6.92038 15.873 8.18069C16.7552 8.84255 18.5188 8.89897 19.5857 8.29943C20.5938 7.73278 21.2132 7.84497 21.1095 8.57567C21.0629 8.90355 20.7143 9.23404 20.0594 9.57041C18.6495 10.2948 16.3728 10.1867 15.085 9.33469C13.7128 8.42666 13.0135 7.21906 12.9089 5.57706C12.808 3.99497 13.0773 3.02005 13.9466 1.82009C15.2183 0.0645821 17.9981 -0.527776 20.0677 0.515768ZM28.9707 0.45041C30.2821 1.11945 30.5171 1.8641 30.5171 5.34918C30.5171 7.64236 30.5927 8.43493 30.849 8.82577C31.0313 9.1042 31.1189 9.49308 31.0435 9.68958C30.857 10.1756 29.9265 10.1421 29.6117 9.63795C29.3624 9.23883 29.3348 9.23883 28.4661 9.63316C27.16 10.2264 25.1283 10.1883 24.1767 9.55255C22.7599 8.60617 22.2989 6.85219 23.1152 5.51345C23.6891 4.5723 24.534 4.25357 26.9164 4.07972C27.9916 4.00129 28.9574 3.85097 29.0626 3.74574C29.3868 3.42157 28.9888 2.23315 28.4012 1.77107C27.6253 1.16085 25.9471 1.17958 24.8235 1.81094C24.0396 2.25145 23.9449 2.26125 23.6202 1.93686C22.2882 0.604654 26.8105 -0.65152 28.9707 0.45041ZM34.3891 4.3283L34.4482 8.52208H36.7044C39.0509 8.52208 39.6614 8.74582 39.372 9.49961C39.2674 9.77215 38.7165 9.82923 36.1885 9.82923H33.1316V5.07272C33.1316 2.45645 33.2011 0.246494 33.286 0.161529C33.371 0.0767823 33.6405 0.0358248 33.8852 0.0709001C34.3129 0.132118 34.332 0.294859 34.3891 4.3283ZM27.0937 5.25507C25.2336 5.41759 24.3314 5.8008 24.1009 6.52671C23.9122 7.12125 24.3091 8.00575 24.9543 8.42862C25.7009 8.91771 27.6916 8.76412 28.5108 8.15433C29.0239 7.77243 29.1095 7.53997 29.1659 6.37573C29.2014 5.63893 29.1524 5.0505 29.057 5.06771C28.9613 5.08492 28.0779 5.16923 27.0937 5.25507ZM41.7374 13.206C41.7374 13.4291 9.56306 13.6466 8.98875 13.4274C8.83123 13.3673 8.76391 13.2187 8.83908 13.0973C9.02644 12.7941 41.7374 12.9021 41.7374 13.206ZM41.0668 16.9454C41.9684 17.3752 42.2046 17.8432 41.7496 18.2978C41.4542 18.5933 41.337 18.5891 40.645 18.2593C39.7707 17.8423 38.3286 17.775 37.682 18.1212C37.0977 18.4338 36.7739 19.329 37.0552 19.8544C37.1835 20.0941 37.7966 20.4165 38.5258 20.6276C41.9374 21.615 42.5 22.05 42.5 23.7003C42.5 25.4857 41.1309 26.6044 38.9463 26.6044C36.9384 26.6044 35.5281 25.9164 35.5281 24.9367C35.5281 24.2887 36.1177 24.2604 37.1025 24.8606C38.4073 25.6562 40.7474 25.268 41.0864 24.1996C41.3335 23.4214 40.6607 22.7289 39.2851 22.3454C37.2883 21.7888 36.7489 21.5973 36.3807 21.3145C34.9876 20.2442 35.3806 17.7924 37.0796 16.9554C38.0413 16.4818 40.0836 16.4765 41.0668 16.9454ZM15.1423 21.198C16.18 23.6164 17 25.7976 16.9645 26.0453C16.9194 26.3608 16.7399 26.4954 16.3647 26.4954C15.9098 26.4954 15.7486 26.2902 15.2954 25.1338L14.7619 23.7722H12.5106H10.2596L9.61753 25.1883C9.12427 26.2758 8.86958 26.6044 8.51903 26.6044C8.26826 26.6044 8.0066 26.4577 7.93797 26.2787C7.86912 26.0996 8.57349 24.2123 9.50314 22.0849C11.9923 16.3883 11.754 16.8007 12.5583 16.8007H13.2555L15.1423 21.198ZM24.3562 17.165C25.8406 17.8693 26.1517 20.1335 24.9381 21.4001C24.6065 21.7461 24.2065 22.0293 24.0492 22.0293C23.5636 22.0293 23.7224 22.4232 24.8614 24.0452C26.0114 25.6822 26.1698 26.4473 25.3826 26.5599C25.0262 26.6107 24.6261 26.1647 23.4669 24.4236L22.0017 22.223L21.0851 22.2897L20.1683 22.3561L20.0594 24.4258C19.9524 26.459 19.9409 26.4954 19.4058 26.4954H18.8611L18.8025 21.6481L18.7439 16.8007H21.1662C22.9788 16.8007 23.7817 16.8924 24.3562 17.165ZM34.2824 17.073C34.336 17.2229 34.2917 17.5168 34.1839 17.7266C34.0303 18.0249 33.7061 18.1079 32.6928 18.1079H31.398L31.3389 22.3016L31.2797 26.4954L30.6805 26.5643L30.0814 26.6333V22.3705V18.1079H28.8008C27.4567 18.1079 26.865 17.766 27.109 17.1303C27.2144 16.8552 27.8094 16.8007 30.71 16.8007C33.2924 16.8007 34.2096 16.8706 34.2824 17.073ZM20.1038 19.5784L20.1683 21.049L21.1919 21.115C22.7102 21.2128 23.9564 20.815 24.2085 20.1525C24.5065 19.3686 24.4784 19.239 23.8819 18.6427C23.4083 18.1689 23.1588 18.1079 21.6934 18.1079H20.0396L20.1038 19.5784ZM12.2413 19.2213C12.1289 19.5076 11.7829 20.3082 11.4727 21.0008C11.1627 21.6932 10.9088 22.3058 10.9088 22.3624C10.9088 22.4189 11.6404 22.465 12.5346 22.465H14.1603L13.3934 20.6732C12.9714 19.6876 12.5858 18.8407 12.5363 18.7911C12.4867 18.7416 12.354 18.9353 12.2413 19.2213Z" fill="white"/>
</svg>
