<svg width="493" height="337" viewBox="0 0 493 337" fill="none" xmlns="http://www.w3.org/2000/svg">
<mask id="path-1-inside-1_217_388" fill="white">
<path d="M234.887 320.673C235.635 320.673 236.533 320.673 237.282 320.673C320.186 319.474 386.928 251.779 386.928 168.507C386.928 85.3846 320.335 17.8385 237.73 16.3408"/>
</mask>
<path d="M234.887 320.673C235.635 320.673 236.533 320.673 237.282 320.673C320.186 319.474 386.928 251.779 386.928 168.507C386.928 85.3846 320.335 17.8385 237.73 16.3408" fill="white"/>
<path d="M237.282 320.673V336.673H237.397L237.513 336.671L237.282 320.673ZM234.887 336.673C234.889 336.673 234.89 336.673 234.892 336.673C234.893 336.673 234.895 336.673 234.896 336.673C234.897 336.673 234.899 336.673 234.9 336.673C234.902 336.673 234.903 336.673 234.905 336.673C234.906 336.673 234.908 336.673 234.909 336.673C234.911 336.673 234.912 336.673 234.914 336.673C234.915 336.673 234.917 336.673 234.918 336.673C234.919 336.673 234.921 336.673 234.922 336.673C234.924 336.673 234.925 336.673 234.927 336.673C234.928 336.673 234.93 336.673 234.931 336.673C234.933 336.673 234.934 336.673 234.936 336.673C234.937 336.673 234.939 336.673 234.94 336.673C234.942 336.673 234.943 336.673 234.944 336.673C234.946 336.673 234.947 336.673 234.949 336.673C234.95 336.673 234.952 336.673 234.953 336.673C234.955 336.673 234.956 336.673 234.958 336.673C234.959 336.673 234.961 336.673 234.962 336.673C234.964 336.673 234.965 336.673 234.967 336.673C234.968 336.673 234.97 336.673 234.971 336.673C234.973 336.673 234.974 336.673 234.976 336.673C234.977 336.673 234.979 336.673 234.98 336.673C234.981 336.673 234.983 336.673 234.984 336.673C234.986 336.673 234.987 336.673 234.989 336.673C234.99 336.673 234.992 336.673 234.993 336.673C234.995 336.673 234.996 336.673 234.998 336.673C234.999 336.673 235.001 336.673 235.002 336.673C235.004 336.673 235.005 336.673 235.007 336.673C235.008 336.673 235.01 336.673 235.011 336.673C235.013 336.673 235.014 336.673 235.016 336.673C235.017 336.673 235.019 336.673 235.02 336.673C235.022 336.673 235.023 336.673 235.025 336.673C235.026 336.673 235.028 336.673 235.029 336.673C235.031 336.673 235.032 336.673 235.034 336.673C235.035 336.673 235.037 336.673 235.038 336.673C235.04 336.673 235.041 336.673 235.043 336.673C235.044 336.673 235.046 336.673 235.047 336.673C235.049 336.673 235.05 336.673 235.052 336.673C235.053 336.673 235.055 336.673 235.056 336.673C235.058 336.673 235.059 336.673 235.061 336.673C235.062 336.673 235.064 336.673 235.065 336.673C235.067 336.673 235.068 336.673 235.07 336.673C235.071 336.673 235.073 336.673 235.074 336.673C235.076 336.673 235.077 336.673 235.079 336.673C235.08 336.673 235.082 336.673 235.083 336.673C235.085 336.673 235.086 336.673 235.088 336.673C235.089 336.673 235.091 336.673 235.092 336.673C235.094 336.673 235.095 336.673 235.097 336.673C235.098 336.673 235.1 336.673 235.101 336.673C235.103 336.673 235.104 336.673 235.106 336.673C235.107 336.673 235.109 336.673 235.11 336.673C235.112 336.673 235.113 336.673 235.115 336.673C235.116 336.673 235.118 336.673 235.12 336.673C235.121 336.673 235.123 336.673 235.124 336.673C235.126 336.673 235.127 336.673 235.129 336.673C235.13 336.673 235.132 336.673 235.133 336.673C235.135 336.673 235.136 336.673 235.138 336.673C235.139 336.673 235.141 336.673 235.142 336.673C235.144 336.673 235.145 336.673 235.147 336.673C235.148 336.673 235.15 336.673 235.151 336.673C235.153 336.673 235.154 336.673 235.156 336.673C235.157 336.673 235.159 336.673 235.161 336.673C235.162 336.673 235.164 336.673 235.165 336.673C235.167 336.673 235.168 336.673 235.17 336.673C235.171 336.673 235.173 336.673 235.174 336.673C235.176 336.673 235.177 336.673 235.179 336.673C235.18 336.673 235.182 336.673 235.183 336.673C235.185 336.673 235.186 336.673 235.188 336.673C235.189 336.673 235.191 336.673 235.193 336.673C235.194 336.673 235.196 336.673 235.197 336.673C235.199 336.673 235.2 336.673 235.202 336.673C235.203 336.673 235.205 336.673 235.206 336.673C235.208 336.673 235.209 336.673 235.211 336.673C235.212 336.673 235.214 336.673 235.216 336.673C235.217 336.673 235.219 336.673 235.22 336.673C235.222 336.673 235.223 336.673 235.225 336.673C235.226 336.673 235.228 336.673 235.229 336.673C235.231 336.673 235.232 336.673 235.234 336.673C235.235 336.673 235.237 336.673 235.239 336.673C235.24 336.673 235.242 336.673 235.243 336.673C235.245 336.673 235.246 336.673 235.248 336.673C235.249 336.673 235.251 336.673 235.252 336.673C235.254 336.673 235.255 336.673 235.257 336.673C235.259 336.673 235.26 336.673 235.262 336.673C235.263 336.673 235.265 336.673 235.266 336.673C235.268 336.673 235.269 336.673 235.271 336.673C235.272 336.673 235.274 336.673 235.275 336.673C235.277 336.673 235.279 336.673 235.28 336.673C235.282 336.673 235.283 336.673 235.285 336.673C235.286 336.673 235.288 336.673 235.289 336.673C235.291 336.673 235.292 336.673 235.294 336.673C235.296 336.673 235.297 336.673 235.299 336.673C235.3 336.673 235.302 336.673 235.303 336.673C235.305 336.673 235.306 336.673 235.308 336.673C235.31 336.673 235.311 336.673 235.313 336.673C235.314 336.673 235.316 336.673 235.317 336.673C235.319 336.673 235.32 336.673 235.322 336.673C235.323 336.673 235.325 336.673 235.327 336.673C235.328 336.673 235.33 336.673 235.331 336.673C235.333 336.673 235.334 336.673 235.336 336.673C235.337 336.673 235.339 336.673 235.341 336.673C235.342 336.673 235.344 336.673 235.345 336.673C235.347 336.673 235.348 336.673 235.35 336.673C235.351 336.673 235.353 336.673 235.355 336.673C235.356 336.673 235.358 336.673 235.359 336.673C235.361 336.673 235.362 336.673 235.364 336.673C235.365 336.673 235.367 336.673 235.369 336.673C235.37 336.673 235.372 336.673 235.373 336.673C235.375 336.673 235.376 336.673 235.378 336.673C235.379 336.673 235.381 336.673 235.383 336.673C235.384 336.673 235.386 336.673 235.387 336.673C235.389 336.673 235.39 336.673 235.392 336.673C235.393 336.673 235.395 336.673 235.397 336.673C235.398 336.673 235.4 336.673 235.401 336.673C235.403 336.673 235.404 336.673 235.406 336.673C235.408 336.673 235.409 336.673 235.411 336.673C235.412 336.673 235.414 336.673 235.415 336.673C235.417 336.673 235.418 336.673 235.42 336.673C235.422 336.673 235.423 336.673 235.425 336.673C235.426 336.673 235.428 336.673 235.429 336.673C235.431 336.673 235.433 336.673 235.434 336.673C235.436 336.673 235.437 336.673 235.439 336.673C235.44 336.673 235.442 336.673 235.444 336.673C235.445 336.673 235.447 336.673 235.448 336.673C235.45 336.673 235.451 336.673 235.453 336.673C235.454 336.673 235.456 336.673 235.458 336.673C235.459 336.673 235.461 336.673 235.462 336.673C235.464 336.673 235.465 336.673 235.467 336.673C235.469 336.673 235.47 336.673 235.472 336.673C235.473 336.673 235.475 336.673 235.476 336.673C235.478 336.673 235.48 336.673 235.481 336.673C235.483 336.673 235.484 336.673 235.486 336.673C235.487 336.673 235.489 336.673 235.491 336.673C235.492 336.673 235.494 336.673 235.495 336.673C235.497 336.673 235.498 336.673 235.5 336.673C235.502 336.673 235.503 336.673 235.505 336.673C235.506 336.673 235.508 336.673 235.51 336.673C235.511 336.673 235.513 336.673 235.514 336.673C235.516 336.673 235.517 336.673 235.519 336.673C235.521 336.673 235.522 336.673 235.524 336.673C235.525 336.673 235.527 336.673 235.528 336.673C235.53 336.673 235.532 336.673 235.533 336.673C235.535 336.673 235.536 336.673 235.538 336.673C235.539 336.673 235.541 336.673 235.543 336.673C235.544 336.673 235.546 336.673 235.547 336.673C235.549 336.673 235.551 336.673 235.552 336.673C235.554 336.673 235.555 336.673 235.557 336.673C235.558 336.673 235.56 336.673 235.562 336.673C235.563 336.673 235.565 336.673 235.566 336.673C235.568 336.673 235.57 336.673 235.571 336.673C235.573 336.673 235.574 336.673 235.576 336.673C235.577 336.673 235.579 336.673 235.581 336.673C235.582 336.673 235.584 336.673 235.585 336.673C235.587 336.673 235.589 336.673 235.59 336.673C235.592 336.673 235.593 336.673 235.595 336.673C235.596 336.673 235.598 336.673 235.6 336.673C235.601 336.673 235.603 336.673 235.604 336.673C235.606 336.673 235.608 336.673 235.609 336.673C235.611 336.673 235.612 336.673 235.614 336.673C235.615 336.673 235.617 336.673 235.619 336.673C235.62 336.673 235.622 336.673 235.623 336.673C235.625 336.673 235.627 336.673 235.628 336.673C235.63 336.673 235.631 336.673 235.633 336.673C235.634 336.673 235.636 336.673 235.638 336.673C235.639 336.673 235.641 336.673 235.642 336.673C235.644 336.673 235.646 336.673 235.647 336.673C235.649 336.673 235.65 336.673 235.652 336.673C235.654 336.673 235.655 336.673 235.657 336.673C235.658 336.673 235.66 336.673 235.662 336.673C235.663 336.673 235.665 336.673 235.666 336.673C235.668 336.673 235.669 336.673 235.671 336.673C235.673 336.673 235.674 336.673 235.676 336.673C235.677 336.673 235.679 336.673 235.681 336.673C235.682 336.673 235.684 336.673 235.685 336.673C235.687 336.673 235.689 336.673 235.69 336.673C235.692 336.673 235.693 336.673 235.695 336.673C235.697 336.673 235.698 336.673 235.7 336.673C235.701 336.673 235.703 336.673 235.704 336.673C235.706 336.673 235.708 336.673 235.709 336.673C235.711 336.673 235.712 336.673 235.714 336.673C235.716 336.673 235.717 336.673 235.719 336.673C235.72 336.673 235.722 336.673 235.724 336.673C235.725 336.673 235.727 336.673 235.728 336.673C235.73 336.673 235.732 336.673 235.733 336.673C235.735 336.673 235.736 336.673 235.738 336.673C235.74 336.673 235.741 336.673 235.743 336.673C235.744 336.673 235.746 336.673 235.748 336.673C235.749 336.673 235.751 336.673 235.752 336.673C235.754 336.673 235.756 336.673 235.757 336.673C235.759 336.673 235.76 336.673 235.762 336.673C235.764 336.673 235.765 336.673 235.767 336.673C235.768 336.673 235.77 336.673 235.772 336.673C235.773 336.673 235.775 336.673 235.776 336.673C235.778 336.673 235.78 336.673 235.781 336.673C235.783 336.673 235.784 336.673 235.786 336.673C235.788 336.673 235.789 336.673 235.791 336.673C235.792 336.673 235.794 336.673 235.796 336.673C235.797 336.673 235.799 336.673 235.8 336.673C235.802 336.673 235.804 336.673 235.805 336.673C235.807 336.673 235.808 336.673 235.81 336.673C235.812 336.673 235.813 336.673 235.815 336.673C235.816 336.673 235.818 336.673 235.82 336.673C235.821 336.673 235.823 336.673 235.824 336.673C235.826 336.673 235.828 336.673 235.829 336.673C235.831 336.673 235.832 336.673 235.834 336.673C235.836 336.673 235.837 336.673 235.839 336.673C235.84 336.673 235.842 336.673 235.844 336.673C235.845 336.673 235.847 336.673 235.848 336.673C235.85 336.673 235.852 336.673 235.853 336.673C235.855 336.673 235.856 336.673 235.858 336.673C235.86 336.673 235.861 336.673 235.863 336.673C235.864 336.673 235.866 336.673 235.868 336.673C235.869 336.673 235.871 336.673 235.872 336.673C235.874 336.673 235.876 336.673 235.877 336.673C235.879 336.673 235.88 336.673 235.882 336.673C235.884 336.673 235.885 336.673 235.887 336.673C235.888 336.673 235.89 336.673 235.892 336.673C235.893 336.673 235.895 336.673 235.896 336.673C235.898 336.673 235.9 336.673 235.901 336.673C235.903 336.673 235.904 336.673 235.906 336.673C235.908 336.673 235.909 336.673 235.911 336.673C235.912 336.673 235.914 336.673 235.916 336.673C235.917 336.673 235.919 336.673 235.921 336.673C235.922 336.673 235.924 336.673 235.925 336.673C235.927 336.673 235.929 336.673 235.93 336.673C235.932 336.673 235.933 336.673 235.935 336.673C235.937 336.673 235.938 336.673 235.94 336.673C235.941 336.673 235.943 336.673 235.945 336.673C235.946 336.673 235.948 336.673 235.949 336.673C235.951 336.673 235.953 336.673 235.954 336.673C235.956 336.673 235.957 336.673 235.959 336.673C235.961 336.673 235.962 336.673 235.964 336.673C235.965 336.673 235.967 336.673 235.969 336.673C235.97 336.673 235.972 336.673 235.973 336.673C235.975 336.673 235.977 336.673 235.978 336.673C235.98 336.673 235.982 336.673 235.983 336.673C235.985 336.673 235.986 336.673 235.988 336.673C235.99 336.673 235.991 336.673 235.993 336.673C235.994 336.673 235.996 336.673 235.998 336.673C235.999 336.673 236.001 336.673 236.002 336.673C236.004 336.673 236.006 336.673 236.007 336.673C236.009 336.673 236.01 336.673 236.012 336.673C236.014 336.673 236.015 336.673 236.017 336.673C236.018 336.673 236.02 336.673 236.022 336.673C236.023 336.673 236.025 336.673 236.027 336.673C236.028 336.673 236.03 336.673 236.031 336.673C236.033 336.673 236.035 336.673 236.036 336.673C236.038 336.673 236.039 336.673 236.041 336.673C236.043 336.673 236.044 336.673 236.046 336.673C236.047 336.673 236.049 336.673 236.051 336.673C236.052 336.673 236.054 336.673 236.055 336.673C236.057 336.673 236.059 336.673 236.06 336.673C236.062 336.673 236.063 336.673 236.065 336.673C236.067 336.673 236.068 336.673 236.07 336.673C236.072 336.673 236.073 336.673 236.075 336.673C236.076 336.673 236.078 336.673 236.08 336.673C236.081 336.673 236.083 336.673 236.084 336.673C236.086 336.673 236.088 336.673 236.089 336.673C236.091 336.673 236.092 336.673 236.094 336.673C236.096 336.673 236.097 336.673 236.099 336.673C236.1 336.673 236.102 336.673 236.104 336.673C236.105 336.673 236.107 336.673 236.108 336.673C236.11 336.673 236.112 336.673 236.113 336.673C236.115 336.673 236.117 336.673 236.118 336.673C236.12 336.673 236.121 336.673 236.123 336.673C236.125 336.673 236.126 336.673 236.128 336.673C236.129 336.673 236.131 336.673 236.133 336.673C236.134 336.673 236.136 336.673 236.137 336.673C236.139 336.673 236.141 336.673 236.142 336.673C236.144 336.673 236.145 336.673 236.147 336.673C236.149 336.673 236.15 336.673 236.152 336.673C236.153 336.673 236.155 336.673 236.157 336.673C236.158 336.673 236.16 336.673 236.162 336.673C236.163 336.673 236.165 336.673 236.166 336.673C236.168 336.673 236.17 336.673 236.171 336.673C236.173 336.673 236.174 336.673 236.176 336.673C236.178 336.673 236.179 336.673 236.181 336.673C236.182 336.673 236.184 336.673 236.186 336.673C236.187 336.673 236.189 336.673 236.19 336.673C236.192 336.673 236.194 336.673 236.195 336.673C236.197 336.673 236.198 336.673 236.2 336.673C236.202 336.673 236.203 336.673 236.205 336.673C236.207 336.673 236.208 336.673 236.21 336.673C236.211 336.673 236.213 336.673 236.215 336.673C236.216 336.673 236.218 336.673 236.219 336.673C236.221 336.673 236.223 336.673 236.224 336.673C236.226 336.673 236.227 336.673 236.229 336.673C236.231 336.673 236.232 336.673 236.234 336.673C236.235 336.673 236.237 336.673 236.239 336.673C236.24 336.673 236.242 336.673 236.243 336.673C236.245 336.673 236.247 336.673 236.248 336.673C236.25 336.673 236.251 336.673 236.253 336.673C236.255 336.673 236.256 336.673 236.258 336.673C236.259 336.673 236.261 336.673 236.263 336.673C236.264 336.673 236.266 336.673 236.268 336.673C236.269 336.673 236.271 336.673 236.272 336.673C236.274 336.673 236.276 336.673 236.277 336.673C236.279 336.673 236.28 336.673 236.282 336.673C236.284 336.673 236.285 336.673 236.287 336.673C236.288 336.673 236.29 336.673 236.292 336.673C236.293 336.673 236.295 336.673 236.296 336.673C236.298 336.673 236.3 336.673 236.301 336.673C236.303 336.673 236.304 336.673 236.306 336.673C236.308 336.673 236.309 336.673 236.311 336.673C236.312 336.673 236.314 336.673 236.316 336.673C236.317 336.673 236.319 336.673 236.32 336.673C236.322 336.673 236.324 336.673 236.325 336.673C236.327 336.673 236.328 336.673 236.33 336.673C236.332 336.673 236.333 336.673 236.335 336.673C236.336 336.673 236.338 336.673 236.34 336.673C236.341 336.673 236.343 336.673 236.344 336.673C236.346 336.673 236.348 336.673 236.349 336.673C236.351 336.673 236.352 336.673 236.354 336.673C236.356 336.673 236.357 336.673 236.359 336.673C236.36 336.673 236.362 336.673 236.364 336.673C236.365 336.673 236.367 336.673 236.368 336.673C236.37 336.673 236.372 336.673 236.373 336.673C236.375 336.673 236.376 336.673 236.378 336.673C236.38 336.673 236.381 336.673 236.383 336.673C236.384 336.673 236.386 336.673 236.388 336.673C236.389 336.673 236.391 336.673 236.392 336.673C236.394 336.673 236.396 336.673 236.397 336.673C236.399 336.673 236.4 336.673 236.402 336.673C236.404 336.673 236.405 336.673 236.407 336.673C236.408 336.673 236.41 336.673 236.412 336.673C236.413 336.673 236.415 336.673 236.416 336.673C236.418 336.673 236.42 336.673 236.421 336.673C236.423 336.673 236.424 336.673 236.426 336.673C236.428 336.673 236.429 336.673 236.431 336.673C236.432 336.673 236.434 336.673 236.436 336.673C236.437 336.673 236.439 336.673 236.44 336.673C236.442 336.673 236.444 336.673 236.445 336.673C236.447 336.673 236.448 336.673 236.45 336.673C236.452 336.673 236.453 336.673 236.455 336.673C236.456 336.673 236.458 336.673 236.459 336.673C236.461 336.673 236.463 336.673 236.464 336.673C236.466 336.673 236.467 336.673 236.469 336.673C236.471 336.673 236.472 336.673 236.474 336.673C236.475 336.673 236.477 336.673 236.479 336.673C236.48 336.673 236.482 336.673 236.483 336.673C236.485 336.673 236.487 336.673 236.488 336.673C236.49 336.673 236.491 336.673 236.493 336.673C236.495 336.673 236.496 336.673 236.498 336.673C236.499 336.673 236.501 336.673 236.502 336.673C236.504 336.673 236.506 336.673 236.507 336.673C236.509 336.673 236.51 336.673 236.512 336.673C236.514 336.673 236.515 336.673 236.517 336.673C236.518 336.673 236.52 336.673 236.522 336.673C236.523 336.673 236.525 336.673 236.526 336.673C236.528 336.673 236.53 336.673 236.531 336.673C236.533 336.673 236.534 336.673 236.536 336.673C236.537 336.673 236.539 336.673 236.541 336.673C236.542 336.673 236.544 336.673 236.545 336.673C236.547 336.673 236.549 336.673 236.55 336.673C236.552 336.673 236.553 336.673 236.555 336.673C236.556 336.673 236.558 336.673 236.56 336.673C236.561 336.673 236.563 336.673 236.564 336.673C236.566 336.673 236.568 336.673 236.569 336.673C236.571 336.673 236.572 336.673 236.574 336.673C236.576 336.673 236.577 336.673 236.579 336.673C236.58 336.673 236.582 336.673 236.583 336.673C236.585 336.673 236.587 336.673 236.588 336.673C236.59 336.673 236.591 336.673 236.593 336.673C236.595 336.673 236.596 336.673 236.598 336.673C236.599 336.673 236.601 336.673 236.602 336.673C236.604 336.673 236.606 336.673 236.607 336.673C236.609 336.673 236.61 336.673 236.612 336.673C236.613 336.673 236.615 336.673 236.617 336.673C236.618 336.673 236.62 336.673 236.621 336.673C236.623 336.673 236.625 336.673 236.626 336.673C236.628 336.673 236.629 336.673 236.631 336.673C236.632 336.673 236.634 336.673 236.636 336.673C236.637 336.673 236.639 336.673 236.64 336.673C236.642 336.673 236.643 336.673 236.645 336.673C236.647 336.673 236.648 336.673 236.65 336.673C236.651 336.673 236.653 336.673 236.655 336.673C236.656 336.673 236.658 336.673 236.659 336.673C236.661 336.673 236.662 336.673 236.664 336.673C236.666 336.673 236.667 336.673 236.669 336.673C236.67 336.673 236.672 336.673 236.673 336.673C236.675 336.673 236.677 336.673 236.678 336.673C236.68 336.673 236.681 336.673 236.683 336.673C236.684 336.673 236.686 336.673 236.688 336.673C236.689 336.673 236.691 336.673 236.692 336.673C236.694 336.673 236.695 336.673 236.697 336.673C236.699 336.673 236.7 336.673 236.702 336.673C236.703 336.673 236.705 336.673 236.706 336.673C236.708 336.673 236.71 336.673 236.711 336.673C236.713 336.673 236.714 336.673 236.716 336.673C236.717 336.673 236.719 336.673 236.721 336.673C236.722 336.673 236.724 336.673 236.725 336.673C236.727 336.673 236.728 336.673 236.73 336.673C236.732 336.673 236.733 336.673 236.735 336.673C236.736 336.673 236.738 336.673 236.739 336.673C236.741 336.673 236.742 336.673 236.744 336.673C236.746 336.673 236.747 336.673 236.749 336.673C236.75 336.673 236.752 336.673 236.753 336.673C236.755 336.673 236.757 336.673 236.758 336.673C236.76 336.673 236.761 336.673 236.763 336.673C236.764 336.673 236.766 336.673 236.767 336.673C236.769 336.673 236.771 336.673 236.772 336.673C236.774 336.673 236.775 336.673 236.777 336.673C236.778 336.673 236.78 336.673 236.782 336.673C236.783 336.673 236.785 336.673 236.786 336.673C236.788 336.673 236.789 336.673 236.791 336.673C236.792 336.673 236.794 336.673 236.796 336.673C236.797 336.673 236.799 336.673 236.8 336.673C236.802 336.673 236.803 336.673 236.805 336.673C236.806 336.673 236.808 336.673 236.81 336.673C236.811 336.673 236.813 336.673 236.814 336.673C236.816 336.673 236.817 336.673 236.819 336.673C236.82 336.673 236.822 336.673 236.824 336.673C236.825 336.673 236.827 336.673 236.828 336.673C236.83 336.673 236.831 336.673 236.833 336.673C236.834 336.673 236.836 336.673 236.838 336.673C236.839 336.673 236.841 336.673 236.842 336.673C236.844 336.673 236.845 336.673 236.847 336.673C236.848 336.673 236.85 336.673 236.852 336.673C236.853 336.673 236.855 336.673 236.856 336.673C236.858 336.673 236.859 336.673 236.861 336.673C236.862 336.673 236.864 336.673 236.865 336.673C236.867 336.673 236.869 336.673 236.87 336.673C236.872 336.673 236.873 336.673 236.875 336.673C236.876 336.673 236.878 336.673 236.879 336.673C236.881 336.673 236.882 336.673 236.884 336.673C236.886 336.673 236.887 336.673 236.889 336.673C236.89 336.673 236.892 336.673 236.893 336.673C236.895 336.673 236.896 336.673 236.898 336.673C236.899 336.673 236.901 336.673 236.903 336.673C236.904 336.673 236.906 336.673 236.907 336.673C236.909 336.673 236.91 336.673 236.912 336.673C236.913 336.673 236.915 336.673 236.916 336.673C236.918 336.673 236.919 336.673 236.921 336.673C236.923 336.673 236.924 336.673 236.926 336.673C236.927 336.673 236.929 336.673 236.93 336.673C236.932 336.673 236.933 336.673 236.935 336.673C236.936 336.673 236.938 336.673 236.939 336.673C236.941 336.673 236.943 336.673 236.944 336.673C236.946 336.673 236.947 336.673 236.949 336.673C236.95 336.673 236.952 336.673 236.953 336.673C236.955 336.673 236.956 336.673 236.958 336.673C236.959 336.673 236.961 336.673 236.962 336.673C236.964 336.673 236.966 336.673 236.967 336.673C236.969 336.673 236.97 336.673 236.972 336.673C236.973 336.673 236.975 336.673 236.976 336.673C236.978 336.673 236.979 336.673 236.981 336.673C236.982 336.673 236.984 336.673 236.985 336.673C236.987 336.673 236.988 336.673 236.99 336.673C236.991 336.673 236.993 336.673 236.995 336.673C236.996 336.673 236.998 336.673 236.999 336.673C237.001 336.673 237.002 336.673 237.004 336.673C237.005 336.673 237.007 336.673 237.008 336.673C237.01 336.673 237.011 336.673 237.013 336.673C237.014 336.673 237.016 336.673 237.017 336.673C237.019 336.673 237.02 336.673 237.022 336.673C237.023 336.673 237.025 336.673 237.027 336.673C237.028 336.673 237.03 336.673 237.031 336.673C237.033 336.673 237.034 336.673 237.036 336.673C237.037 336.673 237.039 336.673 237.04 336.673C237.042 336.673 237.043 336.673 237.045 336.673C237.046 336.673 237.048 336.673 237.049 336.673C237.051 336.673 237.052 336.673 237.054 336.673C237.055 336.673 237.057 336.673 237.058 336.673C237.06 336.673 237.061 336.673 237.063 336.673C237.064 336.673 237.066 336.673 237.067 336.673C237.069 336.673 237.07 336.673 237.072 336.673C237.073 336.673 237.075 336.673 237.076 336.673C237.078 336.673 237.079 336.673 237.081 336.673C237.083 336.673 237.084 336.673 237.086 336.673C237.087 336.673 237.089 336.673 237.09 336.673C237.092 336.673 237.093 336.673 237.095 336.673C237.096 336.673 237.098 336.673 237.099 336.673C237.101 336.673 237.102 336.673 237.104 336.673C237.105 336.673 237.107 336.673 237.108 336.673C237.11 336.673 237.111 336.673 237.113 336.673C237.114 336.673 237.116 336.673 237.117 336.673C237.119 336.673 237.12 336.673 237.122 336.673C237.123 336.673 237.125 336.673 237.126 336.673C237.128 336.673 237.129 336.673 237.131 336.673C237.132 336.673 237.134 336.673 237.135 336.673C237.137 336.673 237.138 336.673 237.14 336.673C237.141 336.673 237.143 336.673 237.144 336.673C237.146 336.673 237.147 336.673 237.149 336.673C237.15 336.673 237.152 336.673 237.153 336.673C237.155 336.673 237.156 336.673 237.158 336.673C237.159 336.673 237.16 336.673 237.162 336.673C237.163 336.673 237.165 336.673 237.166 336.673C237.168 336.673 237.169 336.673 237.171 336.673C237.172 336.673 237.174 336.673 237.175 336.673C237.177 336.673 237.178 336.673 237.18 336.673C237.181 336.673 237.183 336.673 237.184 336.673C237.186 336.673 237.187 336.673 237.189 336.673C237.19 336.673 237.192 336.673 237.193 336.673C237.195 336.673 237.196 336.673 237.198 336.673C237.199 336.673 237.201 336.673 237.202 336.673C237.204 336.673 237.205 336.673 237.207 336.673C237.208 336.673 237.21 336.673 237.211 336.673C237.212 336.673 237.214 336.673 237.215 336.673C237.217 336.673 237.218 336.673 237.22 336.673C237.221 336.673 237.223 336.673 237.224 336.673C237.226 336.673 237.227 336.673 237.229 336.673C237.23 336.673 237.232 336.673 237.233 336.673C237.235 336.673 237.236 336.673 237.238 336.673C237.239 336.673 237.24 336.673 237.242 336.673C237.243 336.673 237.245 336.673 237.246 336.673C237.248 336.673 237.249 336.673 237.251 336.673C237.252 336.673 237.254 336.673 237.255 336.673C237.257 336.673 237.258 336.673 237.26 336.673C237.261 336.673 237.263 336.673 237.264 336.673C237.265 336.673 237.267 336.673 237.268 336.673C237.27 336.673 237.271 336.673 237.273 336.673C237.274 336.673 237.276 336.673 237.277 336.673C237.279 336.673 237.28 336.673 237.282 336.673V304.673C237.28 304.673 237.279 304.673 237.277 304.673C237.276 304.673 237.274 304.673 237.273 304.673C237.271 304.673 237.27 304.673 237.268 304.673C237.267 304.673 237.265 304.673 237.264 304.673C237.263 304.673 237.261 304.673 237.26 304.673C237.258 304.673 237.257 304.673 237.255 304.673C237.254 304.673 237.252 304.673 237.251 304.673C237.249 304.673 237.248 304.673 237.246 304.673C237.245 304.673 237.243 304.673 237.242 304.673C237.24 304.673 237.239 304.673 237.238 304.673C237.236 304.673 237.235 304.673 237.233 304.673C237.232 304.673 237.23 304.673 237.229 304.673C237.227 304.673 237.226 304.673 237.224 304.673C237.223 304.673 237.221 304.673 237.22 304.673C237.218 304.673 237.217 304.673 237.215 304.673C237.214 304.673 237.212 304.673 237.211 304.673C237.21 304.673 237.208 304.673 237.207 304.673C237.205 304.673 237.204 304.673 237.202 304.673C237.201 304.673 237.199 304.673 237.198 304.673C237.196 304.673 237.195 304.673 237.193 304.673C237.192 304.673 237.19 304.673 237.189 304.673C237.187 304.673 237.186 304.673 237.184 304.673C237.183 304.673 237.181 304.673 237.18 304.673C237.178 304.673 237.177 304.673 237.175 304.673C237.174 304.673 237.172 304.673 237.171 304.673C237.169 304.673 237.168 304.673 237.166 304.673C237.165 304.673 237.163 304.673 237.162 304.673C237.16 304.673 237.159 304.673 237.158 304.673C237.156 304.673 237.155 304.673 237.153 304.673C237.152 304.673 237.15 304.673 237.149 304.673C237.147 304.673 237.146 304.673 237.144 304.673C237.143 304.673 237.141 304.673 237.14 304.673C237.138 304.673 237.137 304.673 237.135 304.673C237.134 304.673 237.132 304.673 237.131 304.673C237.129 304.673 237.128 304.673 237.126 304.673C237.125 304.673 237.123 304.673 237.122 304.673C237.12 304.673 237.119 304.673 237.117 304.673C237.116 304.673 237.114 304.673 237.113 304.673C237.111 304.673 237.11 304.673 237.108 304.673C237.107 304.673 237.105 304.673 237.104 304.673C237.102 304.673 237.101 304.673 237.099 304.673C237.098 304.673 237.096 304.673 237.095 304.673C237.093 304.673 237.092 304.673 237.09 304.673C237.089 304.673 237.087 304.673 237.086 304.673C237.084 304.673 237.083 304.673 237.081 304.673C237.079 304.673 237.078 304.673 237.076 304.673C237.075 304.673 237.073 304.673 237.072 304.673C237.07 304.673 237.069 304.673 237.067 304.673C237.066 304.673 237.064 304.673 237.063 304.673C237.061 304.673 237.06 304.673 237.058 304.673C237.057 304.673 237.055 304.673 237.054 304.673C237.052 304.673 237.051 304.673 237.049 304.673C237.048 304.673 237.046 304.673 237.045 304.673C237.043 304.673 237.042 304.673 237.04 304.673C237.039 304.673 237.037 304.673 237.036 304.673C237.034 304.673 237.033 304.673 237.031 304.673C237.03 304.673 237.028 304.673 237.027 304.673C237.025 304.673 237.023 304.673 237.022 304.673C237.02 304.673 237.019 304.673 237.017 304.673C237.016 304.673 237.014 304.673 237.013 304.673C237.011 304.673 237.01 304.673 237.008 304.673C237.007 304.673 237.005 304.673 237.004 304.673C237.002 304.673 237.001 304.673 236.999 304.673C236.998 304.673 236.996 304.673 236.995 304.673C236.993 304.673 236.991 304.673 236.99 304.673C236.988 304.673 236.987 304.673 236.985 304.673C236.984 304.673 236.982 304.673 236.981 304.673C236.979 304.673 236.978 304.673 236.976 304.673C236.975 304.673 236.973 304.673 236.972 304.673C236.97 304.673 236.969 304.673 236.967 304.673C236.966 304.673 236.964 304.673 236.962 304.673C236.961 304.673 236.959 304.673 236.958 304.673C236.956 304.673 236.955 304.673 236.953 304.673C236.952 304.673 236.95 304.673 236.949 304.673C236.947 304.673 236.946 304.673 236.944 304.673C236.943 304.673 236.941 304.673 236.939 304.673C236.938 304.673 236.936 304.673 236.935 304.673C236.933 304.673 236.932 304.673 236.93 304.673C236.929 304.673 236.927 304.673 236.926 304.673C236.924 304.673 236.923 304.673 236.921 304.673C236.919 304.673 236.918 304.673 236.916 304.673C236.915 304.673 236.913 304.673 236.912 304.673C236.91 304.673 236.909 304.673 236.907 304.673C236.906 304.673 236.904 304.673 236.903 304.673C236.901 304.673 236.899 304.673 236.898 304.673C236.896 304.673 236.895 304.673 236.893 304.673C236.892 304.673 236.89 304.673 236.889 304.673C236.887 304.673 236.886 304.673 236.884 304.673C236.882 304.673 236.881 304.673 236.879 304.673C236.878 304.673 236.876 304.673 236.875 304.673C236.873 304.673 236.872 304.673 236.87 304.673C236.869 304.673 236.867 304.673 236.865 304.673C236.864 304.673 236.862 304.673 236.861 304.673C236.859 304.673 236.858 304.673 236.856 304.673C236.855 304.673 236.853 304.673 236.852 304.673C236.85 304.673 236.848 304.673 236.847 304.673C236.845 304.673 236.844 304.673 236.842 304.673C236.841 304.673 236.839 304.673 236.838 304.673C236.836 304.673 236.834 304.673 236.833 304.673C236.831 304.673 236.83 304.673 236.828 304.673C236.827 304.673 236.825 304.673 236.824 304.673C236.822 304.673 236.82 304.673 236.819 304.673C236.817 304.673 236.816 304.673 236.814 304.673C236.813 304.673 236.811 304.673 236.81 304.673C236.808 304.673 236.806 304.673 236.805 304.673C236.803 304.673 236.802 304.673 236.8 304.673C236.799 304.673 236.797 304.673 236.796 304.673C236.794 304.673 236.792 304.673 236.791 304.673C236.789 304.673 236.788 304.673 236.786 304.673C236.785 304.673 236.783 304.673 236.782 304.673C236.78 304.673 236.778 304.673 236.777 304.673C236.775 304.673 236.774 304.673 236.772 304.673C236.771 304.673 236.769 304.673 236.767 304.673C236.766 304.673 236.764 304.673 236.763 304.673C236.761 304.673 236.76 304.673 236.758 304.673C236.757 304.673 236.755 304.673 236.753 304.673C236.752 304.673 236.75 304.673 236.749 304.673C236.747 304.673 236.746 304.673 236.744 304.673C236.742 304.673 236.741 304.673 236.739 304.673C236.738 304.673 236.736 304.673 236.735 304.673C236.733 304.673 236.732 304.673 236.73 304.673C236.728 304.673 236.727 304.673 236.725 304.673C236.724 304.673 236.722 304.673 236.721 304.673C236.719 304.673 236.717 304.673 236.716 304.673C236.714 304.673 236.713 304.673 236.711 304.673C236.71 304.673 236.708 304.673 236.706 304.673C236.705 304.673 236.703 304.673 236.702 304.673C236.7 304.673 236.699 304.673 236.697 304.673C236.695 304.673 236.694 304.673 236.692 304.673C236.691 304.673 236.689 304.673 236.688 304.673C236.686 304.673 236.684 304.673 236.683 304.673C236.681 304.673 236.68 304.673 236.678 304.673C236.677 304.673 236.675 304.673 236.673 304.673C236.672 304.673 236.67 304.673 236.669 304.673C236.667 304.673 236.666 304.673 236.664 304.673C236.662 304.673 236.661 304.673 236.659 304.673C236.658 304.673 236.656 304.673 236.655 304.673C236.653 304.673 236.651 304.673 236.65 304.673C236.648 304.673 236.647 304.673 236.645 304.673C236.643 304.673 236.642 304.673 236.64 304.673C236.639 304.673 236.637 304.673 236.636 304.673C236.634 304.673 236.632 304.673 236.631 304.673C236.629 304.673 236.628 304.673 236.626 304.673C236.625 304.673 236.623 304.673 236.621 304.673C236.62 304.673 236.618 304.673 236.617 304.673C236.615 304.673 236.613 304.673 236.612 304.673C236.61 304.673 236.609 304.673 236.607 304.673C236.606 304.673 236.604 304.673 236.602 304.673C236.601 304.673 236.599 304.673 236.598 304.673C236.596 304.673 236.595 304.673 236.593 304.673C236.591 304.673 236.59 304.673 236.588 304.673C236.587 304.673 236.585 304.673 236.583 304.673C236.582 304.673 236.58 304.673 236.579 304.673C236.577 304.673 236.576 304.673 236.574 304.673C236.572 304.673 236.571 304.673 236.569 304.673C236.568 304.673 236.566 304.673 236.564 304.673C236.563 304.673 236.561 304.673 236.56 304.673C236.558 304.673 236.556 304.673 236.555 304.673C236.553 304.673 236.552 304.673 236.55 304.673C236.549 304.673 236.547 304.673 236.545 304.673C236.544 304.673 236.542 304.673 236.541 304.673C236.539 304.673 236.537 304.673 236.536 304.673C236.534 304.673 236.533 304.673 236.531 304.673C236.53 304.673 236.528 304.673 236.526 304.673C236.525 304.673 236.523 304.673 236.522 304.673C236.52 304.673 236.518 304.673 236.517 304.673C236.515 304.673 236.514 304.673 236.512 304.673C236.51 304.673 236.509 304.673 236.507 304.673C236.506 304.673 236.504 304.673 236.502 304.673C236.501 304.673 236.499 304.673 236.498 304.673C236.496 304.673 236.495 304.673 236.493 304.673C236.491 304.673 236.49 304.673 236.488 304.673C236.487 304.673 236.485 304.673 236.483 304.673C236.482 304.673 236.48 304.673 236.479 304.673C236.477 304.673 236.475 304.673 236.474 304.673C236.472 304.673 236.471 304.673 236.469 304.673C236.467 304.673 236.466 304.673 236.464 304.673C236.463 304.673 236.461 304.673 236.459 304.673C236.458 304.673 236.456 304.673 236.455 304.673C236.453 304.673 236.452 304.673 236.45 304.673C236.448 304.673 236.447 304.673 236.445 304.673C236.444 304.673 236.442 304.673 236.44 304.673C236.439 304.673 236.437 304.673 236.436 304.673C236.434 304.673 236.432 304.673 236.431 304.673C236.429 304.673 236.428 304.673 236.426 304.673C236.424 304.673 236.423 304.673 236.421 304.673C236.42 304.673 236.418 304.673 236.416 304.673C236.415 304.673 236.413 304.673 236.412 304.673C236.41 304.673 236.408 304.673 236.407 304.673C236.405 304.673 236.404 304.673 236.402 304.673C236.4 304.673 236.399 304.673 236.397 304.673C236.396 304.673 236.394 304.673 236.392 304.673C236.391 304.673 236.389 304.673 236.388 304.673C236.386 304.673 236.384 304.673 236.383 304.673C236.381 304.673 236.38 304.673 236.378 304.673C236.376 304.673 236.375 304.673 236.373 304.673C236.372 304.673 236.37 304.673 236.368 304.673C236.367 304.673 236.365 304.673 236.364 304.673C236.362 304.673 236.36 304.673 236.359 304.673C236.357 304.673 236.356 304.673 236.354 304.673C236.352 304.673 236.351 304.673 236.349 304.673C236.348 304.673 236.346 304.673 236.344 304.673C236.343 304.673 236.341 304.673 236.34 304.673C236.338 304.673 236.336 304.673 236.335 304.673C236.333 304.673 236.332 304.673 236.33 304.673C236.328 304.673 236.327 304.673 236.325 304.673C236.324 304.673 236.322 304.673 236.32 304.673C236.319 304.673 236.317 304.673 236.316 304.673C236.314 304.673 236.312 304.673 236.311 304.673C236.309 304.673 236.308 304.673 236.306 304.673C236.304 304.673 236.303 304.673 236.301 304.673C236.3 304.673 236.298 304.673 236.296 304.673C236.295 304.673 236.293 304.673 236.292 304.673C236.29 304.673 236.288 304.673 236.287 304.673C236.285 304.673 236.284 304.673 236.282 304.673C236.28 304.673 236.279 304.673 236.277 304.673C236.276 304.673 236.274 304.673 236.272 304.673C236.271 304.673 236.269 304.673 236.268 304.673C236.266 304.673 236.264 304.673 236.263 304.673C236.261 304.673 236.259 304.673 236.258 304.673C236.256 304.673 236.255 304.673 236.253 304.673C236.251 304.673 236.25 304.673 236.248 304.673C236.247 304.673 236.245 304.673 236.243 304.673C236.242 304.673 236.24 304.673 236.239 304.673C236.237 304.673 236.235 304.673 236.234 304.673C236.232 304.673 236.231 304.673 236.229 304.673C236.227 304.673 236.226 304.673 236.224 304.673C236.223 304.673 236.221 304.673 236.219 304.673C236.218 304.673 236.216 304.673 236.215 304.673C236.213 304.673 236.211 304.673 236.21 304.673C236.208 304.673 236.207 304.673 236.205 304.673C236.203 304.673 236.202 304.673 236.2 304.673C236.198 304.673 236.197 304.673 236.195 304.673C236.194 304.673 236.192 304.673 236.19 304.673C236.189 304.673 236.187 304.673 236.186 304.673C236.184 304.673 236.182 304.673 236.181 304.673C236.179 304.673 236.178 304.673 236.176 304.673C236.174 304.673 236.173 304.673 236.171 304.673C236.17 304.673 236.168 304.673 236.166 304.673C236.165 304.673 236.163 304.673 236.162 304.673C236.16 304.673 236.158 304.673 236.157 304.673C236.155 304.673 236.153 304.673 236.152 304.673C236.15 304.673 236.149 304.673 236.147 304.673C236.145 304.673 236.144 304.673 236.142 304.673C236.141 304.673 236.139 304.673 236.137 304.673C236.136 304.673 236.134 304.673 236.133 304.673C236.131 304.673 236.129 304.673 236.128 304.673C236.126 304.673 236.125 304.673 236.123 304.673C236.121 304.673 236.12 304.673 236.118 304.673C236.117 304.673 236.115 304.673 236.113 304.673C236.112 304.673 236.11 304.673 236.108 304.673C236.107 304.673 236.105 304.673 236.104 304.673C236.102 304.673 236.1 304.673 236.099 304.673C236.097 304.673 236.096 304.673 236.094 304.673C236.092 304.673 236.091 304.673 236.089 304.673C236.088 304.673 236.086 304.673 236.084 304.673C236.083 304.673 236.081 304.673 236.08 304.673C236.078 304.673 236.076 304.673 236.075 304.673C236.073 304.673 236.072 304.673 236.07 304.673C236.068 304.673 236.067 304.673 236.065 304.673C236.063 304.673 236.062 304.673 236.06 304.673C236.059 304.673 236.057 304.673 236.055 304.673C236.054 304.673 236.052 304.673 236.051 304.673C236.049 304.673 236.047 304.673 236.046 304.673C236.044 304.673 236.043 304.673 236.041 304.673C236.039 304.673 236.038 304.673 236.036 304.673C236.035 304.673 236.033 304.673 236.031 304.673C236.03 304.673 236.028 304.673 236.027 304.673C236.025 304.673 236.023 304.673 236.022 304.673C236.02 304.673 236.018 304.673 236.017 304.673C236.015 304.673 236.014 304.673 236.012 304.673C236.01 304.673 236.009 304.673 236.007 304.673C236.006 304.673 236.004 304.673 236.002 304.673C236.001 304.673 235.999 304.673 235.998 304.673C235.996 304.673 235.994 304.673 235.993 304.673C235.991 304.673 235.99 304.673 235.988 304.673C235.986 304.673 235.985 304.673 235.983 304.673C235.982 304.673 235.98 304.673 235.978 304.673C235.977 304.673 235.975 304.673 235.973 304.673C235.972 304.673 235.97 304.673 235.969 304.673C235.967 304.673 235.965 304.673 235.964 304.673C235.962 304.673 235.961 304.673 235.959 304.673C235.957 304.673 235.956 304.673 235.954 304.673C235.953 304.673 235.951 304.673 235.949 304.673C235.948 304.673 235.946 304.673 235.945 304.673C235.943 304.673 235.941 304.673 235.94 304.673C235.938 304.673 235.937 304.673 235.935 304.673C235.933 304.673 235.932 304.673 235.93 304.673C235.929 304.673 235.927 304.673 235.925 304.673C235.924 304.673 235.922 304.673 235.921 304.673C235.919 304.673 235.917 304.673 235.916 304.673C235.914 304.673 235.912 304.673 235.911 304.673C235.909 304.673 235.908 304.673 235.906 304.673C235.904 304.673 235.903 304.673 235.901 304.673C235.9 304.673 235.898 304.673 235.896 304.673C235.895 304.673 235.893 304.673 235.892 304.673C235.89 304.673 235.888 304.673 235.887 304.673C235.885 304.673 235.884 304.673 235.882 304.673C235.88 304.673 235.879 304.673 235.877 304.673C235.876 304.673 235.874 304.673 235.872 304.673C235.871 304.673 235.869 304.673 235.868 304.673C235.866 304.673 235.864 304.673 235.863 304.673C235.861 304.673 235.86 304.673 235.858 304.673C235.856 304.673 235.855 304.673 235.853 304.673C235.852 304.673 235.85 304.673 235.848 304.673C235.847 304.673 235.845 304.673 235.844 304.673C235.842 304.673 235.84 304.673 235.839 304.673C235.837 304.673 235.836 304.673 235.834 304.673C235.832 304.673 235.831 304.673 235.829 304.673C235.828 304.673 235.826 304.673 235.824 304.673C235.823 304.673 235.821 304.673 235.82 304.673C235.818 304.673 235.816 304.673 235.815 304.673C235.813 304.673 235.812 304.673 235.81 304.673C235.808 304.673 235.807 304.673 235.805 304.673C235.804 304.673 235.802 304.673 235.8 304.673C235.799 304.673 235.797 304.673 235.796 304.673C235.794 304.673 235.792 304.673 235.791 304.673C235.789 304.673 235.788 304.673 235.786 304.673C235.784 304.673 235.783 304.673 235.781 304.673C235.78 304.673 235.778 304.673 235.776 304.673C235.775 304.673 235.773 304.673 235.772 304.673C235.77 304.673 235.768 304.673 235.767 304.673C235.765 304.673 235.764 304.673 235.762 304.673C235.76 304.673 235.759 304.673 235.757 304.673C235.756 304.673 235.754 304.673 235.752 304.673C235.751 304.673 235.749 304.673 235.748 304.673C235.746 304.673 235.744 304.673 235.743 304.673C235.741 304.673 235.74 304.673 235.738 304.673C235.736 304.673 235.735 304.673 235.733 304.673C235.732 304.673 235.73 304.673 235.728 304.673C235.727 304.673 235.725 304.673 235.724 304.673C235.722 304.673 235.72 304.673 235.719 304.673C235.717 304.673 235.716 304.673 235.714 304.673C235.712 304.673 235.711 304.673 235.709 304.673C235.708 304.673 235.706 304.673 235.704 304.673C235.703 304.673 235.701 304.673 235.7 304.673C235.698 304.673 235.697 304.673 235.695 304.673C235.693 304.673 235.692 304.673 235.69 304.673C235.689 304.673 235.687 304.673 235.685 304.673C235.684 304.673 235.682 304.673 235.681 304.673C235.679 304.673 235.677 304.673 235.676 304.673C235.674 304.673 235.673 304.673 235.671 304.673C235.669 304.673 235.668 304.673 235.666 304.673C235.665 304.673 235.663 304.673 235.662 304.673C235.66 304.673 235.658 304.673 235.657 304.673C235.655 304.673 235.654 304.673 235.652 304.673C235.65 304.673 235.649 304.673 235.647 304.673C235.646 304.673 235.644 304.673 235.642 304.673C235.641 304.673 235.639 304.673 235.638 304.673C235.636 304.673 235.634 304.673 235.633 304.673C235.631 304.673 235.63 304.673 235.628 304.673C235.627 304.673 235.625 304.673 235.623 304.673C235.622 304.673 235.62 304.673 235.619 304.673C235.617 304.673 235.615 304.673 235.614 304.673C235.612 304.673 235.611 304.673 235.609 304.673C235.608 304.673 235.606 304.673 235.604 304.673C235.603 304.673 235.601 304.673 235.6 304.673C235.598 304.673 235.596 304.673 235.595 304.673C235.593 304.673 235.592 304.673 235.59 304.673C235.589 304.673 235.587 304.673 235.585 304.673C235.584 304.673 235.582 304.673 235.581 304.673C235.579 304.673 235.577 304.673 235.576 304.673C235.574 304.673 235.573 304.673 235.571 304.673C235.57 304.673 235.568 304.673 235.566 304.673C235.565 304.673 235.563 304.673 235.562 304.673C235.56 304.673 235.558 304.673 235.557 304.673C235.555 304.673 235.554 304.673 235.552 304.673C235.551 304.673 235.549 304.673 235.547 304.673C235.546 304.673 235.544 304.673 235.543 304.673C235.541 304.673 235.539 304.673 235.538 304.673C235.536 304.673 235.535 304.673 235.533 304.673C235.532 304.673 235.53 304.673 235.528 304.673C235.527 304.673 235.525 304.673 235.524 304.673C235.522 304.673 235.521 304.673 235.519 304.673C235.517 304.673 235.516 304.673 235.514 304.673C235.513 304.673 235.511 304.673 235.51 304.673C235.508 304.673 235.506 304.673 235.505 304.673C235.503 304.673 235.502 304.673 235.5 304.673C235.498 304.673 235.497 304.673 235.495 304.673C235.494 304.673 235.492 304.673 235.491 304.673C235.489 304.673 235.487 304.673 235.486 304.673C235.484 304.673 235.483 304.673 235.481 304.673C235.48 304.673 235.478 304.673 235.476 304.673C235.475 304.673 235.473 304.673 235.472 304.673C235.47 304.673 235.469 304.673 235.467 304.673C235.465 304.673 235.464 304.673 235.462 304.673C235.461 304.673 235.459 304.673 235.458 304.673C235.456 304.673 235.454 304.673 235.453 304.673C235.451 304.673 235.45 304.673 235.448 304.673C235.447 304.673 235.445 304.673 235.444 304.673C235.442 304.673 235.44 304.673 235.439 304.673C235.437 304.673 235.436 304.673 235.434 304.673C235.433 304.673 235.431 304.673 235.429 304.673C235.428 304.673 235.426 304.673 235.425 304.673C235.423 304.673 235.422 304.673 235.42 304.673C235.418 304.673 235.417 304.673 235.415 304.673C235.414 304.673 235.412 304.673 235.411 304.673C235.409 304.673 235.408 304.673 235.406 304.673C235.404 304.673 235.403 304.673 235.401 304.673C235.4 304.673 235.398 304.673 235.397 304.673C235.395 304.673 235.393 304.673 235.392 304.673C235.39 304.673 235.389 304.673 235.387 304.673C235.386 304.673 235.384 304.673 235.383 304.673C235.381 304.673 235.379 304.673 235.378 304.673C235.376 304.673 235.375 304.673 235.373 304.673C235.372 304.673 235.37 304.673 235.369 304.673C235.367 304.673 235.365 304.673 235.364 304.673C235.362 304.673 235.361 304.673 235.359 304.673C235.358 304.673 235.356 304.673 235.355 304.673C235.353 304.673 235.351 304.673 235.35 304.673C235.348 304.673 235.347 304.673 235.345 304.673C235.344 304.673 235.342 304.673 235.341 304.673C235.339 304.673 235.337 304.673 235.336 304.673C235.334 304.673 235.333 304.673 235.331 304.673C235.33 304.673 235.328 304.673 235.327 304.673C235.325 304.673 235.323 304.673 235.322 304.673C235.32 304.673 235.319 304.673 235.317 304.673C235.316 304.673 235.314 304.673 235.313 304.673C235.311 304.673 235.31 304.673 235.308 304.673C235.306 304.673 235.305 304.673 235.303 304.673C235.302 304.673 235.3 304.673 235.299 304.673C235.297 304.673 235.296 304.673 235.294 304.673C235.292 304.673 235.291 304.673 235.289 304.673C235.288 304.673 235.286 304.673 235.285 304.673C235.283 304.673 235.282 304.673 235.28 304.673C235.279 304.673 235.277 304.673 235.275 304.673C235.274 304.673 235.272 304.673 235.271 304.673C235.269 304.673 235.268 304.673 235.266 304.673C235.265 304.673 235.263 304.673 235.262 304.673C235.26 304.673 235.259 304.673 235.257 304.673C235.255 304.673 235.254 304.673 235.252 304.673C235.251 304.673 235.249 304.673 235.248 304.673C235.246 304.673 235.245 304.673 235.243 304.673C235.242 304.673 235.24 304.673 235.239 304.673C235.237 304.673 235.235 304.673 235.234 304.673C235.232 304.673 235.231 304.673 235.229 304.673C235.228 304.673 235.226 304.673 235.225 304.673C235.223 304.673 235.222 304.673 235.22 304.673C235.219 304.673 235.217 304.673 235.216 304.673C235.214 304.673 235.212 304.673 235.211 304.673C235.209 304.673 235.208 304.673 235.206 304.673C235.205 304.673 235.203 304.673 235.202 304.673C235.2 304.673 235.199 304.673 235.197 304.673C235.196 304.673 235.194 304.673 235.193 304.673C235.191 304.673 235.189 304.673 235.188 304.673C235.186 304.673 235.185 304.673 235.183 304.673C235.182 304.673 235.18 304.673 235.179 304.673C235.177 304.673 235.176 304.673 235.174 304.673C235.173 304.673 235.171 304.673 235.17 304.673C235.168 304.673 235.167 304.673 235.165 304.673C235.164 304.673 235.162 304.673 235.161 304.673C235.159 304.673 235.157 304.673 235.156 304.673C235.154 304.673 235.153 304.673 235.151 304.673C235.15 304.673 235.148 304.673 235.147 304.673C235.145 304.673 235.144 304.673 235.142 304.673C235.141 304.673 235.139 304.673 235.138 304.673C235.136 304.673 235.135 304.673 235.133 304.673C235.132 304.673 235.13 304.673 235.129 304.673C235.127 304.673 235.126 304.673 235.124 304.673C235.123 304.673 235.121 304.673 235.12 304.673C235.118 304.673 235.116 304.673 235.115 304.673C235.113 304.673 235.112 304.673 235.11 304.673C235.109 304.673 235.107 304.673 235.106 304.673C235.104 304.673 235.103 304.673 235.101 304.673C235.1 304.673 235.098 304.673 235.097 304.673C235.095 304.673 235.094 304.673 235.092 304.673C235.091 304.673 235.089 304.673 235.088 304.673C235.086 304.673 235.085 304.673 235.083 304.673C235.082 304.673 235.08 304.673 235.079 304.673C235.077 304.673 235.076 304.673 235.074 304.673C235.073 304.673 235.071 304.673 235.07 304.673C235.068 304.673 235.067 304.673 235.065 304.673C235.064 304.673 235.062 304.673 235.061 304.673C235.059 304.673 235.058 304.673 235.056 304.673C235.055 304.673 235.053 304.673 235.052 304.673C235.05 304.673 235.049 304.673 235.047 304.673C235.046 304.673 235.044 304.673 235.043 304.673C235.041 304.673 235.04 304.673 235.038 304.673C235.037 304.673 235.035 304.673 235.034 304.673C235.032 304.673 235.031 304.673 235.029 304.673C235.028 304.673 235.026 304.673 235.025 304.673C235.023 304.673 235.022 304.673 235.02 304.673C235.019 304.673 235.017 304.673 235.016 304.673C235.014 304.673 235.013 304.673 235.011 304.673C235.01 304.673 235.008 304.673 235.007 304.673C235.005 304.673 235.004 304.673 235.002 304.673C235.001 304.673 234.999 304.673 234.998 304.673C234.996 304.673 234.995 304.673 234.993 304.673C234.992 304.673 234.99 304.673 234.989 304.673C234.987 304.673 234.986 304.673 234.984 304.673C234.983 304.673 234.981 304.673 234.98 304.673C234.979 304.673 234.977 304.673 234.976 304.673C234.974 304.673 234.973 304.673 234.971 304.673C234.97 304.673 234.968 304.673 234.967 304.673C234.965 304.673 234.964 304.673 234.962 304.673C234.961 304.673 234.959 304.673 234.958 304.673C234.956 304.673 234.955 304.673 234.953 304.673C234.952 304.673 234.95 304.673 234.949 304.673C234.947 304.673 234.946 304.673 234.944 304.673C234.943 304.673 234.942 304.673 234.94 304.673C234.939 304.673 234.937 304.673 234.936 304.673C234.934 304.673 234.933 304.673 234.931 304.673C234.93 304.673 234.928 304.673 234.927 304.673C234.925 304.673 234.924 304.673 234.922 304.673C234.921 304.673 234.919 304.673 234.918 304.673C234.917 304.673 234.915 304.673 234.914 304.673C234.912 304.673 234.911 304.673 234.909 304.673C234.908 304.673 234.906 304.673 234.905 304.673C234.903 304.673 234.902 304.673 234.9 304.673C234.899 304.673 234.897 304.673 234.896 304.673C234.895 304.673 234.893 304.673 234.892 304.673C234.89 304.673 234.889 304.673 234.887 304.673V336.673ZM237.513 336.671C329.184 335.346 402.928 260.503 402.928 168.507H370.928C370.928 243.054 311.187 303.603 237.05 304.674L237.513 336.671ZM402.928 168.507C402.928 76.6593 329.346 1.99925 238.021 0.343449L237.44 32.3382C311.325 33.6778 370.928 94.1098 370.928 168.507H402.928Z" fill="#30B9D7" mask="url(#path-1-inside-1_217_388)"/>
<path d="M234.887 292.815C235.486 292.815 236.234 292.815 236.833 292.815C304.622 291.767 359.243 236.502 359.243 168.357C359.243 100.362 304.922 45.2464 237.282 43.8984" fill="#31BAD8"/>
<path d="M298.786 126.421C321.432 126.421 339.789 108.049 339.789 85.3846C339.789 62.7206 321.432 44.3478 298.786 44.3478C276.141 44.3478 257.783 62.7206 257.783 85.3846C257.783 108.049 276.141 126.421 298.786 126.421Z" fill="white" stroke="#31BAD8" stroke-width="16" stroke-miterlimit="10"/>
<path d="M58.3604 176.297C58.3604 167.012 58.3604 157.576 58.3604 148.141C60.4554 137.956 61.8022 127.472 64.7951 117.588C92.1804 26.2282 200.824 -24.6934 291.06 12.0001C364.237 41.8043 402.247 111.597 393.418 190.076C385.936 256.574 340.593 314.235 268.164 331.608C257.091 334.304 245.717 335.203 234.494 337C229.556 337 224.767 337 219.829 337C215.938 336.551 212.047 336.101 208.306 335.502C137.074 326.516 80.9569 276.643 63.598 207C61.2036 196.966 60.1561 186.482 58.3604 176.297ZM133.782 159.373C135.877 134.062 140.217 109.5 150.243 86.7351C136.925 79.9955 124.055 73.4056 110.737 66.666C86.9428 92.4264 77.0661 124.327 73.7739 159.523C93.9762 159.373 113.58 159.373 133.782 159.373ZM74.5221 176.597C76.6172 212.092 88.14 242.945 111.485 269.154C124.654 262.415 137.224 255.975 150.093 249.535C141.713 225.721 133.782 202.058 133.932 176.597C113.729 176.597 94.7244 176.597 74.5221 176.597ZM148.298 159.224C171.792 159.224 194.538 159.224 217.584 159.224C217.584 140.802 217.584 122.83 217.584 106.055C199.177 101.413 181.519 96.9194 163.262 92.2766C154.583 113.244 148.747 135.41 148.298 159.224ZM217.734 176.896C194.538 176.896 171.643 176.896 148.148 176.896C150.692 200.26 154.583 222.726 164.011 242.645C182.417 238.152 199.776 233.809 217.734 229.316C217.734 212.691 217.734 195.018 217.734 176.896ZM168.5 255.525C176.88 276.643 186.607 295.065 198.429 312.438C203.816 320.376 207.707 321.724 217.734 319.327C217.734 294.465 217.734 269.753 217.734 243.993C201.123 247.887 185.26 251.631 168.5 255.525ZM168.5 78.6476C185.111 84.0393 200.973 87.484 217.584 88.8319C217.584 64.4195 217.584 41.0554 217.584 17.3918C209.054 16.3434 202.17 16.7927 197.531 25.6291C192.443 35.5139 185.709 44.6499 180.322 54.5347C175.982 62.0231 172.69 69.9609 168.5 78.6476ZM181.22 313.636C172.241 296.562 163.412 279.788 154.284 262.415C143.958 268.406 133.932 274.247 123.157 280.537C141.115 295.514 159.222 307.795 181.22 313.636ZM153.685 72.2075C162.813 55.1337 171.343 39.1084 180.172 22.7835C159.072 29.0738 139.618 38.5093 122.559 55.2835C133.632 61.4241 143.808 66.9655 153.685 72.2075Z" fill="url(#paint0_linear_217_388)"/>
<path d="M133.782 159.373C113.58 159.373 93.9762 159.373 73.7739 159.373C77.0661 124.178 87.0924 92.2766 110.737 66.5162C124.055 73.2559 136.925 79.8457 150.243 86.5853C140.067 109.5 135.727 133.913 133.782 159.373Z" fill="white"/>
<path d="M74.522 176.597C94.8739 176.597 113.879 176.597 133.932 176.597C133.782 202.058 141.713 225.721 150.093 249.535C137.224 256.125 124.653 262.415 111.485 269.154C88.1398 242.945 76.617 212.092 74.522 176.597Z" fill="white"/>
<path d="M148.298 159.224C148.747 135.41 154.433 113.244 163.262 92.2766C181.519 96.9195 199.327 101.413 217.584 106.055C217.584 122.83 217.584 140.802 217.584 159.224C194.688 159.224 171.942 159.224 148.298 159.224Z" fill="white"/>
<path d="M217.733 176.896C217.733 195.018 217.733 212.691 217.733 229.316C199.926 233.809 182.417 238.002 164.01 242.645C154.583 222.726 150.692 200.26 148.148 176.896C171.642 176.896 194.538 176.896 217.733 176.896Z" fill="white"/>
<path d="M168.5 255.525C185.26 251.631 201.273 247.887 217.584 243.993C217.584 269.754 217.584 294.466 217.584 319.327C207.707 321.724 203.667 320.226 198.28 312.438C186.458 295.065 176.731 276.643 168.5 255.525Z" fill="white"/>
<path d="M168.5 78.6475C172.54 70.1106 175.982 62.0231 180.322 54.3848C185.709 44.6498 192.443 35.5139 197.531 25.4793C202.021 16.6429 209.054 16.1936 217.584 17.242C217.584 40.9056 217.584 64.4194 217.584 88.682C200.973 87.4839 185.111 83.8894 168.5 78.6475Z" fill="white"/>
<path d="M181.22 313.636C159.372 307.945 141.115 295.664 123.157 280.537C133.932 274.247 143.958 268.406 154.284 262.415C163.412 279.788 172.241 296.562 181.22 313.636Z" fill="white"/>
<path d="M153.685 72.2075C143.808 66.9656 133.632 61.4241 122.559 55.4333C139.618 38.5094 159.072 29.2237 180.172 22.9333C171.343 39.1085 162.813 55.1338 153.685 72.2075Z" fill="white"/>
<path d="M394.592 65.2637L469.415 59.872C469.415 59.872 466.572 136.554 466.722 134.307C466.871 132.061 501.29 59.872 490.516 12.6946C490.516 12.6946 441.731 60.0218 394.592 65.2637Z" fill="url(#paint1_linear_217_388)"/>
<path d="M0 239.855C0 239.855 137.226 396.214 384.591 149.095C631.956 -98.0251 165.209 354.129 0 239.855Z" fill="url(#paint2_linear_217_388)"/>
<defs>
<linearGradient id="paint0_linear_217_388" x1="72.5437" y1="135.851" x2="250.269" y2="138.496" gradientUnits="userSpaceOnUse">
<stop stop-color="#31BAD8"/>
<stop offset="1" stop-color="#31BAD8" stop-opacity="0"/>
</linearGradient>
<linearGradient id="paint1_linear_217_388" x1="443.598" y1="12.6946" x2="443.598" y2="134.356" gradientUnits="userSpaceOnUse">
<stop stop-color="#FFA800"/>
<stop offset="1" stop-color="#FFA800" stop-opacity="0"/>
</linearGradient>
<linearGradient id="paint2_linear_217_388" x1="61.8865" y1="259.712" x2="526.829" y2="93.6231" gradientUnits="userSpaceOnUse">
<stop stop-color="#FFA800"/>
<stop offset="1" stop-color="#FFA800" stop-opacity="0"/>
</linearGradient>
</defs>
</svg>
