<svg width="250" height="250" viewBox="0 0 250 250" fill="none" xmlns="http://www.w3.org/2000/svg">
<path d="M104.126 80.2439C105.225 80.2439 105.853 79.4592 106.088 78.439C108.678 65.4124 108.521 65.0985 122.097 62.4304C123.274 62.1949 123.98 61.5671 123.98 60.4685C123.98 59.3699 123.274 58.7421 122.175 58.5067C108.442 55.6816 108.521 55.3677 106.088 42.4195C105.931 41.3994 105.225 40.6931 104.126 40.6931C103.027 40.6931 102.4 41.3994 102.243 42.4195C99.5746 55.5247 99.8101 55.9955 86.1556 58.5067C85.057 58.6636 84.3507 59.3699 84.3507 60.4685C84.3507 61.4887 85.057 62.1949 86.1556 62.4304C99.8101 65.1769 99.7316 65.4908 102.243 78.439C102.4 79.4592 103.027 80.2439 104.126 80.2439ZM171.378 108.181C172.634 108.181 173.418 107.239 173.654 106.062C176.479 90.8379 176.322 90.0531 192.331 87.3065C193.665 87.0711 194.528 86.2864 194.528 85.0308C194.528 83.7752 193.665 82.9905 192.409 82.7551C176.322 79.8515 176.087 79.1453 173.654 63.9998C173.418 62.7442 172.634 61.881 171.378 61.881C170.123 61.881 169.259 62.7442 169.102 63.9998C166.356 79.3022 166.434 80.2439 150.269 82.7551C149.092 82.912 148.15 83.7752 148.15 85.0308C148.228 86.2864 149.013 87.0711 150.269 87.3065C166.434 90.1316 166.591 90.9163 169.102 106.062C169.259 107.239 170.123 108.181 171.378 108.181ZM60.8871 131.723C62.1426 131.723 63.0059 130.859 63.1628 129.604C65.674 114.38 65.9094 113.595 81.918 110.849C83.1736 110.613 84.0368 109.829 84.0368 108.573C84.0368 107.317 83.1736 106.533 81.9965 106.297C65.8309 103.394 65.8309 102.687 63.1628 87.542C62.9274 86.2864 62.1426 85.4232 60.8871 85.4232C59.6315 85.4232 58.8467 86.2864 58.6113 87.542C56.1002 102.844 55.9432 103.629 39.8561 106.297C38.6005 106.533 37.7373 107.317 37.7373 108.573C37.7373 109.829 38.6005 110.613 39.7776 110.849C55.9432 113.674 55.9432 114.537 58.6113 129.682C58.8467 130.859 59.6315 131.723 60.8871 131.723ZM195.234 199.053C199.079 202.977 205.671 202.898 209.438 199.053C213.283 195.051 213.205 188.773 209.438 184.849L134.888 109.907C131.043 106.062 124.451 106.062 120.684 109.907C116.839 113.909 116.917 120.266 120.684 124.111L195.234 199.053ZM150.975 144.671L127.354 121.05C125.785 119.402 125.236 117.519 126.805 115.949C128.218 114.537 130.179 114.929 131.906 116.577L155.448 140.198L150.975 144.671ZM98.7114 201.015C100.359 201.015 101.536 199.916 101.772 198.112C104.283 176.924 105.303 176.296 126.884 172.921C128.845 172.608 130.022 171.587 130.022 169.861C130.022 168.213 128.845 167.114 127.276 166.8C105.382 162.563 104.283 162.72 101.772 141.61C101.536 139.805 100.359 138.707 98.7114 138.707C97.0635 138.707 95.8864 139.805 95.6509 141.532C92.9828 163.034 92.1981 163.818 70.2254 166.8C68.656 166.957 67.4004 168.213 67.4004 169.861C67.4004 171.509 68.5775 172.608 70.147 172.921C92.2766 177.159 92.9044 177.159 95.6509 198.268C95.8864 199.916 97.0635 201.015 98.7114 201.015Z" fill="#6A37FC"/>
</svg>
