<svg width="3645" height="1740" viewBox="0 0 3645 1740" fill="none" xmlns="http://www.w3.org/2000/svg">
<path fill-rule="evenodd" clip-rule="evenodd" d="M1635.52 191.087L1444.5 382.175L1520.02 384.007C1561.56 385.012 1596.19 386.484 1596.98 387.273C1598.51 388.8 1606.61 432.892 1605.48 433.511C1591.56 441.147 1561.62 466.139 1544.16 484.695C1517.03 513.535 1505.07 532.656 1492.89 566.709C1484.18 591.069 1483.87 593.547 1483.97 638.033C1484.06 680.437 1484.68 685.804 1491.66 705.169C1513.38 765.418 1560.13 813.779 1630.73 849.031C1668.08 867.676 1733.29 887.221 1773.23 891.743C1782.37 892.777 1791.26 894.491 1792.97 895.551C1795.12 896.879 1790.31 932.033 1777.54 1008.28C1767.33 1069.22 1758.96 1119.42 1758.93 1119.84C1758.9 1120.26 1717.81 1120.26 1667.61 1119.84L1576.34 1119.08L1565.74 1072.99C1559.9 1047.64 1523.73 889.502 1485.34 721.568C1446.95 553.634 1414.99 415.643 1414.31 414.92C1413.64 414.197 1364.55 462.144 1305.23 521.468L1197.37 629.328L1226.81 658.885L1256.26 688.442L1226.1 718.714L1195.94 748.982L1511.26 1064.38L1826.57 1379.78L1956.14 1250.15L2085.71 1120.52H1994.96H1904.21L1887.42 1018.98C1878.19 963.137 1869.99 914.073 1869.2 909.954L1867.77 902.464L1922.04 900.71C1951.88 899.742 1989.91 896.948 2006.54 894.5C2048.92 888.261 2113.32 876.076 2120.84 872.879C2133.08 867.671 2153.61 814.793 2162.07 766.642C2164.89 750.584 2164.69 747.683 2160.39 742.933C2154.52 736.446 2139.65 733.229 2126.72 735.654C2119.09 737.088 2115.45 740.545 2107.43 753.98C2094.83 775.094 2058.76 810.887 2037.4 823.472C2016.47 835.804 1987.99 846.222 1960.93 851.439C1938.21 855.82 1869.29 856.955 1863.14 853.052C1860.8 851.571 1854.24 819.341 1845.7 767.4L1832 684.122L1828.87 701.405C1827.15 710.91 1821.52 744.612 1816.36 776.298C1811.21 807.984 1806.01 835.011 1804.82 836.362C1801.4 840.222 1758.91 816.654 1737.62 799.088C1726.99 790.323 1712.4 775.131 1705.18 765.326C1693.38 749.293 1692.23 746.344 1693.71 735.977C1694.62 729.637 1703.79 666.766 1714.09 596.266C1724.39 525.765 1737.64 434.704 1743.53 393.91L1754.24 319.737H1831.38H1908.52L1909.92 326.218C1910.69 329.781 1918.45 381.956 1927.16 442.159C1973.38 761.538 1984.79 838.681 1985.48 836.408C1985.9 835.032 2001.27 749.028 2019.62 645.286C2037.98 541.542 2053.45 456.213 2054 455.662C2055.93 453.732 2079.07 485.165 2086.34 499.599C2090.38 507.612 2095.14 515.125 2096.91 516.289C2103.51 520.624 2129.56 518.633 2136.16 513.287L2142.58 508.085L2137.91 475.12C2135.34 456.99 2132.91 429.196 2132.52 413.353L2131.81 384.548L2172.04 383.742L2212.26 382.938L2020.85 191.468C1915.59 86.1619 1828.8 0 1828 0C1827.2 0 1740.58 85.989 1635.52 191.087ZM2227.55 504.81C2216.95 551.151 2181.62 705.725 2149.05 848.311C2116.47 990.896 2089.1 1110.15 2088.22 1113.32C2087.35 1116.49 2170.33 1035.48 2272.62 933.315L2458.62 747.55L2429.86 718.682L2401.1 689.816L2430.59 660.323L2460.07 630.829L2354.99 525.693C2297.2 467.867 2249.22 420.555 2248.37 420.555C2247.52 420.555 2238.15 458.468 2227.55 504.81ZM1075.74 1522.29C1046.9 1530.23 1021.17 1551.84 1009.21 1578.17C1004.62 1588.27 1003.13 1597.39 1003.05 1615.97C1002.96 1637.04 1004.07 1642.73 1010.95 1656.76C1020.55 1676.31 1036.82 1691.7 1058.76 1701.99C1073.42 1708.87 1078.18 1709.58 1109.5 1709.58C1128.95 1709.58 1149.24 1708.01 1155.91 1705.98C1165.99 1702.91 1168.44 1700.55 1172.32 1690.13C1180.18 1669.1 1181.2 1662.06 1176.4 1662.06C1174.04 1662.06 1170.56 1665.79 1168.67 1670.36C1160.72 1689.55 1138.41 1702.38 1112.98 1702.38C1080.48 1702.38 1054.1 1685.99 1039.84 1656.94C1032.54 1642.08 1031.77 1637.61 1031.94 1611.65C1032.16 1579.64 1035.66 1568.46 1050.9 1551.09C1055.91 1545.39 1065.27 1538.05 1071.7 1534.76C1086.51 1527.2 1115.34 1524.74 1132.52 1529.55C1146.62 1533.5 1161.38 1547.49 1164.48 1559.85C1165.47 1563.78 1168.23 1567 1170.62 1567C1174.26 1567 1174.64 1563.86 1172.94 1547.55C1171.82 1536.86 1170.05 1527.24 1169 1526.18C1161.42 1518.53 1098.89 1515.92 1075.74 1522.29ZM0.0736022 1524.51C0.730186 1526.49 3.75393 1528.57 6.79207 1529.13C9.82733 1529.69 14.4522 1532.04 17.0642 1534.36C21.0094 1537.85 64.7759 1630.61 92.6087 1694.46C96.5799 1703.57 101.524 1711.02 103.601 1711.02C105.677 1711.02 110.302 1703.47 113.879 1694.24C117.455 1685.02 125.32 1667.23 131.356 1654.72L142.331 1631.96L149.536 1647.73C153.501 1656.4 161.127 1674.23 166.486 1687.35C172.899 1703.06 177.616 1710.93 180.289 1710.4C182.52 1709.95 186.857 1703.1 189.921 1695.18C207.799 1648.97 256.712 1538.14 260.847 1534.48C263.534 1532.1 268.216 1529.69 271.251 1529.13C274.29 1528.57 277.313 1526.49 277.97 1524.51C278.874 1521.8 272.323 1520.91 251.332 1520.91C230.35 1520.91 223.787 1521.8 224.68 1524.51C225.331 1526.49 228.758 1528.53 232.294 1529.06C235.833 1529.57 239.413 1531.79 240.254 1533.98C241.581 1537.44 210.555 1618.93 192.107 1660.44L185.783 1674.67L180.744 1664.76C177.973 1659.31 170.817 1643.56 164.842 1629.75L153.982 1604.64L167.598 1576.46C184.749 1540.95 192.409 1530.82 203.857 1528.53C221.118 1525.08 209.187 1520.91 182.048 1520.91C154.221 1520.91 148.009 1523.72 163.719 1529.19C171.154 1531.79 172.254 1533.34 170.584 1538.84C167.263 1549.77 151.808 1585.56 149.328 1588.06C147.166 1590.25 123.183 1539.75 123.183 1533C123.183 1531.31 126.647 1529.52 130.881 1529.02C135.114 1528.52 139.108 1526.49 139.759 1524.51C140.657 1521.77 133.222 1520.91 108.784 1520.91C84.3467 1520.91 76.9112 1521.77 77.8126 1524.51C78.4634 1526.49 81.7866 1528.52 85.1934 1529.02C88.603 1529.53 93.8442 1533.06 96.8449 1536.87C102.319 1543.83 134.702 1613.51 134.702 1618.32C134.702 1619.74 128.971 1633.07 121.971 1647.96L109.236 1675.02L90.6419 1636.05C61.1071 1574.17 44.6925 1534.89 47.3188 1532.41C48.6551 1531.14 52.2346 1529.66 55.2698 1529.11C58.308 1528.56 61.3317 1526.49 61.9883 1524.51C62.9012 1521.77 55.4772 1520.91 31.031 1520.91C6.58472 1520.91 -0.83928 1521.77 0.0736022 1524.51ZM3115.95 1524.51C3116.6 1526.49 3120.5 1528.51 3124.62 1529C3139.29 1530.75 3139.73 1533.22 3139.73 1614.53C3139.73 1695.84 3139.29 1698.3 3124.62 1700.05C3120.5 1700.54 3116.6 1702.56 3115.95 1704.54C3115.05 1707.3 3123.35 1708.14 3151.24 1708.14C3179.14 1708.14 3187.44 1707.3 3186.54 1704.54C3185.88 1702.56 3182.21 1700.49 3178.38 1699.95C3164.19 1697.92 3164.2 1698.01 3164.2 1614.75C3164.2 1530.58 3164.38 1529.55 3179.18 1529.55C3184.42 1529.55 3187.24 1528.04 3187.24 1525.23C3187.24 1521.62 3181.29 1520.91 3151.01 1520.91C3123.3 1520.91 3115.05 1521.76 3115.95 1524.51ZM578.68 1575.86C573.764 1597.16 574.294 1598.03 585.052 1586.28C594.409 1576.07 595.564 1575.64 613.85 1575.64H632.9V1635.55C632.9 1698.95 632.206 1702.38 619.365 1702.38C615.722 1702.38 612.741 1703.68 612.741 1705.26C612.741 1706.99 624.26 1708.14 641.539 1708.14C658.817 1708.14 670.336 1706.99 670.336 1705.26C670.336 1703.68 667.143 1702.38 663.238 1702.38C659.169 1702.38 654.869 1700.01 653.159 1696.81C651.388 1693.5 650.178 1667.77 650.178 1633.44V1575.64H669.786C690.33 1575.64 697.959 1578.89 699.612 1588.36C700.142 1591.4 702.071 1594.38 703.897 1594.99C706.077 1595.72 707.566 1590.5 708.217 1579.83C709.176 1564.18 707.289 1557.91 703.482 1564.07C701.055 1568 590.691 1568.04 588.263 1564.12C584.664 1558.29 581.974 1561.59 578.68 1575.86ZM2126.93 1577.01C2124.52 1585.68 2123.16 1593.39 2123.91 1594.14C2124.66 1594.89 2129.49 1591.04 2134.65 1585.57C2143.51 1576.17 2145.04 1575.64 2163.27 1575.64H2182.53L2181.65 1636.24C2180.7 1701.16 2180.44 1702.24 2165.65 1702.34C2162.09 1702.36 2159.17 1703.68 2159.17 1705.26C2159.17 1707 2171.17 1708.14 2189.41 1708.14C2207.64 1708.14 2219.64 1707 2219.64 1705.26C2219.64 1703.68 2216.66 1702.38 2213.02 1702.38C2200.18 1702.38 2199.49 1698.95 2199.49 1635.55V1575.64H2217.56C2237.42 1575.64 2248.44 1580.84 2248.44 1590.21C2248.44 1593.29 2249.74 1595.8 2251.32 1595.8C2252.91 1595.8 2254.2 1594.04 2254.2 1591.89C2254.2 1589.73 2255.02 1581.63 2256.02 1573.88C2257.51 1562.23 2257.16 1560.42 2254 1563.4C2249.16 1567.95 2136.13 1568.64 2136.13 1564.12C2136.13 1562.53 2135.05 1561.24 2133.73 1561.24C2132.4 1561.24 2129.34 1568.33 2126.93 1577.01ZM345.463 1570.75C341.998 1574.43 339.165 1578.75 339.165 1580.34C339.165 1584.99 296.153 1694.37 292.674 1698.56C290.929 1700.66 286.422 1702.38 282.658 1702.38C278.891 1702.38 275.81 1703.68 275.81 1705.26C275.81 1706.94 285.408 1708.14 298.848 1708.14C312.288 1708.14 321.886 1706.94 321.886 1705.26C321.886 1703.68 319.254 1702.38 316.037 1702.38C307.139 1702.38 306.773 1696.98 314.191 1674.99L320.979 1654.85H343.743H366.505L373.005 1675.02C380.135 1697.15 379.74 1702.38 370.931 1702.38C367.715 1702.38 365.082 1703.68 365.082 1705.26C365.082 1706.97 375.642 1708.14 391 1708.14C406.358 1708.14 416.918 1706.97 416.918 1705.26C416.918 1703.68 414.528 1702.38 411.605 1702.38C408.682 1702.38 404.253 1700.11 401.762 1697.34C399.271 1694.57 387.858 1664.43 376.406 1630.37C364.95 1596.31 354.718 1567.45 353.67 1566.24C352.619 1565.03 348.924 1567.06 345.463 1570.75ZM484.483 1567.04C479.674 1568.52 471.898 1573.74 467.204 1578.63C460.417 1585.72 458.674 1590.11 458.674 1600.1C458.674 1615.3 465.148 1624.99 484.69 1639.01C510.006 1657.18 517.709 1666.15 517.709 1677.45C517.709 1684.07 515.285 1690.48 510.815 1695.68C497.563 1711.09 470.214 1704.15 460.114 1682.83C457.739 1677.81 454.821 1673.68 453.635 1673.64C450.571 1673.55 450.957 1689.12 454.228 1697.73C457.715 1706.9 476.039 1712.31 495.754 1709.99C519.803 1707.15 533.079 1693.85 533.053 1672.63C533.03 1654.31 525.522 1643.11 503.875 1629.09C479.086 1613.03 473.361 1606.52 473.361 1594.36C473.361 1579.7 481.191 1572.76 497.741 1572.76C509.387 1572.76 512.514 1574.04 518.616 1581.29C522.568 1585.99 526.392 1591.5 527.118 1593.54C527.846 1595.58 529.393 1596.36 530.559 1595.28C533.957 1592.13 529.197 1570.48 524.73 1568.77C516.151 1565.47 492.851 1564.48 484.483 1567.04ZM1279.4 1566.64C1255.9 1572.82 1234.9 1591.44 1227.75 1612.41C1209.82 1665.05 1247.61 1714.5 1302.53 1710.25C1343.52 1707.08 1369.99 1678 1369.99 1636.13C1369.99 1606.63 1357.29 1585.32 1332.03 1572.43C1319.88 1566.23 1292.45 1563.21 1279.4 1566.64ZM2012.3 1568.74C1992.21 1574.12 1976.84 1584.25 1967.9 1597.99C1947.75 1628.97 1952.65 1666.68 1980.04 1691.43C1994.84 1704.8 2008.87 1709.38 2035.34 1709.49C2068.74 1709.63 2078.2 1706.78 2083.07 1695.1C2085.33 1689.7 2087.18 1682.52 2087.18 1679.15C2087.18 1674.04 2085.14 1675.25 2074.94 1686.45C2056.86 1706.28 2035.2 1709.49 2008.87 1696.26C1986.82 1685.18 1976.27 1661.75 1978.39 1628.62C1980.76 1591.7 2000.64 1572.75 2036.97 1572.77C2057.29 1572.78 2070.03 1579.33 2075.52 1592.58C2077.56 1597.52 2080.37 1601.56 2081.76 1601.56C2084.81 1601.56 2085.08 1578.46 2082.09 1573.76C2079.75 1570.08 2050.78 1564.01 2036.97 1564.31C2032.11 1564.41 2021.01 1566.41 2012.3 1568.74ZM2455.39 1565.98C2451.21 1566.72 2440.89 1571.46 2432.45 1576.52C2410.84 1589.48 2400.13 1607.5 2398.67 1633.36C2397.32 1657.35 2401.51 1670.86 2414.9 1685.68C2448.84 1723.26 2510.08 1717.78 2535.18 1674.92C2544.39 1659.21 2547.43 1633.28 2542.23 1614.72C2537.81 1598.93 2522.35 1580.28 2507.35 1572.62C2496.12 1566.89 2469.55 1563.5 2455.39 1565.98ZM2821.35 1566.71C2801.93 1572.97 2792.71 1584.26 2792.71 1601.8C2792.71 1615.89 2802.27 1628.29 2825.46 1644.33C2848.33 1660.15 2855 1670.31 2851.86 1684.61C2849.05 1697.4 2840.78 1703.34 2825.77 1703.34C2811.68 1703.34 2801.58 1696.44 2793.81 1681.5C2787.96 1670.26 2784.15 1671.69 2786.1 1684.38C2788.57 1700.49 2791.69 1704.71 2803.55 1708C2819.39 1712.4 2832.95 1711.59 2846.52 1705.43C2862.24 1698.29 2868.7 1686.17 2866.88 1667.25C2865.32 1650.98 2859.65 1643.77 2835.46 1627.24C2807.37 1608.06 2801.3 1595.33 2813.08 1580.35C2817.94 1574.17 2821.45 1572.76 2831.93 1572.76C2845.02 1572.76 2852.68 1577.78 2860.77 1591.65C2862.57 1594.73 2864.75 1596.57 2865.63 1595.75C2868.65 1592.91 2863.99 1570.22 2860.07 1568.72C2852.04 1565.63 2828.47 1564.41 2821.35 1566.71ZM3490.04 1567.21C3433.96 1578.24 3410.78 1643.25 3448.12 1684.78C3464.57 1703.09 3480.73 1709.58 3509.77 1709.58C3543.31 1709.58 3552.64 1706.75 3557.51 1695.1C3561.94 1684.5 3562.93 1673.51 3559.45 1673.69C3558.26 1673.75 3554.7 1677.86 3551.53 1682.81C3541.68 1698.22 3532.13 1703.34 3513.24 1703.34C3491.89 1703.34 3474.63 1694.38 3462.38 1676.93C3454.07 1665.09 3453.62 1662.99 3453.62 1636.39C3453.62 1610.46 3454.23 1607.42 3461.73 1596.09C3472.11 1580.39 3488.05 1572.9 3511.21 1572.83C3531.74 1572.77 3544.42 1579.24 3549.95 1592.58C3556.83 1609.2 3561.29 1600.67 3556.98 1579.12C3555.34 1570.94 3554.04 1570.16 3537.3 1567.24C3516.99 1563.7 3507.93 1563.7 3490.04 1567.21ZM750.97 1569.12C750.97 1570.37 753.861 1572.67 757.397 1574.24C766.609 1578.31 768.778 1594.6 767.482 1650.05C766.313 1700.03 765.648 1702.24 751.689 1702.34C748.124 1702.36 745.21 1703.71 745.21 1705.33C745.21 1707.25 763.796 1708 799.064 1707.49L852.921 1706.7L857.16 1693.04C859.49 1685.53 860.348 1678.4 859.067 1677.2C857.782 1676 856.138 1676.69 855.41 1678.72C854.684 1680.76 850.86 1686.27 846.909 1690.97C840.026 1699.15 838.756 1699.5 816.084 1699.5C801.532 1699.5 791.108 1698.17 788.982 1696.05C786.791 1693.85 785.527 1682.8 785.527 1665.8V1639.01L802.085 1639.05C820.541 1639.1 824.691 1640.79 826.229 1648.85C826.808 1651.89 828.757 1654.87 830.563 1655.47C832.824 1656.22 833.843 1649.8 833.843 1634.82C833.843 1611.87 831.263 1607.41 826.275 1621.73C823.341 1630.14 822.77 1630.37 804.395 1630.37H785.527V1603V1575.64H807.125C824.884 1575.64 829.748 1576.67 834.482 1581.4C837.65 1584.57 840.242 1589.11 840.242 1591.48C840.242 1593.86 841.921 1595.8 843.974 1595.8C846.727 1595.8 847.294 1592.21 846.134 1582.12L844.562 1568.44L797.766 1567.65C772.029 1567.21 750.97 1567.88 750.97 1569.12ZM1413.31 1569.25C1413.31 1570.48 1417.19 1572.96 1421.92 1574.75C1426.84 1576.6 1431.78 1581.29 1433.44 1585.65C1436.73 1594.3 1437.24 1640.06 1434.46 1675.9C1432.63 1699.32 1432.42 1699.86 1424.39 1701.46C1408.23 1704.7 1416.63 1708.14 1440.67 1708.14C1455.07 1708.14 1465.15 1706.96 1465.15 1705.26C1465.15 1703.68 1461.95 1702.38 1458.05 1702.38C1446.38 1702.38 1444.79 1694.82 1445.64 1643.6L1446.43 1596.22L1496.83 1654.16L1547.22 1712.1L1548.66 1646.51C1549.99 1585.84 1550.52 1580.62 1555.69 1576.84C1558.77 1574.6 1563.05 1572.76 1565.22 1572.76C1567.39 1572.76 1568.36 1571.46 1567.38 1569.88C1565.17 1566.3 1519.86 1566.02 1519.86 1569.6C1519.86 1571.03 1523.67 1573.53 1528.33 1575.15C1539.25 1578.96 1540.54 1586.02 1539.44 1636.01L1538.58 1674.77L1504.03 1636.44C1485.02 1615.35 1464.3 1591.1 1457.97 1582.55L1446.48 1567H1429.89C1420.77 1567 1413.31 1568.01 1413.31 1569.25ZM1606.26 1569.88C1606.26 1571.46 1608.26 1572.76 1610.71 1572.76C1613.15 1572.76 1618.34 1575.94 1622.22 1579.83C1629.08 1586.68 1629.29 1588.18 1629.27 1628.08C1629.26 1650.73 1628.42 1676.13 1627.41 1684.53C1625.74 1698.45 1624.84 1699.96 1617.35 1701.46C1601.18 1704.7 1609.57 1708.14 1633.61 1708.14C1657.87 1708.14 1666.02 1704.69 1649.53 1701.39C1638.2 1699.12 1637.56 1695.61 1638.55 1641.13L1639.37 1595.72L1689.49 1653.41C1717.05 1685.15 1740.16 1710.55 1740.84 1709.86C1741.53 1709.18 1741.93 1684.74 1741.74 1655.56C1741.29 1588.27 1742.64 1579.02 1753.59 1574.41C1765.95 1569.22 1760.5 1567 1735.36 1567C1713.29 1567 1705.77 1570.37 1719.92 1573.92C1731.64 1576.86 1733.17 1583.9 1732.32 1630.88L1731.53 1674.69L1696.67 1635.74C1677.5 1614.31 1656.81 1590.08 1650.7 1581.89L1639.58 1567H1622.92C1613.73 1567 1606.26 1568.29 1606.26 1569.88ZM1804.96 1569.88C1804.96 1571.46 1806.81 1572.76 1809.07 1572.76C1811.34 1572.76 1815.22 1574.8 1817.71 1577.28C1821.51 1581.08 1822.24 1590.63 1822.24 1636.53C1822.24 1668.73 1821.01 1693.53 1819.26 1696.81C1817.55 1700.01 1813.25 1702.38 1809.18 1702.38C1805.27 1702.38 1802.08 1703.68 1802.08 1705.26C1802.08 1707.08 1821.61 1708.14 1854.9 1708.14H1907.72L1911.06 1697.01C1912.89 1690.88 1914.32 1683.43 1914.24 1680.44C1914.11 1675.76 1913.42 1675.99 1909.2 1682.16C1898.14 1698.31 1895.54 1699.5 1871.4 1699.5C1840.92 1699.5 1839.52 1697.97 1839.52 1664.73V1639.01H1858.49C1876.92 1639.01 1877.55 1639.26 1880.71 1647.65C1886.03 1661.74 1888.47 1657.65 1888.47 1634.69C1888.47 1612.81 1884.87 1605.91 1881.71 1621.73C1879.98 1630.35 1879.92 1630.37 1859.75 1630.37H1839.52V1603V1575.64H1862.34C1883.39 1575.64 1885.63 1576.22 1890.95 1582.99C1894.13 1587.03 1897.28 1591.89 1897.96 1593.79C1900.83 1601.79 1903.15 1592.42 1901.32 1580.23L1899.34 1567H1852.15C1822.61 1567 1804.96 1568.08 1804.96 1569.88ZM2297.4 1569.25C2297.4 1570.48 2301.29 1572.96 2306.04 1574.76L2314.68 1578.02V1636.74C2314.68 1697.54 2313.78 1702.38 2302.58 1702.38C2299.73 1702.38 2297.4 1703.68 2297.4 1705.26C2297.4 1706.98 2308.44 1708.14 2324.76 1708.14C2341.07 1708.14 2352.11 1706.98 2352.11 1705.26C2352.11 1703.68 2349.61 1702.38 2346.56 1702.38C2333.3 1702.38 2331.95 1696.71 2331.99 1640.97C2332.01 1612.16 2332.83 1585.62 2333.81 1581.97C2334.97 1577.63 2338.44 1574.78 2343.85 1573.69C2360.73 1570.32 2351.27 1567 2324.76 1567C2309.71 1567 2297.4 1568.01 2297.4 1569.25ZM2588.32 1569.16C2588.35 1570.35 2592.56 1573.26 2597.68 1575.64L2606.97 1579.96L2607.75 1637.2C2608.57 1696.69 2607.59 1702.38 2596.54 1702.38C2593.57 1702.38 2591.13 1703.68 2591.13 1705.26C2591.13 1706.96 2601.21 1708.14 2615.61 1708.14C2630.01 1708.14 2640.09 1706.96 2640.09 1705.26C2640.09 1703.68 2637.01 1702.38 2633.24 1702.38C2629.48 1702.38 2624.98 1700.68 2623.26 1698.61C2619.44 1694.01 2615.45 1621.09 2618.21 1606.37L2620.19 1595.79L2662.54 1644.16C2685.83 1670.76 2708.36 1696.68 2712.61 1701.77C2716.87 1706.86 2721.08 1711.02 2721.97 1711.02C2722.87 1711.02 2723.62 1683.48 2723.64 1649.81C2723.66 1616.15 2724.43 1585.8 2725.35 1582.37C2726.27 1578.94 2730.14 1575.35 2733.95 1574.39C2748.29 1570.79 2740.28 1567 2718.32 1567C2693.06 1567 2686.93 1569.61 2701.04 1574.36C2713.35 1578.51 2714.33 1582.67 2714.67 1632.88C2714.94 1671.23 2714.61 1673.99 2710.15 1670.33C2701.07 1662.86 2637.6 1590.51 2629.82 1578.75C2622.19 1567.22 2621.73 1567 2605.15 1567C2595.86 1567 2588.28 1567.97 2588.32 1569.16ZM3232.02 1569.65C3231.12 1571.1 3234.3 1573.15 3239.08 1574.2C3243.85 1575.25 3249.05 1578.51 3250.62 1581.45C3254.45 1588.61 3254.35 1689.61 3250.49 1696.81C3248.85 1699.88 3244.97 1702.38 3241.86 1702.38C3238.74 1702.38 3236.2 1703.68 3236.2 1705.26C3236.2 1706.96 3246.28 1708.14 3260.67 1708.14C3275.07 1708.14 3285.15 1706.96 3285.15 1705.26C3285.15 1703.68 3282.24 1702.36 3278.67 1702.34C3264.27 1702.24 3263.74 1700.35 3262.64 1645.63L3261.61 1594.36L3268.81 1601.56C3272.76 1605.53 3295.68 1631.45 3319.74 1659.17C3343.8 1686.9 3364.65 1710.02 3366.08 1710.54C3367.56 1711.09 3368.69 1684.01 3368.71 1647.17C3368.73 1611.79 3369.71 1581.4 3370.87 1579.63C3372.03 1577.86 3375.9 1575.51 3379.46 1574.39C3392.9 1570.2 3385.1 1567 3361.47 1567C3337.23 1567 3329.17 1570.58 3345.39 1574.15C3350.01 1575.16 3354.67 1578.18 3355.76 1580.86C3358.86 1588.53 3361.18 1673.58 3358.28 1673.57C3353.39 1673.56 3267.87 1575.26 3267.87 1569.64C3267.87 1566.19 3234.16 1566.19 3232.02 1569.65ZM1321.39 1579.31C1341.35 1592.77 1352.26 1621.66 1349.06 1652.63C1345.74 1684.79 1326.99 1703.81 1298.98 1703.4C1278.24 1703.1 1263.7 1693.31 1253.84 1673C1235.25 1634.75 1243.89 1592.54 1273.64 1576.11C1284.21 1570.28 1310.62 1572.05 1321.39 1579.31ZM2498.75 1581.24C2521.86 1597.7 2531.25 1647.66 2516.77 1677.07C2508.02 1694.86 2494.06 1703.62 2474.49 1703.62C2446.51 1703.62 2426.29 1683.62 2420.61 1650.35C2414.93 1617.04 2422.67 1593.78 2444.33 1579.06C2457.79 1569.91 2484.35 1570.98 2498.75 1581.24ZM354.41 1616.86C358.695 1630.02 362.203 1641.69 362.203 1642.78C362.203 1643.88 353.67 1644.77 343.245 1644.77C332.818 1644.77 324.717 1643.74 325.247 1642.49C325.774 1641.23 329.993 1629.56 334.623 1616.56C339.254 1603.56 343.847 1592.92 344.829 1592.92C345.811 1592.92 350.125 1603.69 354.41 1616.86ZM2928.64 1677.03C2922.52 1683.15 2924.93 1690.14 2935.26 1696.24C2948.71 1704.18 2949.18 1715.92 2936.48 1726.61C2931.61 1730.71 2926.42 1734.07 2924.96 1734.07C2923.5 1734.07 2922.3 1735.36 2922.3 1736.95C2922.3 1745.79 2947.33 1733.87 2955.74 1721.02C2963.16 1709.69 2962.27 1689.61 2953.96 1680.76C2946.74 1673.07 2934.41 1671.26 2928.64 1677.03ZM3619.2 1685.1C3612.27 1692.03 3612 1696.16 3617.93 1704.62C3622.87 1711.67 3635.94 1713.3 3641.67 1707.57C3646.56 1702.67 3645.95 1689.22 3640.6 1683.86C3634.43 1677.7 3626.12 1678.18 3619.2 1685.1Z" fill="white"/>
</svg>
