<svg width="459" height="337" viewBox="0 0 459 337" fill="none" xmlns="http://www.w3.org/2000/svg">
<path d="M175.705 117.233L163.84 161.227H146.945L128.537 90.7684H147.043L156.564 138.376H156.955L168.723 90.7684H183.078L194.846 138.376H195.236L204.758 90.7684H223.264L204.855 161.227H187.961L176.096 117.233H175.705ZM244.41 119.089C239.088 119.089 235.133 123.044 234.693 128.561H254.029C253.736 122.897 249.879 119.089 244.41 119.089ZM254.42 144.431H270.045C268.385 155.417 258.619 162.497 244.703 162.497C227.76 162.497 217.652 152.097 217.652 134.909C217.652 117.722 227.857 106.784 244.117 106.784C260.133 106.784 270.338 117.282 270.338 133.542V138.425H234.449V139.499C234.449 145.847 238.697 150.241 244.947 150.241C249.586 150.241 253.199 148.044 254.42 144.431ZM129.611 232.817H146.652C147.287 237.651 152.707 240.874 159.348 240.874C166.33 240.874 170.871 237.749 170.871 233.501C170.871 229.595 167.893 227.69 159.885 226.03L150.656 224.224C137.668 221.733 130.979 214.702 130.979 204.009C130.979 190.337 142.697 181.548 159.006 181.548C176.633 181.548 187.033 190.093 187.229 203.325H170.725C170.383 198.198 165.646 195.122 159.201 195.122C152.951 195.122 148.801 197.954 148.801 202.251C148.801 206.059 151.926 208.159 159.299 209.673L168.43 211.382C182.346 214.067 188.596 220.366 188.596 231.499C188.596 245.513 177.023 254.448 158.859 254.448C140.891 254.448 129.807 246.489 129.611 232.817ZM192.115 253.227V182.768H209.059V210.063H209.4C212.135 202.934 217.945 199.028 226.051 199.028C237.916 199.028 244.508 206.548 244.508 219.097V253.227H227.223V222.856C227.223 216.85 224.244 213.14 218.531 213.14C212.721 213.14 209.449 217.29 209.449 223.247V253.227H192.115ZM270.684 242.095C275.957 242.095 280.547 238.872 280.547 234.136V230.474L270.879 231.108C266.338 231.45 263.799 233.55 263.799 236.675C263.799 240.044 266.582 242.095 270.684 242.095ZM264.531 254.009C254.668 254.009 246.66 247.466 246.66 237.847C246.66 227.886 254.326 222.319 268.096 221.489L280.547 220.757V217.729C280.547 213.481 277.52 211.138 272.979 211.138C268.291 211.138 265.312 213.579 264.824 216.85H249.248C249.736 205.962 259.014 198.784 273.857 198.784C288.066 198.784 297.49 206.059 297.49 216.753V253.227H280.645V245.659H280.303C277.422 251.03 270.928 254.009 264.531 254.009ZM301.791 253.227V200.054H318.637V210.112H318.979C320.932 202.934 325.229 199.272 331.479 199.272C333.236 199.272 334.701 199.516 335.873 199.956V214.702C334.408 214.116 332.406 213.725 330.355 213.725C323.08 213.725 319.125 217.827 319.125 225.249V253.227H301.791ZM360.926 211.089C355.604 211.089 351.648 215.044 351.209 220.561H370.545C370.252 214.897 366.395 211.089 360.926 211.089ZM370.936 236.431H386.561C384.9 247.417 375.135 254.497 361.219 254.497C344.275 254.497 334.168 244.097 334.168 226.909C334.168 209.722 344.373 198.784 360.633 198.784C376.648 198.784 386.854 209.282 386.854 225.542V230.425H350.965V231.499C350.965 237.847 355.213 242.241 361.463 242.241C366.102 242.241 369.715 240.044 370.936 236.431Z" fill="#EB8953"/>
<g clip-path="url(#clip0_191_7956)">
<path d="M86.7579 282.176C84.475 287.916 82.1921 293.628 79.852 299.346C79.6466 299.859 79.4069 300.354 79.1843 300.856L78.8133 300.935L63.7801 268.262L79.3612 264.223V263.918C79.0941 263.827 78.8157 263.772 78.5336 263.755C75.9996 263.965 73.4655 264.191 70.9314 264.431C68.4659 264.662 66.0003 264.887 63.5119 265.18C62.7985 265.265 62.5131 265.028 62.2677 264.403C59.1857 256.601 56.0466 248.821 52.9875 241.008C51.652 237.583 50.4706 234.096 49.2207 230.637C49.1065 230.333 49.0266 230.017 48.8953 229.572L76.7016 222.384L76.6274 222.046C74.5099 222.249 72.3868 222.446 70.2694 222.655C67.2749 222.951 64.2785 223.257 61.2803 223.573L52.1942 224.508C50.7616 224.654 49.3405 224.79 47.9022 224.959C47.1717 225.043 47.0804 224.508 46.9377 224.052C45.7962 220.458 44.6034 216.869 43.479 213.264C40.6444 204.153 38.1712 194.952 36.0595 185.661C35.991 185.34 35.9567 185.013 35.8882 184.562L64.0141 177.301L63.9742 176.991C62.7071 177.093 61.4344 177.166 60.173 177.29C57.1082 177.588 54.0434 177.91 50.9842 178.225L41.9951 179.171C39.9005 179.391 37.8002 179.583 35.717 179.808C35.0835 179.876 34.7982 179.639 34.6954 179.031C34.1247 175.741 33.554 172.457 32.9832 169.161C32.772 167.894 32.6465 166.609 32.4125 165.342C32.3155 164.778 32.4125 164.485 33.0802 164.424C35.7113 164.193 38.3424 163.922 40.9735 163.669C44.3066 163.349 47.6397 163.032 50.9728 162.717C53.4041 162.491 55.8412 162.289 58.2725 162.074C59.2391 162.019 60.1963 161.856 61.1262 161.59C60.8258 161.475 60.514 161.392 60.1959 161.342C56.2464 161.122 52.2969 160.931 48.3474 160.7C43.07 160.392 37.7888 160.056 32.5038 159.692C32.3507 159.661 32.2077 159.593 32.0873 159.495C31.9668 159.397 31.8727 159.271 31.8132 159.128C31.6249 157.438 31.4479 155.748 31.3966 154.086C31.2824 150.515 31.0827 146.932 31.2253 143.383C31.3737 139.44 31.8588 135.547 32.2127 131.632C32.2698 131.001 32.5666 130.708 33.3085 130.658C37.1838 130.387 41.0534 130.016 44.923 129.711C47.8623 129.48 50.8073 129.311 53.7409 129.075C57.445 128.776 61.1604 128.427 64.8474 128.123C66.9134 127.954 68.9738 127.824 71.0399 127.678L71.2054 127.413C70.9445 127.03 70.6484 126.672 70.3207 126.343C68.5208 125.098 66.3931 124.398 64.1968 124.326C60.0247 124.016 55.8355 123.718 51.6406 123.763C47.2288 123.83 42.8227 124.326 38.4109 124.647C36.8871 124.76 35.3632 124.917 33.6338 125.075C37.2637 111.629 44.7575 101.748 58.5978 97.1623C58.1527 96.6271 57.8388 96.2215 57.4906 95.8497C50.0368 87.704 42.7656 79.4062 36.2535 70.5C33.2115 66.3314 30.3122 62.0501 28.2632 57.3012C27.4369 55.5912 26.9931 53.7257 26.9619 51.8313C26.9484 51.2565 27.072 50.6866 27.3227 50.1676C27.5735 49.6485 27.9444 49.195 28.4054 48.8436C28.8665 48.4921 29.4048 48.2526 29.9769 48.1443C30.5491 48.0361 31.139 48.0621 31.6991 48.2204C34.1019 48.7556 35.8711 50.2822 37.5662 51.9102C41.2246 55.4197 44.124 59.5264 46.8692 63.7401C53.2557 73.542 58.6092 83.8959 63.723 94.3794C63.9456 94.8301 64.2938 95.5061 64.6191 95.5624C65.42 95.5959 66.2209 95.495 66.9876 95.2639C67.093 94.9724 67.093 94.654 66.9876 94.3625C65.8975 92.1092 64.7447 89.8559 63.6488 87.5632C58.9973 77.8965 54.5171 68.1453 51.0927 57.9829C49.7743 54.0227 48.5415 49.9836 48.062 45.7868C47.8534 43.978 47.9111 42.1489 48.2333 40.3563C48.804 37.3763 51.6577 36.3117 54.2659 37.9509C55.7899 38.996 57.0463 40.3769 57.9358 41.9844C60.7895 46.6149 62.5302 51.7074 64.0769 56.8562C66.8975 66.524 69.133 76.3489 70.7716 86.2788C71.194 88.718 71.5935 91.1685 72.0101 93.602C72.2327 94.9033 72.2498 94.909 73.8536 94.7005C73.5968 92.9767 73.3456 91.3206 73.1002 89.6588C72.4439 85.1127 71.7647 80.5667 71.154 76.015C70.6461 72.2801 70.1667 68.5452 69.79 64.7935C69.4247 61.2107 69.0937 57.6167 68.9453 54.0227C68.717 48.4964 68.5401 42.9646 68.5743 37.4383C68.5313 33.7592 69.0646 30.0957 70.1552 26.5774C70.5497 25.3103 71.1263 24.1056 71.8675 23.0002C73.6824 20.4089 76.8614 20.3244 78.9902 22.6904C80.246 24.214 81.1288 26.0029 81.57 27.9181C82.4682 31.2112 82.9663 34.598 83.0539 38.0073C83.168 41.0492 83.3221 44.1025 83.2308 47.1388C83.0881 51.6454 82.8141 56.1915 82.4717 60.7094C82.1407 65.0244 81.724 69.3433 81.2218 73.6659C80.6511 78.3302 79.9833 82.9721 79.3327 87.6195C79.0073 89.9742 78.6307 92.3177 78.2768 94.6498C79.4639 94.9822 79.5153 94.9315 79.8121 93.6527C81.1533 87.9124 82.4261 82.1552 83.8757 76.4431C86.0331 67.9312 88.5101 59.4982 91.9003 51.3638C93.3842 47.8035 94.988 44.2827 97.4364 41.252C98.3573 40.0734 99.4748 39.058 100.741 38.2495C103.412 36.6271 106.209 38.1368 106.659 41.207C107.127 44.3841 106.351 47.4036 105.518 50.3892C103.412 57.7857 100.29 64.7991 96.7915 71.6323C92.9105 79.1978 88.8012 86.645 84.7775 94.1654C84.5949 94.509 84.4179 94.8583 84.1383 95.4103C85.0372 95.6208 85.9482 95.777 86.8664 95.8779C87.1175 95.8779 87.4371 95.4216 87.6483 95.1061C91.2097 89.0278 94.6683 82.8819 98.3268 76.86C102.293 70.1585 106.822 63.7969 111.865 57.842C114.182 55.1662 116.585 52.5411 119.746 50.8173C120.85 50.2051 122.075 49.8361 123.336 49.7358C125.973 49.5668 127.577 51.6454 127.143 54.2424C126.675 57.0196 125.431 59.4588 124.004 61.8304C120.708 67.1788 116.873 72.1842 112.555 76.7698C106.374 83.4509 99.999 89.9517 93.7209 96.5313L92.7621 97.5228C93.0072 97.687 93.2626 97.8356 93.5269 97.9678C102.43 101.635 108.429 108.153 112.361 116.693C114.992 122.539 116.687 128.754 117.384 135.114C117.806 138.623 118.046 142.15 118.377 145.67C118.428 146.234 118.223 146.521 117.606 146.572C113.371 146.891 109.133 147.229 104.89 147.586C100.655 147.952 96.4262 148.357 92.1914 148.741C91.2382 148.825 90.2908 148.893 89.3377 148.971V149.225C90.0054 149.309 90.6675 149.433 91.341 149.478C93.8465 149.642 96.3577 149.76 98.869 149.929C102.242 150.154 105.609 150.43 108.988 150.661C111.494 150.83 114.005 150.966 116.51 151.118C116.912 151.101 117.314 151.153 117.698 151.27C117.983 151.394 118.365 151.76 118.36 152.013C118.302 154.826 118.202 157.643 118.057 160.463C117.949 162.508 117.806 164.553 117.583 166.592C117.176 170.37 116.733 174.143 116.254 177.91C116.025 179.746 115.649 181.566 115.432 183.396C115.34 184.157 114.969 184.264 114.359 184.179L106.203 183.092C102.425 182.589 98.6426 182.093 94.8567 181.605C92.5395 181.301 90.2166 180.985 87.8937 180.692C87.3716 180.605 86.8355 180.65 86.3356 180.822C86.6324 180.929 86.9063 181.059 87.2202 181.149C95.9011 183.667 104.576 186.219 113.269 188.68C114.227 188.956 114.456 189.278 114.233 190.263C112.721 197.023 111.277 203.783 109.816 210.515C109.753 210.797 86.9577 281.928 86.8721 282.514" fill="#EB8953"/>
</g>
<defs>
<clipPath id="clip0_191_7956">
<rect width="100.187" height="279.934" fill="white" transform="translate(27 21)"/>
</clipPath>
</defs>
</svg>
