<svg width="459" height="337" viewBox="0 0 459 337" fill="none" xmlns="http://www.w3.org/2000/svg">
<g filter="url(#filter0_dd_178_4942)">
<path d="M210.34 267L201.46 225H206.68L213.82 261.9L219.4 235.92H225.04L230.68 261.9L237.76 225H242.98L234.28 267H227.2L222.28 241.86L217.42 267H210.34ZM252.759 267.42C249.959 267.42 247.779 266.72 246.219 265.32C244.699 263.88 243.939 261.9 243.939 259.38V243.42C243.939 240.9 244.699 238.94 246.219 237.54C247.779 236.1 249.959 235.38 252.759 235.38C255.559 235.38 257.719 236.1 259.239 237.54C260.799 238.94 261.579 240.9 261.579 243.42V259.38C261.579 261.9 260.799 263.88 259.239 265.32C257.719 266.72 255.559 267.42 252.759 267.42ZM252.759 263.7C254.039 263.7 255.039 263.34 255.759 262.62C256.519 261.86 256.899 260.78 256.899 259.38V243.42C256.899 242.02 256.519 240.96 255.759 240.24C255.039 239.48 254.039 239.1 252.759 239.1C251.479 239.1 250.459 239.48 249.699 240.24C248.979 240.96 248.619 242.02 248.619 243.42V259.38C248.619 260.78 248.979 261.86 249.699 262.62C250.459 263.34 251.479 263.7 252.759 263.7ZM267.58 235.8H271.3L271.84 238.02L273.34 237.3C274.62 236.66 275.68 236.18 276.52 235.86C277.4 235.54 278.28 235.38 279.16 235.38V238.92C278.64 238.92 277.94 239.08 277.06 239.4C276.18 239.68 274.62 240.36 272.38 241.44V267H267.58V235.8ZM283.695 267V225H288.495V267H283.695ZM303.567 267C301.047 267 299.007 266.26 297.447 264.78C295.887 263.3 295.107 261.32 295.107 258.84V243.9C295.107 242.18 295.567 240.72 296.487 239.52C297.447 238.32 298.627 237.5 300.027 237.06L308.067 234.24V225H312.867V267H303.567ZM308.067 263.4V238.2L302.727 240C301.687 240.32 300.947 240.84 300.507 241.56C300.107 242.24 299.907 243.34 299.907 244.86V258.84C299.907 260.28 300.327 261.4 301.167 262.2C302.007 263 303.147 263.4 304.587 263.4H308.067ZM329.884 225H340.504C347.824 225 351.484 228.72 351.484 236.16C351.484 240.04 350.424 243.08 348.304 245.28C346.224 247.44 343.244 248.52 339.364 248.52H335.164V267H329.884V225ZM339.004 244.56C341.284 244.56 343.044 243.78 344.284 242.22C345.564 240.66 346.204 238.64 346.204 236.16C346.204 233.8 345.584 232.02 344.344 230.82C343.144 229.58 341.364 228.96 339.004 228.96H335.164V244.56H339.004ZM363.911 267.42C361.111 267.42 358.931 266.72 357.371 265.32C355.851 263.88 355.091 261.9 355.091 259.38V243.42C355.091 240.9 355.851 238.94 357.371 237.54C358.931 236.1 361.111 235.38 363.911 235.38C366.711 235.38 368.871 236.1 370.391 237.54C371.951 238.94 372.731 240.9 372.731 243.42V259.38C372.731 261.9 371.951 263.88 370.391 265.32C368.871 266.72 366.711 267.42 363.911 267.42ZM363.911 263.7C365.191 263.7 366.191 263.34 366.911 262.62C367.671 261.86 368.051 260.78 368.051 259.38V243.42C368.051 242.02 367.671 240.96 366.911 240.24C366.191 239.48 365.191 239.1 363.911 239.1C362.631 239.1 361.611 239.48 360.851 240.24C360.131 240.96 359.771 242.02 359.771 243.42V259.38C359.771 260.78 360.131 261.86 360.851 262.62C361.611 263.34 362.631 263.7 363.911 263.7ZM378.733 230.7V225.9H383.533V230.7H378.733ZM378.733 267V235.8H383.533V267H378.733ZM390.745 235.8H394.465L395.005 237.54L397.465 236.82C399.145 236.3 400.465 235.94 401.425 235.74C402.425 235.5 403.365 235.38 404.245 235.38C405.685 235.38 406.745 235.88 407.425 236.88C408.105 237.88 408.445 239.18 408.445 240.78V267H403.645V242.34C403.645 241.18 403.565 240.38 403.405 239.94C403.245 239.46 402.845 239.22 402.205 239.22C401.885 239.22 399.665 239.86 395.545 241.14V267H390.745V235.8ZM423.82 267C421.62 267 419.88 266.34 418.6 265.02C417.32 263.7 416.68 261.92 416.68 259.68V239.4H413.08V235.8H416.68V226.74L421.48 224.94V235.8H426.28V239.4H421.48V260.1C421.48 261.06 421.74 261.86 422.26 262.5C422.82 263.1 423.56 263.4 424.48 263.4H426.28V267H423.82Z" fill="url(#paint0_linear_178_4942)"/>
</g>
<path d="M180.187 215.428C133.299 260.34 175.686 294.539 202.74 306.025C182.916 319.221 171.927 315.006 168.91 311.249V295.541C165.402 300.777 156.886 311.249 150.882 311.249H136.588L158.387 289.53C150.115 295.028 131.474 306.025 123.085 306.025C114.696 306.025 106.565 302.018 103.548 300.014L150.882 276.077C133.847 282.815 98.2761 296.142 92.2714 295.541C86.2668 294.94 78.7322 286.799 75.7155 282.803L150.882 260.333L70.4722 271.568C54.8428 266.759 52.4438 252.104 53.198 245.377L150.882 236.396C123.827 235.644 66.414 233.39 53.198 230.385C39.982 227.379 37.6596 211.17 38.1504 203.442L158.387 215.428C132.59 208.69 74.2287 192.665 47.1646 182.474C20.1005 172.284 18.8651 140.301 21.6304 125.583L164.385 195.212C122.558 166.767 35.4497 106.133 21.6304 91.1622C7.81103 76.1915 15.8723 39.483 21.6304 23L211 182.474L180.187 215.428Z" fill="url(#paint1_linear_178_4942)"/>
<defs>
<filter id="filter0_dd_178_4942" x="197.461" y="224.94" width="232.818" height="50.4795" filterUnits="userSpaceOnUse" color-interpolation-filters="sRGB">
<feFlood flood-opacity="0" result="BackgroundImageFix"/>
<feColorMatrix in="SourceAlpha" type="matrix" values="0 0 0 0 0 0 0 0 0 0 0 0 0 0 0 0 0 0 127 0" result="hardAlpha"/>
<feOffset dy="4"/>
<feGaussianBlur stdDeviation="2"/>
<feComposite in2="hardAlpha" operator="out"/>
<feColorMatrix type="matrix" values="0 0 0 0 0 0 0 0 0 0 0 0 0 0 0 0 0 0 0.25 0"/>
<feBlend mode="normal" in2="BackgroundImageFix" result="effect1_dropShadow_178_4942"/>
<feColorMatrix in="SourceAlpha" type="matrix" values="0 0 0 0 0 0 0 0 0 0 0 0 0 0 0 0 0 0 127 0" result="hardAlpha"/>
<feOffset dy="4"/>
<feGaussianBlur stdDeviation="2"/>
<feComposite in2="hardAlpha" operator="out"/>
<feColorMatrix type="matrix" values="0 0 0 0 0 0 0 0 0 0 0 0 0 0 0 0 0 0 0.25 0"/>
<feBlend mode="normal" in2="effect1_dropShadow_178_4942" result="effect2_dropShadow_178_4942"/>
<feBlend mode="normal" in="SourceGraphic" in2="effect2_dropShadow_178_4942" result="shape"/>
</filter>
<linearGradient id="paint0_linear_178_4942" x1="316.5" y1="213" x2="316.5" y2="281" gradientUnits="userSpaceOnUse">
<stop stop-color="#FF9900"/>
<stop offset="1" stop-color="#FFC700"/>
</linearGradient>
<linearGradient id="paint1_linear_178_4942" x1="112.5" y1="23" x2="112.5" y2="315" gradientUnits="userSpaceOnUse">
<stop stop-color="#FF9900"/>
<stop offset="1" stop-color="#FFC700"/>
</linearGradient>
</defs>
</svg>
