<svg width="459" height="337" viewBox="0 0 459 337" fill="none" xmlns="http://www.w3.org/2000/svg">
<g filter="url(#filter0_dii_188_7555)">
<mask id="path-1-outside-1_188_7555" maskUnits="userSpaceOnUse" x="44" y="194" width="371" height="126" fill="black">
<rect fill="white" x="44" y="194" width="371" height="126"/>
<path d="M151.436 205.686C156.787 209.029 159.463 212.273 159.463 215.418C159.463 217.286 158.207 219.891 155.695 223.233L120.311 270.861V299.024C120.311 301.285 120.202 303.005 119.983 304.185C119.874 305.266 119.383 306.544 118.509 308.019C117.635 309.493 116.161 310.525 114.086 311.115C112.011 311.705 109.226 312 105.731 312C102.237 312 99.4518 311.705 97.3768 311.115C95.3018 310.525 93.8274 309.493 92.9538 308.019C92.0801 306.446 91.534 305.119 91.3156 304.038C91.2064 302.858 91.1518 301.088 91.1518 298.729V270.861L55.7677 223.233C53.2559 219.891 52 217.286 52 215.418C52 212.273 54.4026 209.274 59.2079 206.424C64.0131 203.475 67.4532 202 69.5282 202C71.6032 202 73.2414 202.393 74.4427 203.18C76.2992 204.261 78.265 206.276 80.34 209.225L105.731 245.794L131.123 209.225C133.198 206.276 135 204.359 136.529 203.475C138.058 202.492 139.805 202 141.771 202C143.846 202 147.067 203.229 151.436 205.686Z"/>
<path d="M197.394 285.606H247.849C250.36 285.606 252.217 285.704 253.418 285.901C254.729 285.999 256.203 286.441 257.841 287.228C260.79 288.604 262.264 292.438 262.264 298.729C262.264 305.61 260.244 309.641 256.203 310.82C254.347 311.41 251.507 311.705 247.685 311.705H182.814C175.169 311.705 170.692 309.837 169.381 306.102C168.726 304.529 168.398 302.022 168.398 298.582V216.598C168.398 211.584 169.436 208.193 171.511 206.424C173.586 204.556 177.517 203.622 183.305 203.622H247.849C250.36 203.622 252.217 203.72 253.418 203.917C254.729 204.015 256.203 204.458 257.841 205.244C260.79 206.62 262.264 210.454 262.264 216.745C262.264 223.626 260.244 227.657 256.203 228.836C254.347 229.426 251.507 229.721 247.685 229.721H197.394V244.614H229.829C232.341 244.614 234.197 244.712 235.399 244.909C236.709 245.007 238.183 245.45 239.822 246.236C242.77 247.612 244.245 251.446 244.245 257.737C244.245 264.618 242.17 268.649 238.02 269.828C236.163 270.418 233.324 270.713 229.501 270.713H197.394V285.606Z"/>
<path d="M361.486 225.445C364.326 230.655 365.746 236.455 365.746 242.845C365.746 249.234 364.326 255.034 361.486 260.244C358.647 265.356 354.988 269.435 350.511 272.483C341.446 278.774 332.054 281.92 322.334 281.92H301.858V298.582C301.858 300.843 301.748 302.563 301.53 303.743C301.421 304.824 300.929 306.102 300.056 307.576C298.527 310.231 294.268 311.558 287.278 311.558C279.633 311.558 275.156 309.739 273.845 306.102C273.19 304.431 272.862 301.875 272.862 298.434V216.598C272.862 214.337 272.917 212.666 273.026 211.584C273.245 210.405 273.791 209.078 274.664 207.603C276.193 204.949 280.452 203.622 287.442 203.622H322.498C332.109 203.622 341.446 206.768 350.511 213.059C354.988 216.106 358.647 220.235 361.486 225.445ZM322.498 255.82C325.775 255.82 328.996 254.739 332.163 252.576C335.33 250.414 336.914 247.17 336.914 242.845C336.914 238.519 335.33 235.275 332.163 233.113C328.996 230.852 325.72 229.721 322.334 229.721H301.858V255.82H322.498Z"/>
<path d="M378.005 289.292C379.097 287.326 380.735 285.999 382.919 285.311C385.213 284.623 388.707 284.279 393.403 284.279C398.209 284.279 401.649 285.213 403.724 287.08C405.908 288.948 407 291.897 407 295.928V298.287C407 300.646 406.891 302.416 406.672 303.595C406.563 304.676 406.072 306.004 405.198 307.576C403.451 310.427 399.246 311.853 392.584 311.853C386.032 311.853 381.663 310.919 379.479 309.051C377.404 307.085 376.367 303.349 376.367 297.845C376.367 294.011 376.913 291.16 378.005 289.292ZM399.956 272.04C397.881 272.532 395.096 272.777 391.601 272.777C388.107 272.777 385.322 272.532 383.247 272.04C381.172 271.549 379.697 270.664 378.824 269.386C378.059 268.108 377.568 266.978 377.349 265.995C377.24 265.012 377.186 263.488 377.186 261.424V214.681C377.186 212.617 377.24 211.093 377.349 210.11C377.568 209.029 378.114 207.849 378.988 206.571C379.861 205.293 381.336 204.408 383.411 203.917C385.486 203.327 388.27 203.032 391.765 203.032C395.26 203.032 398.045 203.327 400.12 203.917C402.195 204.408 403.615 205.342 404.379 206.718C405.253 207.996 405.744 209.176 405.853 210.257C406.072 211.24 406.181 212.764 406.181 214.828V261.571C406.181 263.635 406.072 265.159 405.853 266.142C405.744 267.125 405.253 268.256 404.379 269.534C403.505 270.713 402.031 271.549 399.956 272.04Z"/>
</mask>
<path d="M151.436 205.686C156.787 209.029 159.463 212.273 159.463 215.418C159.463 217.286 158.207 219.891 155.695 223.233L120.311 270.861V299.024C120.311 301.285 120.202 303.005 119.983 304.185C119.874 305.266 119.383 306.544 118.509 308.019C117.635 309.493 116.161 310.525 114.086 311.115C112.011 311.705 109.226 312 105.731 312C102.237 312 99.4518 311.705 97.3768 311.115C95.3018 310.525 93.8274 309.493 92.9538 308.019C92.0801 306.446 91.534 305.119 91.3156 304.038C91.2064 302.858 91.1518 301.088 91.1518 298.729V270.861L55.7677 223.233C53.2559 219.891 52 217.286 52 215.418C52 212.273 54.4026 209.274 59.2079 206.424C64.0131 203.475 67.4532 202 69.5282 202C71.6032 202 73.2414 202.393 74.4427 203.18C76.2992 204.261 78.265 206.276 80.34 209.225L105.731 245.794L131.123 209.225C133.198 206.276 135 204.359 136.529 203.475C138.058 202.492 139.805 202 141.771 202C143.846 202 147.067 203.229 151.436 205.686Z" fill="#DA4949"/>
<path d="M197.394 285.606H247.849C250.36 285.606 252.217 285.704 253.418 285.901C254.729 285.999 256.203 286.441 257.841 287.228C260.79 288.604 262.264 292.438 262.264 298.729C262.264 305.61 260.244 309.641 256.203 310.82C254.347 311.41 251.507 311.705 247.685 311.705H182.814C175.169 311.705 170.692 309.837 169.381 306.102C168.726 304.529 168.398 302.022 168.398 298.582V216.598C168.398 211.584 169.436 208.193 171.511 206.424C173.586 204.556 177.517 203.622 183.305 203.622H247.849C250.36 203.622 252.217 203.72 253.418 203.917C254.729 204.015 256.203 204.458 257.841 205.244C260.79 206.62 262.264 210.454 262.264 216.745C262.264 223.626 260.244 227.657 256.203 228.836C254.347 229.426 251.507 229.721 247.685 229.721H197.394V244.614H229.829C232.341 244.614 234.197 244.712 235.399 244.909C236.709 245.007 238.183 245.45 239.822 246.236C242.77 247.612 244.245 251.446 244.245 257.737C244.245 264.618 242.17 268.649 238.02 269.828C236.163 270.418 233.324 270.713 229.501 270.713H197.394V285.606Z" fill="#DA4949"/>
<path d="M361.486 225.445C364.326 230.655 365.746 236.455 365.746 242.845C365.746 249.234 364.326 255.034 361.486 260.244C358.647 265.356 354.988 269.435 350.511 272.483C341.446 278.774 332.054 281.92 322.334 281.92H301.858V298.582C301.858 300.843 301.748 302.563 301.53 303.743C301.421 304.824 300.929 306.102 300.056 307.576C298.527 310.231 294.268 311.558 287.278 311.558C279.633 311.558 275.156 309.739 273.845 306.102C273.19 304.431 272.862 301.875 272.862 298.434V216.598C272.862 214.337 272.917 212.666 273.026 211.584C273.245 210.405 273.791 209.078 274.664 207.603C276.193 204.949 280.452 203.622 287.442 203.622H322.498C332.109 203.622 341.446 206.768 350.511 213.059C354.988 216.106 358.647 220.235 361.486 225.445ZM322.498 255.82C325.775 255.82 328.996 254.739 332.163 252.576C335.33 250.414 336.914 247.17 336.914 242.845C336.914 238.519 335.33 235.275 332.163 233.113C328.996 230.852 325.72 229.721 322.334 229.721H301.858V255.82H322.498Z" fill="#DA4949"/>
<path d="M378.005 289.292C379.097 287.326 380.735 285.999 382.919 285.311C385.213 284.623 388.707 284.279 393.403 284.279C398.209 284.279 401.649 285.213 403.724 287.08C405.908 288.948 407 291.897 407 295.928V298.287C407 300.646 406.891 302.416 406.672 303.595C406.563 304.676 406.072 306.004 405.198 307.576C403.451 310.427 399.246 311.853 392.584 311.853C386.032 311.853 381.663 310.919 379.479 309.051C377.404 307.085 376.367 303.349 376.367 297.845C376.367 294.011 376.913 291.16 378.005 289.292ZM399.956 272.04C397.881 272.532 395.096 272.777 391.601 272.777C388.107 272.777 385.322 272.532 383.247 272.04C381.172 271.549 379.697 270.664 378.824 269.386C378.059 268.108 377.568 266.978 377.349 265.995C377.24 265.012 377.186 263.488 377.186 261.424V214.681C377.186 212.617 377.24 211.093 377.349 210.11C377.568 209.029 378.114 207.849 378.988 206.571C379.861 205.293 381.336 204.408 383.411 203.917C385.486 203.327 388.27 203.032 391.765 203.032C395.26 203.032 398.045 203.327 400.12 203.917C402.195 204.408 403.615 205.342 404.379 206.718C405.253 207.996 405.744 209.176 405.853 210.257C406.072 211.24 406.181 212.764 406.181 214.828V261.571C406.181 263.635 406.072 265.159 405.853 266.142C405.744 267.125 405.253 268.256 404.379 269.534C403.505 270.713 402.031 271.549 399.956 272.04Z" fill="#DA4949"/>
<path d="M151.436 205.686C156.787 209.029 159.463 212.273 159.463 215.418C159.463 217.286 158.207 219.891 155.695 223.233L120.311 270.861V299.024C120.311 301.285 120.202 303.005 119.983 304.185C119.874 305.266 119.383 306.544 118.509 308.019C117.635 309.493 116.161 310.525 114.086 311.115C112.011 311.705 109.226 312 105.731 312C102.237 312 99.4518 311.705 97.3768 311.115C95.3018 310.525 93.8274 309.493 92.9538 308.019C92.0801 306.446 91.534 305.119 91.3156 304.038C91.2064 302.858 91.1518 301.088 91.1518 298.729V270.861L55.7677 223.233C53.2559 219.891 52 217.286 52 215.418C52 212.273 54.4026 209.274 59.2079 206.424C64.0131 203.475 67.4532 202 69.5282 202C71.6032 202 73.2414 202.393 74.4427 203.18C76.2992 204.261 78.265 206.276 80.34 209.225L105.731 245.794L131.123 209.225C133.198 206.276 135 204.359 136.529 203.475C138.058 202.492 139.805 202 141.771 202C143.846 202 147.067 203.229 151.436 205.686Z" stroke="white" stroke-width="16" mask="url(#path-1-outside-1_188_7555)"/>
<path d="M197.394 285.606H247.849C250.36 285.606 252.217 285.704 253.418 285.901C254.729 285.999 256.203 286.441 257.841 287.228C260.79 288.604 262.264 292.438 262.264 298.729C262.264 305.61 260.244 309.641 256.203 310.82C254.347 311.41 251.507 311.705 247.685 311.705H182.814C175.169 311.705 170.692 309.837 169.381 306.102C168.726 304.529 168.398 302.022 168.398 298.582V216.598C168.398 211.584 169.436 208.193 171.511 206.424C173.586 204.556 177.517 203.622 183.305 203.622H247.849C250.36 203.622 252.217 203.72 253.418 203.917C254.729 204.015 256.203 204.458 257.841 205.244C260.79 206.62 262.264 210.454 262.264 216.745C262.264 223.626 260.244 227.657 256.203 228.836C254.347 229.426 251.507 229.721 247.685 229.721H197.394V244.614H229.829C232.341 244.614 234.197 244.712 235.399 244.909C236.709 245.007 238.183 245.45 239.822 246.236C242.77 247.612 244.245 251.446 244.245 257.737C244.245 264.618 242.17 268.649 238.02 269.828C236.163 270.418 233.324 270.713 229.501 270.713H197.394V285.606Z" stroke="white" stroke-width="16" mask="url(#path-1-outside-1_188_7555)"/>
<path d="M361.486 225.445C364.326 230.655 365.746 236.455 365.746 242.845C365.746 249.234 364.326 255.034 361.486 260.244C358.647 265.356 354.988 269.435 350.511 272.483C341.446 278.774 332.054 281.92 322.334 281.92H301.858V298.582C301.858 300.843 301.748 302.563 301.53 303.743C301.421 304.824 300.929 306.102 300.056 307.576C298.527 310.231 294.268 311.558 287.278 311.558C279.633 311.558 275.156 309.739 273.845 306.102C273.19 304.431 272.862 301.875 272.862 298.434V216.598C272.862 214.337 272.917 212.666 273.026 211.584C273.245 210.405 273.791 209.078 274.664 207.603C276.193 204.949 280.452 203.622 287.442 203.622H322.498C332.109 203.622 341.446 206.768 350.511 213.059C354.988 216.106 358.647 220.235 361.486 225.445ZM322.498 255.82C325.775 255.82 328.996 254.739 332.163 252.576C335.33 250.414 336.914 247.17 336.914 242.845C336.914 238.519 335.33 235.275 332.163 233.113C328.996 230.852 325.72 229.721 322.334 229.721H301.858V255.82H322.498Z" stroke="white" stroke-width="16" mask="url(#path-1-outside-1_188_7555)"/>
<path d="M378.005 289.292C379.097 287.326 380.735 285.999 382.919 285.311C385.213 284.623 388.707 284.279 393.403 284.279C398.209 284.279 401.649 285.213 403.724 287.08C405.908 288.948 407 291.897 407 295.928V298.287C407 300.646 406.891 302.416 406.672 303.595C406.563 304.676 406.072 306.004 405.198 307.576C403.451 310.427 399.246 311.853 392.584 311.853C386.032 311.853 381.663 310.919 379.479 309.051C377.404 307.085 376.367 303.349 376.367 297.845C376.367 294.011 376.913 291.16 378.005 289.292ZM399.956 272.04C397.881 272.532 395.096 272.777 391.601 272.777C388.107 272.777 385.322 272.532 383.247 272.04C381.172 271.549 379.697 270.664 378.824 269.386C378.059 268.108 377.568 266.978 377.349 265.995C377.24 265.012 377.186 263.488 377.186 261.424V214.681C377.186 212.617 377.24 211.093 377.349 210.11C377.568 209.029 378.114 207.849 378.988 206.571C379.861 205.293 381.336 204.408 383.411 203.917C385.486 203.327 388.27 203.032 391.765 203.032C395.26 203.032 398.045 203.327 400.12 203.917C402.195 204.408 403.615 205.342 404.379 206.718C405.253 207.996 405.744 209.176 405.853 210.257C406.072 211.24 406.181 212.764 406.181 214.828V261.571C406.181 263.635 406.072 265.159 405.853 266.142C405.744 267.125 405.253 268.256 404.379 269.534C403.505 270.713 402.031 271.549 399.956 272.04Z" stroke="white" stroke-width="16" mask="url(#path-1-outside-1_188_7555)"/>
</g>
<path d="M214.484 148.764H245.727V140.311L251.161 138.047C258.606 134.928 264.694 130.853 269.423 125.822C274.152 120.791 277.523 115.307 279.536 109.371H180.676C182.688 115.307 186.109 120.816 190.939 125.897C195.769 130.979 201.806 135.029 209.051 138.047L214.484 140.311V148.764ZM205.428 157.819V146.047C194.863 141.821 186.461 135.683 180.223 127.633C173.984 119.584 170.513 110.528 169.809 100.466H180.676V49.2999L290.554 37.0745V44.621L218.408 52.6204V65.7514H290.554V73.2979H218.408V100.466H290.403C289.799 110.528 286.327 119.584 279.988 127.633C273.649 135.683 265.247 141.821 254.783 146.047V157.819H205.428ZM203.315 65.7514H210.862V53.375L203.315 54.2806V65.7514ZM188.222 65.7514H195.769V55.0353L188.222 55.9409V65.7514ZM203.315 100.466H210.862V73.2979H203.315V100.466ZM188.222 100.466H195.769V73.2979H188.222V100.466Z" fill="white"/>
<defs>
<filter id="filter0_dii_188_7555" x="34" y="194" width="387" height="134" filterUnits="userSpaceOnUse" color-interpolation-filters="sRGB">
<feFlood flood-opacity="0" result="BackgroundImageFix"/>
<feColorMatrix in="SourceAlpha" type="matrix" values="0 0 0 0 0 0 0 0 0 0 0 0 0 0 0 0 0 0 127 0" result="hardAlpha"/>
<feOffset dy="4"/>
<feGaussianBlur stdDeviation="2"/>
<feComposite in2="hardAlpha" operator="out"/>
<feColorMatrix type="matrix" values="0 0 0 0 0 0 0 0 0 0 0 0 0 0 0 0 0 0 0.25 0"/>
<feBlend mode="normal" in2="BackgroundImageFix" result="effect1_dropShadow_188_7555"/>
<feBlend mode="normal" in="SourceGraphic" in2="effect1_dropShadow_188_7555" result="shape"/>
<feColorMatrix in="SourceAlpha" type="matrix" values="0 0 0 0 0 0 0 0 0 0 0 0 0 0 0 0 0 0 127 0" result="hardAlpha"/>
<feOffset dx="-10" dy="4"/>
<feGaussianBlur stdDeviation="5"/>
<feComposite in2="hardAlpha" operator="arithmetic" k2="-1" k3="1"/>
<feColorMatrix type="matrix" values="0 0 0 0 1 0 0 0 0 0.8625 0 0 0 0 0.8625 0 0 0 1 0"/>
<feBlend mode="normal" in2="shape" result="effect2_innerShadow_188_7555"/>
<feColorMatrix in="SourceAlpha" type="matrix" values="0 0 0 0 0 0 0 0 0 0 0 0 0 0 0 0 0 0 127 0" result="hardAlpha"/>
<feOffset dx="8" dy="11"/>
<feGaussianBlur stdDeviation="3"/>
<feComposite in2="hardAlpha" operator="arithmetic" k2="-1" k3="1"/>
<feColorMatrix type="matrix" values="0 0 0 0 0.770833 0 0 0 0 0.157378 0 0 0 0 0.157378 0 0 0 1 0"/>
<feBlend mode="normal" in2="effect2_innerShadow_188_7555" result="effect3_innerShadow_188_7555"/>
</filter>
</defs>
</svg>
